%TF.GenerationSoftware,KiCad,Pcbnew,8.0.5*%
%TF.CreationDate,2024-09-27T13:52:09+02:00*%
%TF.ProjectId,woagboard,776f6167-626f-4617-9264-2e6b69636164,rev?*%
%TF.SameCoordinates,Original*%
%TF.FileFunction,Profile,NP*%
%FSLAX46Y46*%
G04 Gerber Fmt 4.6, Leading zero omitted, Abs format (unit mm)*
G04 Created by KiCad (PCBNEW 8.0.5) date 2024-09-27 13:52:09*
%MOMM*%
%LPD*%
G01*
G04 APERTURE LIST*
%TA.AperFunction,Profile*%
%ADD10C,0.200000*%
%TD*%
%ADD11C,0.200000*%
%TA.AperFunction,Profile*%
%ADD12C,0.100000*%
%TD*%
G04 APERTURE END LIST*
D10*
X42568327Y-31996636D02*
X63007239Y-30925478D01*
X183321834Y-29115174D02*
X183346937Y-29834035D01*
X144600000Y-35669999D02*
G75*
G02*
X148215003Y-31571185I4137200J-5301D01*
G01*
D11*
X240135349Y-98220528D02*
X237939754Y-97929920D01*
X235813896Y-97656637D01*
X233757773Y-97400678D01*
X231771387Y-97162043D01*
X229854738Y-96940731D01*
X228007824Y-96736744D01*
X226230646Y-96550081D01*
X224523205Y-96380742D01*
X222885500Y-96228726D01*
X221317531Y-96094035D01*
X219819298Y-95976668D01*
X218390801Y-95876624D01*
X217032040Y-95793905D01*
X215743016Y-95728510D01*
X214523728Y-95680438D01*
X213374176Y-95649691D01*
X212294360Y-95636268D01*
X211284280Y-95640168D01*
X210343936Y-95661393D01*
X209473329Y-95699942D01*
X208672457Y-95755814D01*
X207941322Y-95829011D01*
X207279923Y-95919531D01*
X206688260Y-96027376D01*
X206166334Y-96152545D01*
X205714143Y-96295037D01*
X205331689Y-96454854D01*
X205018971Y-96631994D01*
X204775989Y-96826459D01*
X204602743Y-97038247D01*
X204499233Y-97267360D01*
X204465460Y-97513797D01*
D10*
X161415000Y-31242698D02*
G75*
G02*
X158915827Y-28571163I-84700J2425498D01*
G01*
X158915832Y-26610402D02*
X158915832Y-28571164D01*
X81843399Y-25819815D02*
G75*
G02*
X82456185Y-26476989I-22199J-634985D01*
G01*
X133960762Y-25250000D02*
G75*
G02*
X135500000Y-26789238I38J-1539200D01*
G01*
X148215000Y-26610402D02*
G75*
G02*
X149754238Y-25071200I1539200J2D01*
G01*
X264605897Y-50460560D02*
G75*
G02*
X265688248Y-51950248I-203697J-1286040D01*
G01*
X139100000Y-109472505D02*
G75*
G02*
X138938127Y-109956293I-803900J5D01*
G01*
X129509187Y-122468919D02*
G75*
G02*
X128315307Y-122638659I-682087J514019D01*
G01*
X79863461Y-103503130D02*
G75*
G02*
X78694766Y-102059799I112639J1286030D01*
G01*
X201243776Y-26476990D02*
G75*
G02*
X201856600Y-25819776I635024J22190D01*
G01*
X204485113Y-97824193D02*
X205005180Y-102059806D01*
X135500000Y-31750000D02*
G75*
G02*
X139100048Y-35300000I49700J-3550000D01*
G01*
X241131673Y-31996636D02*
X220692761Y-30925478D01*
X100972644Y-30498454D02*
X122285000Y-31242698D01*
X64337168Y-29572132D02*
X64445085Y-26481799D01*
X204485113Y-97824193D02*
G75*
G02*
X204465462Y-97513797I2619987J321693D01*
G01*
X205005180Y-102059806D02*
G75*
G02*
X203836534Y-103503076I-1281280J-157294D01*
G01*
X183941414Y-28450755D02*
X200651543Y-27867224D01*
X19094103Y-50460560D02*
X42055852Y-46823777D01*
D11*
X203836539Y-103503130D02*
X202235246Y-103659446D01*
X200634094Y-103847626D01*
X199033633Y-104067332D01*
X197434408Y-104318227D01*
X195836970Y-104599975D01*
X194241867Y-104912238D01*
X192649646Y-105254680D01*
X191060855Y-105626964D01*
X189476044Y-106028753D01*
X187895761Y-106459711D01*
X186320553Y-106919500D01*
X184750969Y-107407783D01*
X183187558Y-107924225D01*
X181630867Y-108468488D01*
X180081445Y-109040235D01*
X178539840Y-109639129D01*
X177006600Y-110264834D01*
X175482275Y-110917013D01*
X173967411Y-111595328D01*
X172462557Y-112299444D01*
X170968262Y-113029023D01*
X169485073Y-113783729D01*
X168013540Y-114563225D01*
X166554210Y-115367173D01*
X165107631Y-116195237D01*
X163674353Y-117047081D01*
X162254922Y-117922367D01*
X160849888Y-118820758D01*
X159459799Y-119741919D01*
X158085203Y-120685511D01*
X156726648Y-121651199D01*
X155384683Y-122638645D01*
D10*
X148215000Y-31571164D02*
X148215000Y-26610402D01*
X79214887Y-97824193D02*
X78694820Y-102059806D01*
X27072261Y-100832666D02*
X43564651Y-98220528D01*
X41349723Y-33350032D02*
G75*
G02*
X42568326Y-31996620I1285977J67432D01*
G01*
X124799168Y-26789238D02*
X124799168Y-28750000D01*
X183321834Y-29115174D02*
G75*
G02*
X183941417Y-28450834I641966J22374D01*
G01*
X217942636Y-25258078D02*
G75*
G02*
X219254921Y-26481799I44264J-1268022D01*
G01*
D11*
X79863461Y-103503130D02*
X81464753Y-103659446D01*
X83065905Y-103847626D01*
X84666366Y-104067332D01*
X86265591Y-104318227D01*
X87863029Y-104599975D01*
X89458132Y-104912238D01*
X91050353Y-105254680D01*
X92639144Y-105626964D01*
X94223955Y-106028753D01*
X95804238Y-106459711D01*
X97379446Y-106919500D01*
X98949030Y-107407783D01*
X100512441Y-107924225D01*
X102069132Y-108468488D01*
X103618554Y-109040235D01*
X105160159Y-109639129D01*
X106693399Y-110264834D01*
X108217724Y-110917013D01*
X109732588Y-111595328D01*
X111237442Y-112299444D01*
X112731737Y-113029023D01*
X114214926Y-113783729D01*
X115686459Y-114563225D01*
X117145789Y-115367173D01*
X118592368Y-116195237D01*
X120025646Y-117047081D01*
X121445077Y-117922367D01*
X122850111Y-118820758D01*
X124240200Y-119741919D01*
X125614796Y-120685511D01*
X126973351Y-121651199D01*
X128315317Y-122638645D01*
D10*
X64445085Y-26481799D02*
G75*
G02*
X65757364Y-25258084I1268015J-44301D01*
G01*
X99758586Y-28450755D02*
X83048457Y-27867224D01*
X124799168Y-26789238D02*
G75*
G02*
X126338406Y-25249968I1539232J38D01*
G01*
X264605897Y-50460560D02*
X241644148Y-46823777D01*
X220692761Y-30925478D02*
G75*
G02*
X219362851Y-29572131I73539J1402378D01*
G01*
X139100000Y-41100000D02*
X139100000Y-92250000D01*
X99758586Y-28450755D02*
G75*
G02*
X100378245Y-29115177I-22386J-642045D01*
G01*
X133960762Y-25250000D02*
X126338406Y-25250000D01*
X201243776Y-26476990D02*
X201269194Y-27204875D01*
X129509187Y-122468919D02*
X138938127Y-109956293D01*
X64337168Y-29572132D02*
G75*
G02*
X63007240Y-30925497I-1403468J49032D01*
G01*
X82456224Y-26476990D02*
X82430806Y-27204875D01*
X42055852Y-46823777D02*
X41349723Y-33350032D01*
X18011786Y-51950243D02*
G75*
G02*
X19094102Y-50460557I1286004J203683D01*
G01*
X201856601Y-25819815D02*
X217942636Y-25258078D01*
X27072261Y-100832666D02*
G75*
G02*
X25582631Y-99750340I-203661J1285966D01*
G01*
X124799168Y-28750000D02*
G75*
G02*
X122284999Y-31242731I-2429368J-64000D01*
G01*
X155384683Y-122638645D02*
G75*
G02*
X154190827Y-122468909I-511783J683745D01*
G01*
X144761873Y-109956293D02*
G75*
G02*
X144600001Y-109472505I642027J483793D01*
G01*
X182727356Y-30498454D02*
X161415000Y-31242698D01*
X83048457Y-27867224D02*
G75*
G02*
X82430775Y-27204874I22343J640024D01*
G01*
X154190813Y-122468919D02*
X144761873Y-109956293D01*
X183346937Y-29834035D02*
G75*
G02*
X182727359Y-30498537I-642037J-22465D01*
G01*
X135500000Y-31750000D02*
X135500000Y-26789238D01*
X81843399Y-25819815D02*
X65757364Y-25258078D01*
X144600000Y-97680000D02*
X144600000Y-109472505D01*
X258117421Y-99750348D02*
X265688214Y-51950243D01*
X25582579Y-99750348D02*
X18011786Y-51950243D01*
X201269194Y-27204875D02*
G75*
G02*
X200651542Y-27867193I-639994J-22325D01*
G01*
X219362832Y-29572132D02*
X219254915Y-26481799D01*
D11*
X43564651Y-98220528D02*
X45760245Y-97929920D01*
X47886103Y-97656637D01*
X49942226Y-97400678D01*
X51928612Y-97162043D01*
X53845261Y-96940731D01*
X55692175Y-96736744D01*
X57469353Y-96550081D01*
X59176794Y-96380742D01*
X60814499Y-96228726D01*
X62382468Y-96094035D01*
X63880701Y-95976668D01*
X65309198Y-95876624D01*
X66667959Y-95793905D01*
X67956983Y-95728510D01*
X69176271Y-95680438D01*
X70325824Y-95649691D01*
X71405639Y-95636268D01*
X72415719Y-95640168D01*
X73356063Y-95661393D01*
X74226670Y-95699942D01*
X75027542Y-95755814D01*
X75758677Y-95829011D01*
X76420076Y-95919531D01*
X77011739Y-96027376D01*
X77533665Y-96152545D01*
X77985856Y-96295037D01*
X78368310Y-96454854D01*
X78681028Y-96631994D01*
X78924010Y-96826459D01*
X79097256Y-97038247D01*
X79200766Y-97267360D01*
X79234540Y-97513797D01*
D10*
X79234540Y-97513797D02*
G75*
G02*
X79214881Y-97824192I-2640240J11397D01*
G01*
X149754238Y-25071164D02*
X157376594Y-25071164D01*
X100972644Y-30498454D02*
G75*
G02*
X100353146Y-29834038I22456J641954D01*
G01*
X157376594Y-25071164D02*
G75*
G02*
X158915836Y-26610402I6J-1539236D01*
G01*
X144600000Y-40730000D02*
X144600000Y-92620000D01*
X241644148Y-46823777D02*
X242350277Y-33350032D01*
X256627739Y-100832666D02*
X240135349Y-98220528D01*
X258117421Y-99750348D02*
G75*
G02*
X256627731Y-100832718I-1286021J203648D01*
G01*
X139100000Y-98050000D02*
X139100000Y-109472505D01*
X100378166Y-29115174D02*
X100353063Y-29834035D01*
X241131673Y-31996636D02*
G75*
G02*
X242350261Y-33350031I-67373J-1285964D01*
G01*
D12*
%TO.C,Snap1*%
X140600000Y-90750000D02*
X140600000Y-92250000D01*
X140600000Y-98050000D02*
X140600000Y-99550000D01*
X143100000Y-92620000D02*
X143100000Y-90750000D01*
X143100000Y-99550000D02*
X143100000Y-97680000D01*
X139100000Y-98050000D02*
G75*
G02*
X140600000Y-98050000I750000J0D01*
G01*
X140600000Y-90750000D02*
G75*
G02*
X143100000Y-90750000I1250000J0D01*
G01*
X140600000Y-92250000D02*
G75*
G02*
X139100000Y-92250000I-750000J0D01*
G01*
X143100000Y-97680000D02*
G75*
G02*
X144600000Y-97680000I750000J0D01*
G01*
X143100000Y-99550000D02*
G75*
G02*
X140600000Y-99550000I-1250000J0D01*
G01*
X144600000Y-92620000D02*
G75*
G02*
X143100000Y-92620000I-750000J0D01*
G01*
%TO.C,Snap2*%
X140600000Y-33800000D02*
X140600000Y-35300000D01*
X140600000Y-41100000D02*
X140600000Y-42600000D01*
X143100000Y-35670000D02*
X143100000Y-33800000D01*
X143100000Y-42600000D02*
X143100000Y-40730000D01*
X139100000Y-41100000D02*
G75*
G02*
X140600000Y-41100000I750000J0D01*
G01*
X140600000Y-33800000D02*
G75*
G02*
X143100000Y-33800000I1250000J0D01*
G01*
X140600000Y-35300000D02*
G75*
G02*
X139100000Y-35300000I-750000J0D01*
G01*
X143100000Y-40730000D02*
G75*
G02*
X144600000Y-40730000I750000J0D01*
G01*
X143100000Y-42600000D02*
G75*
G02*
X140600000Y-42600000I-1250000J0D01*
G01*
X144600000Y-35670000D02*
G75*
G02*
X143100000Y-35670000I-750000J0D01*
G01*
%TD*%
M02*
