%TF.GenerationSoftware,KiCad,Pcbnew,8.0.5*%
%TF.CreationDate,2024-09-27T13:52:09+02:00*%
%TF.ProjectId,woagboard,776f6167-626f-4617-9264-2e6b69636164,rev?*%
%TF.SameCoordinates,Original*%
%TF.FileFunction,Other,Comment*%
%FSLAX46Y46*%
G04 Gerber Fmt 4.6, Leading zero omitted, Abs format (unit mm)*
G04 Created by KiCad (PCBNEW 8.0.5) date 2024-09-27 13:52:09*
%MOMM*%
%LPD*%
G01*
G04 APERTURE LIST*
%ADD10C,0.150000*%
G04 APERTURE END LIST*
D10*
X144418589Y-62064994D02*
X143418589Y-62064994D01*
X144418589Y-61493566D02*
X143847160Y-61922137D01*
X143418589Y-61493566D02*
X143990017Y-62064994D01*
X143894779Y-61064994D02*
X143894779Y-60731661D01*
X144418589Y-60588804D02*
X144418589Y-61064994D01*
X144418589Y-61064994D02*
X143418589Y-61064994D01*
X143418589Y-61064994D02*
X143418589Y-60588804D01*
X143894779Y-60160232D02*
X143894779Y-59826899D01*
X144418589Y-59684042D02*
X144418589Y-60160232D01*
X144418589Y-60160232D02*
X143418589Y-60160232D01*
X143418589Y-60160232D02*
X143418589Y-59684042D01*
X144418589Y-59255470D02*
X143418589Y-59255470D01*
X143418589Y-59255470D02*
X143418589Y-58874518D01*
X143418589Y-58874518D02*
X143466208Y-58779280D01*
X143466208Y-58779280D02*
X143513827Y-58731661D01*
X143513827Y-58731661D02*
X143609065Y-58684042D01*
X143609065Y-58684042D02*
X143751922Y-58684042D01*
X143751922Y-58684042D02*
X143847160Y-58731661D01*
X143847160Y-58731661D02*
X143894779Y-58779280D01*
X143894779Y-58779280D02*
X143942398Y-58874518D01*
X143942398Y-58874518D02*
X143942398Y-59255470D01*
X144037636Y-58255470D02*
X144037636Y-57493566D01*
X143418589Y-56826899D02*
X143418589Y-56636423D01*
X143418589Y-56636423D02*
X143466208Y-56541185D01*
X143466208Y-56541185D02*
X143561446Y-56445947D01*
X143561446Y-56445947D02*
X143751922Y-56398328D01*
X143751922Y-56398328D02*
X144085255Y-56398328D01*
X144085255Y-56398328D02*
X144275731Y-56445947D01*
X144275731Y-56445947D02*
X144370970Y-56541185D01*
X144370970Y-56541185D02*
X144418589Y-56636423D01*
X144418589Y-56636423D02*
X144418589Y-56826899D01*
X144418589Y-56826899D02*
X144370970Y-56922137D01*
X144370970Y-56922137D02*
X144275731Y-57017375D01*
X144275731Y-57017375D02*
X144085255Y-57064994D01*
X144085255Y-57064994D02*
X143751922Y-57064994D01*
X143751922Y-57064994D02*
X143561446Y-57017375D01*
X143561446Y-57017375D02*
X143466208Y-56922137D01*
X143466208Y-56922137D02*
X143418589Y-56826899D01*
X143418589Y-55969756D02*
X144228112Y-55969756D01*
X144228112Y-55969756D02*
X144323350Y-55922137D01*
X144323350Y-55922137D02*
X144370970Y-55874518D01*
X144370970Y-55874518D02*
X144418589Y-55779280D01*
X144418589Y-55779280D02*
X144418589Y-55588804D01*
X144418589Y-55588804D02*
X144370970Y-55493566D01*
X144370970Y-55493566D02*
X144323350Y-55445947D01*
X144323350Y-55445947D02*
X144228112Y-55398328D01*
X144228112Y-55398328D02*
X143418589Y-55398328D01*
X143418589Y-55064994D02*
X143418589Y-54493566D01*
X144418589Y-54779280D02*
X143418589Y-54779280D01*
X143418589Y-53493565D02*
X143418589Y-52826899D01*
X143418589Y-52826899D02*
X144418589Y-53493565D01*
X144418589Y-53493565D02*
X144418589Y-52826899D01*
X143418589Y-52255470D02*
X143418589Y-52064994D01*
X143418589Y-52064994D02*
X143466208Y-51969756D01*
X143466208Y-51969756D02*
X143561446Y-51874518D01*
X143561446Y-51874518D02*
X143751922Y-51826899D01*
X143751922Y-51826899D02*
X144085255Y-51826899D01*
X144085255Y-51826899D02*
X144275731Y-51874518D01*
X144275731Y-51874518D02*
X144370970Y-51969756D01*
X144370970Y-51969756D02*
X144418589Y-52064994D01*
X144418589Y-52064994D02*
X144418589Y-52255470D01*
X144418589Y-52255470D02*
X144370970Y-52350708D01*
X144370970Y-52350708D02*
X144275731Y-52445946D01*
X144275731Y-52445946D02*
X144085255Y-52493565D01*
X144085255Y-52493565D02*
X143751922Y-52493565D01*
X143751922Y-52493565D02*
X143561446Y-52445946D01*
X143561446Y-52445946D02*
X143466208Y-52350708D01*
X143466208Y-52350708D02*
X143418589Y-52255470D01*
X144418589Y-51398327D02*
X143418589Y-51398327D01*
X143418589Y-51398327D02*
X144418589Y-50826899D01*
X144418589Y-50826899D02*
X143418589Y-50826899D01*
X143894779Y-50350708D02*
X143894779Y-50017375D01*
X144418589Y-49874518D02*
X144418589Y-50350708D01*
X144418589Y-50350708D02*
X143418589Y-50350708D01*
X143418589Y-50350708D02*
X143418589Y-49874518D01*
X146732874Y-58755470D02*
X146732874Y-58279280D01*
X147018589Y-58850708D02*
X146018589Y-58517375D01*
X146018589Y-58517375D02*
X147018589Y-58184042D01*
X146351922Y-57850708D02*
X147018589Y-57850708D01*
X146447160Y-57850708D02*
X146399541Y-57803089D01*
X146399541Y-57803089D02*
X146351922Y-57707851D01*
X146351922Y-57707851D02*
X146351922Y-57564994D01*
X146351922Y-57564994D02*
X146399541Y-57469756D01*
X146399541Y-57469756D02*
X146494779Y-57422137D01*
X146494779Y-57422137D02*
X147018589Y-57422137D01*
X146351922Y-57088803D02*
X146351922Y-56707851D01*
X146018589Y-56945946D02*
X146875731Y-56945946D01*
X146875731Y-56945946D02*
X146970970Y-56898327D01*
X146970970Y-56898327D02*
X147018589Y-56803089D01*
X147018589Y-56803089D02*
X147018589Y-56707851D01*
X146970970Y-55993565D02*
X147018589Y-56088803D01*
X147018589Y-56088803D02*
X147018589Y-56279279D01*
X147018589Y-56279279D02*
X146970970Y-56374517D01*
X146970970Y-56374517D02*
X146875731Y-56422136D01*
X146875731Y-56422136D02*
X146494779Y-56422136D01*
X146494779Y-56422136D02*
X146399541Y-56374517D01*
X146399541Y-56374517D02*
X146351922Y-56279279D01*
X146351922Y-56279279D02*
X146351922Y-56088803D01*
X146351922Y-56088803D02*
X146399541Y-55993565D01*
X146399541Y-55993565D02*
X146494779Y-55945946D01*
X146494779Y-55945946D02*
X146590017Y-55945946D01*
X146590017Y-55945946D02*
X146685255Y-56422136D01*
X146351922Y-55517374D02*
X147018589Y-55517374D01*
X146447160Y-55517374D02*
X146399541Y-55469755D01*
X146399541Y-55469755D02*
X146351922Y-55374517D01*
X146351922Y-55374517D02*
X146351922Y-55231660D01*
X146351922Y-55231660D02*
X146399541Y-55136422D01*
X146399541Y-55136422D02*
X146494779Y-55088803D01*
X146494779Y-55088803D02*
X147018589Y-55088803D01*
X146351922Y-54612612D02*
X147018589Y-54612612D01*
X146447160Y-54612612D02*
X146399541Y-54564993D01*
X146399541Y-54564993D02*
X146351922Y-54469755D01*
X146351922Y-54469755D02*
X146351922Y-54326898D01*
X146351922Y-54326898D02*
X146399541Y-54231660D01*
X146399541Y-54231660D02*
X146494779Y-54184041D01*
X146494779Y-54184041D02*
X147018589Y-54184041D01*
X147018589Y-53279279D02*
X146494779Y-53279279D01*
X146494779Y-53279279D02*
X146399541Y-53326898D01*
X146399541Y-53326898D02*
X146351922Y-53422136D01*
X146351922Y-53422136D02*
X146351922Y-53612612D01*
X146351922Y-53612612D02*
X146399541Y-53707850D01*
X146970970Y-53279279D02*
X147018589Y-53374517D01*
X147018589Y-53374517D02*
X147018589Y-53612612D01*
X147018589Y-53612612D02*
X146970970Y-53707850D01*
X146970970Y-53707850D02*
X146875731Y-53755469D01*
X146875731Y-53755469D02*
X146780493Y-53755469D01*
X146780493Y-53755469D02*
X146685255Y-53707850D01*
X146685255Y-53707850D02*
X146637636Y-53612612D01*
X146637636Y-53612612D02*
X146637636Y-53374517D01*
X146637636Y-53374517D02*
X146590017Y-53279279D01*
X140204819Y-61571428D02*
X139204819Y-61571428D01*
X140204819Y-61000000D02*
X139633390Y-61428571D01*
X139204819Y-61000000D02*
X139776247Y-61571428D01*
X139681009Y-60571428D02*
X139681009Y-60238095D01*
X140204819Y-60095238D02*
X140204819Y-60571428D01*
X140204819Y-60571428D02*
X139204819Y-60571428D01*
X139204819Y-60571428D02*
X139204819Y-60095238D01*
X139681009Y-59666666D02*
X139681009Y-59333333D01*
X140204819Y-59190476D02*
X140204819Y-59666666D01*
X140204819Y-59666666D02*
X139204819Y-59666666D01*
X139204819Y-59666666D02*
X139204819Y-59190476D01*
X140204819Y-58761904D02*
X139204819Y-58761904D01*
X139204819Y-58761904D02*
X139204819Y-58380952D01*
X139204819Y-58380952D02*
X139252438Y-58285714D01*
X139252438Y-58285714D02*
X139300057Y-58238095D01*
X139300057Y-58238095D02*
X139395295Y-58190476D01*
X139395295Y-58190476D02*
X139538152Y-58190476D01*
X139538152Y-58190476D02*
X139633390Y-58238095D01*
X139633390Y-58238095D02*
X139681009Y-58285714D01*
X139681009Y-58285714D02*
X139728628Y-58380952D01*
X139728628Y-58380952D02*
X139728628Y-58761904D01*
X139823866Y-57761904D02*
X139823866Y-57000000D01*
X139204819Y-56333333D02*
X139204819Y-56142857D01*
X139204819Y-56142857D02*
X139252438Y-56047619D01*
X139252438Y-56047619D02*
X139347676Y-55952381D01*
X139347676Y-55952381D02*
X139538152Y-55904762D01*
X139538152Y-55904762D02*
X139871485Y-55904762D01*
X139871485Y-55904762D02*
X140061961Y-55952381D01*
X140061961Y-55952381D02*
X140157200Y-56047619D01*
X140157200Y-56047619D02*
X140204819Y-56142857D01*
X140204819Y-56142857D02*
X140204819Y-56333333D01*
X140204819Y-56333333D02*
X140157200Y-56428571D01*
X140157200Y-56428571D02*
X140061961Y-56523809D01*
X140061961Y-56523809D02*
X139871485Y-56571428D01*
X139871485Y-56571428D02*
X139538152Y-56571428D01*
X139538152Y-56571428D02*
X139347676Y-56523809D01*
X139347676Y-56523809D02*
X139252438Y-56428571D01*
X139252438Y-56428571D02*
X139204819Y-56333333D01*
X139204819Y-55476190D02*
X140014342Y-55476190D01*
X140014342Y-55476190D02*
X140109580Y-55428571D01*
X140109580Y-55428571D02*
X140157200Y-55380952D01*
X140157200Y-55380952D02*
X140204819Y-55285714D01*
X140204819Y-55285714D02*
X140204819Y-55095238D01*
X140204819Y-55095238D02*
X140157200Y-55000000D01*
X140157200Y-55000000D02*
X140109580Y-54952381D01*
X140109580Y-54952381D02*
X140014342Y-54904762D01*
X140014342Y-54904762D02*
X139204819Y-54904762D01*
X139204819Y-54571428D02*
X139204819Y-54000000D01*
X140204819Y-54285714D02*
X139204819Y-54285714D01*
X139204819Y-52999999D02*
X139204819Y-52333333D01*
X139204819Y-52333333D02*
X140204819Y-52999999D01*
X140204819Y-52999999D02*
X140204819Y-52333333D01*
X139204819Y-51761904D02*
X139204819Y-51571428D01*
X139204819Y-51571428D02*
X139252438Y-51476190D01*
X139252438Y-51476190D02*
X139347676Y-51380952D01*
X139347676Y-51380952D02*
X139538152Y-51333333D01*
X139538152Y-51333333D02*
X139871485Y-51333333D01*
X139871485Y-51333333D02*
X140061961Y-51380952D01*
X140061961Y-51380952D02*
X140157200Y-51476190D01*
X140157200Y-51476190D02*
X140204819Y-51571428D01*
X140204819Y-51571428D02*
X140204819Y-51761904D01*
X140204819Y-51761904D02*
X140157200Y-51857142D01*
X140157200Y-51857142D02*
X140061961Y-51952380D01*
X140061961Y-51952380D02*
X139871485Y-51999999D01*
X139871485Y-51999999D02*
X139538152Y-51999999D01*
X139538152Y-51999999D02*
X139347676Y-51952380D01*
X139347676Y-51952380D02*
X139252438Y-51857142D01*
X139252438Y-51857142D02*
X139204819Y-51761904D01*
X140204819Y-50904761D02*
X139204819Y-50904761D01*
X139204819Y-50904761D02*
X140204819Y-50333333D01*
X140204819Y-50333333D02*
X139204819Y-50333333D01*
X139681009Y-49857142D02*
X139681009Y-49523809D01*
X140204819Y-49380952D02*
X140204819Y-49857142D01*
X140204819Y-49857142D02*
X139204819Y-49857142D01*
X139204819Y-49857142D02*
X139204819Y-49380952D01*
X137319104Y-58261904D02*
X137319104Y-57785714D01*
X137604819Y-58357142D02*
X136604819Y-58023809D01*
X136604819Y-58023809D02*
X137604819Y-57690476D01*
X136938152Y-57357142D02*
X137604819Y-57357142D01*
X137033390Y-57357142D02*
X136985771Y-57309523D01*
X136985771Y-57309523D02*
X136938152Y-57214285D01*
X136938152Y-57214285D02*
X136938152Y-57071428D01*
X136938152Y-57071428D02*
X136985771Y-56976190D01*
X136985771Y-56976190D02*
X137081009Y-56928571D01*
X137081009Y-56928571D02*
X137604819Y-56928571D01*
X136938152Y-56595237D02*
X136938152Y-56214285D01*
X136604819Y-56452380D02*
X137461961Y-56452380D01*
X137461961Y-56452380D02*
X137557200Y-56404761D01*
X137557200Y-56404761D02*
X137604819Y-56309523D01*
X137604819Y-56309523D02*
X137604819Y-56214285D01*
X137557200Y-55499999D02*
X137604819Y-55595237D01*
X137604819Y-55595237D02*
X137604819Y-55785713D01*
X137604819Y-55785713D02*
X137557200Y-55880951D01*
X137557200Y-55880951D02*
X137461961Y-55928570D01*
X137461961Y-55928570D02*
X137081009Y-55928570D01*
X137081009Y-55928570D02*
X136985771Y-55880951D01*
X136985771Y-55880951D02*
X136938152Y-55785713D01*
X136938152Y-55785713D02*
X136938152Y-55595237D01*
X136938152Y-55595237D02*
X136985771Y-55499999D01*
X136985771Y-55499999D02*
X137081009Y-55452380D01*
X137081009Y-55452380D02*
X137176247Y-55452380D01*
X137176247Y-55452380D02*
X137271485Y-55928570D01*
X136938152Y-55023808D02*
X137604819Y-55023808D01*
X137033390Y-55023808D02*
X136985771Y-54976189D01*
X136985771Y-54976189D02*
X136938152Y-54880951D01*
X136938152Y-54880951D02*
X136938152Y-54738094D01*
X136938152Y-54738094D02*
X136985771Y-54642856D01*
X136985771Y-54642856D02*
X137081009Y-54595237D01*
X137081009Y-54595237D02*
X137604819Y-54595237D01*
X136938152Y-54119046D02*
X137604819Y-54119046D01*
X137033390Y-54119046D02*
X136985771Y-54071427D01*
X136985771Y-54071427D02*
X136938152Y-53976189D01*
X136938152Y-53976189D02*
X136938152Y-53833332D01*
X136938152Y-53833332D02*
X136985771Y-53738094D01*
X136985771Y-53738094D02*
X137081009Y-53690475D01*
X137081009Y-53690475D02*
X137604819Y-53690475D01*
X137604819Y-52785713D02*
X137081009Y-52785713D01*
X137081009Y-52785713D02*
X136985771Y-52833332D01*
X136985771Y-52833332D02*
X136938152Y-52928570D01*
X136938152Y-52928570D02*
X136938152Y-53119046D01*
X136938152Y-53119046D02*
X136985771Y-53214284D01*
X137557200Y-52785713D02*
X137604819Y-52880951D01*
X137604819Y-52880951D02*
X137604819Y-53119046D01*
X137604819Y-53119046D02*
X137557200Y-53214284D01*
X137557200Y-53214284D02*
X137461961Y-53261903D01*
X137461961Y-53261903D02*
X137366723Y-53261903D01*
X137366723Y-53261903D02*
X137271485Y-53214284D01*
X137271485Y-53214284D02*
X137223866Y-53119046D01*
X137223866Y-53119046D02*
X137223866Y-52880951D01*
X137223866Y-52880951D02*
X137176247Y-52785713D01*
X107937455Y-51999273D02*
X107461554Y-51982654D01*
X107461554Y-51982654D02*
X107496454Y-50983263D01*
X108288866Y-51487416D02*
X108621996Y-51499049D01*
X108746486Y-52027525D02*
X108270585Y-52010906D01*
X108270585Y-52010906D02*
X108305485Y-51011515D01*
X108305485Y-51011515D02*
X108781385Y-51028134D01*
X109174796Y-52042482D02*
X109209696Y-51043091D01*
X109209696Y-51043091D02*
X109447646Y-51051401D01*
X109447646Y-51051401D02*
X109588754Y-51103976D01*
X109588754Y-51103976D02*
X109680610Y-51202480D01*
X109680610Y-51202480D02*
X109724877Y-51299322D01*
X109724877Y-51299322D02*
X109765819Y-51491344D01*
X109765819Y-51491344D02*
X109760834Y-51634114D01*
X109760834Y-51634114D02*
X109706596Y-51822812D01*
X109706596Y-51822812D02*
X109655682Y-51916331D01*
X109655682Y-51916331D02*
X109557178Y-52008187D01*
X109557178Y-52008187D02*
X109412746Y-52050791D01*
X109412746Y-52050791D02*
X109174796Y-52042482D01*
M02*
