%TF.GenerationSoftware,KiCad,Pcbnew,8.0.5*%
%TF.CreationDate,2024-09-26T18:21:41+02:00*%
%TF.ProjectId,woagboard,776f6167-626f-4617-9264-2e6b69636164,rev?*%
%TF.SameCoordinates,Original*%
%TF.FileFunction,Soldermask,Top*%
%TF.FilePolarity,Negative*%
%FSLAX46Y46*%
G04 Gerber Fmt 4.6, Leading zero omitted, Abs format (unit mm)*
G04 Created by KiCad (PCBNEW 8.0.5) date 2024-09-26 18:21:41*
%MOMM*%
%LPD*%
G01*
G04 APERTURE LIST*
G04 Aperture macros list*
%AMRoundRect*
0 Rectangle with rounded corners*
0 $1 Rounding radius*
0 $2 $3 $4 $5 $6 $7 $8 $9 X,Y pos of 4 corners*
0 Add a 4 corners polygon primitive as box body*
4,1,4,$2,$3,$4,$5,$6,$7,$8,$9,$2,$3,0*
0 Add four circle primitives for the rounded corners*
1,1,$1+$1,$2,$3*
1,1,$1+$1,$4,$5*
1,1,$1+$1,$6,$7*
1,1,$1+$1,$8,$9*
0 Add four rect primitives between the rounded corners*
20,1,$1+$1,$2,$3,$4,$5,0*
20,1,$1+$1,$4,$5,$6,$7,0*
20,1,$1+$1,$6,$7,$8,$9,0*
20,1,$1+$1,$8,$9,$2,$3,0*%
%AMFreePoly0*
4,1,19,0.500000,-0.750000,0.000000,-0.750000,0.000000,-0.744911,-0.071157,-0.744911,-0.207708,-0.704816,-0.327430,-0.627875,-0.420627,-0.520320,-0.479746,-0.390866,-0.500000,-0.250000,-0.500000,0.250000,-0.479746,0.390866,-0.420627,0.520320,-0.327430,0.627875,-0.207708,0.704816,-0.071157,0.744911,0.000000,0.744911,0.000000,0.750000,0.500000,0.750000,0.500000,-0.750000,0.500000,-0.750000,
$1*%
%AMFreePoly1*
4,1,19,0.000000,0.744911,0.071157,0.744911,0.207708,0.704816,0.327430,0.627875,0.420627,0.520320,0.479746,0.390866,0.500000,0.250000,0.500000,-0.250000,0.479746,-0.390866,0.420627,-0.520320,0.327430,-0.627875,0.207708,-0.704816,0.071157,-0.744911,0.000000,-0.744911,0.000000,-0.750000,-0.500000,-0.750000,-0.500000,0.750000,0.000000,0.750000,0.000000,0.744911,0.000000,0.744911,
$1*%
G04 Aperture macros list end*
%ADD10RoundRect,0.243750X-0.456250X0.243750X-0.456250X-0.243750X0.456250X-0.243750X0.456250X0.243750X0*%
%ADD11RoundRect,0.243750X0.456250X-0.243750X0.456250X0.243750X-0.456250X0.243750X-0.456250X-0.243750X0*%
%ADD12RoundRect,0.140000X0.140000X0.170000X-0.140000X0.170000X-0.140000X-0.170000X0.140000X-0.170000X0*%
%ADD13RoundRect,0.135000X-0.135000X-0.185000X0.135000X-0.185000X0.135000X0.185000X-0.135000X0.185000X0*%
%ADD14RoundRect,0.140000X-0.140000X-0.170000X0.140000X-0.170000X0.140000X0.170000X-0.140000X0.170000X0*%
%ADD15RoundRect,0.200000X0.200000X-0.500000X0.200000X0.500000X-0.200000X0.500000X-0.200000X-0.500000X0*%
%ADD16RoundRect,0.200000X0.500000X0.200000X-0.500000X0.200000X-0.500000X-0.200000X0.500000X-0.200000X0*%
%ADD17RoundRect,0.200000X0.200000X0.200000X-0.200000X0.200000X-0.200000X-0.200000X0.200000X-0.200000X0*%
%ADD18RoundRect,0.140000X0.170000X-0.140000X0.170000X0.140000X-0.170000X0.140000X-0.170000X-0.140000X0*%
%ADD19RoundRect,0.250000X0.650000X-0.250000X0.650000X0.250000X-0.650000X0.250000X-0.650000X-0.250000X0*%
%ADD20R,1.700000X1.700000*%
%ADD21O,1.700000X1.700000*%
%ADD22FreePoly0,0.000000*%
%ADD23FreePoly1,0.000000*%
%ADD24FreePoly0,180.000000*%
%ADD25FreePoly1,180.000000*%
%ADD26C,0.650000*%
%ADD27R,0.600000X1.450000*%
%ADD28R,0.300000X1.450000*%
%ADD29O,1.000000X2.100000*%
%ADD30O,1.000000X1.600000*%
%ADD31C,0.600000*%
%ADD32C,2.400000*%
%ADD33RoundRect,0.250000X-0.650000X0.250000X-0.650000X-0.250000X0.650000X-0.250000X0.650000X0.250000X0*%
%ADD34RoundRect,0.140000X-0.170000X0.140000X-0.170000X-0.140000X0.170000X-0.140000X0.170000X0.140000X0*%
%ADD35RoundRect,0.135000X0.135000X0.185000X-0.135000X0.185000X-0.135000X-0.185000X0.135000X-0.185000X0*%
%ADD36RoundRect,0.147500X-0.172500X0.147500X-0.172500X-0.147500X0.172500X-0.147500X0.172500X0.147500X0*%
%ADD37RoundRect,0.218750X0.218750X0.256250X-0.218750X0.256250X-0.218750X-0.256250X0.218750X-0.256250X0*%
%ADD38C,0.800000*%
%ADD39RoundRect,0.102000X0.525000X-0.700000X0.525000X0.700000X-0.525000X0.700000X-0.525000X-0.700000X0*%
%ADD40RoundRect,0.062500X0.062500X-0.350000X0.062500X0.350000X-0.062500X0.350000X-0.062500X-0.350000X0*%
%ADD41RoundRect,0.062500X0.350000X-0.062500X0.350000X0.062500X-0.350000X0.062500X-0.350000X-0.062500X0*%
%ADD42R,1.680000X1.680000*%
%ADD43RoundRect,0.150000X0.150000X-0.512500X0.150000X0.512500X-0.150000X0.512500X-0.150000X-0.512500X0*%
%ADD44RoundRect,0.218750X-0.256250X0.218750X-0.256250X-0.218750X0.256250X-0.218750X0.256250X0.218750X0*%
%ADD45RoundRect,0.200000X-0.200000X0.500000X-0.200000X-0.500000X0.200000X-0.500000X0.200000X0.500000X0*%
%ADD46RoundRect,0.200000X-0.500000X-0.200000X0.500000X-0.200000X0.500000X0.200000X-0.500000X0.200000X0*%
%ADD47RoundRect,0.200000X-0.200000X-0.200000X0.200000X-0.200000X0.200000X0.200000X-0.200000X0.200000X0*%
%ADD48RoundRect,0.200000X-0.200000X-0.275000X0.200000X-0.275000X0.200000X0.275000X-0.200000X0.275000X0*%
%ADD49RoundRect,0.062500X0.350000X0.062500X-0.350000X0.062500X-0.350000X-0.062500X0.350000X-0.062500X0*%
%ADD50RoundRect,0.062500X0.062500X0.350000X-0.062500X0.350000X-0.062500X-0.350000X0.062500X-0.350000X0*%
%ADD51RoundRect,0.102000X-0.525000X0.700000X-0.525000X-0.700000X0.525000X-0.700000X0.525000X0.700000X0*%
%ADD52RoundRect,0.135000X-0.185000X0.135000X-0.185000X-0.135000X0.185000X-0.135000X0.185000X0.135000X0*%
%ADD53RoundRect,0.200000X0.200000X0.275000X-0.200000X0.275000X-0.200000X-0.275000X0.200000X-0.275000X0*%
%ADD54C,1.700000*%
%ADD55C,3.400000*%
%ADD56RoundRect,0.250000X-0.625000X0.350000X-0.625000X-0.350000X0.625000X-0.350000X0.625000X0.350000X0*%
%ADD57O,1.750000X1.200000*%
%ADD58RoundRect,0.250000X0.625000X-0.350000X0.625000X0.350000X-0.625000X0.350000X-0.625000X-0.350000X0*%
G04 APERTURE END LIST*
D10*
%TO.C,LED4*%
X146750000Y-36312500D03*
X146750000Y-38187500D03*
%TD*%
D11*
%TO.C,LED3*%
X136950000Y-38187500D03*
X136950000Y-36312500D03*
%TD*%
D12*
%TO.C,C5*%
X124250000Y-63250000D03*
X123290000Y-63250000D03*
%TD*%
D13*
%TO.C,R4*%
X154760000Y-74300000D03*
X153740000Y-74300000D03*
%TD*%
D14*
%TO.C,C4*%
X164520000Y-54900000D03*
X165480000Y-54900000D03*
%TD*%
D15*
%TO.C,U5*%
X148933770Y-62193566D03*
X150203770Y-62193566D03*
X151473770Y-62193566D03*
X152743770Y-62193566D03*
X154013770Y-62193566D03*
X155283770Y-62193566D03*
X156553770Y-62193566D03*
X157823770Y-62193566D03*
X159093770Y-62193566D03*
X160363770Y-62193566D03*
D16*
X162663770Y-60433566D03*
D17*
X160863770Y-59803566D03*
D16*
X162663770Y-59163566D03*
D17*
X160863770Y-58533566D03*
D16*
X162663770Y-57893566D03*
D17*
X160863770Y-57263566D03*
D16*
X162663770Y-56623566D03*
D17*
X160863770Y-55993566D03*
D16*
X162663770Y-55353566D03*
D17*
X160863770Y-54723566D03*
D16*
X162663770Y-54083566D03*
D17*
X160863770Y-53453566D03*
D16*
X162663770Y-52813566D03*
D17*
X160863770Y-52183566D03*
D16*
X162663770Y-51543566D03*
D15*
X160363770Y-49793566D03*
X159093770Y-49793566D03*
D17*
X158458770Y-51593566D03*
D15*
X157823770Y-49793566D03*
D17*
X157188770Y-51593566D03*
D15*
X156553770Y-49793566D03*
D17*
X155918770Y-51593566D03*
D15*
X155283770Y-49793566D03*
D17*
X154648770Y-51593566D03*
D15*
X154013770Y-49793566D03*
D17*
X153378770Y-51593566D03*
D15*
X152743770Y-49793566D03*
D17*
X152108770Y-51593566D03*
D15*
X151473770Y-49793566D03*
D17*
X150838770Y-51593566D03*
D15*
X150203770Y-49793566D03*
D17*
X149568770Y-51593566D03*
D15*
X148933770Y-49793566D03*
%TD*%
D18*
%TO.C,C15*%
X119000000Y-49980000D03*
X119000000Y-49020000D03*
%TD*%
D19*
%TO.C,Y1*%
X118750000Y-54000000D03*
X118750000Y-51500000D03*
%TD*%
D20*
%TO.C,J2*%
X164750000Y-69250000D03*
D21*
X162210000Y-69250000D03*
X159670000Y-69250000D03*
X157130000Y-69250000D03*
X154590000Y-69250000D03*
%TD*%
D22*
%TO.C,WOAG2*%
X160350000Y-33000000D03*
D23*
X161650000Y-33000000D03*
%TD*%
D24*
%TO.C,WOAG1*%
X122650000Y-33250000D03*
D25*
X121350000Y-33250000D03*
%TD*%
D26*
%TO.C,USB2*%
X156440000Y-30790000D03*
X150660000Y-30790000D03*
D27*
X156800000Y-32235000D03*
X156000000Y-32235000D03*
D28*
X154800000Y-32235000D03*
X153800000Y-32235000D03*
X153300000Y-32235000D03*
X152300000Y-32235000D03*
D27*
X151100000Y-32235000D03*
X150300000Y-32235000D03*
X150300000Y-32235000D03*
X151100000Y-32235000D03*
D28*
X151800000Y-32235000D03*
X152800000Y-32235000D03*
X154300000Y-32235000D03*
X155300000Y-32235000D03*
D27*
X156000000Y-32235000D03*
X156800000Y-32235000D03*
D29*
X157870000Y-31320000D03*
D30*
X157870000Y-27140000D03*
D29*
X149230000Y-31320000D03*
D30*
X149230000Y-27140000D03*
%TD*%
D13*
%TO.C,R3*%
X123490000Y-76500000D03*
X124510000Y-76500000D03*
%TD*%
D12*
%TO.C,C6*%
X124480000Y-78250000D03*
X123520000Y-78250000D03*
%TD*%
D31*
%TO.C,Snap1*%
X139050000Y-93145000D03*
X139050000Y-94145000D03*
X139050000Y-95150000D03*
X139050000Y-96150000D03*
X139050000Y-97155000D03*
D32*
X141850000Y-95150000D03*
D31*
X144575000Y-93650000D03*
X144575000Y-94650000D03*
X144575000Y-95650000D03*
X144575000Y-96650000D03*
%TD*%
D33*
%TO.C,Y2*%
X165068770Y-58243566D03*
X165068770Y-60743566D03*
%TD*%
D34*
%TO.C,C13*%
X126500000Y-81770000D03*
X126500000Y-82730000D03*
%TD*%
D35*
%TO.C,R15*%
X155510000Y-82400000D03*
X154490000Y-82400000D03*
%TD*%
D36*
%TO.C,L2*%
X148750000Y-36765000D03*
X148750000Y-37735000D03*
%TD*%
D31*
%TO.C,Snap2*%
X139050000Y-36195000D03*
X139050000Y-37195000D03*
X139050000Y-38200000D03*
X139050000Y-39200000D03*
X139050000Y-40205000D03*
D32*
X141850000Y-38200000D03*
D31*
X144575000Y-36700000D03*
X144575000Y-37700000D03*
X144575000Y-38700000D03*
X144575000Y-39700000D03*
%TD*%
D36*
%TO.C,L1*%
X125500000Y-36250000D03*
X125500000Y-37220000D03*
%TD*%
D14*
%TO.C,C12*%
X118520000Y-62500000D03*
X119480000Y-62500000D03*
%TD*%
D20*
%TO.C,J4*%
X130000000Y-69250000D03*
D21*
X127460000Y-69250000D03*
X124920000Y-69250000D03*
X122380000Y-69250000D03*
X119840000Y-69250000D03*
%TD*%
D10*
%TO.C,LED2*%
X150000000Y-72312500D03*
X150000000Y-74187500D03*
%TD*%
D37*
%TO.C,L3*%
X120287500Y-64000000D03*
X118712500Y-64000000D03*
%TD*%
D35*
%TO.C,R17*%
X154760000Y-76300000D03*
X153740000Y-76300000D03*
%TD*%
D38*
%TO.C,RST1*%
X136350000Y-73000000D03*
X138150000Y-73000000D03*
D39*
X136525000Y-74800000D03*
X136525000Y-71200000D03*
X137975000Y-74800000D03*
X137975000Y-71200000D03*
%TD*%
D40*
%TO.C,U4*%
X157600000Y-80062500D03*
X158100000Y-80062500D03*
X158600000Y-80062500D03*
X159100000Y-80062500D03*
D41*
X159812500Y-79350000D03*
X159812500Y-78850000D03*
X159812500Y-78350000D03*
X159812500Y-77850000D03*
D40*
X159100000Y-77137500D03*
X158600000Y-77137500D03*
X158100000Y-77137500D03*
X157600000Y-77137500D03*
D41*
X156887500Y-77850000D03*
X156887500Y-78350000D03*
X156887500Y-78850000D03*
X156887500Y-79350000D03*
D42*
X158350000Y-78600000D03*
%TD*%
D12*
%TO.C,C1*%
X154730000Y-77800000D03*
X153770000Y-77800000D03*
%TD*%
D43*
%TO.C,U2*%
X152550000Y-38387500D03*
X153500000Y-38387500D03*
X154450000Y-38387500D03*
X154450000Y-36112500D03*
X153500000Y-36112500D03*
X152550000Y-36112500D03*
%TD*%
D44*
%TO.C,F2*%
X150500000Y-36462500D03*
X150500000Y-38037500D03*
%TD*%
D14*
%TO.C,C10*%
X164588770Y-56500000D03*
X165548770Y-56500000D03*
%TD*%
%TO.C,C8*%
X159270000Y-48000000D03*
X160230000Y-48000000D03*
%TD*%
D13*
%TO.C,R1*%
X132490000Y-34250000D03*
X133510000Y-34250000D03*
%TD*%
%TO.C,R9*%
X131990000Y-79750000D03*
X133010000Y-79750000D03*
%TD*%
D35*
%TO.C,R16*%
X154760000Y-79300000D03*
X153740000Y-79300000D03*
%TD*%
%TO.C,R5*%
X156510000Y-34500000D03*
X155490000Y-34500000D03*
%TD*%
D26*
%TO.C,USB1*%
X133040000Y-30740000D03*
X127260000Y-30740000D03*
D27*
X133400000Y-32185000D03*
X132600000Y-32185000D03*
D28*
X131400000Y-32185000D03*
X130400000Y-32185000D03*
X129900000Y-32185000D03*
X128900000Y-32185000D03*
D27*
X127700000Y-32185000D03*
X126900000Y-32185000D03*
X126900000Y-32185000D03*
X127700000Y-32185000D03*
D28*
X128400000Y-32185000D03*
X129400000Y-32185000D03*
X130900000Y-32185000D03*
X131900000Y-32185000D03*
D27*
X132600000Y-32185000D03*
X133400000Y-32185000D03*
D29*
X134470000Y-31270000D03*
D30*
X134470000Y-27090000D03*
D29*
X125830000Y-31270000D03*
D30*
X125830000Y-27090000D03*
%TD*%
D45*
%TO.C,U9*%
X134780000Y-49300000D03*
X133510000Y-49300000D03*
X132240000Y-49300000D03*
X130970000Y-49300000D03*
X129700000Y-49300000D03*
X128430000Y-49300000D03*
X127160000Y-49300000D03*
X125890000Y-49300000D03*
X124620000Y-49300000D03*
X123350000Y-49300000D03*
D46*
X121050000Y-51060000D03*
D47*
X122850000Y-51690000D03*
D46*
X121050000Y-52330000D03*
D47*
X122850000Y-52960000D03*
D46*
X121050000Y-53600000D03*
D47*
X122850000Y-54230000D03*
D46*
X121050000Y-54870000D03*
D47*
X122850000Y-55500000D03*
D46*
X121050000Y-56140000D03*
D47*
X122850000Y-56770000D03*
D46*
X121050000Y-57410000D03*
D47*
X122850000Y-58040000D03*
D46*
X121050000Y-58680000D03*
D47*
X122850000Y-59310000D03*
D46*
X121050000Y-59950000D03*
D45*
X123350000Y-61700000D03*
X124620000Y-61700000D03*
D47*
X125255000Y-59900000D03*
D45*
X125890000Y-61700000D03*
D47*
X126525000Y-59900000D03*
D45*
X127160000Y-61700000D03*
D47*
X127795000Y-59900000D03*
D45*
X128430000Y-61700000D03*
D47*
X129065000Y-59900000D03*
D45*
X129700000Y-61700000D03*
D47*
X130335000Y-59900000D03*
D45*
X130970000Y-61700000D03*
D47*
X131605000Y-59900000D03*
D45*
X132240000Y-61700000D03*
D47*
X132875000Y-59900000D03*
D45*
X133510000Y-61700000D03*
D47*
X134145000Y-59900000D03*
D45*
X134780000Y-61700000D03*
%TD*%
D12*
%TO.C,C16*%
X119110000Y-55500000D03*
X118150000Y-55500000D03*
%TD*%
D44*
%TO.C,F1*%
X127000000Y-35962500D03*
X127000000Y-37537500D03*
%TD*%
D14*
%TO.C,C3*%
X158470000Y-82250000D03*
X159430000Y-82250000D03*
%TD*%
D48*
%TO.C,R13*%
X130175000Y-82000000D03*
X131825000Y-82000000D03*
%TD*%
D11*
%TO.C,LED1*%
X133500000Y-73937500D03*
X133500000Y-72062500D03*
%TD*%
D49*
%TO.C,U3*%
X129812500Y-78850000D03*
X129812500Y-78350000D03*
X129812500Y-77850000D03*
X129812500Y-77350000D03*
D50*
X129100000Y-76637500D03*
X128600000Y-76637500D03*
X128100000Y-76637500D03*
X127600000Y-76637500D03*
D49*
X126887500Y-77350000D03*
X126887500Y-77850000D03*
X126887500Y-78350000D03*
X126887500Y-78850000D03*
D50*
X127600000Y-79562500D03*
X128100000Y-79562500D03*
X128600000Y-79562500D03*
X129100000Y-79562500D03*
D42*
X128350000Y-78100000D03*
%TD*%
D38*
%TO.C,RST2*%
X147350000Y-73000000D03*
X145550000Y-73000000D03*
D51*
X147175000Y-71200000D03*
X147175000Y-74800000D03*
X145725000Y-71200000D03*
X145725000Y-74800000D03*
%TD*%
D14*
%TO.C,C7*%
X132020000Y-78250000D03*
X132980000Y-78250000D03*
%TD*%
D35*
%TO.C,R12*%
X124510000Y-79750000D03*
X123490000Y-79750000D03*
%TD*%
D14*
%TO.C,C9*%
X164588770Y-62243566D03*
X165548770Y-62243566D03*
%TD*%
%TO.C,C2*%
X161220000Y-78600000D03*
X162180000Y-78600000D03*
%TD*%
D35*
%TO.C,R2*%
X127510000Y-34500000D03*
X126490000Y-34500000D03*
%TD*%
D52*
%TO.C,R11*%
X128250000Y-81740000D03*
X128250000Y-82760000D03*
%TD*%
D43*
%TO.C,U1*%
X129050000Y-38387500D03*
X130000000Y-38387500D03*
X130950000Y-38387500D03*
X130950000Y-36112500D03*
X130000000Y-36112500D03*
X129050000Y-36112500D03*
%TD*%
D53*
%TO.C,R18*%
X154525000Y-80800000D03*
X152875000Y-80800000D03*
%TD*%
D13*
%TO.C,R6*%
X149990000Y-34500000D03*
X151010000Y-34500000D03*
%TD*%
D44*
%TO.C,L4*%
X165568770Y-51456066D03*
X165568770Y-53031066D03*
%TD*%
D54*
%TO.C,SW32*%
X236717242Y-74374780D03*
D55*
X231224780Y-74086932D03*
D54*
X225732318Y-73799084D03*
%TD*%
%TO.C,SW18*%
X131319891Y-114245863D03*
D55*
X126927396Y-110935880D03*
D54*
X122534901Y-107625897D03*
%TD*%
%TO.C,SW6*%
X25253160Y-75305702D03*
D55*
X30685446Y-74445312D03*
D54*
X36117732Y-73584922D03*
%TD*%
%TO.C,SW35*%
X169669169Y-102901460D03*
D55*
X174768680Y-100841124D03*
D54*
X179868191Y-98780788D03*
%TD*%
%TO.C,SW28*%
X258460448Y-75363244D03*
D55*
X253028162Y-74502854D03*
D54*
X247595876Y-73642464D03*
%TD*%
%TO.C,SW21*%
X216023662Y-33886301D03*
D55*
X210527012Y-34078248D03*
D54*
X205030362Y-34270195D03*
%TD*%
%TO.C,SW25*%
X187704426Y-53886817D03*
D55*
X193201076Y-53694870D03*
D54*
X198697726Y-53502923D03*
%TD*%
%TO.C,SW16*%
X83587734Y-94941459D03*
D55*
X89046738Y-95611740D03*
D54*
X94505742Y-96282021D03*
%TD*%
%TO.C,SW29*%
X181371772Y-73119530D03*
D55*
X175875122Y-73311477D03*
D54*
X170378472Y-73503424D03*
%TD*%
%TO.C,SW27*%
X237606964Y-57398087D03*
D55*
X232114502Y-57110239D03*
D54*
X226622040Y-56822391D03*
%TD*%
%TO.C,SW10*%
X113928416Y-56456251D03*
D55*
X108431766Y-56264304D03*
D54*
X102935116Y-56072357D03*
%TD*%
%TO.C,SW17*%
X103845399Y-98723246D03*
D55*
X108944910Y-100783582D03*
D54*
X114044421Y-102843918D03*
%TD*%
%TO.C,SW11*%
X27912534Y-92096414D03*
D55*
X33344820Y-91236024D03*
D54*
X38777106Y-90375634D03*
%TD*%
%TO.C,SW26*%
X216616960Y-50875948D03*
D55*
X211120310Y-51067895D03*
D54*
X205623660Y-51259842D03*
%TD*%
%TO.C,SW33*%
X255801056Y-92153956D03*
D55*
X250368770Y-91293566D03*
D54*
X244936484Y-90433176D03*
%TD*%
%TO.C,SW1*%
X22593768Y-58515006D03*
D55*
X28026054Y-57654616D03*
D54*
X33458340Y-56794226D03*
%TD*%
D56*
%TO.C,J1*%
X194050000Y-82250000D03*
D57*
X194050000Y-84250000D03*
%TD*%
D54*
%TO.C,SW15*%
X113335118Y-73445882D03*
D55*
X107838468Y-73253935D03*
D54*
X102341818Y-73061988D03*
%TD*%
%TO.C,SW12*%
X57981272Y-73741542D03*
D55*
X52488810Y-74029390D03*
D54*
X46996348Y-74317238D03*
%TD*%
%TO.C,SW20*%
X187111128Y-36897170D03*
D55*
X192607778Y-36705223D03*
D54*
X198104428Y-36513276D03*
%TD*%
D58*
%TO.C,J3*%
X91500000Y-84250000D03*
D57*
X91500000Y-82250000D03*
%TD*%
D54*
%TO.C,SW13*%
X77496650Y-68191947D03*
D55*
X72000000Y-68000000D03*
D54*
X66503350Y-67808053D03*
%TD*%
%TO.C,SW24*%
X180778492Y-56129899D03*
D55*
X175281842Y-56321846D03*
D54*
X169785192Y-56513793D03*
%TD*%
%TO.C,SW8*%
X67096630Y-50818406D03*
D55*
X72593280Y-51010353D03*
D54*
X78089930Y-51202300D03*
%TD*%
%TO.C,SW9*%
X85015882Y-53445381D03*
D55*
X90512532Y-53637328D03*
D54*
X96009182Y-53829275D03*
%TD*%
%TO.C,SW23*%
X261119822Y-58572548D03*
D55*
X255687536Y-57712158D03*
D54*
X250255250Y-56851768D03*
%TD*%
%TO.C,SW30*%
X199291006Y-70492570D03*
D55*
X193794356Y-70684517D03*
D54*
X188297706Y-70876464D03*
%TD*%
%TO.C,SW22*%
X238496668Y-40421376D03*
D55*
X233004206Y-40133528D03*
D54*
X227511744Y-39845680D03*
%TD*%
%TO.C,SW7*%
X46106644Y-57340545D03*
D55*
X51599106Y-57052697D03*
D54*
X57091568Y-56764849D03*
%TD*%
%TO.C,SW36*%
X152393717Y-114303405D03*
D55*
X156786212Y-110993422D03*
D54*
X161178707Y-107683439D03*
%TD*%
%TO.C,SW2*%
X45216922Y-40363834D03*
D55*
X50709384Y-40075986D03*
D54*
X56201846Y-39788138D03*
%TD*%
%TO.C,SW34*%
X200125856Y-94999001D03*
D55*
X194666852Y-95669282D03*
D54*
X189207848Y-96339563D03*
%TD*%
%TO.C,SW3*%
X67689928Y-33828759D03*
D55*
X73186578Y-34020706D03*
D54*
X78683228Y-34212653D03*
%TD*%
%TO.C,SW4*%
X85609162Y-36455734D03*
D55*
X91105812Y-36647681D03*
D54*
X96602462Y-36839628D03*
%TD*%
%TO.C,SW31*%
X217210240Y-67865595D03*
D55*
X211713590Y-68057542D03*
D54*
X206216940Y-68249489D03*
%TD*%
%TO.C,SW14*%
X95415884Y-70818922D03*
D55*
X89919234Y-70626975D03*
D54*
X84422584Y-70435028D03*
%TD*%
%TO.C,SW5*%
X103528396Y-39082710D03*
D55*
X109025046Y-39274657D03*
D54*
X114521696Y-39466604D03*
%TD*%
%TO.C,SW19*%
X169191894Y-39524146D03*
D55*
X174688544Y-39332199D03*
D54*
X180185194Y-39140252D03*
%TD*%
M02*
