%TF.GenerationSoftware,KiCad,Pcbnew,9.0.2*%
%TF.CreationDate,2025-07-15T19:10:27+02:00*%
%TF.ProjectId,woagboard,776f6167-626f-4617-9264-2e6b69636164,rev?*%
%TF.SameCoordinates,Original*%
%TF.FileFunction,Soldermask,Bot*%
%TF.FilePolarity,Negative*%
%FSLAX46Y46*%
G04 Gerber Fmt 4.6, Leading zero omitted, Abs format (unit mm)*
G04 Created by KiCad (PCBNEW 9.0.2) date 2025-07-15 19:10:27*
%MOMM*%
%LPD*%
G01*
G04 APERTURE LIST*
G04 APERTURE END LIST*
G36*
X123471492Y-111869563D02*
G01*
X123697405Y-111930096D01*
X123913483Y-112019599D01*
X124116031Y-112136539D01*
X124301581Y-112278917D01*
X124466961Y-112444297D01*
X124609339Y-112629847D01*
X124726279Y-112832395D01*
X124815782Y-113048473D01*
X124876315Y-113274386D01*
X124906843Y-113506266D01*
X124906843Y-113740148D01*
X124876315Y-113972028D01*
X124815782Y-114197941D01*
X124735116Y-114392683D01*
X124822333Y-114432891D01*
X124922155Y-114236979D01*
X124922156Y-114236976D01*
X124924392Y-114232590D01*
X124975845Y-114167324D01*
X125004927Y-114151036D01*
X125017128Y-114127090D01*
X125012900Y-114091362D01*
X125026457Y-114043294D01*
X125059141Y-113979148D01*
X125351092Y-113406158D01*
X125351096Y-113406151D01*
X125353330Y-113401769D01*
X125384249Y-113362549D01*
X125427824Y-113338145D01*
X125477422Y-113332275D01*
X125525489Y-113345831D01*
X126299379Y-113740148D01*
X126754469Y-113972028D01*
X126768443Y-113979148D01*
X126807664Y-114010067D01*
X126832068Y-114053643D01*
X126837938Y-114103240D01*
X126824381Y-114151308D01*
X126509896Y-114768519D01*
X126522695Y-114807910D01*
X127260192Y-115183684D01*
X127325459Y-115235137D01*
X127366067Y-115307648D01*
X127375835Y-115390180D01*
X127353276Y-115470168D01*
X126717690Y-116717578D01*
X126666237Y-116782844D01*
X126593726Y-116823453D01*
X126511194Y-116833221D01*
X126431205Y-116810662D01*
X124381890Y-115766484D01*
X124316623Y-115715031D01*
X124276015Y-115642520D01*
X124266247Y-115559988D01*
X124288806Y-115480000D01*
X124781987Y-114512076D01*
X124696472Y-114465645D01*
X124609339Y-114616567D01*
X124466961Y-114802117D01*
X124301581Y-114967497D01*
X124116031Y-115109875D01*
X123913483Y-115226815D01*
X123697405Y-115316318D01*
X123471492Y-115376851D01*
X123239612Y-115407379D01*
X123005730Y-115407379D01*
X122773850Y-115376851D01*
X122547937Y-115316318D01*
X122331859Y-115226815D01*
X122129311Y-115109875D01*
X121943761Y-114967497D01*
X121778381Y-114802117D01*
X121636003Y-114616567D01*
X121519063Y-114414019D01*
X121429560Y-114197941D01*
X121369027Y-113972028D01*
X121338499Y-113740148D01*
X121338499Y-113506266D01*
X121369027Y-113274386D01*
X121429560Y-113048473D01*
X121519063Y-112832395D01*
X121636003Y-112629847D01*
X121778381Y-112444297D01*
X121943761Y-112278917D01*
X122129311Y-112136539D01*
X122331859Y-112019599D01*
X122547937Y-111930096D01*
X122773850Y-111869563D01*
X123005730Y-111839035D01*
X123239612Y-111839035D01*
X123471492Y-111869563D01*
G37*
G36*
X128935521Y-112437440D02*
G01*
X129165049Y-112512018D01*
X129380085Y-112621584D01*
X129575333Y-112763441D01*
X129745986Y-112934094D01*
X129887843Y-113129342D01*
X129997409Y-113344378D01*
X130071987Y-113573906D01*
X130109741Y-113812275D01*
X130109741Y-114053615D01*
X130071987Y-114291984D01*
X129997409Y-114521512D01*
X129887843Y-114736548D01*
X129745986Y-114931796D01*
X129575333Y-115102449D01*
X129380085Y-115244306D01*
X129165049Y-115353872D01*
X128935521Y-115428450D01*
X128697152Y-115466204D01*
X128455812Y-115466204D01*
X128217443Y-115428450D01*
X127987915Y-115353872D01*
X127772879Y-115244306D01*
X127577631Y-115102449D01*
X127406978Y-114931796D01*
X127265121Y-114736548D01*
X127155555Y-114521512D01*
X127080977Y-114291984D01*
X127043223Y-114053615D01*
X127043223Y-113812275D01*
X127080977Y-113573906D01*
X127155555Y-113344378D01*
X127265121Y-113129342D01*
X127406978Y-112934094D01*
X127577631Y-112763441D01*
X127772879Y-112621584D01*
X127987915Y-112512018D01*
X128217443Y-112437440D01*
X128455812Y-112399686D01*
X128697152Y-112399686D01*
X128935521Y-112437440D01*
G37*
G36*
X130982223Y-109968903D02*
G01*
X131143050Y-110035520D01*
X131287791Y-110132233D01*
X131410883Y-110255325D01*
X131507596Y-110400066D01*
X131574213Y-110560893D01*
X131608174Y-110731627D01*
X131608174Y-110905705D01*
X131574213Y-111076439D01*
X131507596Y-111237266D01*
X131410883Y-111382007D01*
X131287791Y-111505099D01*
X131143050Y-111601812D01*
X130982223Y-111668429D01*
X130811489Y-111702390D01*
X130637411Y-111702390D01*
X130466677Y-111668429D01*
X130305850Y-111601812D01*
X130161109Y-111505099D01*
X130038017Y-111382007D01*
X129941304Y-111237266D01*
X129874687Y-111076439D01*
X129840726Y-110905705D01*
X129840726Y-110731627D01*
X129874687Y-110560893D01*
X129941304Y-110400066D01*
X130038017Y-110255325D01*
X130161109Y-110132233D01*
X130305850Y-110035520D01*
X130466677Y-109968903D01*
X130637411Y-109934942D01*
X130811489Y-109934942D01*
X130982223Y-109968903D01*
G37*
G36*
X120025456Y-107897535D02*
G01*
X120254984Y-107972113D01*
X120470020Y-108081679D01*
X120665268Y-108223536D01*
X120835921Y-108394189D01*
X120977778Y-108589437D01*
X121087344Y-108804473D01*
X121161922Y-109034001D01*
X121199676Y-109272370D01*
X121199676Y-109513710D01*
X121161922Y-109752079D01*
X121087344Y-109981607D01*
X120977778Y-110196643D01*
X120835921Y-110391891D01*
X120665268Y-110562544D01*
X120470020Y-110704401D01*
X120254984Y-110813967D01*
X120025456Y-110888545D01*
X119787087Y-110926299D01*
X119545747Y-110926299D01*
X119307378Y-110888545D01*
X119077850Y-110813967D01*
X118862814Y-110704401D01*
X118667566Y-110562544D01*
X118496913Y-110391891D01*
X118355056Y-110196643D01*
X118245490Y-109981607D01*
X118170912Y-109752079D01*
X118133158Y-109513710D01*
X118133158Y-109272370D01*
X118170912Y-109034001D01*
X118245490Y-108804473D01*
X118355056Y-108589437D01*
X118496913Y-108394189D01*
X118667566Y-108223536D01*
X118862814Y-108081679D01*
X119077850Y-107972113D01*
X119307378Y-107897535D01*
X119545747Y-107859781D01*
X119787087Y-107859781D01*
X120025456Y-107897535D01*
G37*
G36*
X126162981Y-106617113D02*
G01*
X126382576Y-106675953D01*
X126592612Y-106762953D01*
X126789495Y-106876624D01*
X126969857Y-107015020D01*
X127130612Y-107175775D01*
X127269008Y-107356137D01*
X127382679Y-107553020D01*
X127469679Y-107763056D01*
X127528519Y-107982651D01*
X127558193Y-108208047D01*
X127558193Y-108435389D01*
X127528519Y-108660785D01*
X127469679Y-108880380D01*
X127382679Y-109090416D01*
X127269008Y-109287299D01*
X127130612Y-109467661D01*
X126969857Y-109628416D01*
X126789495Y-109766812D01*
X126592612Y-109880483D01*
X126382576Y-109967483D01*
X126162981Y-110026323D01*
X125937585Y-110055997D01*
X125710243Y-110055997D01*
X125484847Y-110026323D01*
X125265252Y-109967483D01*
X125055216Y-109880483D01*
X124858333Y-109766812D01*
X124677971Y-109628416D01*
X124517216Y-109467661D01*
X124378820Y-109287299D01*
X124265149Y-109090416D01*
X124178149Y-108880380D01*
X124119309Y-108660785D01*
X124089635Y-108435389D01*
X124089635Y-108208047D01*
X124119309Y-107982651D01*
X124178149Y-107763056D01*
X124265149Y-107553020D01*
X124378820Y-107356137D01*
X124517216Y-107175775D01*
X124677971Y-107015020D01*
X124858333Y-106876624D01*
X125055216Y-106762953D01*
X125265252Y-106675953D01*
X125484847Y-106617113D01*
X125710243Y-106587439D01*
X125937585Y-106587439D01*
X126162981Y-106617113D01*
G37*
G36*
X116300425Y-106216433D02*
G01*
X116352636Y-106217297D01*
X116359817Y-106219729D01*
X116369234Y-106220252D01*
X116433618Y-106244174D01*
X116847927Y-106455275D01*
X118328227Y-107209525D01*
X118328230Y-107209527D01*
X118331462Y-107211174D01*
X118388660Y-107249201D01*
X118394621Y-107256516D01*
X118400805Y-107260893D01*
X118432175Y-107302601D01*
X118457841Y-107334098D01*
X118459344Y-107338724D01*
X118459953Y-107339534D01*
X118490196Y-107432614D01*
X118490179Y-107433624D01*
X118491683Y-107438252D01*
X118489431Y-107478816D01*
X118488569Y-107531001D01*
X118486137Y-107538179D01*
X118485615Y-107547599D01*
X118461693Y-107611983D01*
X117517393Y-109465277D01*
X117479366Y-109522474D01*
X117472051Y-109528434D01*
X117467676Y-109534617D01*
X117425987Y-109565971D01*
X117394469Y-109591656D01*
X117389837Y-109593160D01*
X117389033Y-109593766D01*
X117295951Y-109624011D01*
X117294942Y-109623994D01*
X117290315Y-109625498D01*
X117249751Y-109623247D01*
X117197565Y-109622384D01*
X117190386Y-109619952D01*
X117180968Y-109619430D01*
X117116584Y-109595508D01*
X115423081Y-108732625D01*
X115221974Y-108630156D01*
X115221973Y-108630155D01*
X115218740Y-108628508D01*
X115161542Y-108590481D01*
X115155580Y-108583165D01*
X115149396Y-108578788D01*
X115118023Y-108537076D01*
X115092361Y-108505584D01*
X115090857Y-108500957D01*
X115090248Y-108500147D01*
X115060005Y-108407067D01*
X115060021Y-108406054D01*
X115058519Y-108401430D01*
X115060768Y-108360891D01*
X115061632Y-108308680D01*
X115064064Y-108301498D01*
X115064587Y-108292083D01*
X115088509Y-108227699D01*
X115090155Y-108224468D01*
X116031163Y-106377634D01*
X116031165Y-106377630D01*
X116032809Y-106374405D01*
X116070836Y-106317208D01*
X116078146Y-106311251D01*
X116082525Y-106305064D01*
X116124242Y-106273687D01*
X116155733Y-106248026D01*
X116160360Y-106246522D01*
X116161168Y-106245915D01*
X116254250Y-106215670D01*
X116255262Y-106215686D01*
X116259887Y-106214184D01*
X116300425Y-106216433D01*
G37*
G36*
X105409368Y-105492401D02*
G01*
X105635281Y-105552934D01*
X105851359Y-105642437D01*
X106053907Y-105759377D01*
X106239457Y-105901755D01*
X106404837Y-106067135D01*
X106547215Y-106252685D01*
X106664155Y-106455233D01*
X106753658Y-106671311D01*
X106814191Y-106897224D01*
X106844719Y-107129104D01*
X106844719Y-107362986D01*
X106817203Y-107571983D01*
X106911854Y-107588248D01*
X106957572Y-107373164D01*
X106957572Y-107373161D01*
X106958597Y-107368344D01*
X106991404Y-107291984D01*
X107015278Y-107268726D01*
X107020866Y-107242436D01*
X107007535Y-107209020D01*
X107008189Y-107159082D01*
X107063844Y-106897244D01*
X107156860Y-106459636D01*
X107156860Y-106459633D01*
X107157885Y-106454816D01*
X107177600Y-106408929D01*
X107213374Y-106374078D01*
X107259763Y-106355572D01*
X107309701Y-106356226D01*
X107314518Y-106357249D01*
X107314522Y-106357250D01*
X108669397Y-106645237D01*
X108669399Y-106645237D01*
X108674217Y-106646262D01*
X108720104Y-106665977D01*
X108754954Y-106701751D01*
X108773461Y-106748140D01*
X108772807Y-106798078D01*
X108628784Y-107475651D01*
X108651343Y-107510389D01*
X109456145Y-107681455D01*
X109456149Y-107681457D01*
X109460967Y-107682481D01*
X109537327Y-107715288D01*
X109595319Y-107774818D01*
X109626115Y-107852009D01*
X109625027Y-107935111D01*
X109333951Y-109304518D01*
X109301144Y-109380878D01*
X109241614Y-109438870D01*
X109164422Y-109469666D01*
X109081320Y-109468578D01*
X107286338Y-109087042D01*
X106836402Y-108991406D01*
X106836400Y-108991405D01*
X106831581Y-108990381D01*
X106755221Y-108957574D01*
X106697229Y-108898044D01*
X106666433Y-108820853D01*
X106667521Y-108737751D01*
X106668544Y-108732933D01*
X106668545Y-108732929D01*
X106893383Y-107675149D01*
X106798765Y-107652433D01*
X106753658Y-107820779D01*
X106664155Y-108036857D01*
X106547215Y-108239405D01*
X106404837Y-108424955D01*
X106239457Y-108590335D01*
X106053907Y-108732713D01*
X105851359Y-108849653D01*
X105635281Y-108939156D01*
X105409368Y-108999689D01*
X105177488Y-109030217D01*
X104943606Y-109030217D01*
X104711726Y-108999689D01*
X104485813Y-108939156D01*
X104269735Y-108849653D01*
X104067187Y-108732713D01*
X103881637Y-108590335D01*
X103716257Y-108424955D01*
X103573879Y-108239405D01*
X103456939Y-108036857D01*
X103367436Y-107820779D01*
X103306903Y-107594866D01*
X103276375Y-107362986D01*
X103276375Y-107129104D01*
X103306903Y-106897224D01*
X103367436Y-106671311D01*
X103456939Y-106455233D01*
X103573879Y-106252685D01*
X103716257Y-106067135D01*
X103881637Y-105901755D01*
X104067187Y-105759377D01*
X104269735Y-105642437D01*
X104485813Y-105552934D01*
X104711726Y-105492401D01*
X104943606Y-105461873D01*
X105177488Y-105461873D01*
X105409368Y-105492401D01*
G37*
G36*
X110767730Y-104638174D02*
G01*
X110997258Y-104712752D01*
X111212294Y-104822318D01*
X111407542Y-104964175D01*
X111578195Y-105134828D01*
X111720052Y-105330076D01*
X111829618Y-105545112D01*
X111904196Y-105774640D01*
X111941950Y-106013009D01*
X111941950Y-106254349D01*
X111904196Y-106492718D01*
X111829618Y-106722246D01*
X111720052Y-106937282D01*
X111578195Y-107132530D01*
X111407542Y-107303183D01*
X111212294Y-107445040D01*
X110997258Y-107554606D01*
X110767730Y-107629184D01*
X110529361Y-107666938D01*
X110288021Y-107666938D01*
X110049652Y-107629184D01*
X109820124Y-107554606D01*
X109605088Y-107445040D01*
X109409840Y-107303183D01*
X109239187Y-107132530D01*
X109097330Y-106937282D01*
X108987764Y-106722246D01*
X108913186Y-106492718D01*
X108875432Y-106254349D01*
X108875432Y-106013009D01*
X108913186Y-105774640D01*
X108987764Y-105545112D01*
X109097330Y-105330076D01*
X109239187Y-105134828D01*
X109409840Y-104964175D01*
X109605088Y-104822318D01*
X109820124Y-104712752D01*
X110049652Y-104638174D01*
X110288021Y-104600420D01*
X110529361Y-104600420D01*
X110767730Y-104638174D01*
G37*
G36*
X86406961Y-103971467D02*
G01*
X86632874Y-104032000D01*
X86848952Y-104121503D01*
X87051500Y-104238443D01*
X87237050Y-104380821D01*
X87402430Y-104546201D01*
X87544808Y-104731751D01*
X87661748Y-104934299D01*
X87751251Y-105150377D01*
X87811784Y-105376290D01*
X87839298Y-105585277D01*
X87934933Y-105576490D01*
X87923425Y-105356909D01*
X87923426Y-105356900D01*
X87923169Y-105351991D01*
X87935095Y-105269742D01*
X87952136Y-105241097D01*
X87950729Y-105214258D01*
X87929202Y-105185430D01*
X87916909Y-105137024D01*
X87890765Y-104638174D01*
X87879484Y-104422931D01*
X87879484Y-104422926D01*
X87879227Y-104418011D01*
X87886393Y-104368585D01*
X87911929Y-104325663D01*
X87951947Y-104295780D01*
X88000353Y-104283487D01*
X88656618Y-104249093D01*
X89388519Y-104210735D01*
X89388523Y-104210735D01*
X89393441Y-104210478D01*
X89442867Y-104217645D01*
X89485789Y-104243180D01*
X89515672Y-104283198D01*
X89527965Y-104331604D01*
X89564218Y-105023367D01*
X89594999Y-105051081D01*
X90416658Y-105008019D01*
X90416667Y-105008020D01*
X90421577Y-105007763D01*
X90503826Y-105019689D01*
X90575250Y-105062181D01*
X90624975Y-105128772D01*
X90645433Y-105209323D01*
X90691196Y-106082543D01*
X90718446Y-106602486D01*
X90718445Y-106602490D01*
X90718703Y-106607405D01*
X90706777Y-106689654D01*
X90664285Y-106761077D01*
X90597694Y-106810803D01*
X90517143Y-106831260D01*
X89168802Y-106901923D01*
X88225213Y-106951376D01*
X88225209Y-106951375D01*
X88220295Y-106951633D01*
X88138046Y-106939707D01*
X88066622Y-106897215D01*
X88016897Y-106830624D01*
X87996439Y-106750073D01*
X87952508Y-105911809D01*
X87939585Y-105665235D01*
X87842312Y-105667782D01*
X87842312Y-105842052D01*
X87811784Y-106073932D01*
X87751251Y-106299845D01*
X87661748Y-106515923D01*
X87544808Y-106718471D01*
X87402430Y-106904021D01*
X87237050Y-107069401D01*
X87051500Y-107211779D01*
X86848952Y-107328719D01*
X86632874Y-107418222D01*
X86406961Y-107478755D01*
X86175081Y-107509283D01*
X85941199Y-107509283D01*
X85709319Y-107478755D01*
X85483406Y-107418222D01*
X85267328Y-107328719D01*
X85064780Y-107211779D01*
X84879230Y-107069401D01*
X84713850Y-106904021D01*
X84571472Y-106718471D01*
X84454532Y-106515923D01*
X84365029Y-106299845D01*
X84304496Y-106073932D01*
X84273968Y-105842052D01*
X84273968Y-105608170D01*
X84304496Y-105376290D01*
X84365029Y-105150377D01*
X84454532Y-104934299D01*
X84571472Y-104731751D01*
X84713850Y-104546201D01*
X84879230Y-104380821D01*
X85064780Y-104238443D01*
X85267328Y-104121503D01*
X85483406Y-104032000D01*
X85709319Y-103971467D01*
X85941199Y-103940939D01*
X86175081Y-103940939D01*
X86406961Y-103971467D01*
G37*
G36*
X121181151Y-104975007D02*
G01*
X121341978Y-105041624D01*
X121486719Y-105138337D01*
X121609811Y-105261429D01*
X121706524Y-105406170D01*
X121773141Y-105566997D01*
X121807102Y-105737731D01*
X121807102Y-105911809D01*
X121773141Y-106082543D01*
X121706524Y-106243370D01*
X121609811Y-106388111D01*
X121486719Y-106511203D01*
X121341978Y-106607916D01*
X121181151Y-106674533D01*
X121010417Y-106708494D01*
X120836339Y-106708494D01*
X120665605Y-106674533D01*
X120504778Y-106607916D01*
X120360037Y-106511203D01*
X120236945Y-106388111D01*
X120140232Y-106243370D01*
X120073615Y-106082543D01*
X120039654Y-105911809D01*
X120039654Y-105737731D01*
X120073615Y-105566997D01*
X120140232Y-105406170D01*
X120236945Y-105261429D01*
X120360037Y-105138337D01*
X120504778Y-105041624D01*
X120665605Y-104975007D01*
X120836339Y-104941046D01*
X121010417Y-104941046D01*
X121181151Y-104975007D01*
G37*
G36*
X100986254Y-102559057D02*
G01*
X101215782Y-102633635D01*
X101430818Y-102743201D01*
X101626066Y-102885058D01*
X101796719Y-103055711D01*
X101938576Y-103250959D01*
X102048142Y-103465995D01*
X102122720Y-103695523D01*
X102160474Y-103933892D01*
X102160474Y-104175232D01*
X102122720Y-104413601D01*
X102048142Y-104643129D01*
X101938576Y-104858165D01*
X101796719Y-105053413D01*
X101626066Y-105224066D01*
X101430818Y-105365923D01*
X101215782Y-105475489D01*
X100986254Y-105550067D01*
X100747885Y-105587821D01*
X100506545Y-105587821D01*
X100268176Y-105550067D01*
X100038648Y-105475489D01*
X99823612Y-105365923D01*
X99628364Y-105224066D01*
X99457711Y-105053413D01*
X99315854Y-104858165D01*
X99206288Y-104643129D01*
X99131710Y-104413601D01*
X99093956Y-104175232D01*
X99093956Y-103933892D01*
X99131710Y-103695523D01*
X99206288Y-103465995D01*
X99315854Y-103250959D01*
X99457711Y-103055711D01*
X99628364Y-102885058D01*
X99823612Y-102743201D01*
X100038648Y-102633635D01*
X100268176Y-102559057D01*
X100506545Y-102521303D01*
X100747885Y-102521303D01*
X100986254Y-102559057D01*
G37*
G36*
X78771363Y-102572065D02*
G01*
X78780179Y-102575418D01*
X78787726Y-102576117D01*
X78835742Y-102596550D01*
X78873725Y-102610997D01*
X78877342Y-102614254D01*
X78878268Y-102614648D01*
X78951003Y-102680138D01*
X78951494Y-102681022D01*
X78955109Y-102684277D01*
X78973441Y-102720531D01*
X78998786Y-102766156D01*
X79000268Y-102773585D01*
X79004528Y-102782008D01*
X79016003Y-102849727D01*
X79088827Y-104239311D01*
X79124672Y-104923256D01*
X79124671Y-104923261D01*
X79124861Y-104926877D01*
X79120528Y-104995425D01*
X79117174Y-105004241D01*
X79116476Y-105011788D01*
X79096042Y-105059802D01*
X79081596Y-105097786D01*
X79078338Y-105101403D01*
X79077944Y-105102331D01*
X79012456Y-105175064D01*
X79011573Y-105175554D01*
X79008317Y-105179171D01*
X78972045Y-105197512D01*
X78926436Y-105222848D01*
X78919008Y-105224330D01*
X78910585Y-105228590D01*
X78842866Y-105240065D01*
X77323750Y-105319678D01*
X76719406Y-105351351D01*
X76719400Y-105351350D01*
X76715785Y-105351540D01*
X76647237Y-105347207D01*
X76638417Y-105343852D01*
X76630873Y-105343154D01*
X76582870Y-105322725D01*
X76544875Y-105308275D01*
X76541256Y-105305016D01*
X76540331Y-105304623D01*
X76467596Y-105239133D01*
X76467105Y-105238249D01*
X76463491Y-105234995D01*
X76445163Y-105198749D01*
X76419813Y-105153115D01*
X76418329Y-105145684D01*
X76414072Y-105137264D01*
X76402597Y-105069545D01*
X76360048Y-104257652D01*
X76293927Y-102996015D01*
X76293928Y-102996003D01*
X76293739Y-102992395D01*
X76298072Y-102923847D01*
X76301423Y-102915033D01*
X76302123Y-102907483D01*
X76322569Y-102859437D01*
X76337004Y-102821486D01*
X76340258Y-102817871D01*
X76340655Y-102816940D01*
X76406143Y-102744207D01*
X76407029Y-102743714D01*
X76410283Y-102740101D01*
X76446523Y-102721775D01*
X76492163Y-102696423D01*
X76499595Y-102694939D01*
X76508015Y-102690682D01*
X76575734Y-102679207D01*
X77266228Y-102643019D01*
X78699193Y-102567920D01*
X78699205Y-102567921D01*
X78702815Y-102567732D01*
X78771363Y-102572065D01*
G37*
G36*
X81308892Y-102294301D02*
G01*
X81538420Y-102368879D01*
X81753456Y-102478445D01*
X81948704Y-102620302D01*
X82119357Y-102790955D01*
X82261214Y-102986203D01*
X82370780Y-103201239D01*
X82445358Y-103430767D01*
X82483112Y-103669136D01*
X82483112Y-103910476D01*
X82445358Y-104148845D01*
X82370780Y-104378373D01*
X82261214Y-104593409D01*
X82119357Y-104788657D01*
X81948704Y-104959310D01*
X81753456Y-105101167D01*
X81538420Y-105210733D01*
X81308892Y-105285311D01*
X81070523Y-105323065D01*
X80829183Y-105323065D01*
X80590814Y-105285311D01*
X80361286Y-105210733D01*
X80146250Y-105101167D01*
X79951002Y-104959310D01*
X79780349Y-104788657D01*
X79638492Y-104593409D01*
X79528926Y-104378373D01*
X79454348Y-104148845D01*
X79416594Y-103910476D01*
X79416594Y-103669136D01*
X79454348Y-103430767D01*
X79528926Y-103201239D01*
X79638492Y-102986203D01*
X79780349Y-102790955D01*
X79951002Y-102620302D01*
X80146250Y-102478445D01*
X80361286Y-102368879D01*
X80590814Y-102294301D01*
X80829183Y-102256547D01*
X81070523Y-102256547D01*
X81308892Y-102294301D01*
G37*
G36*
X96689585Y-101849702D02*
G01*
X96693126Y-101850454D01*
X96693131Y-101850455D01*
X98769489Y-102291798D01*
X98769491Y-102291799D01*
X98773039Y-102292553D01*
X98838129Y-102314481D01*
X98845777Y-102320001D01*
X98852889Y-102322631D01*
X98893994Y-102354807D01*
X98926927Y-102378579D01*
X98929577Y-102382659D01*
X98930372Y-102383282D01*
X98983676Y-102465364D01*
X98983920Y-102466341D01*
X98986573Y-102470426D01*
X98994900Y-102510207D01*
X99007570Y-102560822D01*
X99007079Y-102568385D01*
X99009012Y-102577617D01*
X99002569Y-102645999D01*
X98570113Y-104680546D01*
X98548186Y-104745637D01*
X98542663Y-104753287D01*
X98540036Y-104760395D01*
X98507875Y-104801479D01*
X98484087Y-104834434D01*
X98480003Y-104837086D01*
X98479384Y-104837877D01*
X98397300Y-104891184D01*
X98396324Y-104891428D01*
X98392241Y-104894080D01*
X98352452Y-104902409D01*
X98301844Y-104915077D01*
X98294284Y-104914586D01*
X98285049Y-104916520D01*
X98216667Y-104910076D01*
X96133213Y-104467225D01*
X96068123Y-104445297D01*
X96060473Y-104439774D01*
X96053362Y-104437146D01*
X96012260Y-104404973D01*
X95979325Y-104381199D01*
X95976674Y-104377117D01*
X95975879Y-104376495D01*
X95922575Y-104294413D01*
X95922329Y-104293434D01*
X95919679Y-104289352D01*
X95911355Y-104249589D01*
X95898681Y-104198955D01*
X95899171Y-104191389D01*
X95897240Y-104182161D01*
X95903683Y-104113779D01*
X95904435Y-104110238D01*
X95904436Y-104110232D01*
X96335385Y-102082778D01*
X96335385Y-102082776D01*
X96336139Y-102079232D01*
X96358066Y-102014141D01*
X96363585Y-102006494D01*
X96366215Y-101999382D01*
X96398397Y-101958269D01*
X96422165Y-101925344D01*
X96426245Y-101922694D01*
X96426867Y-101921900D01*
X96508951Y-101868593D01*
X96509930Y-101868347D01*
X96514011Y-101865698D01*
X96553768Y-101857374D01*
X96604407Y-101844700D01*
X96611971Y-101845190D01*
X96621203Y-101843258D01*
X96689585Y-101849702D01*
G37*
G36*
X91295188Y-101770941D02*
G01*
X91524716Y-101845519D01*
X91739752Y-101955085D01*
X91935000Y-102096942D01*
X92105653Y-102267595D01*
X92247510Y-102462843D01*
X92357076Y-102677879D01*
X92431654Y-102907407D01*
X92469408Y-103145776D01*
X92469408Y-103387116D01*
X92431654Y-103625485D01*
X92357076Y-103855013D01*
X92247510Y-104070049D01*
X92105653Y-104265297D01*
X91935000Y-104435950D01*
X91739752Y-104577807D01*
X91524716Y-104687373D01*
X91295188Y-104761951D01*
X91056819Y-104799705D01*
X90815479Y-104799705D01*
X90577110Y-104761951D01*
X90347582Y-104687373D01*
X90132546Y-104577807D01*
X89937298Y-104435950D01*
X89766645Y-104265297D01*
X89624788Y-104070049D01*
X89515222Y-103855013D01*
X89440644Y-103625485D01*
X89402890Y-103387116D01*
X89402890Y-103145776D01*
X89440644Y-102907407D01*
X89515222Y-102677879D01*
X89624788Y-102462843D01*
X89766645Y-102267595D01*
X89937298Y-102096942D01*
X90132546Y-101955085D01*
X90347582Y-101845519D01*
X90577110Y-101770941D01*
X90815479Y-101733187D01*
X91056819Y-101733187D01*
X91295188Y-101770941D01*
G37*
G36*
X111935207Y-101719818D02*
G01*
X112096034Y-101786435D01*
X112240775Y-101883148D01*
X112363867Y-102006240D01*
X112460580Y-102150981D01*
X112527197Y-102311808D01*
X112561158Y-102482542D01*
X112561158Y-102656620D01*
X112527197Y-102827354D01*
X112460580Y-102988181D01*
X112363867Y-103132922D01*
X112240775Y-103256014D01*
X112096034Y-103352727D01*
X111935207Y-103419344D01*
X111764473Y-103453305D01*
X111590395Y-103453305D01*
X111419661Y-103419344D01*
X111258834Y-103352727D01*
X111114093Y-103256014D01*
X110991001Y-103132922D01*
X110894288Y-102988181D01*
X110827671Y-102827354D01*
X110793710Y-102656620D01*
X110793710Y-102482542D01*
X110827671Y-102311808D01*
X110894288Y-102150981D01*
X110991001Y-102006240D01*
X111114093Y-101883148D01*
X111258834Y-101786435D01*
X111419661Y-101719818D01*
X111590395Y-101685857D01*
X111764473Y-101685857D01*
X111935207Y-101719818D01*
G37*
G36*
X106636689Y-99721462D02*
G01*
X106856284Y-99780302D01*
X107066320Y-99867302D01*
X107263203Y-99980973D01*
X107443565Y-100119369D01*
X107604320Y-100280124D01*
X107742716Y-100460486D01*
X107856387Y-100657369D01*
X107943387Y-100867405D01*
X108002227Y-101087000D01*
X108031901Y-101312396D01*
X108031901Y-101539738D01*
X108002227Y-101765134D01*
X107943387Y-101984729D01*
X107856387Y-102194765D01*
X107742716Y-102391648D01*
X107604320Y-102572010D01*
X107443565Y-102732765D01*
X107263203Y-102871161D01*
X107066320Y-102984832D01*
X106856284Y-103071832D01*
X106636689Y-103130672D01*
X106411293Y-103160346D01*
X106183951Y-103160346D01*
X105958555Y-103130672D01*
X105738960Y-103071832D01*
X105528924Y-102984832D01*
X105332041Y-102871161D01*
X105151679Y-102732765D01*
X104990924Y-102572010D01*
X104852528Y-102391648D01*
X104738857Y-102194765D01*
X104651857Y-101984729D01*
X104593017Y-101765134D01*
X104563343Y-101539738D01*
X104563343Y-101312396D01*
X104593017Y-101087000D01*
X104651857Y-100867405D01*
X104738857Y-100657369D01*
X104852528Y-100460486D01*
X104990924Y-100280124D01*
X105151679Y-100119369D01*
X105332041Y-99980973D01*
X105528924Y-99867302D01*
X105738960Y-99780302D01*
X105958555Y-99721462D01*
X106183951Y-99691788D01*
X106411293Y-99691788D01*
X106636689Y-99721462D01*
G37*
G36*
X86085808Y-98078660D02*
G01*
X86305403Y-98137500D01*
X86515439Y-98224500D01*
X86712322Y-98338171D01*
X86892684Y-98476567D01*
X87053439Y-98637322D01*
X87191835Y-98817684D01*
X87305506Y-99014567D01*
X87392506Y-99224603D01*
X87451346Y-99444198D01*
X87481020Y-99669594D01*
X87481020Y-99896936D01*
X87451346Y-100122332D01*
X87392506Y-100341927D01*
X87305506Y-100551963D01*
X87191835Y-100748846D01*
X87053439Y-100929208D01*
X86892684Y-101089963D01*
X86712322Y-101228359D01*
X86515439Y-101342030D01*
X86305403Y-101429030D01*
X86085808Y-101487870D01*
X85860412Y-101517544D01*
X85633070Y-101517544D01*
X85407674Y-101487870D01*
X85188079Y-101429030D01*
X84978043Y-101342030D01*
X84781160Y-101228359D01*
X84600798Y-101089963D01*
X84440043Y-100929208D01*
X84301647Y-100748846D01*
X84187976Y-100551963D01*
X84100976Y-100341927D01*
X84042136Y-100122332D01*
X84012462Y-99896936D01*
X84012462Y-99669594D01*
X84042136Y-99444198D01*
X84100976Y-99224603D01*
X84187976Y-99014567D01*
X84301647Y-98817684D01*
X84440043Y-98637322D01*
X84600798Y-98476567D01*
X84781160Y-98338171D01*
X84978043Y-98224500D01*
X85188079Y-98137500D01*
X85407674Y-98078660D01*
X85633070Y-98048986D01*
X85860412Y-98048986D01*
X86085808Y-98078660D01*
G37*
G36*
X101175583Y-99432790D02*
G01*
X101336410Y-99499407D01*
X101481151Y-99596120D01*
X101604243Y-99719212D01*
X101700956Y-99863953D01*
X101767573Y-100024780D01*
X101801534Y-100195514D01*
X101801534Y-100369592D01*
X101767573Y-100540326D01*
X101700956Y-100701153D01*
X101604243Y-100845894D01*
X101481151Y-100968986D01*
X101336410Y-101065699D01*
X101175583Y-101132316D01*
X101004849Y-101166277D01*
X100830771Y-101166277D01*
X100660037Y-101132316D01*
X100499210Y-101065699D01*
X100354469Y-100968986D01*
X100231377Y-100845894D01*
X100134664Y-100701153D01*
X100068047Y-100540326D01*
X100034086Y-100369592D01*
X100034086Y-100195514D01*
X100068047Y-100024780D01*
X100134664Y-99863953D01*
X100231377Y-99719212D01*
X100354469Y-99596120D01*
X100499210Y-99499407D01*
X100660037Y-99432790D01*
X100830771Y-99398829D01*
X101004849Y-99398829D01*
X101175583Y-99432790D01*
G37*
G36*
X80512052Y-99221350D02*
G01*
X80672879Y-99287967D01*
X80817620Y-99384680D01*
X80940712Y-99507772D01*
X81037425Y-99652513D01*
X81104042Y-99813340D01*
X81138003Y-99984074D01*
X81138003Y-100158152D01*
X81104042Y-100328886D01*
X81037425Y-100489713D01*
X80940712Y-100634454D01*
X80817620Y-100757546D01*
X80672879Y-100854259D01*
X80512052Y-100920876D01*
X80341318Y-100954837D01*
X80167240Y-100954837D01*
X79996506Y-100920876D01*
X79835679Y-100854259D01*
X79690938Y-100757546D01*
X79567846Y-100634454D01*
X79471133Y-100489713D01*
X79404516Y-100328886D01*
X79370555Y-100158152D01*
X79370555Y-99984074D01*
X79404516Y-99813340D01*
X79471133Y-99652513D01*
X79567846Y-99507772D01*
X79690938Y-99384680D01*
X79835679Y-99287967D01*
X79996506Y-99221350D01*
X80167240Y-99187389D01*
X80341318Y-99187389D01*
X80512052Y-99221350D01*
G37*
G36*
X91496976Y-98645654D02*
G01*
X91657803Y-98712271D01*
X91802544Y-98808984D01*
X91925636Y-98932076D01*
X92022349Y-99076817D01*
X92088966Y-99237644D01*
X92122927Y-99408378D01*
X92122927Y-99582456D01*
X92088966Y-99753190D01*
X92022349Y-99914017D01*
X91925636Y-100058758D01*
X91802544Y-100181850D01*
X91657803Y-100278563D01*
X91496976Y-100345180D01*
X91326242Y-100379141D01*
X91152164Y-100379141D01*
X90981430Y-100345180D01*
X90820603Y-100278563D01*
X90675862Y-100181850D01*
X90552770Y-100058758D01*
X90456057Y-99914017D01*
X90389440Y-99753190D01*
X90355479Y-99582456D01*
X90355479Y-99408378D01*
X90389440Y-99237644D01*
X90456057Y-99076817D01*
X90552770Y-98932076D01*
X90675862Y-98808984D01*
X90820603Y-98712271D01*
X90981430Y-98645654D01*
X91152164Y-98611693D01*
X91326242Y-98611693D01*
X91496976Y-98645654D01*
G37*
G36*
X37419968Y-94537497D02*
G01*
X37465324Y-94558407D01*
X37499226Y-94595082D01*
X37516511Y-94641938D01*
X37606736Y-95211596D01*
X37624875Y-95326120D01*
X37658385Y-95350466D01*
X38471041Y-95221753D01*
X38471048Y-95221753D01*
X38475906Y-95220984D01*
X38558951Y-95224247D01*
X38634425Y-95259041D01*
X38690838Y-95320069D01*
X38719604Y-95398041D01*
X38864222Y-96311125D01*
X38932818Y-96744226D01*
X38938612Y-96780805D01*
X38935349Y-96863850D01*
X38900556Y-96939324D01*
X38839527Y-96995737D01*
X38761555Y-97024503D01*
X36880227Y-97322475D01*
X36494736Y-97383532D01*
X36494734Y-97383531D01*
X36489872Y-97384302D01*
X36406827Y-97381039D01*
X36331353Y-97346245D01*
X36274940Y-97285217D01*
X36246174Y-97207245D01*
X36078546Y-96148881D01*
X35980975Y-96163028D01*
X35995528Y-96273565D01*
X35995528Y-96507447D01*
X35965000Y-96739327D01*
X35904467Y-96965240D01*
X35814964Y-97181318D01*
X35698024Y-97383866D01*
X35555646Y-97569416D01*
X35390266Y-97734796D01*
X35204716Y-97877174D01*
X35002168Y-97994114D01*
X34786090Y-98083617D01*
X34560177Y-98144150D01*
X34328297Y-98174678D01*
X34094415Y-98174678D01*
X33862535Y-98144150D01*
X33636622Y-98083617D01*
X33420544Y-97994114D01*
X33217996Y-97877174D01*
X33032446Y-97734796D01*
X32867066Y-97569416D01*
X32724688Y-97383866D01*
X32607748Y-97181318D01*
X32518245Y-96965240D01*
X32457712Y-96739327D01*
X32427184Y-96507447D01*
X32427184Y-96273565D01*
X32457712Y-96041685D01*
X32518245Y-95815772D01*
X32607748Y-95599694D01*
X32724688Y-95397146D01*
X32867066Y-95211596D01*
X33032446Y-95046216D01*
X33217996Y-94903838D01*
X33420544Y-94786898D01*
X33636622Y-94697395D01*
X33862535Y-94636862D01*
X34094415Y-94606334D01*
X34328297Y-94606334D01*
X34560177Y-94636862D01*
X34786090Y-94697395D01*
X35002168Y-94786898D01*
X35204716Y-94903838D01*
X35390266Y-95046216D01*
X35555646Y-95211596D01*
X35698024Y-95397146D01*
X35814964Y-95599694D01*
X35904467Y-95815772D01*
X35965000Y-96041685D01*
X35965106Y-96042497D01*
X35966680Y-96048368D01*
X36059501Y-96028639D01*
X36027935Y-95829344D01*
X36027935Y-95829337D01*
X36027166Y-95824481D01*
X36030429Y-95741436D01*
X36044382Y-95711167D01*
X36040177Y-95684620D01*
X36015756Y-95658202D01*
X35998471Y-95611346D01*
X35996625Y-95599694D01*
X35886607Y-94905073D01*
X35886607Y-94905067D01*
X35885838Y-94900211D01*
X35887798Y-94850307D01*
X35908707Y-94804950D01*
X35945383Y-94771049D01*
X35992238Y-94753763D01*
X36806530Y-94624792D01*
X37365200Y-94536307D01*
X37365201Y-94536307D01*
X37370064Y-94535537D01*
X37419968Y-94537497D01*
G37*
G36*
X26644028Y-94018820D02*
G01*
X26651611Y-94018726D01*
X26701518Y-94034035D01*
X26740785Y-94044427D01*
X26744722Y-94047287D01*
X26745685Y-94047583D01*
X26824867Y-94105111D01*
X26825447Y-94105938D01*
X26829383Y-94108798D01*
X26851402Y-94142934D01*
X26881379Y-94185662D01*
X26883630Y-94192896D01*
X26888747Y-94200828D01*
X26907237Y-94266977D01*
X27232621Y-96321369D01*
X27235477Y-96389994D01*
X27233062Y-96399115D01*
X27233157Y-96406691D01*
X27217854Y-96456577D01*
X27207457Y-96495864D01*
X27204596Y-96499801D01*
X27204300Y-96500767D01*
X27146776Y-96579944D01*
X27145948Y-96580524D01*
X27143087Y-96584463D01*
X27108918Y-96606503D01*
X27066218Y-96636460D01*
X27058988Y-96638710D01*
X27051056Y-96643827D01*
X26984907Y-96662317D01*
X24881131Y-96995523D01*
X24812506Y-96998378D01*
X24803387Y-96995964D01*
X24795808Y-96996059D01*
X24745917Y-96980755D01*
X24706635Y-96970359D01*
X24702695Y-96967497D01*
X24701734Y-96967202D01*
X24622552Y-96909674D01*
X24621971Y-96908846D01*
X24618037Y-96905988D01*
X24596020Y-96871856D01*
X24566040Y-96829123D01*
X24563787Y-96821887D01*
X24558673Y-96813958D01*
X24540183Y-96747809D01*
X24539616Y-96744229D01*
X24539615Y-96744226D01*
X24215366Y-94696997D01*
X24215365Y-94696996D01*
X24214799Y-94693417D01*
X24211943Y-94624792D01*
X24214356Y-94615674D01*
X24214262Y-94608094D01*
X24229573Y-94558177D01*
X24239963Y-94518922D01*
X24242821Y-94514987D01*
X24243119Y-94514018D01*
X24300643Y-94434841D01*
X24301474Y-94434257D01*
X24304333Y-94430323D01*
X24338471Y-94408302D01*
X24381201Y-94378325D01*
X24388435Y-94376073D01*
X24396364Y-94370959D01*
X24462513Y-94352469D01*
X24466088Y-94351902D01*
X24466094Y-94351901D01*
X26562708Y-94019830D01*
X26562709Y-94019829D01*
X26566289Y-94019263D01*
X26634914Y-94016408D01*
X26644028Y-94018820D01*
G37*
G36*
X29287798Y-93504259D02*
G01*
X29517326Y-93578837D01*
X29732362Y-93688403D01*
X29927610Y-93830260D01*
X30098263Y-94000913D01*
X30240120Y-94196161D01*
X30349686Y-94411197D01*
X30424264Y-94640725D01*
X30462018Y-94879094D01*
X30462018Y-95120434D01*
X30424264Y-95358803D01*
X30349686Y-95588331D01*
X30240120Y-95803367D01*
X30098263Y-95998615D01*
X29927610Y-96169268D01*
X29732362Y-96311125D01*
X29517326Y-96420691D01*
X29287798Y-96495269D01*
X29049429Y-96533023D01*
X28808089Y-96533023D01*
X28569720Y-96495269D01*
X28340192Y-96420691D01*
X28125156Y-96311125D01*
X27929908Y-96169268D01*
X27759255Y-95998615D01*
X27617398Y-95803367D01*
X27507832Y-95588331D01*
X27433254Y-95358803D01*
X27395500Y-95120434D01*
X27395500Y-94879094D01*
X27433254Y-94640725D01*
X27507832Y-94411197D01*
X27617398Y-94196161D01*
X27759255Y-94000913D01*
X27929908Y-93830260D01*
X28125156Y-93688403D01*
X28340192Y-93578837D01*
X28569720Y-93504259D01*
X28808089Y-93466505D01*
X29049429Y-93466505D01*
X29287798Y-93504259D01*
G37*
G36*
X39164681Y-91939914D02*
G01*
X39394209Y-92014492D01*
X39609245Y-92124058D01*
X39804493Y-92265915D01*
X39975146Y-92436568D01*
X40117003Y-92631816D01*
X40226569Y-92846852D01*
X40301147Y-93076380D01*
X40338901Y-93314749D01*
X40338901Y-93556089D01*
X40301147Y-93794458D01*
X40226569Y-94023986D01*
X40117003Y-94239022D01*
X39975146Y-94434270D01*
X39804493Y-94604923D01*
X39609245Y-94746780D01*
X39394209Y-94856346D01*
X39164681Y-94930924D01*
X38926312Y-94968678D01*
X38684972Y-94968678D01*
X38446603Y-94930924D01*
X38217075Y-94856346D01*
X38002039Y-94746780D01*
X37806791Y-94604923D01*
X37636138Y-94434270D01*
X37494281Y-94239022D01*
X37384715Y-94023986D01*
X37310137Y-93794458D01*
X37272383Y-93556089D01*
X37272383Y-93314749D01*
X37310137Y-93076380D01*
X37384715Y-92846852D01*
X37494281Y-92631816D01*
X37636138Y-92436568D01*
X37806791Y-92265915D01*
X38002039Y-92124058D01*
X38217075Y-92014492D01*
X38446603Y-91939914D01*
X38684972Y-91902160D01*
X38926312Y-91902160D01*
X39164681Y-91939914D01*
G37*
G36*
X51165661Y-90193443D02*
G01*
X51335494Y-90248625D01*
X51494603Y-90329695D01*
X51639072Y-90434658D01*
X51765342Y-90560928D01*
X51870305Y-90705397D01*
X51951375Y-90864506D01*
X52006557Y-91034339D01*
X52034492Y-91210714D01*
X52034492Y-91389286D01*
X52006557Y-91565661D01*
X51951375Y-91735494D01*
X51870305Y-91894603D01*
X51765342Y-92039072D01*
X51639072Y-92165342D01*
X51494603Y-92270305D01*
X51335494Y-92351375D01*
X51165661Y-92406557D01*
X50989286Y-92434492D01*
X50810714Y-92434492D01*
X50634339Y-92406557D01*
X50464506Y-92351375D01*
X50305397Y-92270305D01*
X50160928Y-92165342D01*
X50034658Y-92039072D01*
X49929695Y-91894603D01*
X49848625Y-91735494D01*
X49793443Y-91565661D01*
X49765508Y-91389286D01*
X49765508Y-91210714D01*
X49793443Y-91034339D01*
X49848625Y-90864506D01*
X49929695Y-90705397D01*
X50034658Y-90560928D01*
X50160928Y-90434658D01*
X50305397Y-90329695D01*
X50464506Y-90248625D01*
X50634339Y-90193443D01*
X50810714Y-90165508D01*
X50989286Y-90165508D01*
X51165661Y-90193443D01*
G37*
G36*
X28106058Y-90524387D02*
G01*
X28266885Y-90591004D01*
X28411626Y-90687717D01*
X28534718Y-90810809D01*
X28631431Y-90955550D01*
X28698048Y-91116377D01*
X28732009Y-91287111D01*
X28732009Y-91461189D01*
X28698048Y-91631923D01*
X28631431Y-91792750D01*
X28534718Y-91937491D01*
X28411626Y-92060583D01*
X28266885Y-92157296D01*
X28106058Y-92223913D01*
X27935324Y-92257874D01*
X27761246Y-92257874D01*
X27590512Y-92223913D01*
X27429685Y-92157296D01*
X27284944Y-92060583D01*
X27161852Y-91937491D01*
X27065139Y-91792750D01*
X26998522Y-91631923D01*
X26964561Y-91461189D01*
X26964561Y-91287111D01*
X26998522Y-91116377D01*
X27065139Y-90955550D01*
X27161852Y-90810809D01*
X27284944Y-90687717D01*
X27429685Y-90591004D01*
X27590512Y-90524387D01*
X27761246Y-90490426D01*
X27935324Y-90490426D01*
X28106058Y-90524387D01*
G37*
G36*
X33619638Y-88809155D02*
G01*
X33839233Y-88867995D01*
X34049269Y-88954995D01*
X34246152Y-89068666D01*
X34426514Y-89207062D01*
X34587269Y-89367817D01*
X34725665Y-89548179D01*
X34839336Y-89745062D01*
X34926336Y-89955098D01*
X34985176Y-90174693D01*
X35014850Y-90400089D01*
X35014850Y-90627431D01*
X34985176Y-90852827D01*
X34926336Y-91072422D01*
X34839336Y-91282458D01*
X34725665Y-91479341D01*
X34587269Y-91659703D01*
X34426514Y-91820458D01*
X34246152Y-91958854D01*
X34049269Y-92072525D01*
X33839233Y-92159525D01*
X33619638Y-92218365D01*
X33394242Y-92248039D01*
X33166900Y-92248039D01*
X32941504Y-92218365D01*
X32721909Y-92159525D01*
X32511873Y-92072525D01*
X32314990Y-91958854D01*
X32134628Y-91820458D01*
X31973873Y-91659703D01*
X31835477Y-91479341D01*
X31721806Y-91282458D01*
X31634806Y-91072422D01*
X31575966Y-90852827D01*
X31546292Y-90627431D01*
X31546292Y-90400089D01*
X31575966Y-90174693D01*
X31634806Y-89955098D01*
X31721806Y-89745062D01*
X31835477Y-89548179D01*
X31973873Y-89367817D01*
X32134628Y-89207062D01*
X32314990Y-89068666D01*
X32511873Y-88954995D01*
X32721909Y-88867995D01*
X32941504Y-88809155D01*
X33166900Y-88779481D01*
X33394242Y-88779481D01*
X33619638Y-88809155D01*
G37*
G36*
X38970630Y-88803607D02*
G01*
X39131457Y-88870224D01*
X39276198Y-88966937D01*
X39399290Y-89090029D01*
X39496003Y-89234770D01*
X39562620Y-89395597D01*
X39596581Y-89566331D01*
X39596581Y-89740409D01*
X39562620Y-89911143D01*
X39496003Y-90071970D01*
X39399290Y-90216711D01*
X39276198Y-90339803D01*
X39131457Y-90436516D01*
X38970630Y-90503133D01*
X38799896Y-90537094D01*
X38625818Y-90537094D01*
X38455084Y-90503133D01*
X38294257Y-90436516D01*
X38149516Y-90339803D01*
X38026424Y-90216711D01*
X37929711Y-90071970D01*
X37863094Y-89911143D01*
X37829133Y-89740409D01*
X37829133Y-89566331D01*
X37863094Y-89395597D01*
X37929711Y-89234770D01*
X38026424Y-89090029D01*
X38149516Y-88966937D01*
X38294257Y-88870224D01*
X38455084Y-88803607D01*
X38625818Y-88769646D01*
X38799896Y-88769646D01*
X38970630Y-88803607D01*
G37*
G36*
X73114542Y-84864893D02*
G01*
X73126870Y-84873130D01*
X73135107Y-84885458D01*
X73138000Y-84900000D01*
X73138000Y-86600000D01*
X73135107Y-86614542D01*
X73126870Y-86626870D01*
X73114542Y-86635107D01*
X73100000Y-86638000D01*
X71400000Y-86638000D01*
X71385458Y-86635107D01*
X71373130Y-86626870D01*
X71364893Y-86614542D01*
X71362000Y-86600000D01*
X71362000Y-84900000D01*
X71364893Y-84885458D01*
X71373130Y-84873130D01*
X71385458Y-84864893D01*
X71400000Y-84862000D01*
X73100000Y-84862000D01*
X73114542Y-84864893D01*
G37*
G36*
X59807773Y-84900237D02*
G01*
X59968600Y-84966854D01*
X60113341Y-85063567D01*
X60236433Y-85186659D01*
X60333146Y-85331400D01*
X60399763Y-85492227D01*
X60433724Y-85662961D01*
X60433724Y-85837039D01*
X60399763Y-86007773D01*
X60333146Y-86168600D01*
X60236433Y-86313341D01*
X60113341Y-86436433D01*
X59968600Y-86533146D01*
X59807773Y-86599763D01*
X59637039Y-86633724D01*
X59462961Y-86633724D01*
X59292227Y-86599763D01*
X59131400Y-86533146D01*
X58986659Y-86436433D01*
X58863567Y-86313341D01*
X58766854Y-86168600D01*
X58700237Y-86007773D01*
X58666276Y-85837039D01*
X58666276Y-85662961D01*
X58700237Y-85492227D01*
X58766854Y-85331400D01*
X58863567Y-85186659D01*
X58986659Y-85063567D01*
X59131400Y-84966854D01*
X59292227Y-84900237D01*
X59462961Y-84866276D01*
X59637039Y-84866276D01*
X59807773Y-84900237D01*
G37*
G36*
X62347773Y-84900237D02*
G01*
X62508600Y-84966854D01*
X62653341Y-85063567D01*
X62776433Y-85186659D01*
X62873146Y-85331400D01*
X62939763Y-85492227D01*
X62973724Y-85662961D01*
X62973724Y-85837039D01*
X62939763Y-86007773D01*
X62873146Y-86168600D01*
X62776433Y-86313341D01*
X62653341Y-86436433D01*
X62508600Y-86533146D01*
X62347773Y-86599763D01*
X62177039Y-86633724D01*
X62002961Y-86633724D01*
X61832227Y-86599763D01*
X61671400Y-86533146D01*
X61526659Y-86436433D01*
X61403567Y-86313341D01*
X61306854Y-86168600D01*
X61240237Y-86007773D01*
X61206276Y-85837039D01*
X61206276Y-85662961D01*
X61240237Y-85492227D01*
X61306854Y-85331400D01*
X61403567Y-85186659D01*
X61526659Y-85063567D01*
X61671400Y-84966854D01*
X61832227Y-84900237D01*
X62002961Y-84866276D01*
X62177039Y-84866276D01*
X62347773Y-84900237D01*
G37*
G36*
X64887773Y-84900237D02*
G01*
X65048600Y-84966854D01*
X65193341Y-85063567D01*
X65316433Y-85186659D01*
X65413146Y-85331400D01*
X65479763Y-85492227D01*
X65513724Y-85662961D01*
X65513724Y-85837039D01*
X65479763Y-86007773D01*
X65413146Y-86168600D01*
X65316433Y-86313341D01*
X65193341Y-86436433D01*
X65048600Y-86533146D01*
X64887773Y-86599763D01*
X64717039Y-86633724D01*
X64542961Y-86633724D01*
X64372227Y-86599763D01*
X64211400Y-86533146D01*
X64066659Y-86436433D01*
X63943567Y-86313341D01*
X63846854Y-86168600D01*
X63780237Y-86007773D01*
X63746276Y-85837039D01*
X63746276Y-85662961D01*
X63780237Y-85492227D01*
X63846854Y-85331400D01*
X63943567Y-85186659D01*
X64066659Y-85063567D01*
X64211400Y-84966854D01*
X64372227Y-84900237D01*
X64542961Y-84866276D01*
X64717039Y-84866276D01*
X64887773Y-84900237D01*
G37*
G36*
X67427773Y-84900237D02*
G01*
X67588600Y-84966854D01*
X67733341Y-85063567D01*
X67856433Y-85186659D01*
X67953146Y-85331400D01*
X68019763Y-85492227D01*
X68053724Y-85662961D01*
X68053724Y-85837039D01*
X68019763Y-86007773D01*
X67953146Y-86168600D01*
X67856433Y-86313341D01*
X67733341Y-86436433D01*
X67588600Y-86533146D01*
X67427773Y-86599763D01*
X67257039Y-86633724D01*
X67082961Y-86633724D01*
X66912227Y-86599763D01*
X66751400Y-86533146D01*
X66606659Y-86436433D01*
X66483567Y-86313341D01*
X66386854Y-86168600D01*
X66320237Y-86007773D01*
X66286276Y-85837039D01*
X66286276Y-85662961D01*
X66320237Y-85492227D01*
X66386854Y-85331400D01*
X66483567Y-85186659D01*
X66606659Y-85063567D01*
X66751400Y-84966854D01*
X66912227Y-84900237D01*
X67082961Y-84866276D01*
X67257039Y-84866276D01*
X67427773Y-84900237D01*
G37*
G36*
X69967773Y-84900237D02*
G01*
X70128600Y-84966854D01*
X70273341Y-85063567D01*
X70396433Y-85186659D01*
X70493146Y-85331400D01*
X70559763Y-85492227D01*
X70593724Y-85662961D01*
X70593724Y-85837039D01*
X70559763Y-86007773D01*
X70493146Y-86168600D01*
X70396433Y-86313341D01*
X70273341Y-86436433D01*
X70128600Y-86533146D01*
X69967773Y-86599763D01*
X69797039Y-86633724D01*
X69622961Y-86633724D01*
X69452227Y-86599763D01*
X69291400Y-86533146D01*
X69146659Y-86436433D01*
X69023567Y-86313341D01*
X68926854Y-86168600D01*
X68860237Y-86007773D01*
X68826276Y-85837039D01*
X68826276Y-85662961D01*
X68860237Y-85492227D01*
X68926854Y-85331400D01*
X69023567Y-85186659D01*
X69146659Y-85063567D01*
X69291400Y-84966854D01*
X69452227Y-84900237D01*
X69622961Y-84866276D01*
X69797039Y-84866276D01*
X69967773Y-84900237D01*
G37*
G36*
X82422084Y-84507295D02*
G01*
X82542651Y-84576905D01*
X82641094Y-84675348D01*
X82710704Y-84795915D01*
X82746737Y-84930390D01*
X82746737Y-85069610D01*
X82710704Y-85204085D01*
X82641094Y-85324652D01*
X82542651Y-85423095D01*
X82422084Y-85492705D01*
X82287609Y-85528738D01*
X82148389Y-85528738D01*
X82013914Y-85492705D01*
X81893347Y-85423095D01*
X81794904Y-85324652D01*
X81725294Y-85204085D01*
X81689261Y-85069610D01*
X81689261Y-84930390D01*
X81725294Y-84795915D01*
X81794904Y-84675348D01*
X81893347Y-84576905D01*
X82013914Y-84507295D01*
X82148389Y-84471262D01*
X82287609Y-84471262D01*
X82422084Y-84507295D01*
G37*
G36*
X84454085Y-84507295D02*
G01*
X84574652Y-84576905D01*
X84673095Y-84675348D01*
X84742705Y-84795915D01*
X84778738Y-84930390D01*
X84778738Y-85069610D01*
X84742705Y-85204085D01*
X84673095Y-85324652D01*
X84574652Y-85423095D01*
X84454085Y-85492705D01*
X84319610Y-85528738D01*
X84180390Y-85528738D01*
X84045915Y-85492705D01*
X83925348Y-85423095D01*
X83826905Y-85324652D01*
X83757295Y-85204085D01*
X83721262Y-85069610D01*
X83721262Y-84930390D01*
X83757295Y-84795915D01*
X83826905Y-84675348D01*
X83925348Y-84576905D01*
X84045915Y-84507295D01*
X84180390Y-84471262D01*
X84319610Y-84471262D01*
X84454085Y-84507295D01*
G37*
G36*
X80980076Y-81903409D02*
G01*
X81162959Y-81962832D01*
X81334296Y-82050132D01*
X81489866Y-82163161D01*
X81625839Y-82299134D01*
X81738868Y-82454704D01*
X81826168Y-82626041D01*
X81885591Y-82808924D01*
X81915672Y-82998852D01*
X81915672Y-83191148D01*
X81885591Y-83381076D01*
X81826168Y-83563959D01*
X81738868Y-83735296D01*
X81625839Y-83890866D01*
X81489866Y-84026839D01*
X81334296Y-84139868D01*
X81162959Y-84227168D01*
X80980076Y-84286591D01*
X80790148Y-84316672D01*
X80597852Y-84316672D01*
X80407924Y-84286591D01*
X80225041Y-84227168D01*
X80053704Y-84139868D01*
X79898134Y-84026839D01*
X79762161Y-83890866D01*
X79649132Y-83735296D01*
X79561832Y-83563959D01*
X79502409Y-83381076D01*
X79472328Y-83191148D01*
X79472328Y-82998852D01*
X79502409Y-82808924D01*
X79561832Y-82626041D01*
X79649132Y-82454704D01*
X79762161Y-82299134D01*
X79898134Y-82163161D01*
X80053704Y-82050132D01*
X80225041Y-81962832D01*
X80407924Y-81903409D01*
X80597852Y-81873328D01*
X80790148Y-81873328D01*
X80980076Y-81903409D01*
G37*
G36*
X86060076Y-81903409D02*
G01*
X86242959Y-81962832D01*
X86414296Y-82050132D01*
X86569866Y-82163161D01*
X86705839Y-82299134D01*
X86818868Y-82454704D01*
X86906168Y-82626041D01*
X86965591Y-82808924D01*
X86995672Y-82998852D01*
X86995672Y-83191148D01*
X86965591Y-83381076D01*
X86906168Y-83563959D01*
X86818868Y-83735296D01*
X86705839Y-83890866D01*
X86569866Y-84026839D01*
X86414296Y-84139868D01*
X86242959Y-84227168D01*
X86060076Y-84286591D01*
X85870148Y-84316672D01*
X85677852Y-84316672D01*
X85487924Y-84286591D01*
X85305041Y-84227168D01*
X85133704Y-84139868D01*
X84978134Y-84026839D01*
X84842161Y-83890866D01*
X84729132Y-83735296D01*
X84641832Y-83563959D01*
X84582409Y-83381076D01*
X84552328Y-83191148D01*
X84552328Y-82998852D01*
X84582409Y-82808924D01*
X84641832Y-82626041D01*
X84729132Y-82454704D01*
X84842161Y-82299134D01*
X84978134Y-82163161D01*
X85133704Y-82050132D01*
X85305041Y-81962832D01*
X85487924Y-81903409D01*
X85677852Y-81873328D01*
X85870148Y-81873328D01*
X86060076Y-81903409D01*
G37*
G36*
X108209189Y-79666788D02*
G01*
X108435102Y-79727321D01*
X108651180Y-79816824D01*
X108853728Y-79933764D01*
X109039278Y-80076142D01*
X109204658Y-80241522D01*
X109347036Y-80427072D01*
X109463976Y-80629620D01*
X109553479Y-80845698D01*
X109614012Y-81071611D01*
X109644540Y-81303491D01*
X109644540Y-81442462D01*
X109742686Y-81444176D01*
X109750647Y-81216199D01*
X109750647Y-81216197D01*
X109750819Y-81211280D01*
X109769868Y-81130384D01*
X109789341Y-81103333D01*
X109790279Y-81076475D01*
X109771347Y-81045879D01*
X109763319Y-80996586D01*
X109786152Y-80342754D01*
X109788275Y-80281944D01*
X109788275Y-80281942D01*
X109788447Y-80277025D01*
X109799893Y-80228412D01*
X109829073Y-80187878D01*
X109871543Y-80161597D01*
X109920836Y-80153570D01*
X110676424Y-80179955D01*
X111310066Y-80202083D01*
X111314986Y-80202255D01*
X111363599Y-80213701D01*
X111404133Y-80242881D01*
X111430413Y-80285351D01*
X111438441Y-80334644D01*
X111420594Y-80845698D01*
X111414266Y-81026933D01*
X111442514Y-81057226D01*
X112264802Y-81085941D01*
X112269722Y-81086113D01*
X112350618Y-81105161D01*
X112418067Y-81153717D01*
X112461799Y-81224388D01*
X112475158Y-81306416D01*
X112426299Y-82705564D01*
X112407250Y-82786460D01*
X112358695Y-82853909D01*
X112288023Y-82897641D01*
X112205995Y-82911000D01*
X109907396Y-82830731D01*
X109826500Y-82811683D01*
X109759051Y-82763127D01*
X109715319Y-82692456D01*
X109701960Y-82610428D01*
X109712827Y-82299236D01*
X109739062Y-81547940D01*
X109644186Y-81540056D01*
X109614012Y-81769253D01*
X109553479Y-81995166D01*
X109463976Y-82211244D01*
X109347036Y-82413792D01*
X109204658Y-82599342D01*
X109039278Y-82764722D01*
X108853728Y-82907100D01*
X108651180Y-83024040D01*
X108435102Y-83113543D01*
X108209189Y-83174076D01*
X107977309Y-83204604D01*
X107743427Y-83204604D01*
X107511547Y-83174076D01*
X107285634Y-83113543D01*
X107069556Y-83024040D01*
X106867008Y-82907100D01*
X106681458Y-82764722D01*
X106516078Y-82599342D01*
X106373700Y-82413792D01*
X106256760Y-82211244D01*
X106167257Y-81995166D01*
X106106724Y-81769253D01*
X106076196Y-81537373D01*
X106076196Y-81303491D01*
X106106724Y-81071611D01*
X106167257Y-80845698D01*
X106256760Y-80629620D01*
X106373700Y-80427072D01*
X106516078Y-80241522D01*
X106681458Y-80076142D01*
X106867008Y-79933764D01*
X107069556Y-79816824D01*
X107285634Y-79727321D01*
X107511547Y-79666788D01*
X107743427Y-79636260D01*
X107977309Y-79636260D01*
X108209189Y-79666788D01*
G37*
G36*
X53294831Y-78435324D02*
G01*
X53520744Y-78495857D01*
X53736822Y-78585360D01*
X53939370Y-78702300D01*
X54124920Y-78844678D01*
X54290300Y-79010058D01*
X54432678Y-79195608D01*
X54549618Y-79398156D01*
X54639121Y-79614234D01*
X54699654Y-79840147D01*
X54727168Y-80049134D01*
X54822803Y-80040347D01*
X54811295Y-79820766D01*
X54811296Y-79820757D01*
X54811039Y-79815848D01*
X54822965Y-79733599D01*
X54840006Y-79704954D01*
X54838599Y-79678115D01*
X54817072Y-79649287D01*
X54804779Y-79600881D01*
X54782089Y-79167935D01*
X54767354Y-78886788D01*
X54767354Y-78886783D01*
X54767097Y-78881868D01*
X54774263Y-78832442D01*
X54799799Y-78789520D01*
X54839817Y-78759637D01*
X54888223Y-78747344D01*
X55544488Y-78712950D01*
X56276389Y-78674592D01*
X56276393Y-78674592D01*
X56281311Y-78674335D01*
X56330737Y-78681502D01*
X56373659Y-78707037D01*
X56403542Y-78747055D01*
X56415835Y-78795461D01*
X56452088Y-79487224D01*
X56482869Y-79514938D01*
X57304528Y-79471876D01*
X57304537Y-79471877D01*
X57309447Y-79471620D01*
X57391696Y-79483546D01*
X57463120Y-79526038D01*
X57512845Y-79592629D01*
X57533303Y-79673180D01*
X57580847Y-80580380D01*
X57606316Y-81066343D01*
X57606315Y-81066347D01*
X57606573Y-81071262D01*
X57594647Y-81153511D01*
X57552155Y-81224934D01*
X57485564Y-81274660D01*
X57405013Y-81295117D01*
X56056672Y-81365780D01*
X55113083Y-81415233D01*
X55113079Y-81415232D01*
X55108165Y-81415490D01*
X55025916Y-81403564D01*
X54954492Y-81361072D01*
X54904767Y-81294481D01*
X54884309Y-81213930D01*
X54836851Y-80308379D01*
X54827455Y-80129092D01*
X54730182Y-80131639D01*
X54730182Y-80305909D01*
X54699654Y-80537789D01*
X54639121Y-80763702D01*
X54549618Y-80979780D01*
X54432678Y-81182328D01*
X54290300Y-81367878D01*
X54124920Y-81533258D01*
X53939370Y-81675636D01*
X53736822Y-81792576D01*
X53520744Y-81882079D01*
X53294831Y-81942612D01*
X53062951Y-81973140D01*
X52829069Y-81973140D01*
X52597189Y-81942612D01*
X52371276Y-81882079D01*
X52155198Y-81792576D01*
X51952650Y-81675636D01*
X51767100Y-81533258D01*
X51601720Y-81367878D01*
X51459342Y-81182328D01*
X51342402Y-80979780D01*
X51252899Y-80763702D01*
X51192366Y-80537789D01*
X51161838Y-80305909D01*
X51161838Y-80072027D01*
X51192366Y-79840147D01*
X51252899Y-79614234D01*
X51342402Y-79398156D01*
X51459342Y-79195608D01*
X51601720Y-79010058D01*
X51767100Y-78844678D01*
X51952650Y-78702300D01*
X52155198Y-78585360D01*
X52371276Y-78495857D01*
X52597189Y-78435324D01*
X52829069Y-78404796D01*
X53062951Y-78404796D01*
X53294831Y-78435324D01*
G37*
G36*
X34753207Y-77697417D02*
G01*
X34798563Y-77718327D01*
X34832465Y-77755002D01*
X34849750Y-77801858D01*
X34931628Y-78318813D01*
X34958114Y-78486040D01*
X34991624Y-78510386D01*
X35804280Y-78381673D01*
X35804287Y-78381673D01*
X35809145Y-78380904D01*
X35892190Y-78384167D01*
X35967664Y-78418961D01*
X36024077Y-78479989D01*
X36052843Y-78557961D01*
X36197461Y-79471045D01*
X36270762Y-79933851D01*
X36271851Y-79940725D01*
X36268588Y-80023770D01*
X36233795Y-80099244D01*
X36172766Y-80155657D01*
X36094794Y-80184423D01*
X34213466Y-80482395D01*
X33827975Y-80543452D01*
X33827973Y-80543451D01*
X33823111Y-80544222D01*
X33740066Y-80540959D01*
X33664592Y-80506165D01*
X33608179Y-80445137D01*
X33579413Y-80367165D01*
X33411785Y-79308801D01*
X33314214Y-79322948D01*
X33328767Y-79433485D01*
X33328767Y-79667367D01*
X33298239Y-79899247D01*
X33237706Y-80125160D01*
X33148203Y-80341238D01*
X33031263Y-80543786D01*
X32888885Y-80729336D01*
X32723505Y-80894716D01*
X32537955Y-81037094D01*
X32335407Y-81154034D01*
X32119329Y-81243537D01*
X31893416Y-81304070D01*
X31661536Y-81334598D01*
X31427654Y-81334598D01*
X31195774Y-81304070D01*
X30969861Y-81243537D01*
X30753783Y-81154034D01*
X30551235Y-81037094D01*
X30365685Y-80894716D01*
X30200305Y-80729336D01*
X30057927Y-80543786D01*
X29940987Y-80341238D01*
X29851484Y-80125160D01*
X29790951Y-79899247D01*
X29760423Y-79667367D01*
X29760423Y-79433485D01*
X29790951Y-79201605D01*
X29851484Y-78975692D01*
X29940987Y-78759614D01*
X30057927Y-78557066D01*
X30200305Y-78371516D01*
X30365685Y-78206136D01*
X30551235Y-78063758D01*
X30753783Y-77946818D01*
X30969861Y-77857315D01*
X31195774Y-77796782D01*
X31427654Y-77766254D01*
X31661536Y-77766254D01*
X31893416Y-77796782D01*
X32119329Y-77857315D01*
X32335407Y-77946818D01*
X32537955Y-78063758D01*
X32723505Y-78206136D01*
X32888885Y-78371516D01*
X33031263Y-78557066D01*
X33148203Y-78759614D01*
X33237706Y-78975692D01*
X33298239Y-79201605D01*
X33298345Y-79202417D01*
X33299919Y-79208288D01*
X33392740Y-79188559D01*
X33361174Y-78989264D01*
X33361174Y-78989257D01*
X33360405Y-78984401D01*
X33363668Y-78901356D01*
X33377621Y-78871087D01*
X33373416Y-78844540D01*
X33348995Y-78818122D01*
X33331710Y-78771266D01*
X33329864Y-78759614D01*
X33219846Y-78064993D01*
X33219846Y-78064987D01*
X33219077Y-78060131D01*
X33221037Y-78010227D01*
X33241946Y-77964870D01*
X33278622Y-77930969D01*
X33325477Y-77913683D01*
X34139769Y-77784712D01*
X34698439Y-77696227D01*
X34698440Y-77696227D01*
X34703303Y-77695457D01*
X34753207Y-77697417D01*
G37*
G36*
X80980076Y-78728409D02*
G01*
X81162959Y-78787832D01*
X81334296Y-78875132D01*
X81489866Y-78988161D01*
X81625839Y-79124134D01*
X81738868Y-79279704D01*
X81826168Y-79451041D01*
X81885591Y-79633924D01*
X81915672Y-79823852D01*
X81915672Y-80016148D01*
X81885591Y-80206076D01*
X81826168Y-80388959D01*
X81738868Y-80560296D01*
X81625839Y-80715866D01*
X81489866Y-80851839D01*
X81334296Y-80964868D01*
X81162959Y-81052168D01*
X80980076Y-81111591D01*
X80790148Y-81141672D01*
X80597852Y-81141672D01*
X80407924Y-81111591D01*
X80225041Y-81052168D01*
X80053704Y-80964868D01*
X79898134Y-80851839D01*
X79762161Y-80715866D01*
X79649132Y-80560296D01*
X79561832Y-80388959D01*
X79502409Y-80206076D01*
X79472328Y-80016148D01*
X79472328Y-79823852D01*
X79502409Y-79633924D01*
X79561832Y-79451041D01*
X79649132Y-79279704D01*
X79762161Y-79124134D01*
X79898134Y-78988161D01*
X80053704Y-78875132D01*
X80225041Y-78787832D01*
X80407924Y-78728409D01*
X80597852Y-78698328D01*
X80790148Y-78698328D01*
X80980076Y-78728409D01*
G37*
G36*
X86060076Y-78728409D02*
G01*
X86242959Y-78787832D01*
X86414296Y-78875132D01*
X86569866Y-78988161D01*
X86705839Y-79124134D01*
X86818868Y-79279704D01*
X86906168Y-79451041D01*
X86965591Y-79633924D01*
X86995672Y-79823852D01*
X86995672Y-80016148D01*
X86965591Y-80206076D01*
X86906168Y-80388959D01*
X86818868Y-80560296D01*
X86705839Y-80715866D01*
X86569866Y-80851839D01*
X86414296Y-80964868D01*
X86242959Y-81052168D01*
X86060076Y-81111591D01*
X85870148Y-81141672D01*
X85677852Y-81141672D01*
X85487924Y-81111591D01*
X85305041Y-81052168D01*
X85133704Y-80964868D01*
X84978134Y-80851839D01*
X84842161Y-80715866D01*
X84729132Y-80560296D01*
X84641832Y-80388959D01*
X84582409Y-80206076D01*
X84552328Y-80016148D01*
X84552328Y-79823852D01*
X84582409Y-79633924D01*
X84641832Y-79451041D01*
X84729132Y-79279704D01*
X84842161Y-79124134D01*
X84978134Y-78988161D01*
X85133704Y-78875132D01*
X85305041Y-78787832D01*
X85487924Y-78728409D01*
X85677852Y-78698328D01*
X85870148Y-78698328D01*
X86060076Y-78728409D01*
G37*
G36*
X113293140Y-77900765D02*
G01*
X113522668Y-77975343D01*
X113737704Y-78084909D01*
X113932952Y-78226766D01*
X114103605Y-78397419D01*
X114245462Y-78592667D01*
X114355028Y-78807703D01*
X114429606Y-79037231D01*
X114467360Y-79275600D01*
X114467360Y-79516940D01*
X114429606Y-79755309D01*
X114355028Y-79984837D01*
X114245462Y-80199873D01*
X114103605Y-80395121D01*
X113932952Y-80565774D01*
X113737704Y-80707631D01*
X113522668Y-80817197D01*
X113293140Y-80891775D01*
X113054771Y-80929529D01*
X112813431Y-80929529D01*
X112575062Y-80891775D01*
X112345534Y-80817197D01*
X112130498Y-80707631D01*
X111935250Y-80565774D01*
X111764597Y-80395121D01*
X111622740Y-80199873D01*
X111513174Y-79984837D01*
X111438596Y-79755309D01*
X111400842Y-79516940D01*
X111400842Y-79275600D01*
X111438596Y-79037231D01*
X111513174Y-78807703D01*
X111622740Y-78592667D01*
X111764597Y-78397419D01*
X111935250Y-78226766D01*
X112130498Y-78084909D01*
X112345534Y-77975343D01*
X112575062Y-77900765D01*
X112813431Y-77863011D01*
X113054771Y-77863011D01*
X113293140Y-77900765D01*
G37*
G36*
X103299232Y-77551770D02*
G01*
X103528760Y-77626348D01*
X103743796Y-77735914D01*
X103939044Y-77877771D01*
X104109697Y-78048424D01*
X104251554Y-78243672D01*
X104361120Y-78458708D01*
X104435698Y-78688236D01*
X104473452Y-78926605D01*
X104473452Y-79167945D01*
X104435698Y-79406314D01*
X104361120Y-79635842D01*
X104251554Y-79850878D01*
X104109697Y-80046126D01*
X103939044Y-80216779D01*
X103743796Y-80358636D01*
X103528760Y-80468202D01*
X103299232Y-80542780D01*
X103060863Y-80580534D01*
X102819523Y-80580534D01*
X102581154Y-80542780D01*
X102351626Y-80468202D01*
X102136590Y-80358636D01*
X101941342Y-80216779D01*
X101770689Y-80046126D01*
X101628832Y-79850878D01*
X101519266Y-79635842D01*
X101444688Y-79406314D01*
X101406934Y-79167945D01*
X101406934Y-78926605D01*
X101444688Y-78688236D01*
X101519266Y-78458708D01*
X101628832Y-78243672D01*
X101770689Y-78048424D01*
X101941342Y-77877771D01*
X102136590Y-77735914D01*
X102351626Y-77626348D01*
X102581154Y-77551770D01*
X102819523Y-77514016D01*
X103060863Y-77514016D01*
X103299232Y-77551770D01*
G37*
G36*
X83438085Y-79427295D02*
G01*
X83558652Y-79496905D01*
X83657095Y-79595348D01*
X83726705Y-79715915D01*
X83762738Y-79850390D01*
X83762738Y-79989610D01*
X83726705Y-80124085D01*
X83657095Y-80244652D01*
X83558652Y-80343095D01*
X83438085Y-80412705D01*
X83303610Y-80448738D01*
X83164390Y-80448738D01*
X83029915Y-80412705D01*
X82909348Y-80343095D01*
X82810905Y-80244652D01*
X82741295Y-80124085D01*
X82705262Y-79989610D01*
X82705262Y-79850390D01*
X82741295Y-79715915D01*
X82810905Y-79595348D01*
X82909348Y-79496905D01*
X83029915Y-79427295D01*
X83164390Y-79391262D01*
X83303610Y-79391262D01*
X83438085Y-79427295D01*
G37*
G36*
X100242941Y-77614269D02*
G01*
X100804598Y-77633882D01*
X100804602Y-77633882D01*
X100808217Y-77634009D01*
X100876126Y-77644300D01*
X100884616Y-77648408D01*
X100892075Y-77649763D01*
X100938152Y-77674316D01*
X100974705Y-77692006D01*
X100978021Y-77695562D01*
X100978914Y-77696038D01*
X101045661Y-77767616D01*
X101046072Y-77768538D01*
X101049393Y-77772099D01*
X101064500Y-77809825D01*
X101085769Y-77857476D01*
X101086599Y-77865008D01*
X101090106Y-77873766D01*
X101095635Y-77942228D01*
X101023044Y-80020960D01*
X101012753Y-80088870D01*
X101008642Y-80097364D01*
X101007289Y-80104818D01*
X100982757Y-80150853D01*
X100965048Y-80187449D01*
X100961486Y-80190769D01*
X100961013Y-80191659D01*
X100889436Y-80258405D01*
X100888515Y-80258815D01*
X100884954Y-80262137D01*
X100847217Y-80277248D01*
X100799576Y-80298513D01*
X100792044Y-80299342D01*
X100783287Y-80302850D01*
X100714826Y-80308379D01*
X98586123Y-80234043D01*
X98518214Y-80223752D01*
X98509720Y-80219641D01*
X98502264Y-80218288D01*
X98456197Y-80193739D01*
X98419635Y-80176046D01*
X98416317Y-80172488D01*
X98415425Y-80172013D01*
X98348678Y-80100435D01*
X98348266Y-80099512D01*
X98344947Y-80095953D01*
X98329844Y-80058238D01*
X98308570Y-80010575D01*
X98307739Y-80003040D01*
X98304234Y-79994286D01*
X98298705Y-79925824D01*
X98339398Y-78760521D01*
X98371169Y-77850710D01*
X98371169Y-77850705D01*
X98371296Y-77847092D01*
X98381587Y-77779182D01*
X98385696Y-77770690D01*
X98387050Y-77763233D01*
X98411597Y-77717167D01*
X98429292Y-77680603D01*
X98432850Y-77677285D01*
X98433326Y-77676392D01*
X98504903Y-77609646D01*
X98505827Y-77609233D01*
X98509386Y-77605915D01*
X98547090Y-77590815D01*
X98594763Y-77569538D01*
X98602298Y-77568707D01*
X98611053Y-77565202D01*
X98679514Y-77559673D01*
X100242941Y-77614269D01*
G37*
G36*
X23977267Y-77178740D02*
G01*
X23984850Y-77178646D01*
X24034757Y-77193955D01*
X24074024Y-77204347D01*
X24077961Y-77207207D01*
X24078924Y-77207503D01*
X24158106Y-77265031D01*
X24158686Y-77265858D01*
X24162622Y-77268718D01*
X24184641Y-77302854D01*
X24214618Y-77345582D01*
X24216869Y-77352816D01*
X24221986Y-77360748D01*
X24240476Y-77426897D01*
X24565860Y-79481289D01*
X24568716Y-79549914D01*
X24566301Y-79559035D01*
X24566396Y-79566611D01*
X24551093Y-79616497D01*
X24540696Y-79655784D01*
X24537835Y-79659721D01*
X24537539Y-79660687D01*
X24480015Y-79739864D01*
X24479187Y-79740444D01*
X24476326Y-79744383D01*
X24442157Y-79766423D01*
X24399457Y-79796380D01*
X24392227Y-79798630D01*
X24384295Y-79803747D01*
X24318146Y-79822237D01*
X22214370Y-80155443D01*
X22145745Y-80158298D01*
X22136626Y-80155884D01*
X22129047Y-80155979D01*
X22079156Y-80140675D01*
X22039874Y-80130279D01*
X22035934Y-80127417D01*
X22034973Y-80127122D01*
X21955791Y-80069594D01*
X21955210Y-80068766D01*
X21951276Y-80065908D01*
X21929259Y-80031776D01*
X21899279Y-79989043D01*
X21897026Y-79981807D01*
X21891912Y-79973878D01*
X21873422Y-79907729D01*
X21872855Y-79904149D01*
X21872854Y-79904146D01*
X21548605Y-77856917D01*
X21548604Y-77856916D01*
X21548038Y-77853337D01*
X21545182Y-77784712D01*
X21547595Y-77775594D01*
X21547501Y-77768014D01*
X21562812Y-77718097D01*
X21573202Y-77678842D01*
X21576060Y-77674907D01*
X21576358Y-77673938D01*
X21633882Y-77594761D01*
X21634713Y-77594177D01*
X21637572Y-77590243D01*
X21671710Y-77568222D01*
X21714440Y-77538245D01*
X21721674Y-77535993D01*
X21729603Y-77530879D01*
X21795752Y-77512389D01*
X21799327Y-77511822D01*
X21799333Y-77511821D01*
X23895947Y-77179750D01*
X23895948Y-77179749D01*
X23899528Y-77179183D01*
X23968153Y-77176328D01*
X23977267Y-77178740D01*
G37*
G36*
X45659233Y-77035922D02*
G01*
X45668049Y-77039275D01*
X45675596Y-77039974D01*
X45723612Y-77060407D01*
X45761595Y-77074854D01*
X45765212Y-77078111D01*
X45766138Y-77078505D01*
X45838873Y-77143995D01*
X45839364Y-77144879D01*
X45842979Y-77148134D01*
X45861311Y-77184388D01*
X45886656Y-77230013D01*
X45888138Y-77237442D01*
X45892398Y-77245865D01*
X45903873Y-77313584D01*
X45976900Y-78707037D01*
X46012542Y-79387113D01*
X46012541Y-79387118D01*
X46012731Y-79390734D01*
X46008398Y-79459282D01*
X46005044Y-79468098D01*
X46004346Y-79475645D01*
X45983912Y-79523659D01*
X45969466Y-79561643D01*
X45966208Y-79565260D01*
X45965814Y-79566188D01*
X45900326Y-79638921D01*
X45899443Y-79639411D01*
X45896187Y-79643028D01*
X45859915Y-79661369D01*
X45814306Y-79686705D01*
X45806878Y-79688187D01*
X45798455Y-79692447D01*
X45730736Y-79703922D01*
X44211620Y-79783535D01*
X43607276Y-79815208D01*
X43607270Y-79815207D01*
X43603655Y-79815397D01*
X43535107Y-79811064D01*
X43526287Y-79807709D01*
X43518743Y-79807011D01*
X43470740Y-79786582D01*
X43432745Y-79772132D01*
X43429126Y-79768873D01*
X43428201Y-79768480D01*
X43355466Y-79702990D01*
X43354975Y-79702106D01*
X43351361Y-79698852D01*
X43333033Y-79662606D01*
X43307683Y-79616972D01*
X43306199Y-79609541D01*
X43301942Y-79601121D01*
X43290467Y-79533402D01*
X43248279Y-78728409D01*
X43181797Y-77459872D01*
X43181798Y-77459860D01*
X43181609Y-77456252D01*
X43185942Y-77387704D01*
X43189293Y-77378890D01*
X43189993Y-77371340D01*
X43210439Y-77323294D01*
X43224874Y-77285343D01*
X43228128Y-77281728D01*
X43228525Y-77280797D01*
X43294013Y-77208064D01*
X43294899Y-77207571D01*
X43298153Y-77203958D01*
X43334393Y-77185632D01*
X43380033Y-77160280D01*
X43387465Y-77158796D01*
X43395885Y-77154539D01*
X43463604Y-77143064D01*
X44154098Y-77106876D01*
X45587063Y-77031777D01*
X45587075Y-77031778D01*
X45590685Y-77031589D01*
X45659233Y-77035922D01*
G37*
G36*
X48196762Y-76758158D02*
G01*
X48426290Y-76832736D01*
X48641326Y-76942302D01*
X48836574Y-77084159D01*
X49007227Y-77254812D01*
X49149084Y-77450060D01*
X49258650Y-77665096D01*
X49333228Y-77894624D01*
X49370982Y-78132993D01*
X49370982Y-78374333D01*
X49333228Y-78612702D01*
X49258650Y-78842230D01*
X49149084Y-79057266D01*
X49007227Y-79252514D01*
X48836574Y-79423167D01*
X48641326Y-79565024D01*
X48426290Y-79674590D01*
X48196762Y-79749168D01*
X47958393Y-79786922D01*
X47717053Y-79786922D01*
X47478684Y-79749168D01*
X47249156Y-79674590D01*
X47034120Y-79565024D01*
X46838872Y-79423167D01*
X46668219Y-79252514D01*
X46526362Y-79057266D01*
X46416796Y-78842230D01*
X46342218Y-78612702D01*
X46304464Y-78374333D01*
X46304464Y-78132993D01*
X46342218Y-77894624D01*
X46416796Y-77665096D01*
X46526362Y-77450060D01*
X46668219Y-77254812D01*
X46838872Y-77084159D01*
X47034120Y-76942302D01*
X47249156Y-76832736D01*
X47478684Y-76758158D01*
X47717053Y-76720404D01*
X47958393Y-76720404D01*
X48196762Y-76758158D01*
G37*
G36*
X26621037Y-76664179D02*
G01*
X26850565Y-76738757D01*
X27065601Y-76848323D01*
X27260849Y-76990180D01*
X27431502Y-77160833D01*
X27573359Y-77356081D01*
X27682925Y-77571117D01*
X27757503Y-77800645D01*
X27795257Y-78039014D01*
X27795257Y-78280354D01*
X27757503Y-78518723D01*
X27682925Y-78748251D01*
X27573359Y-78963287D01*
X27431502Y-79158535D01*
X27260849Y-79329188D01*
X27065601Y-79471045D01*
X26850565Y-79580611D01*
X26621037Y-79655189D01*
X26382668Y-79692943D01*
X26141328Y-79692943D01*
X25902959Y-79655189D01*
X25673431Y-79580611D01*
X25458395Y-79471045D01*
X25263147Y-79329188D01*
X25092494Y-79158535D01*
X24950637Y-78963287D01*
X24841071Y-78748251D01*
X24766493Y-78518723D01*
X24728739Y-78280354D01*
X24728739Y-78039014D01*
X24766493Y-77800645D01*
X24841071Y-77571117D01*
X24950637Y-77356081D01*
X25092494Y-77160833D01*
X25263147Y-76990180D01*
X25458395Y-76848323D01*
X25673431Y-76738757D01*
X25902959Y-76664179D01*
X26141328Y-76626425D01*
X26382668Y-76626425D01*
X26621037Y-76664179D01*
G37*
G36*
X58183058Y-76234798D02*
G01*
X58412586Y-76309376D01*
X58627622Y-76418942D01*
X58822870Y-76560799D01*
X58993523Y-76731452D01*
X59135380Y-76926700D01*
X59244946Y-77141736D01*
X59319524Y-77371264D01*
X59357278Y-77609633D01*
X59357278Y-77850973D01*
X59319524Y-78089342D01*
X59244946Y-78318870D01*
X59135380Y-78533906D01*
X58993523Y-78729154D01*
X58822870Y-78899807D01*
X58627622Y-79041664D01*
X58412586Y-79151230D01*
X58183058Y-79225808D01*
X57944689Y-79263562D01*
X57703349Y-79263562D01*
X57464980Y-79225808D01*
X57235452Y-79151230D01*
X57020416Y-79041664D01*
X56825168Y-78899807D01*
X56654515Y-78729154D01*
X56512658Y-78533906D01*
X56403092Y-78318870D01*
X56328514Y-78089342D01*
X56290760Y-77850973D01*
X56290760Y-77609633D01*
X56328514Y-77371264D01*
X56403092Y-77141736D01*
X56512658Y-76926700D01*
X56654515Y-76731452D01*
X56825168Y-76560799D01*
X57020416Y-76418942D01*
X57235452Y-76309376D01*
X57464980Y-76234798D01*
X57703349Y-76197044D01*
X57944689Y-76197044D01*
X58183058Y-76234798D01*
G37*
G36*
X90310178Y-75027432D02*
G01*
X90536091Y-75087965D01*
X90752169Y-75177468D01*
X90954717Y-75294408D01*
X91140267Y-75436786D01*
X91305647Y-75602166D01*
X91448025Y-75787716D01*
X91564965Y-75990264D01*
X91654468Y-76206342D01*
X91715001Y-76432255D01*
X91745529Y-76664135D01*
X91745529Y-76803106D01*
X91843675Y-76804820D01*
X91851636Y-76576843D01*
X91851636Y-76576841D01*
X91851808Y-76571924D01*
X91870857Y-76491028D01*
X91890330Y-76463977D01*
X91891268Y-76437119D01*
X91872336Y-76406523D01*
X91864308Y-76357230D01*
X91886591Y-75719150D01*
X91889264Y-75642588D01*
X91889264Y-75642586D01*
X91889436Y-75637669D01*
X91900882Y-75589056D01*
X91930062Y-75548522D01*
X91972532Y-75522241D01*
X92021825Y-75514214D01*
X92692225Y-75537625D01*
X93411055Y-75562727D01*
X93415975Y-75562899D01*
X93464588Y-75574345D01*
X93505122Y-75603525D01*
X93531402Y-75645995D01*
X93539430Y-75695288D01*
X93521583Y-76206342D01*
X93515255Y-76387577D01*
X93543503Y-76417870D01*
X94365791Y-76446585D01*
X94370711Y-76446757D01*
X94451607Y-76465805D01*
X94519056Y-76514361D01*
X94562788Y-76585032D01*
X94576147Y-76667060D01*
X94527288Y-78066208D01*
X94508239Y-78147104D01*
X94459684Y-78214553D01*
X94389012Y-78258285D01*
X94306984Y-78271644D01*
X92008385Y-78191375D01*
X91927489Y-78172327D01*
X91860040Y-78123771D01*
X91816308Y-78053100D01*
X91802949Y-77971072D01*
X91813819Y-77659781D01*
X91840051Y-76908584D01*
X91745175Y-76900700D01*
X91715001Y-77129897D01*
X91654468Y-77355810D01*
X91564965Y-77571888D01*
X91448025Y-77774436D01*
X91305647Y-77959986D01*
X91140267Y-78125366D01*
X90954717Y-78267744D01*
X90752169Y-78384684D01*
X90536091Y-78474187D01*
X90310178Y-78534720D01*
X90078298Y-78565248D01*
X89844416Y-78565248D01*
X89612536Y-78534720D01*
X89386623Y-78474187D01*
X89170545Y-78384684D01*
X88967997Y-78267744D01*
X88782447Y-78125366D01*
X88617067Y-77959986D01*
X88474689Y-77774436D01*
X88357749Y-77571888D01*
X88268246Y-77355810D01*
X88207713Y-77129897D01*
X88177185Y-76898017D01*
X88177185Y-76664135D01*
X88207713Y-76432255D01*
X88268246Y-76206342D01*
X88357749Y-75990264D01*
X88474689Y-75787716D01*
X88617067Y-75602166D01*
X88782447Y-75436786D01*
X88967997Y-75294408D01*
X89170545Y-75177468D01*
X89386623Y-75087965D01*
X89612536Y-75027432D01*
X89844416Y-74996904D01*
X90078298Y-74996904D01*
X90310178Y-75027432D01*
G37*
G36*
X36497920Y-75099834D02*
G01*
X36727448Y-75174412D01*
X36942484Y-75283978D01*
X37137732Y-75425835D01*
X37308385Y-75596488D01*
X37450242Y-75791736D01*
X37559808Y-76006772D01*
X37634386Y-76236300D01*
X37672140Y-76474669D01*
X37672140Y-76716009D01*
X37634386Y-76954378D01*
X37559808Y-77183906D01*
X37450242Y-77398942D01*
X37308385Y-77594190D01*
X37137732Y-77764843D01*
X36942484Y-77906700D01*
X36727448Y-78016266D01*
X36497920Y-78090844D01*
X36259551Y-78128598D01*
X36018211Y-78128598D01*
X35779842Y-78090844D01*
X35550314Y-78016266D01*
X35335278Y-77906700D01*
X35140030Y-77764843D01*
X34969377Y-77594190D01*
X34827520Y-77398942D01*
X34717954Y-77183906D01*
X34643376Y-76954378D01*
X34605622Y-76716009D01*
X34605622Y-76474669D01*
X34643376Y-76236300D01*
X34717954Y-76006772D01*
X34827520Y-75791736D01*
X34969377Y-75596488D01*
X35140030Y-75425835D01*
X35335278Y-75283978D01*
X35550314Y-75174412D01*
X35779842Y-75099834D01*
X36018211Y-75062080D01*
X36259551Y-75062080D01*
X36497920Y-75099834D01*
G37*
G36*
X108407087Y-73769452D02*
G01*
X108626682Y-73828292D01*
X108836718Y-73915292D01*
X109033601Y-74028963D01*
X109213963Y-74167359D01*
X109374718Y-74328114D01*
X109513114Y-74508476D01*
X109626785Y-74705359D01*
X109713785Y-74915395D01*
X109772625Y-75134990D01*
X109802299Y-75360386D01*
X109802299Y-75587728D01*
X109772625Y-75813124D01*
X109713785Y-76032719D01*
X109626785Y-76242755D01*
X109513114Y-76439638D01*
X109374718Y-76620000D01*
X109213963Y-76780755D01*
X109033601Y-76919151D01*
X108836718Y-77032822D01*
X108626682Y-77119822D01*
X108407087Y-77178662D01*
X108181691Y-77208336D01*
X107954349Y-77208336D01*
X107728953Y-77178662D01*
X107509358Y-77119822D01*
X107299322Y-77032822D01*
X107102439Y-76919151D01*
X106922077Y-76780755D01*
X106761322Y-76620000D01*
X106622926Y-76439638D01*
X106509255Y-76242755D01*
X106422255Y-76032719D01*
X106363415Y-75813124D01*
X106333741Y-75587728D01*
X106333741Y-75360386D01*
X106363415Y-75134990D01*
X106422255Y-74915395D01*
X106509255Y-74705359D01*
X106622926Y-74508476D01*
X106761322Y-74328114D01*
X106922077Y-74167359D01*
X107102439Y-74028963D01*
X107299322Y-73915292D01*
X107509358Y-73828292D01*
X107728953Y-73769452D01*
X107954349Y-73739778D01*
X108181691Y-73739778D01*
X108407087Y-73769452D01*
G37*
G36*
X113822443Y-74816241D02*
G01*
X113983270Y-74882858D01*
X114128011Y-74979571D01*
X114251103Y-75102663D01*
X114347816Y-75247404D01*
X114414433Y-75408231D01*
X114448394Y-75578965D01*
X114448394Y-75753043D01*
X114414433Y-75923777D01*
X114347816Y-76084604D01*
X114251103Y-76229345D01*
X114128011Y-76352437D01*
X113983270Y-76449150D01*
X113822443Y-76515767D01*
X113651709Y-76549728D01*
X113477631Y-76549728D01*
X113306897Y-76515767D01*
X113146070Y-76449150D01*
X113001329Y-76352437D01*
X112878237Y-76229345D01*
X112781524Y-76084604D01*
X112714907Y-75923777D01*
X112680946Y-75753043D01*
X112680946Y-75578965D01*
X112714907Y-75408231D01*
X112781524Y-75247404D01*
X112878237Y-75102663D01*
X113001329Y-74979571D01*
X113146070Y-74882858D01*
X113306897Y-74816241D01*
X113477631Y-74782280D01*
X113651709Y-74782280D01*
X113822443Y-74816241D01*
G37*
G36*
X95394129Y-73261409D02*
G01*
X95623657Y-73335987D01*
X95838693Y-73445553D01*
X96033941Y-73587410D01*
X96204594Y-73758063D01*
X96346451Y-73953311D01*
X96456017Y-74168347D01*
X96530595Y-74397875D01*
X96568349Y-74636244D01*
X96568349Y-74877584D01*
X96530595Y-75115953D01*
X96456017Y-75345481D01*
X96346451Y-75560517D01*
X96204594Y-75755765D01*
X96033941Y-75926418D01*
X95838693Y-76068275D01*
X95623657Y-76177841D01*
X95394129Y-76252419D01*
X95155760Y-76290173D01*
X94914420Y-76290173D01*
X94676051Y-76252419D01*
X94446523Y-76177841D01*
X94231487Y-76068275D01*
X94036239Y-75926418D01*
X93865586Y-75755765D01*
X93723729Y-75560517D01*
X93614163Y-75345481D01*
X93539585Y-75115953D01*
X93501831Y-74877584D01*
X93501831Y-74636244D01*
X93539585Y-74397875D01*
X93614163Y-74168347D01*
X93723729Y-73953311D01*
X93865586Y-73758063D01*
X94036239Y-73587410D01*
X94231487Y-73445553D01*
X94446523Y-73335987D01*
X94676051Y-73261409D01*
X94914420Y-73223655D01*
X95155760Y-73223655D01*
X95394129Y-73261409D01*
G37*
G36*
X102829143Y-74432347D02*
G01*
X102989970Y-74498964D01*
X103134711Y-74595677D01*
X103257803Y-74718769D01*
X103354516Y-74863510D01*
X103421133Y-75024337D01*
X103455094Y-75195071D01*
X103455094Y-75369149D01*
X103421133Y-75539883D01*
X103354516Y-75700710D01*
X103257803Y-75845451D01*
X103134711Y-75968543D01*
X102989970Y-76065256D01*
X102829143Y-76131873D01*
X102658409Y-76165834D01*
X102484331Y-76165834D01*
X102313597Y-76131873D01*
X102152770Y-76065256D01*
X102008029Y-75968543D01*
X101884937Y-75845451D01*
X101788224Y-75700710D01*
X101721607Y-75539883D01*
X101687646Y-75369149D01*
X101687646Y-75195071D01*
X101721607Y-75024337D01*
X101788224Y-74863510D01*
X101884937Y-74718769D01*
X102008029Y-74595677D01*
X102152770Y-74498964D01*
X102313597Y-74432347D01*
X102484331Y-74398386D01*
X102658409Y-74398386D01*
X102829143Y-74432347D01*
G37*
G36*
X52973678Y-72542517D02*
G01*
X53193273Y-72601357D01*
X53403309Y-72688357D01*
X53600192Y-72802028D01*
X53780554Y-72940424D01*
X53941309Y-73101179D01*
X54079705Y-73281541D01*
X54193376Y-73478424D01*
X54280376Y-73688460D01*
X54339216Y-73908055D01*
X54368890Y-74133451D01*
X54368890Y-74360793D01*
X54339216Y-74586189D01*
X54280376Y-74805784D01*
X54193376Y-75015820D01*
X54079705Y-75212703D01*
X53941309Y-75393065D01*
X53780554Y-75553820D01*
X53600192Y-75692216D01*
X53403309Y-75805887D01*
X53193273Y-75892887D01*
X52973678Y-75951727D01*
X52748282Y-75981401D01*
X52520940Y-75981401D01*
X52295544Y-75951727D01*
X52075949Y-75892887D01*
X51865913Y-75805887D01*
X51669030Y-75692216D01*
X51488668Y-75553820D01*
X51327913Y-75393065D01*
X51189517Y-75212703D01*
X51075846Y-75015820D01*
X50988846Y-74805784D01*
X50930006Y-74586189D01*
X50900332Y-74360793D01*
X50900332Y-74133451D01*
X50930006Y-73908055D01*
X50988846Y-73688460D01*
X51075846Y-73478424D01*
X51189517Y-73281541D01*
X51327913Y-73101179D01*
X51488668Y-72940424D01*
X51669030Y-72802028D01*
X51865913Y-72688357D01*
X52075949Y-72601357D01*
X52295544Y-72542517D01*
X52520940Y-72512843D01*
X52748282Y-72512843D01*
X52973678Y-72542517D01*
G37*
G36*
X85400221Y-72912414D02*
G01*
X85629749Y-72986992D01*
X85844785Y-73096558D01*
X86040033Y-73238415D01*
X86210686Y-73409068D01*
X86352543Y-73604316D01*
X86462109Y-73819352D01*
X86536687Y-74048880D01*
X86574441Y-74287249D01*
X86574441Y-74528589D01*
X86536687Y-74766958D01*
X86462109Y-74996486D01*
X86352543Y-75211522D01*
X86210686Y-75406770D01*
X86040033Y-75577423D01*
X85844785Y-75719280D01*
X85629749Y-75828846D01*
X85400221Y-75903424D01*
X85161852Y-75941178D01*
X84920512Y-75941178D01*
X84682143Y-75903424D01*
X84452615Y-75828846D01*
X84237579Y-75719280D01*
X84042331Y-75577423D01*
X83871678Y-75406770D01*
X83729821Y-75211522D01*
X83620255Y-74996486D01*
X83545677Y-74766958D01*
X83507923Y-74528589D01*
X83507923Y-74287249D01*
X83545677Y-74048880D01*
X83620255Y-73819352D01*
X83729821Y-73604316D01*
X83871678Y-73409068D01*
X84042331Y-73238415D01*
X84237579Y-73096558D01*
X84452615Y-72986992D01*
X84682143Y-72912414D01*
X84920512Y-72874660D01*
X85161852Y-72874660D01*
X85400221Y-72912414D01*
G37*
G36*
X72341168Y-72392730D02*
G01*
X72567081Y-72453263D01*
X72783159Y-72542766D01*
X72985707Y-72659706D01*
X73171257Y-72802084D01*
X73336637Y-72967464D01*
X73479015Y-73153014D01*
X73595955Y-73355562D01*
X73685458Y-73571640D01*
X73745991Y-73797553D01*
X73776519Y-74029433D01*
X73776519Y-74168404D01*
X73874665Y-74170118D01*
X73882626Y-73942141D01*
X73882626Y-73942139D01*
X73882798Y-73937222D01*
X73901847Y-73856326D01*
X73921320Y-73829275D01*
X73922258Y-73802417D01*
X73903326Y-73771821D01*
X73895298Y-73722528D01*
X73918048Y-73071063D01*
X73920254Y-73007886D01*
X73920254Y-73007884D01*
X73920426Y-73002967D01*
X73931872Y-72954354D01*
X73961052Y-72913820D01*
X74003522Y-72887539D01*
X74052815Y-72879512D01*
X74782177Y-72904982D01*
X75442045Y-72928025D01*
X75446965Y-72928197D01*
X75495578Y-72939643D01*
X75536112Y-72968823D01*
X75562392Y-73011293D01*
X75570420Y-73060586D01*
X75552979Y-73560014D01*
X75546245Y-73752875D01*
X75574493Y-73783168D01*
X76396781Y-73811883D01*
X76401701Y-73812055D01*
X76482597Y-73831103D01*
X76550046Y-73879659D01*
X76593778Y-73950330D01*
X76607137Y-74032358D01*
X76558278Y-75431506D01*
X76539229Y-75512402D01*
X76490674Y-75579851D01*
X76420002Y-75623583D01*
X76337974Y-75636942D01*
X74039375Y-75556673D01*
X73958479Y-75537625D01*
X73891030Y-75489069D01*
X73847298Y-75418398D01*
X73833939Y-75336370D01*
X73845134Y-75015773D01*
X73871041Y-74273882D01*
X73776165Y-74265998D01*
X73745991Y-74495195D01*
X73685458Y-74721108D01*
X73595955Y-74937186D01*
X73479015Y-75139734D01*
X73336637Y-75325284D01*
X73171257Y-75490664D01*
X72985707Y-75633042D01*
X72783159Y-75749982D01*
X72567081Y-75839485D01*
X72341168Y-75900018D01*
X72109288Y-75930546D01*
X71875406Y-75930546D01*
X71643526Y-75900018D01*
X71417613Y-75839485D01*
X71201535Y-75749982D01*
X70998987Y-75633042D01*
X70813437Y-75490664D01*
X70648057Y-75325284D01*
X70505679Y-75139734D01*
X70388739Y-74937186D01*
X70299236Y-74721108D01*
X70238703Y-74495195D01*
X70208175Y-74263315D01*
X70208175Y-74029433D01*
X70238703Y-73797553D01*
X70299236Y-73571640D01*
X70388739Y-73355562D01*
X70505679Y-73153014D01*
X70648057Y-72967464D01*
X70813437Y-72802084D01*
X70998987Y-72659706D01*
X71201535Y-72542766D01*
X71417613Y-72453263D01*
X71643526Y-72392730D01*
X71875406Y-72362202D01*
X72109288Y-72362202D01*
X72341168Y-72392730D01*
G37*
G36*
X82343930Y-72974913D02*
G01*
X82905587Y-72994526D01*
X82905591Y-72994526D01*
X82909206Y-72994653D01*
X82977115Y-73004944D01*
X82985605Y-73009052D01*
X82993064Y-73010407D01*
X83039141Y-73034960D01*
X83075694Y-73052650D01*
X83079010Y-73056206D01*
X83079903Y-73056682D01*
X83146650Y-73128260D01*
X83147061Y-73129182D01*
X83150382Y-73132743D01*
X83165489Y-73170469D01*
X83186758Y-73218120D01*
X83187588Y-73225652D01*
X83191095Y-73234410D01*
X83196624Y-73302872D01*
X83124033Y-75381604D01*
X83113742Y-75449514D01*
X83109631Y-75458008D01*
X83108278Y-75465462D01*
X83083746Y-75511497D01*
X83066037Y-75548093D01*
X83062475Y-75551413D01*
X83062002Y-75552303D01*
X82990425Y-75619049D01*
X82989504Y-75619459D01*
X82985943Y-75622781D01*
X82948206Y-75637892D01*
X82900565Y-75659157D01*
X82893033Y-75659986D01*
X82884276Y-75663494D01*
X82815815Y-75669023D01*
X80687112Y-75594687D01*
X80619203Y-75584396D01*
X80610709Y-75580285D01*
X80603253Y-75578932D01*
X80557186Y-75554383D01*
X80520624Y-75536690D01*
X80517306Y-75533132D01*
X80516414Y-75532657D01*
X80449667Y-75461079D01*
X80449255Y-75460156D01*
X80445936Y-75456597D01*
X80430833Y-75418882D01*
X80409559Y-75371219D01*
X80408728Y-75363684D01*
X80405223Y-75354930D01*
X80399694Y-75286468D01*
X80438740Y-74168347D01*
X80472158Y-73211354D01*
X80472158Y-73211349D01*
X80472285Y-73207736D01*
X80482576Y-73139826D01*
X80486685Y-73131334D01*
X80488039Y-73123877D01*
X80512586Y-73077811D01*
X80530281Y-73041247D01*
X80533839Y-73037929D01*
X80534315Y-73037036D01*
X80605892Y-72970290D01*
X80606816Y-72969877D01*
X80610375Y-72966559D01*
X80648079Y-72951459D01*
X80695752Y-72930182D01*
X80703287Y-72929351D01*
X80712042Y-72925846D01*
X80780503Y-72920317D01*
X82343930Y-72974913D01*
G37*
G36*
X47399922Y-73685207D02*
G01*
X47560749Y-73751824D01*
X47705490Y-73848537D01*
X47828582Y-73971629D01*
X47925295Y-74116370D01*
X47991912Y-74277197D01*
X48025873Y-74447931D01*
X48025873Y-74622009D01*
X47991912Y-74792743D01*
X47925295Y-74953570D01*
X47828582Y-75098311D01*
X47705490Y-75221403D01*
X47560749Y-75318116D01*
X47399922Y-75384733D01*
X47229188Y-75418694D01*
X47055110Y-75418694D01*
X46884376Y-75384733D01*
X46723549Y-75318116D01*
X46578808Y-75221403D01*
X46455716Y-75098311D01*
X46359003Y-74953570D01*
X46292386Y-74792743D01*
X46258425Y-74622009D01*
X46258425Y-74447931D01*
X46292386Y-74277197D01*
X46359003Y-74116370D01*
X46455716Y-73971629D01*
X46578808Y-73848537D01*
X46723549Y-73751824D01*
X46884376Y-73685207D01*
X47055110Y-73651246D01*
X47229188Y-73651246D01*
X47399922Y-73685207D01*
G37*
G36*
X25439297Y-73684307D02*
G01*
X25600124Y-73750924D01*
X25744865Y-73847637D01*
X25867957Y-73970729D01*
X25964670Y-74115470D01*
X26031287Y-74276297D01*
X26065248Y-74447031D01*
X26065248Y-74621109D01*
X26031287Y-74791843D01*
X25964670Y-74952670D01*
X25867957Y-75097411D01*
X25744865Y-75220503D01*
X25600124Y-75317216D01*
X25439297Y-75383833D01*
X25268563Y-75417794D01*
X25094485Y-75417794D01*
X24923751Y-75383833D01*
X24762924Y-75317216D01*
X24618183Y-75220503D01*
X24495091Y-75097411D01*
X24398378Y-74952670D01*
X24331761Y-74791843D01*
X24297800Y-74621109D01*
X24297800Y-74447031D01*
X24331761Y-74276297D01*
X24398378Y-74115470D01*
X24495091Y-73970729D01*
X24618183Y-73847637D01*
X24762924Y-73750924D01*
X24923751Y-73684307D01*
X25094485Y-73650346D01*
X25268563Y-73650346D01*
X25439297Y-73684307D01*
G37*
G36*
X30952877Y-71969075D02*
G01*
X31172472Y-72027915D01*
X31382508Y-72114915D01*
X31579391Y-72228586D01*
X31759753Y-72366982D01*
X31920508Y-72527737D01*
X32058904Y-72708099D01*
X32172575Y-72904982D01*
X32259575Y-73115018D01*
X32318415Y-73334613D01*
X32348089Y-73560009D01*
X32348089Y-73787351D01*
X32318415Y-74012747D01*
X32259575Y-74232342D01*
X32172575Y-74442378D01*
X32058904Y-74639261D01*
X31920508Y-74819623D01*
X31759753Y-74980378D01*
X31579391Y-75118774D01*
X31382508Y-75232445D01*
X31172472Y-75319445D01*
X30952877Y-75378285D01*
X30727481Y-75407959D01*
X30500139Y-75407959D01*
X30274743Y-75378285D01*
X30055148Y-75319445D01*
X29845112Y-75232445D01*
X29648229Y-75118774D01*
X29467867Y-74980378D01*
X29307112Y-74819623D01*
X29168716Y-74639261D01*
X29055045Y-74442378D01*
X28968045Y-74232342D01*
X28909205Y-74012747D01*
X28879531Y-73787351D01*
X28879531Y-73560009D01*
X28909205Y-73334613D01*
X28968045Y-73115018D01*
X29055045Y-72904982D01*
X29168716Y-72708099D01*
X29307112Y-72527737D01*
X29467867Y-72366982D01*
X29648229Y-72228586D01*
X29845112Y-72114915D01*
X30055148Y-72027915D01*
X30274743Y-71969075D01*
X30500139Y-71939401D01*
X30727481Y-71939401D01*
X30952877Y-71969075D01*
G37*
G36*
X58384846Y-73109511D02*
G01*
X58545673Y-73176128D01*
X58690414Y-73272841D01*
X58813506Y-73395933D01*
X58910219Y-73540674D01*
X58976836Y-73701501D01*
X59010797Y-73872235D01*
X59010797Y-74046313D01*
X58976836Y-74217047D01*
X58910219Y-74377874D01*
X58813506Y-74522615D01*
X58690414Y-74645707D01*
X58545673Y-74742420D01*
X58384846Y-74809037D01*
X58214112Y-74842998D01*
X58040034Y-74842998D01*
X57869300Y-74809037D01*
X57708473Y-74742420D01*
X57563732Y-74645707D01*
X57440640Y-74522615D01*
X57343927Y-74377874D01*
X57277310Y-74217047D01*
X57243349Y-74046313D01*
X57243349Y-73872235D01*
X57277310Y-73701501D01*
X57343927Y-73540674D01*
X57440640Y-73395933D01*
X57563732Y-73272841D01*
X57708473Y-73176128D01*
X57869300Y-73109511D01*
X58040034Y-73075550D01*
X58214112Y-73075550D01*
X58384846Y-73109511D01*
G37*
G36*
X36303869Y-71963527D02*
G01*
X36464696Y-72030144D01*
X36609437Y-72126857D01*
X36732529Y-72249949D01*
X36829242Y-72394690D01*
X36895859Y-72555517D01*
X36929820Y-72726251D01*
X36929820Y-72900329D01*
X36895859Y-73071063D01*
X36829242Y-73231890D01*
X36732529Y-73376631D01*
X36609437Y-73499723D01*
X36464696Y-73596436D01*
X36303869Y-73663053D01*
X36133135Y-73697014D01*
X35959057Y-73697014D01*
X35788323Y-73663053D01*
X35627496Y-73596436D01*
X35482755Y-73499723D01*
X35359663Y-73376631D01*
X35262950Y-73231890D01*
X35196333Y-73071063D01*
X35162372Y-72900329D01*
X35162372Y-72726251D01*
X35196333Y-72555517D01*
X35262950Y-72394690D01*
X35359663Y-72249949D01*
X35482755Y-72126857D01*
X35627496Y-72030144D01*
X35788323Y-71963527D01*
X35959057Y-71929566D01*
X36133135Y-71929566D01*
X36303869Y-71963527D01*
G37*
G36*
X77425119Y-70626707D02*
G01*
X77654647Y-70701285D01*
X77869683Y-70810851D01*
X78064931Y-70952708D01*
X78235584Y-71123361D01*
X78377441Y-71318609D01*
X78487007Y-71533645D01*
X78561585Y-71763173D01*
X78599339Y-72001542D01*
X78599339Y-72242882D01*
X78561585Y-72481251D01*
X78487007Y-72710779D01*
X78377441Y-72925815D01*
X78235584Y-73121063D01*
X78064931Y-73291716D01*
X77869683Y-73433573D01*
X77654647Y-73543139D01*
X77425119Y-73617717D01*
X77186750Y-73655471D01*
X76945410Y-73655471D01*
X76707041Y-73617717D01*
X76477513Y-73543139D01*
X76262477Y-73433573D01*
X76067229Y-73291716D01*
X75896576Y-73121063D01*
X75754719Y-72925815D01*
X75645153Y-72710779D01*
X75570575Y-72481251D01*
X75532821Y-72242882D01*
X75532821Y-72001542D01*
X75570575Y-71763173D01*
X75645153Y-71533645D01*
X75754719Y-71318609D01*
X75896576Y-71123361D01*
X76067229Y-70952708D01*
X76262477Y-70810851D01*
X76477513Y-70701285D01*
X76707041Y-70626707D01*
X76945410Y-70588953D01*
X77186750Y-70588953D01*
X77425119Y-70626707D01*
G37*
G36*
X67431211Y-70277712D02*
G01*
X67660739Y-70352290D01*
X67875775Y-70461856D01*
X68071023Y-70603713D01*
X68241676Y-70774366D01*
X68383533Y-70969614D01*
X68493099Y-71184650D01*
X68567677Y-71414178D01*
X68605431Y-71652547D01*
X68605431Y-71893887D01*
X68567677Y-72132256D01*
X68493099Y-72361784D01*
X68383533Y-72576820D01*
X68241676Y-72772068D01*
X68071023Y-72942721D01*
X67875775Y-73084578D01*
X67660739Y-73194144D01*
X67431211Y-73268722D01*
X67192842Y-73306476D01*
X66951502Y-73306476D01*
X66713133Y-73268722D01*
X66483605Y-73194144D01*
X66268569Y-73084578D01*
X66073321Y-72942721D01*
X65902668Y-72772068D01*
X65760811Y-72576820D01*
X65651245Y-72361784D01*
X65576667Y-72132256D01*
X65538913Y-71893887D01*
X65538913Y-71652547D01*
X65576667Y-71414178D01*
X65651245Y-71184650D01*
X65760811Y-70969614D01*
X65902668Y-70774366D01*
X66073321Y-70603713D01*
X66268569Y-70461856D01*
X66483605Y-70352290D01*
X66713133Y-70277712D01*
X66951502Y-70239958D01*
X67192842Y-70239958D01*
X67431211Y-70277712D01*
G37*
G36*
X64374920Y-70340211D02*
G01*
X64936577Y-70359824D01*
X64936581Y-70359824D01*
X64940196Y-70359951D01*
X65008105Y-70370242D01*
X65016595Y-70374350D01*
X65024054Y-70375705D01*
X65070131Y-70400258D01*
X65106684Y-70417948D01*
X65110000Y-70421504D01*
X65110893Y-70421980D01*
X65177640Y-70493558D01*
X65178051Y-70494480D01*
X65181372Y-70498041D01*
X65196479Y-70535767D01*
X65217748Y-70583418D01*
X65218578Y-70590950D01*
X65222085Y-70599708D01*
X65227614Y-70668170D01*
X65155023Y-72746902D01*
X65144732Y-72814812D01*
X65140621Y-72823306D01*
X65139268Y-72830760D01*
X65114736Y-72876795D01*
X65097027Y-72913391D01*
X65093465Y-72916711D01*
X65092992Y-72917601D01*
X65021415Y-72984347D01*
X65020494Y-72984757D01*
X65016933Y-72988079D01*
X64979196Y-73003190D01*
X64931555Y-73024455D01*
X64924023Y-73025284D01*
X64915266Y-73028792D01*
X64846805Y-73034321D01*
X62718102Y-72959985D01*
X62650193Y-72949694D01*
X62641699Y-72945583D01*
X62634243Y-72944230D01*
X62588176Y-72919681D01*
X62551614Y-72901988D01*
X62548296Y-72898430D01*
X62547404Y-72897955D01*
X62480657Y-72826377D01*
X62480245Y-72825454D01*
X62476926Y-72821895D01*
X62461823Y-72784180D01*
X62440549Y-72736517D01*
X62439718Y-72728982D01*
X62436213Y-72720228D01*
X62430684Y-72651766D01*
X62471174Y-71492286D01*
X62503148Y-70576652D01*
X62503148Y-70576647D01*
X62503275Y-70573034D01*
X62513566Y-70505124D01*
X62517675Y-70496632D01*
X62519029Y-70489175D01*
X62543576Y-70443109D01*
X62561271Y-70406545D01*
X62564829Y-70403227D01*
X62565305Y-70402334D01*
X62636882Y-70335588D01*
X62637806Y-70335175D01*
X62641365Y-70331857D01*
X62679069Y-70316757D01*
X62726742Y-70295480D01*
X62734277Y-70294649D01*
X62743032Y-70291144D01*
X62811493Y-70285615D01*
X64374920Y-70340211D01*
G37*
G36*
X90508076Y-69130096D02*
G01*
X90727671Y-69188936D01*
X90937707Y-69275936D01*
X91134590Y-69389607D01*
X91314952Y-69528003D01*
X91475707Y-69688758D01*
X91614103Y-69869120D01*
X91727774Y-70066003D01*
X91814774Y-70276039D01*
X91873614Y-70495634D01*
X91903288Y-70721030D01*
X91903288Y-70948372D01*
X91873614Y-71173768D01*
X91814774Y-71393363D01*
X91727774Y-71603399D01*
X91614103Y-71800282D01*
X91475707Y-71980644D01*
X91314952Y-72141399D01*
X91134590Y-72279795D01*
X90937707Y-72393466D01*
X90727671Y-72480466D01*
X90508076Y-72539306D01*
X90282680Y-72568980D01*
X90055338Y-72568980D01*
X89829942Y-72539306D01*
X89610347Y-72480466D01*
X89400311Y-72393466D01*
X89203428Y-72279795D01*
X89023066Y-72141399D01*
X88862311Y-71980644D01*
X88723915Y-71800282D01*
X88610244Y-71603399D01*
X88523244Y-71393363D01*
X88464404Y-71173768D01*
X88434730Y-70948372D01*
X88434730Y-70721030D01*
X88464404Y-70495634D01*
X88523244Y-70276039D01*
X88610244Y-70066003D01*
X88723915Y-69869120D01*
X88862311Y-69688758D01*
X89023066Y-69528003D01*
X89203428Y-69389607D01*
X89400311Y-69275936D01*
X89610347Y-69188936D01*
X89829942Y-69130096D01*
X90055338Y-69100422D01*
X90282680Y-69100422D01*
X90508076Y-69130096D01*
G37*
G36*
X95923432Y-70176885D02*
G01*
X96084259Y-70243502D01*
X96229000Y-70340215D01*
X96352092Y-70463307D01*
X96448805Y-70608048D01*
X96515422Y-70768875D01*
X96549383Y-70939609D01*
X96549383Y-71113687D01*
X96515422Y-71284421D01*
X96448805Y-71445248D01*
X96352092Y-71589989D01*
X96229000Y-71713081D01*
X96084259Y-71809794D01*
X95923432Y-71876411D01*
X95752698Y-71910372D01*
X95578620Y-71910372D01*
X95407886Y-71876411D01*
X95247059Y-71809794D01*
X95102318Y-71713081D01*
X94979226Y-71589989D01*
X94882513Y-71445248D01*
X94815896Y-71284421D01*
X94781935Y-71113687D01*
X94781935Y-70939609D01*
X94815896Y-70768875D01*
X94882513Y-70608048D01*
X94979226Y-70463307D01*
X95102318Y-70340215D01*
X95247059Y-70243502D01*
X95407886Y-70176885D01*
X95578620Y-70142924D01*
X95752698Y-70142924D01*
X95923432Y-70176885D01*
G37*
G36*
X84930132Y-69792991D02*
G01*
X85090959Y-69859608D01*
X85235700Y-69956321D01*
X85358792Y-70079413D01*
X85455505Y-70224154D01*
X85522122Y-70384981D01*
X85556083Y-70555715D01*
X85556083Y-70729793D01*
X85522122Y-70900527D01*
X85455505Y-71061354D01*
X85358792Y-71206095D01*
X85235700Y-71329187D01*
X85090959Y-71425900D01*
X84930132Y-71492517D01*
X84759398Y-71526478D01*
X84585320Y-71526478D01*
X84414586Y-71492517D01*
X84253759Y-71425900D01*
X84109018Y-71329187D01*
X83985926Y-71206095D01*
X83889213Y-71061354D01*
X83822596Y-70900527D01*
X83788635Y-70729793D01*
X83788635Y-70555715D01*
X83822596Y-70384981D01*
X83889213Y-70224154D01*
X83985926Y-70079413D01*
X84109018Y-69956321D01*
X84253759Y-69859608D01*
X84414586Y-69792991D01*
X84585320Y-69759030D01*
X84759398Y-69759030D01*
X84930132Y-69792991D01*
G37*
G36*
X72539066Y-66495394D02*
G01*
X72758661Y-66554234D01*
X72968697Y-66641234D01*
X73165580Y-66754905D01*
X73345942Y-66893301D01*
X73506697Y-67054056D01*
X73645093Y-67234418D01*
X73758764Y-67431301D01*
X73845764Y-67641337D01*
X73904604Y-67860932D01*
X73934278Y-68086328D01*
X73934278Y-68313670D01*
X73904604Y-68539066D01*
X73845764Y-68758661D01*
X73758764Y-68968697D01*
X73645093Y-69165580D01*
X73506697Y-69345942D01*
X73345942Y-69506697D01*
X73165580Y-69645093D01*
X72968697Y-69758764D01*
X72758661Y-69845764D01*
X72539066Y-69904604D01*
X72313670Y-69934278D01*
X72086328Y-69934278D01*
X71860932Y-69904604D01*
X71641337Y-69845764D01*
X71431301Y-69758764D01*
X71234418Y-69645093D01*
X71054056Y-69506697D01*
X70893301Y-69345942D01*
X70754905Y-69165580D01*
X70641234Y-68968697D01*
X70554234Y-68758661D01*
X70495394Y-68539066D01*
X70465720Y-68313670D01*
X70465720Y-68086328D01*
X70495394Y-67860932D01*
X70554234Y-67641337D01*
X70641234Y-67431301D01*
X70754905Y-67234418D01*
X70893301Y-67054056D01*
X71054056Y-66893301D01*
X71234418Y-66754905D01*
X71431301Y-66641234D01*
X71641337Y-66554234D01*
X71860932Y-66495394D01*
X72086328Y-66465720D01*
X72313670Y-66465720D01*
X72539066Y-66495394D01*
G37*
G36*
X77954422Y-67542183D02*
G01*
X78115249Y-67608800D01*
X78259990Y-67705513D01*
X78383082Y-67828605D01*
X78479795Y-67973346D01*
X78546412Y-68134173D01*
X78580373Y-68304907D01*
X78580373Y-68478985D01*
X78546412Y-68649719D01*
X78479795Y-68810546D01*
X78383082Y-68955287D01*
X78259990Y-69078379D01*
X78115249Y-69175092D01*
X77954422Y-69241709D01*
X77783688Y-69275670D01*
X77609610Y-69275670D01*
X77438876Y-69241709D01*
X77278049Y-69175092D01*
X77133308Y-69078379D01*
X77010216Y-68955287D01*
X76913503Y-68810546D01*
X76846886Y-68649719D01*
X76812925Y-68478985D01*
X76812925Y-68304907D01*
X76846886Y-68134173D01*
X76913503Y-67973346D01*
X77010216Y-67828605D01*
X77133308Y-67705513D01*
X77278049Y-67608800D01*
X77438876Y-67542183D01*
X77609610Y-67508222D01*
X77783688Y-67508222D01*
X77954422Y-67542183D01*
G37*
G36*
X66961122Y-67158289D02*
G01*
X67121949Y-67224906D01*
X67266690Y-67321619D01*
X67389782Y-67444711D01*
X67486495Y-67589452D01*
X67553112Y-67750279D01*
X67587073Y-67921013D01*
X67587073Y-68095091D01*
X67553112Y-68265825D01*
X67486495Y-68426652D01*
X67389782Y-68571393D01*
X67266690Y-68694485D01*
X67121949Y-68791198D01*
X66961122Y-68857815D01*
X66790388Y-68891776D01*
X66616310Y-68891776D01*
X66445576Y-68857815D01*
X66284749Y-68791198D01*
X66140008Y-68694485D01*
X66016916Y-68571393D01*
X65920203Y-68426652D01*
X65853586Y-68265825D01*
X65819625Y-68095091D01*
X65819625Y-67921013D01*
X65853586Y-67750279D01*
X65920203Y-67589452D01*
X66016916Y-67444711D01*
X66140008Y-67321619D01*
X66284749Y-67224906D01*
X66445576Y-67158289D01*
X66616310Y-67124328D01*
X66790388Y-67124328D01*
X66961122Y-67158289D01*
G37*
G36*
X108804135Y-62627172D02*
G01*
X109030048Y-62687705D01*
X109246126Y-62777208D01*
X109448674Y-62894148D01*
X109634224Y-63036526D01*
X109799604Y-63201906D01*
X109941982Y-63387456D01*
X110058922Y-63590004D01*
X110148425Y-63806082D01*
X110208958Y-64031995D01*
X110239486Y-64263875D01*
X110239486Y-64402846D01*
X110337632Y-64404560D01*
X110345593Y-64176583D01*
X110345593Y-64176581D01*
X110345765Y-64171664D01*
X110364814Y-64090768D01*
X110384287Y-64063717D01*
X110385225Y-64036859D01*
X110366293Y-64006263D01*
X110358265Y-63956970D01*
X110380492Y-63320482D01*
X110383221Y-63242328D01*
X110383221Y-63242326D01*
X110383393Y-63237409D01*
X110394839Y-63188796D01*
X110424019Y-63148262D01*
X110466489Y-63121981D01*
X110515782Y-63113954D01*
X111271370Y-63140339D01*
X111905012Y-63162467D01*
X111909932Y-63162639D01*
X111958545Y-63174085D01*
X111999079Y-63203265D01*
X112025359Y-63245735D01*
X112033387Y-63295028D01*
X112015540Y-63806082D01*
X112009212Y-63987317D01*
X112037460Y-64017610D01*
X112859748Y-64046325D01*
X112864668Y-64046497D01*
X112945564Y-64065545D01*
X113013013Y-64114101D01*
X113056745Y-64184772D01*
X113070104Y-64266800D01*
X113021245Y-65665948D01*
X113002196Y-65746844D01*
X112953641Y-65814293D01*
X112882969Y-65858025D01*
X112800941Y-65871384D01*
X110502342Y-65791115D01*
X110421446Y-65772067D01*
X110353997Y-65723511D01*
X110310265Y-65652840D01*
X110296906Y-65570812D01*
X110310847Y-65171585D01*
X110334008Y-64508324D01*
X110239132Y-64500440D01*
X110208958Y-64729637D01*
X110148425Y-64955550D01*
X110058922Y-65171628D01*
X109941982Y-65374176D01*
X109799604Y-65559726D01*
X109634224Y-65725106D01*
X109448674Y-65867484D01*
X109246126Y-65984424D01*
X109030048Y-66073927D01*
X108804135Y-66134460D01*
X108572255Y-66164988D01*
X108338373Y-66164988D01*
X108106493Y-66134460D01*
X107880580Y-66073927D01*
X107664502Y-65984424D01*
X107461954Y-65867484D01*
X107276404Y-65725106D01*
X107111024Y-65559726D01*
X106968646Y-65374176D01*
X106851706Y-65171628D01*
X106762203Y-64955550D01*
X106701670Y-64729637D01*
X106671142Y-64497757D01*
X106671142Y-64263875D01*
X106701670Y-64031995D01*
X106762203Y-63806082D01*
X106851706Y-63590004D01*
X106968646Y-63387456D01*
X107111024Y-63201906D01*
X107276404Y-63036526D01*
X107461954Y-62894148D01*
X107664502Y-62777208D01*
X107880580Y-62687705D01*
X108106493Y-62627172D01*
X108338373Y-62596644D01*
X108572255Y-62596644D01*
X108804135Y-62627172D01*
G37*
G36*
X135964230Y-64583778D02*
G01*
X136097891Y-64639142D01*
X136218182Y-64719518D01*
X136320482Y-64821818D01*
X136400858Y-64942109D01*
X136456222Y-65075770D01*
X136484446Y-65217663D01*
X136484446Y-65362337D01*
X136456222Y-65504230D01*
X136400858Y-65637891D01*
X136320482Y-65758182D01*
X136218182Y-65860482D01*
X136097891Y-65940858D01*
X135964230Y-65996222D01*
X135822337Y-66024446D01*
X135677663Y-66024446D01*
X135535770Y-65996222D01*
X135402109Y-65940858D01*
X135281818Y-65860482D01*
X135179518Y-65758182D01*
X135099142Y-65637891D01*
X135043778Y-65504230D01*
X135015554Y-65362337D01*
X135015554Y-65217663D01*
X135043778Y-65075770D01*
X135099142Y-64942109D01*
X135179518Y-64821818D01*
X135281818Y-64719518D01*
X135402109Y-64639142D01*
X135535770Y-64583778D01*
X135677663Y-64555554D01*
X135822337Y-64555554D01*
X135964230Y-64583778D01*
G37*
G36*
X52402638Y-61408700D02*
G01*
X52628551Y-61469233D01*
X52844629Y-61558736D01*
X53047177Y-61675676D01*
X53232727Y-61818054D01*
X53398107Y-61983434D01*
X53540485Y-62168984D01*
X53657425Y-62371532D01*
X53746928Y-62587610D01*
X53807461Y-62813523D01*
X53834975Y-63022510D01*
X53930610Y-63013723D01*
X53919102Y-62794142D01*
X53919103Y-62794133D01*
X53918846Y-62789224D01*
X53930772Y-62706975D01*
X53947813Y-62678330D01*
X53946406Y-62651491D01*
X53924879Y-62622663D01*
X53912586Y-62574257D01*
X53891908Y-62179705D01*
X53875161Y-61860164D01*
X53875161Y-61860159D01*
X53874904Y-61855244D01*
X53882070Y-61805818D01*
X53907606Y-61762896D01*
X53947624Y-61733013D01*
X53996030Y-61720720D01*
X54652295Y-61686326D01*
X55384196Y-61647968D01*
X55384200Y-61647968D01*
X55389118Y-61647711D01*
X55438544Y-61654878D01*
X55481466Y-61680413D01*
X55511349Y-61720431D01*
X55523642Y-61768837D01*
X55559895Y-62460600D01*
X55590676Y-62488314D01*
X56412335Y-62445252D01*
X56412344Y-62445253D01*
X56417254Y-62444996D01*
X56499503Y-62456922D01*
X56570927Y-62499414D01*
X56620652Y-62566005D01*
X56641110Y-62646556D01*
X56687208Y-63526158D01*
X56714123Y-64039719D01*
X56714122Y-64039723D01*
X56714380Y-64044638D01*
X56702454Y-64126887D01*
X56659962Y-64198310D01*
X56593371Y-64248036D01*
X56512820Y-64268493D01*
X55164479Y-64339156D01*
X54220890Y-64388609D01*
X54220886Y-64388608D01*
X54215972Y-64388866D01*
X54133723Y-64376940D01*
X54062299Y-64334448D01*
X54012574Y-64267857D01*
X53992116Y-64187306D01*
X53944935Y-63287041D01*
X53935262Y-63102468D01*
X53837989Y-63105015D01*
X53837989Y-63279285D01*
X53807461Y-63511165D01*
X53746928Y-63737078D01*
X53657425Y-63953156D01*
X53540485Y-64155704D01*
X53398107Y-64341254D01*
X53232727Y-64506634D01*
X53047177Y-64649012D01*
X52844629Y-64765952D01*
X52628551Y-64855455D01*
X52402638Y-64915988D01*
X52170758Y-64946516D01*
X51936876Y-64946516D01*
X51704996Y-64915988D01*
X51479083Y-64855455D01*
X51263005Y-64765952D01*
X51060457Y-64649012D01*
X50874907Y-64506634D01*
X50709527Y-64341254D01*
X50567149Y-64155704D01*
X50450209Y-63953156D01*
X50360706Y-63737078D01*
X50300173Y-63511165D01*
X50269645Y-63279285D01*
X50269645Y-63045403D01*
X50300173Y-62813523D01*
X50360706Y-62587610D01*
X50450209Y-62371532D01*
X50567149Y-62168984D01*
X50709527Y-61983434D01*
X50874907Y-61818054D01*
X51060457Y-61675676D01*
X51263005Y-61558736D01*
X51479083Y-61469233D01*
X51704996Y-61408700D01*
X51936876Y-61378172D01*
X52170758Y-61378172D01*
X52402638Y-61408700D01*
G37*
G36*
X32086428Y-60857336D02*
G01*
X32131784Y-60878246D01*
X32165686Y-60914921D01*
X32182971Y-60961777D01*
X32263344Y-61469233D01*
X32291335Y-61645959D01*
X32324845Y-61670305D01*
X33137501Y-61541592D01*
X33137508Y-61541592D01*
X33142366Y-61540823D01*
X33225411Y-61544086D01*
X33300885Y-61578880D01*
X33357298Y-61639908D01*
X33386064Y-61717880D01*
X33530682Y-62630964D01*
X33599278Y-63064065D01*
X33605072Y-63100644D01*
X33601809Y-63183689D01*
X33567016Y-63259163D01*
X33505987Y-63315576D01*
X33428015Y-63344342D01*
X31546687Y-63642314D01*
X31161196Y-63703371D01*
X31161194Y-63703370D01*
X31156332Y-63704141D01*
X31073287Y-63700878D01*
X30997813Y-63666084D01*
X30941400Y-63605056D01*
X30912634Y-63527084D01*
X30745006Y-62468720D01*
X30647435Y-62482867D01*
X30661988Y-62593404D01*
X30661988Y-62827286D01*
X30631460Y-63059166D01*
X30570927Y-63285079D01*
X30481424Y-63501157D01*
X30364484Y-63703705D01*
X30222106Y-63889255D01*
X30056726Y-64054635D01*
X29871176Y-64197013D01*
X29668628Y-64313953D01*
X29452550Y-64403456D01*
X29226637Y-64463989D01*
X28994757Y-64494517D01*
X28760875Y-64494517D01*
X28528995Y-64463989D01*
X28303082Y-64403456D01*
X28087004Y-64313953D01*
X27884456Y-64197013D01*
X27698906Y-64054635D01*
X27533526Y-63889255D01*
X27391148Y-63703705D01*
X27274208Y-63501157D01*
X27184705Y-63285079D01*
X27124172Y-63059166D01*
X27093644Y-62827286D01*
X27093644Y-62593404D01*
X27124172Y-62361524D01*
X27184705Y-62135611D01*
X27274208Y-61919533D01*
X27391148Y-61716985D01*
X27533526Y-61531435D01*
X27698906Y-61366055D01*
X27884456Y-61223677D01*
X28087004Y-61106737D01*
X28303082Y-61017234D01*
X28528995Y-60956701D01*
X28760875Y-60926173D01*
X28994757Y-60926173D01*
X29226637Y-60956701D01*
X29452550Y-61017234D01*
X29668628Y-61106737D01*
X29871176Y-61223677D01*
X30056726Y-61366055D01*
X30222106Y-61531435D01*
X30364484Y-61716985D01*
X30481424Y-61919533D01*
X30570927Y-62135611D01*
X30631460Y-62361524D01*
X30631566Y-62362336D01*
X30633140Y-62368207D01*
X30725961Y-62348478D01*
X30694395Y-62149183D01*
X30694395Y-62149176D01*
X30693626Y-62144320D01*
X30696889Y-62061275D01*
X30710842Y-62031006D01*
X30706637Y-62004459D01*
X30682216Y-61978041D01*
X30664931Y-61931185D01*
X30663085Y-61919533D01*
X30553067Y-61224912D01*
X30553067Y-61224906D01*
X30552298Y-61220050D01*
X30554258Y-61170146D01*
X30575167Y-61124789D01*
X30611843Y-61090888D01*
X30658698Y-61073602D01*
X31556173Y-60931456D01*
X32031660Y-60856146D01*
X32031661Y-60856146D01*
X32036524Y-60855376D01*
X32086428Y-60857336D01*
G37*
G36*
X113888086Y-60861149D02*
G01*
X114117614Y-60935727D01*
X114332650Y-61045293D01*
X114527898Y-61187150D01*
X114698551Y-61357803D01*
X114840408Y-61553051D01*
X114949974Y-61768087D01*
X115024552Y-61997615D01*
X115062306Y-62235984D01*
X115062306Y-62477324D01*
X115024552Y-62715693D01*
X114949974Y-62945221D01*
X114840408Y-63160257D01*
X114698551Y-63355505D01*
X114527898Y-63526158D01*
X114332650Y-63668015D01*
X114117614Y-63777581D01*
X113888086Y-63852159D01*
X113649717Y-63889913D01*
X113408377Y-63889913D01*
X113170008Y-63852159D01*
X112940480Y-63777581D01*
X112725444Y-63668015D01*
X112530196Y-63526158D01*
X112359543Y-63355505D01*
X112217686Y-63160257D01*
X112108120Y-62945221D01*
X112033542Y-62715693D01*
X111995788Y-62477324D01*
X111995788Y-62235984D01*
X112033542Y-61997615D01*
X112108120Y-61768087D01*
X112217686Y-61553051D01*
X112359543Y-61357803D01*
X112530196Y-61187150D01*
X112725444Y-61045293D01*
X112940480Y-60935727D01*
X113170008Y-60861149D01*
X113408377Y-60823395D01*
X113649717Y-60823395D01*
X113888086Y-60861149D01*
G37*
G36*
X103894178Y-60512154D02*
G01*
X104123706Y-60586732D01*
X104338742Y-60696298D01*
X104533990Y-60838155D01*
X104704643Y-61008808D01*
X104846500Y-61204056D01*
X104956066Y-61419092D01*
X105030644Y-61648620D01*
X105068398Y-61886989D01*
X105068398Y-62128329D01*
X105030644Y-62366698D01*
X104956066Y-62596226D01*
X104846500Y-62811262D01*
X104704643Y-63006510D01*
X104533990Y-63177163D01*
X104338742Y-63319020D01*
X104123706Y-63428586D01*
X103894178Y-63503164D01*
X103655809Y-63540918D01*
X103414469Y-63540918D01*
X103176100Y-63503164D01*
X102946572Y-63428586D01*
X102731536Y-63319020D01*
X102536288Y-63177163D01*
X102365635Y-63006510D01*
X102223778Y-62811262D01*
X102114212Y-62596226D01*
X102039634Y-62366698D01*
X102001880Y-62128329D01*
X102001880Y-61886989D01*
X102039634Y-61648620D01*
X102114212Y-61419092D01*
X102223778Y-61204056D01*
X102365635Y-61008808D01*
X102536288Y-60838155D01*
X102731536Y-60696298D01*
X102946572Y-60586732D01*
X103176100Y-60512154D01*
X103414469Y-60474400D01*
X103655809Y-60474400D01*
X103894178Y-60512154D01*
G37*
G36*
X135964230Y-62043778D02*
G01*
X136097891Y-62099142D01*
X136218182Y-62179518D01*
X136320482Y-62281818D01*
X136400858Y-62402109D01*
X136456222Y-62535770D01*
X136484446Y-62677663D01*
X136484446Y-62822337D01*
X136456222Y-62964230D01*
X136400858Y-63097891D01*
X136320482Y-63218182D01*
X136218182Y-63320482D01*
X136097891Y-63400858D01*
X135964230Y-63456222D01*
X135822337Y-63484446D01*
X135677663Y-63484446D01*
X135535770Y-63456222D01*
X135402109Y-63400858D01*
X135281818Y-63320482D01*
X135179518Y-63218182D01*
X135099142Y-63097891D01*
X135043778Y-62964230D01*
X135015554Y-62822337D01*
X135015554Y-62677663D01*
X135043778Y-62535770D01*
X135099142Y-62402109D01*
X135179518Y-62281818D01*
X135281818Y-62179518D01*
X135402109Y-62099142D01*
X135535770Y-62043778D01*
X135677663Y-62015554D01*
X135822337Y-62015554D01*
X135964230Y-62043778D01*
G37*
G36*
X21310488Y-60338659D02*
G01*
X21318071Y-60338565D01*
X21367978Y-60353874D01*
X21407245Y-60364266D01*
X21411182Y-60367126D01*
X21412145Y-60367422D01*
X21491327Y-60424950D01*
X21491907Y-60425777D01*
X21495843Y-60428637D01*
X21517862Y-60462773D01*
X21547839Y-60505501D01*
X21550090Y-60512735D01*
X21555207Y-60520667D01*
X21573697Y-60586816D01*
X21899081Y-62641208D01*
X21901937Y-62709833D01*
X21899522Y-62718954D01*
X21899617Y-62726530D01*
X21884314Y-62776416D01*
X21873917Y-62815703D01*
X21871056Y-62819640D01*
X21870760Y-62820606D01*
X21813236Y-62899783D01*
X21812408Y-62900363D01*
X21809547Y-62904302D01*
X21775378Y-62926342D01*
X21732678Y-62956299D01*
X21725448Y-62958549D01*
X21717516Y-62963666D01*
X21651367Y-62982156D01*
X19547591Y-63315362D01*
X19478966Y-63318217D01*
X19469847Y-63315803D01*
X19462268Y-63315898D01*
X19412377Y-63300594D01*
X19373095Y-63290198D01*
X19369155Y-63287336D01*
X19368194Y-63287041D01*
X19289012Y-63229513D01*
X19288431Y-63228685D01*
X19284497Y-63225827D01*
X19262480Y-63191695D01*
X19232500Y-63148962D01*
X19230247Y-63141726D01*
X19225133Y-63133797D01*
X19206643Y-63067648D01*
X19206076Y-63064068D01*
X19206075Y-63064065D01*
X18881826Y-61016836D01*
X18881825Y-61016835D01*
X18881259Y-61013256D01*
X18878403Y-60944631D01*
X18880816Y-60935513D01*
X18880722Y-60927933D01*
X18896033Y-60878016D01*
X18906423Y-60838761D01*
X18909281Y-60834826D01*
X18909579Y-60833857D01*
X18967103Y-60754680D01*
X18967934Y-60754096D01*
X18970793Y-60750162D01*
X19004931Y-60728141D01*
X19047661Y-60698164D01*
X19054895Y-60695912D01*
X19062824Y-60690798D01*
X19128973Y-60672308D01*
X19132548Y-60671741D01*
X19132554Y-60671740D01*
X21229168Y-60339669D01*
X21229169Y-60339668D01*
X21232749Y-60339102D01*
X21301374Y-60336247D01*
X21310488Y-60338659D01*
G37*
G36*
X100837887Y-60574653D02*
G01*
X101399544Y-60594266D01*
X101399548Y-60594266D01*
X101403163Y-60594393D01*
X101471072Y-60604684D01*
X101479562Y-60608792D01*
X101487021Y-60610147D01*
X101533098Y-60634700D01*
X101569651Y-60652390D01*
X101572967Y-60655946D01*
X101573860Y-60656422D01*
X101640607Y-60728000D01*
X101641018Y-60728922D01*
X101644339Y-60732483D01*
X101659446Y-60770209D01*
X101680715Y-60817860D01*
X101681545Y-60825392D01*
X101685052Y-60834150D01*
X101690581Y-60902612D01*
X101617990Y-62981344D01*
X101607699Y-63049254D01*
X101603588Y-63057748D01*
X101602235Y-63065202D01*
X101577703Y-63111237D01*
X101559994Y-63147833D01*
X101556432Y-63151153D01*
X101555959Y-63152043D01*
X101484382Y-63218789D01*
X101483461Y-63219199D01*
X101479900Y-63222521D01*
X101442163Y-63237632D01*
X101394522Y-63258897D01*
X101386990Y-63259726D01*
X101378233Y-63263234D01*
X101309772Y-63268763D01*
X99181069Y-63194427D01*
X99113160Y-63184136D01*
X99104666Y-63180025D01*
X99097210Y-63178672D01*
X99051143Y-63154123D01*
X99014581Y-63136430D01*
X99011263Y-63132872D01*
X99010371Y-63132397D01*
X98943624Y-63060819D01*
X98943212Y-63059896D01*
X98939893Y-63056337D01*
X98924790Y-63018622D01*
X98903516Y-62970959D01*
X98902685Y-62963424D01*
X98899180Y-62954670D01*
X98893651Y-62886208D01*
X98933891Y-61733897D01*
X98966115Y-60811094D01*
X98966115Y-60811089D01*
X98966242Y-60807476D01*
X98976533Y-60739566D01*
X98980642Y-60731074D01*
X98981996Y-60723617D01*
X99006543Y-60677551D01*
X99024238Y-60640987D01*
X99027796Y-60637669D01*
X99028272Y-60636776D01*
X99099849Y-60570030D01*
X99100773Y-60569617D01*
X99104332Y-60566299D01*
X99142036Y-60551199D01*
X99189709Y-60529922D01*
X99197244Y-60529091D01*
X99205999Y-60525586D01*
X99274460Y-60520057D01*
X100837887Y-60574653D01*
G37*
G36*
X23954258Y-59824098D02*
G01*
X24183786Y-59898676D01*
X24398822Y-60008242D01*
X24594070Y-60150099D01*
X24764723Y-60320752D01*
X24906580Y-60516000D01*
X25016146Y-60731036D01*
X25090724Y-60960564D01*
X25128478Y-61198933D01*
X25128478Y-61440273D01*
X25090724Y-61678642D01*
X25016146Y-61908170D01*
X24906580Y-62123206D01*
X24764723Y-62318454D01*
X24594070Y-62489107D01*
X24398822Y-62630964D01*
X24183786Y-62740530D01*
X23954258Y-62815108D01*
X23715889Y-62852862D01*
X23474549Y-62852862D01*
X23236180Y-62815108D01*
X23006652Y-62740530D01*
X22791616Y-62630964D01*
X22596368Y-62489107D01*
X22425715Y-62318454D01*
X22283858Y-62123206D01*
X22174292Y-61908170D01*
X22099714Y-61678642D01*
X22061960Y-61440273D01*
X22061960Y-61198933D01*
X22099714Y-60960564D01*
X22174292Y-60731036D01*
X22283858Y-60516000D01*
X22425715Y-60320752D01*
X22596368Y-60150099D01*
X22791616Y-60008242D01*
X23006652Y-59898676D01*
X23236180Y-59824098D01*
X23474549Y-59786344D01*
X23715889Y-59786344D01*
X23954258Y-59824098D01*
G37*
G36*
X44767040Y-60009298D02*
G01*
X44775856Y-60012651D01*
X44783403Y-60013350D01*
X44831419Y-60033783D01*
X44869402Y-60048230D01*
X44873019Y-60051487D01*
X44873945Y-60051881D01*
X44946680Y-60117371D01*
X44947171Y-60118255D01*
X44950786Y-60121510D01*
X44969118Y-60157764D01*
X44994463Y-60203389D01*
X44995945Y-60210818D01*
X45000205Y-60219241D01*
X45011680Y-60286960D01*
X45089341Y-61768837D01*
X45120349Y-62360489D01*
X45120348Y-62360494D01*
X45120538Y-62364110D01*
X45116205Y-62432658D01*
X45112851Y-62441474D01*
X45112153Y-62449021D01*
X45091719Y-62497035D01*
X45077273Y-62535019D01*
X45074015Y-62538636D01*
X45073621Y-62539564D01*
X45008133Y-62612297D01*
X45007250Y-62612787D01*
X45003994Y-62616404D01*
X44967722Y-62634745D01*
X44922113Y-62660081D01*
X44914685Y-62661563D01*
X44906262Y-62665823D01*
X44838543Y-62677298D01*
X43329160Y-62756401D01*
X42715083Y-62788584D01*
X42715077Y-62788583D01*
X42711462Y-62788773D01*
X42642914Y-62784440D01*
X42634094Y-62781085D01*
X42626550Y-62780387D01*
X42578547Y-62759958D01*
X42540552Y-62745508D01*
X42536933Y-62742249D01*
X42536008Y-62741856D01*
X42463273Y-62676366D01*
X42462782Y-62675482D01*
X42459168Y-62672228D01*
X42440840Y-62635982D01*
X42415490Y-62590348D01*
X42414006Y-62582917D01*
X42409749Y-62574497D01*
X42398274Y-62506778D01*
X42356120Y-61702427D01*
X42289604Y-60433248D01*
X42289605Y-60433236D01*
X42289416Y-60429628D01*
X42293749Y-60361080D01*
X42297100Y-60352266D01*
X42297800Y-60344716D01*
X42318246Y-60296670D01*
X42332681Y-60258719D01*
X42335935Y-60255104D01*
X42336332Y-60254173D01*
X42401820Y-60181440D01*
X42402706Y-60180947D01*
X42405960Y-60177334D01*
X42442200Y-60159008D01*
X42487840Y-60133656D01*
X42495272Y-60132172D01*
X42503692Y-60127915D01*
X42571411Y-60116440D01*
X43264747Y-60080104D01*
X44694870Y-60005153D01*
X44694882Y-60005154D01*
X44698492Y-60004965D01*
X44767040Y-60009298D01*
G37*
G36*
X47304569Y-59731534D02*
G01*
X47534097Y-59806112D01*
X47749133Y-59915678D01*
X47944381Y-60057535D01*
X48115034Y-60228188D01*
X48256891Y-60423436D01*
X48366457Y-60638472D01*
X48441035Y-60868000D01*
X48478789Y-61106369D01*
X48478789Y-61347709D01*
X48441035Y-61586078D01*
X48366457Y-61815606D01*
X48256891Y-62030642D01*
X48115034Y-62225890D01*
X47944381Y-62396543D01*
X47749133Y-62538400D01*
X47534097Y-62647966D01*
X47304569Y-62722544D01*
X47066200Y-62760298D01*
X46824860Y-62760298D01*
X46586491Y-62722544D01*
X46356963Y-62647966D01*
X46141927Y-62538400D01*
X45946679Y-62396543D01*
X45776026Y-62225890D01*
X45634169Y-62030642D01*
X45524603Y-61815606D01*
X45450025Y-61586078D01*
X45412271Y-61347709D01*
X45412271Y-61106369D01*
X45450025Y-60868000D01*
X45524603Y-60638472D01*
X45634169Y-60423436D01*
X45776026Y-60228188D01*
X45946679Y-60057535D01*
X46141927Y-59915678D01*
X46356963Y-59806112D01*
X46586491Y-59731534D01*
X46824860Y-59693780D01*
X47066200Y-59693780D01*
X47304569Y-59731534D01*
G37*
G36*
X57290865Y-59208174D02*
G01*
X57520393Y-59282752D01*
X57735429Y-59392318D01*
X57930677Y-59534175D01*
X58101330Y-59704828D01*
X58243187Y-59900076D01*
X58352753Y-60115112D01*
X58427331Y-60344640D01*
X58465085Y-60583009D01*
X58465085Y-60824349D01*
X58427331Y-61062718D01*
X58352753Y-61292246D01*
X58243187Y-61507282D01*
X58101330Y-61702530D01*
X57930677Y-61873183D01*
X57735429Y-62015040D01*
X57520393Y-62124606D01*
X57290865Y-62199184D01*
X57052496Y-62236938D01*
X56811156Y-62236938D01*
X56572787Y-62199184D01*
X56343259Y-62124606D01*
X56128223Y-62015040D01*
X55932975Y-61873183D01*
X55762322Y-61702530D01*
X55620465Y-61507282D01*
X55510899Y-61292246D01*
X55436321Y-61062718D01*
X55398567Y-60824349D01*
X55398567Y-60583009D01*
X55436321Y-60344640D01*
X55510899Y-60115112D01*
X55620465Y-59900076D01*
X55762322Y-59704828D01*
X55932975Y-59534175D01*
X56128223Y-59392318D01*
X56343259Y-59282752D01*
X56572787Y-59208174D01*
X56811156Y-59170420D01*
X57052496Y-59170420D01*
X57290865Y-59208174D01*
G37*
G36*
X90905106Y-57987816D02*
G01*
X91131019Y-58048349D01*
X91347097Y-58137852D01*
X91549645Y-58254792D01*
X91735195Y-58397170D01*
X91900575Y-58562550D01*
X92042953Y-58748100D01*
X92159893Y-58950648D01*
X92249396Y-59166726D01*
X92309929Y-59392639D01*
X92340457Y-59624519D01*
X92340457Y-59763490D01*
X92438603Y-59765204D01*
X92446564Y-59537227D01*
X92446564Y-59537225D01*
X92446736Y-59532308D01*
X92465785Y-59451412D01*
X92485258Y-59424361D01*
X92486196Y-59397503D01*
X92467264Y-59366907D01*
X92459236Y-59317614D01*
X92482005Y-58665592D01*
X92484192Y-58602972D01*
X92484192Y-58602970D01*
X92484364Y-58598053D01*
X92495810Y-58549440D01*
X92524990Y-58508906D01*
X92567460Y-58482625D01*
X92616753Y-58474598D01*
X93349752Y-58500195D01*
X94005983Y-58523111D01*
X94010903Y-58523283D01*
X94059516Y-58534729D01*
X94100050Y-58563909D01*
X94126330Y-58606379D01*
X94134358Y-58655672D01*
X94116510Y-59166763D01*
X94110183Y-59347961D01*
X94138431Y-59378254D01*
X94960719Y-59406969D01*
X94965639Y-59407141D01*
X95046535Y-59426189D01*
X95113984Y-59474745D01*
X95157716Y-59545416D01*
X95171075Y-59627444D01*
X95122216Y-61026592D01*
X95103167Y-61107488D01*
X95054612Y-61174937D01*
X94983940Y-61218669D01*
X94901912Y-61232028D01*
X92603313Y-61151759D01*
X92522417Y-61132711D01*
X92454968Y-61084155D01*
X92411236Y-61013484D01*
X92397877Y-60931456D01*
X92412519Y-60512154D01*
X92434979Y-59868968D01*
X92340103Y-59861084D01*
X92309929Y-60090281D01*
X92249396Y-60316194D01*
X92159893Y-60532272D01*
X92042953Y-60734820D01*
X91900575Y-60920370D01*
X91735195Y-61085750D01*
X91549645Y-61228128D01*
X91347097Y-61345068D01*
X91131019Y-61434571D01*
X90905106Y-61495104D01*
X90673226Y-61525632D01*
X90439344Y-61525632D01*
X90207464Y-61495104D01*
X89981551Y-61434571D01*
X89765473Y-61345068D01*
X89562925Y-61228128D01*
X89377375Y-61085750D01*
X89211995Y-60920370D01*
X89069617Y-60734820D01*
X88952677Y-60532272D01*
X88863174Y-60316194D01*
X88802641Y-60090281D01*
X88772113Y-59858401D01*
X88772113Y-59624519D01*
X88802641Y-59392639D01*
X88863174Y-59166726D01*
X88952677Y-58950648D01*
X89069617Y-58748100D01*
X89211995Y-58562550D01*
X89377375Y-58397170D01*
X89562925Y-58254792D01*
X89765473Y-58137852D01*
X89981551Y-58048349D01*
X90207464Y-57987816D01*
X90439344Y-57957288D01*
X90673226Y-57957288D01*
X90905106Y-57987816D01*
G37*
G36*
X33831141Y-58259753D02*
G01*
X34060669Y-58334331D01*
X34275705Y-58443897D01*
X34470953Y-58585754D01*
X34641606Y-58756407D01*
X34783463Y-58951655D01*
X34893029Y-59166691D01*
X34967607Y-59396219D01*
X35005361Y-59634588D01*
X35005361Y-59875928D01*
X34967607Y-60114297D01*
X34893029Y-60343825D01*
X34783463Y-60558861D01*
X34641606Y-60754109D01*
X34470953Y-60924762D01*
X34275705Y-61066619D01*
X34060669Y-61176185D01*
X33831141Y-61250763D01*
X33592772Y-61288517D01*
X33351432Y-61288517D01*
X33113063Y-61250763D01*
X32883535Y-61176185D01*
X32668499Y-61066619D01*
X32473251Y-60924762D01*
X32302598Y-60754109D01*
X32160741Y-60558861D01*
X32051175Y-60343825D01*
X31976597Y-60114297D01*
X31938843Y-59875928D01*
X31938843Y-59634588D01*
X31976597Y-59396219D01*
X32051175Y-59166691D01*
X32160741Y-58951655D01*
X32302598Y-58756407D01*
X32473251Y-58585754D01*
X32668499Y-58443897D01*
X32883535Y-58334331D01*
X33113063Y-58259753D01*
X33351432Y-58221999D01*
X33592772Y-58221999D01*
X33831141Y-58259753D01*
G37*
G36*
X109002033Y-56729836D02*
G01*
X109221628Y-56788676D01*
X109431664Y-56875676D01*
X109628547Y-56989347D01*
X109808909Y-57127743D01*
X109969664Y-57288498D01*
X110108060Y-57468860D01*
X110221731Y-57665743D01*
X110308731Y-57875779D01*
X110367571Y-58095374D01*
X110397245Y-58320770D01*
X110397245Y-58548112D01*
X110367571Y-58773508D01*
X110308731Y-58993103D01*
X110221731Y-59203139D01*
X110108060Y-59400022D01*
X109969664Y-59580384D01*
X109808909Y-59741139D01*
X109628547Y-59879535D01*
X109431664Y-59993206D01*
X109221628Y-60080206D01*
X109002033Y-60139046D01*
X108776637Y-60168720D01*
X108549295Y-60168720D01*
X108323899Y-60139046D01*
X108104304Y-60080206D01*
X107894268Y-59993206D01*
X107697385Y-59879535D01*
X107517023Y-59741139D01*
X107356268Y-59580384D01*
X107217872Y-59400022D01*
X107104201Y-59203139D01*
X107017201Y-58993103D01*
X106958361Y-58773508D01*
X106928687Y-58548112D01*
X106928687Y-58320770D01*
X106958361Y-58095374D01*
X107017201Y-57875779D01*
X107104201Y-57665743D01*
X107217872Y-57468860D01*
X107356268Y-57288498D01*
X107517023Y-57127743D01*
X107697385Y-56989347D01*
X107894268Y-56875676D01*
X108104304Y-56788676D01*
X108323899Y-56729836D01*
X108549295Y-56700162D01*
X108776637Y-56700162D01*
X109002033Y-56729836D01*
G37*
G36*
X114417389Y-57776625D02*
G01*
X114578216Y-57843242D01*
X114722957Y-57939955D01*
X114846049Y-58063047D01*
X114942762Y-58207788D01*
X115009379Y-58368615D01*
X115043340Y-58539349D01*
X115043340Y-58713427D01*
X115009379Y-58884161D01*
X114942762Y-59044988D01*
X114846049Y-59189729D01*
X114722957Y-59312821D01*
X114578216Y-59409534D01*
X114417389Y-59476151D01*
X114246655Y-59510112D01*
X114072577Y-59510112D01*
X113901843Y-59476151D01*
X113741016Y-59409534D01*
X113596275Y-59312821D01*
X113473183Y-59189729D01*
X113376470Y-59044988D01*
X113309853Y-58884161D01*
X113275892Y-58713427D01*
X113275892Y-58539349D01*
X113309853Y-58368615D01*
X113376470Y-58207788D01*
X113473183Y-58063047D01*
X113596275Y-57939955D01*
X113741016Y-57843242D01*
X113901843Y-57776625D01*
X114072577Y-57742664D01*
X114246655Y-57742664D01*
X114417389Y-57776625D01*
G37*
G36*
X95989057Y-56221793D02*
G01*
X96218585Y-56296371D01*
X96433621Y-56405937D01*
X96628869Y-56547794D01*
X96799522Y-56718447D01*
X96941379Y-56913695D01*
X97050945Y-57128731D01*
X97125523Y-57358259D01*
X97163277Y-57596628D01*
X97163277Y-57837968D01*
X97125523Y-58076337D01*
X97050945Y-58305865D01*
X96941379Y-58520901D01*
X96799522Y-58716149D01*
X96628869Y-58886802D01*
X96433621Y-59028659D01*
X96218585Y-59138225D01*
X95989057Y-59212803D01*
X95750688Y-59250557D01*
X95509348Y-59250557D01*
X95270979Y-59212803D01*
X95041451Y-59138225D01*
X94826415Y-59028659D01*
X94631167Y-58886802D01*
X94460514Y-58716149D01*
X94318657Y-58520901D01*
X94209091Y-58305865D01*
X94134513Y-58076337D01*
X94096759Y-57837968D01*
X94096759Y-57596628D01*
X94134513Y-57358259D01*
X94209091Y-57128731D01*
X94318657Y-56913695D01*
X94460514Y-56718447D01*
X94631167Y-56547794D01*
X94826415Y-56405937D01*
X95041451Y-56296371D01*
X95270979Y-56221793D01*
X95509348Y-56184039D01*
X95750688Y-56184039D01*
X95989057Y-56221793D01*
G37*
G36*
X103424089Y-57392731D02*
G01*
X103584916Y-57459348D01*
X103729657Y-57556061D01*
X103852749Y-57679153D01*
X103949462Y-57823894D01*
X104016079Y-57984721D01*
X104050040Y-58155455D01*
X104050040Y-58329533D01*
X104016079Y-58500267D01*
X103949462Y-58661094D01*
X103852749Y-58805835D01*
X103729657Y-58928927D01*
X103584916Y-59025640D01*
X103424089Y-59092257D01*
X103253355Y-59126218D01*
X103079277Y-59126218D01*
X102908543Y-59092257D01*
X102747716Y-59025640D01*
X102602975Y-58928927D01*
X102479883Y-58805835D01*
X102383170Y-58661094D01*
X102316553Y-58500267D01*
X102282592Y-58329533D01*
X102282592Y-58155455D01*
X102316553Y-57984721D01*
X102383170Y-57823894D01*
X102479883Y-57679153D01*
X102602975Y-57556061D01*
X102747716Y-57459348D01*
X102908543Y-57392731D01*
X103079277Y-57358770D01*
X103253355Y-57358770D01*
X103424089Y-57392731D01*
G37*
G36*
X52081485Y-55515893D02*
G01*
X52301080Y-55574733D01*
X52511116Y-55661733D01*
X52707999Y-55775404D01*
X52888361Y-55913800D01*
X53049116Y-56074555D01*
X53187512Y-56254917D01*
X53301183Y-56451800D01*
X53388183Y-56661836D01*
X53447023Y-56881431D01*
X53476697Y-57106827D01*
X53476697Y-57334169D01*
X53447023Y-57559565D01*
X53388183Y-57779160D01*
X53301183Y-57989196D01*
X53187512Y-58186079D01*
X53049116Y-58366441D01*
X52888361Y-58527196D01*
X52707999Y-58665592D01*
X52511116Y-58779263D01*
X52301080Y-58866263D01*
X52081485Y-58925103D01*
X51856089Y-58954777D01*
X51628747Y-58954777D01*
X51403351Y-58925103D01*
X51183756Y-58866263D01*
X50973720Y-58779263D01*
X50776837Y-58665592D01*
X50596475Y-58527196D01*
X50435720Y-58366441D01*
X50297324Y-58186079D01*
X50183653Y-57989196D01*
X50096653Y-57779160D01*
X50037813Y-57559565D01*
X50008139Y-57334169D01*
X50008139Y-57106827D01*
X50037813Y-56881431D01*
X50096653Y-56661836D01*
X50183653Y-56451800D01*
X50297324Y-56254917D01*
X50435720Y-56074555D01*
X50596475Y-55913800D01*
X50776837Y-55775404D01*
X50973720Y-55661733D01*
X51183756Y-55574733D01*
X51403351Y-55515893D01*
X51628747Y-55486219D01*
X51856089Y-55486219D01*
X52081485Y-55515893D01*
G37*
G36*
X85995149Y-55872798D02*
G01*
X86224677Y-55947376D01*
X86439713Y-56056942D01*
X86634961Y-56198799D01*
X86805614Y-56369452D01*
X86947471Y-56564700D01*
X87057037Y-56779736D01*
X87131615Y-57009264D01*
X87169369Y-57247633D01*
X87169369Y-57488973D01*
X87131615Y-57727342D01*
X87057037Y-57956870D01*
X86947471Y-58171906D01*
X86805614Y-58367154D01*
X86634961Y-58537807D01*
X86439713Y-58679664D01*
X86224677Y-58789230D01*
X85995149Y-58863808D01*
X85756780Y-58901562D01*
X85515440Y-58901562D01*
X85277071Y-58863808D01*
X85047543Y-58789230D01*
X84832507Y-58679664D01*
X84637259Y-58537807D01*
X84466606Y-58367154D01*
X84324749Y-58171906D01*
X84215183Y-57956870D01*
X84140605Y-57727342D01*
X84102851Y-57488973D01*
X84102851Y-57247633D01*
X84140605Y-57009264D01*
X84215183Y-56779736D01*
X84324749Y-56564700D01*
X84466606Y-56369452D01*
X84637259Y-56198799D01*
X84832507Y-56056942D01*
X85047543Y-55947376D01*
X85277071Y-55872798D01*
X85515440Y-55835044D01*
X85756780Y-55835044D01*
X85995149Y-55872798D01*
G37*
G36*
X72936096Y-55353113D02*
G01*
X73162009Y-55413646D01*
X73378087Y-55503149D01*
X73580635Y-55620089D01*
X73766185Y-55762467D01*
X73931565Y-55927847D01*
X74073943Y-56113397D01*
X74190883Y-56315945D01*
X74280386Y-56532023D01*
X74340919Y-56757936D01*
X74371447Y-56989816D01*
X74371447Y-57128787D01*
X74469593Y-57130501D01*
X74477554Y-56902524D01*
X74477554Y-56902522D01*
X74477726Y-56897605D01*
X74496775Y-56816709D01*
X74516248Y-56789658D01*
X74517186Y-56762800D01*
X74498254Y-56732204D01*
X74490226Y-56682911D01*
X74514259Y-55994704D01*
X74515182Y-55968269D01*
X74515182Y-55968267D01*
X74515354Y-55963350D01*
X74526800Y-55914737D01*
X74555980Y-55874203D01*
X74598450Y-55847922D01*
X74647743Y-55839895D01*
X75403331Y-55866280D01*
X76036973Y-55888408D01*
X76041893Y-55888580D01*
X76090506Y-55900026D01*
X76131040Y-55929206D01*
X76157320Y-55971676D01*
X76165348Y-56020969D01*
X76148129Y-56514050D01*
X76141173Y-56713258D01*
X76169421Y-56743551D01*
X76991709Y-56772266D01*
X76996629Y-56772438D01*
X77077525Y-56791486D01*
X77144974Y-56840042D01*
X77188706Y-56910713D01*
X77202065Y-56992741D01*
X77153206Y-58391889D01*
X77134157Y-58472785D01*
X77085602Y-58540234D01*
X77014930Y-58583966D01*
X76932902Y-58597325D01*
X74634303Y-58517056D01*
X74553407Y-58498008D01*
X74485958Y-58449452D01*
X74442226Y-58378781D01*
X74428867Y-58296753D01*
X74439947Y-57979467D01*
X74465969Y-57234265D01*
X74371093Y-57226381D01*
X74340919Y-57455578D01*
X74280386Y-57681491D01*
X74190883Y-57897569D01*
X74073943Y-58100117D01*
X73931565Y-58285667D01*
X73766185Y-58451047D01*
X73580635Y-58593425D01*
X73378087Y-58710365D01*
X73162009Y-58799868D01*
X72936096Y-58860401D01*
X72704216Y-58890929D01*
X72470334Y-58890929D01*
X72238454Y-58860401D01*
X72012541Y-58799868D01*
X71796463Y-58710365D01*
X71593915Y-58593425D01*
X71408365Y-58451047D01*
X71242985Y-58285667D01*
X71100607Y-58100117D01*
X70983667Y-57897569D01*
X70894164Y-57681491D01*
X70833631Y-57455578D01*
X70803103Y-57223698D01*
X70803103Y-56989816D01*
X70833631Y-56757936D01*
X70894164Y-56532023D01*
X70983667Y-56315945D01*
X71100607Y-56113397D01*
X71242985Y-55927847D01*
X71408365Y-55762467D01*
X71593915Y-55620089D01*
X71796463Y-55503149D01*
X72012541Y-55413646D01*
X72238454Y-55353113D01*
X72470334Y-55322585D01*
X72704216Y-55322585D01*
X72936096Y-55353113D01*
G37*
G36*
X82938858Y-55935297D02*
G01*
X83500515Y-55954910D01*
X83500519Y-55954910D01*
X83504134Y-55955037D01*
X83572043Y-55965328D01*
X83580533Y-55969436D01*
X83587992Y-55970791D01*
X83634069Y-55995344D01*
X83670622Y-56013034D01*
X83673938Y-56016590D01*
X83674831Y-56017066D01*
X83741578Y-56088644D01*
X83741989Y-56089566D01*
X83745310Y-56093127D01*
X83760417Y-56130853D01*
X83781686Y-56178504D01*
X83782516Y-56186036D01*
X83786023Y-56194794D01*
X83791552Y-56263256D01*
X83718961Y-58341988D01*
X83708670Y-58409898D01*
X83704559Y-58418392D01*
X83703206Y-58425846D01*
X83678674Y-58471881D01*
X83660965Y-58508477D01*
X83657403Y-58511797D01*
X83656930Y-58512687D01*
X83585353Y-58579433D01*
X83584432Y-58579843D01*
X83580871Y-58583165D01*
X83543134Y-58598276D01*
X83495493Y-58619541D01*
X83487961Y-58620370D01*
X83479204Y-58623878D01*
X83410743Y-58629407D01*
X81282040Y-58555071D01*
X81214131Y-58544780D01*
X81205637Y-58540669D01*
X81198181Y-58539316D01*
X81152114Y-58514767D01*
X81115552Y-58497074D01*
X81112234Y-58493516D01*
X81111342Y-58493041D01*
X81044595Y-58421463D01*
X81044183Y-58420540D01*
X81040864Y-58416981D01*
X81025761Y-58379266D01*
X81004487Y-58331603D01*
X81003656Y-58324068D01*
X81000151Y-58315314D01*
X80994622Y-58246852D01*
X81033668Y-57128731D01*
X81067086Y-56171738D01*
X81067086Y-56171733D01*
X81067213Y-56168120D01*
X81077504Y-56100210D01*
X81081613Y-56091718D01*
X81082967Y-56084261D01*
X81107514Y-56038195D01*
X81125209Y-56001631D01*
X81128767Y-55998313D01*
X81129243Y-55997420D01*
X81200820Y-55930674D01*
X81201744Y-55930261D01*
X81205303Y-55926943D01*
X81243007Y-55911843D01*
X81290680Y-55890566D01*
X81298215Y-55889735D01*
X81306970Y-55886230D01*
X81375431Y-55880701D01*
X82938858Y-55935297D01*
G37*
G36*
X22772518Y-56844226D02*
G01*
X22933345Y-56910843D01*
X23078086Y-57007556D01*
X23201178Y-57130648D01*
X23297891Y-57275389D01*
X23364508Y-57436216D01*
X23398469Y-57606950D01*
X23398469Y-57781028D01*
X23364508Y-57951762D01*
X23297891Y-58112589D01*
X23201178Y-58257330D01*
X23078086Y-58380422D01*
X22933345Y-58477135D01*
X22772518Y-58543752D01*
X22601784Y-58577713D01*
X22427706Y-58577713D01*
X22256972Y-58543752D01*
X22096145Y-58477135D01*
X21951404Y-58380422D01*
X21828312Y-58257330D01*
X21731599Y-58112589D01*
X21664982Y-57951762D01*
X21631021Y-57781028D01*
X21631021Y-57606950D01*
X21664982Y-57436216D01*
X21731599Y-57275389D01*
X21828312Y-57130648D01*
X21951404Y-57007556D01*
X22096145Y-56910843D01*
X22256972Y-56844226D01*
X22427706Y-56810265D01*
X22601784Y-56810265D01*
X22772518Y-56844226D01*
G37*
G36*
X28286098Y-55128994D02*
G01*
X28505693Y-55187834D01*
X28715729Y-55274834D01*
X28912612Y-55388505D01*
X29092974Y-55526901D01*
X29253729Y-55687656D01*
X29392125Y-55868018D01*
X29505796Y-56064901D01*
X29592796Y-56274937D01*
X29651636Y-56494532D01*
X29681310Y-56719928D01*
X29681310Y-56947270D01*
X29651636Y-57172666D01*
X29592796Y-57392261D01*
X29505796Y-57602297D01*
X29392125Y-57799180D01*
X29253729Y-57979542D01*
X29092974Y-58140297D01*
X28912612Y-58278693D01*
X28715729Y-58392364D01*
X28505693Y-58479364D01*
X28286098Y-58538204D01*
X28060702Y-58567878D01*
X27833360Y-58567878D01*
X27607964Y-58538204D01*
X27388369Y-58479364D01*
X27178333Y-58392364D01*
X26981450Y-58278693D01*
X26801088Y-58140297D01*
X26640333Y-57979542D01*
X26501937Y-57799180D01*
X26388266Y-57602297D01*
X26301266Y-57392261D01*
X26242426Y-57172666D01*
X26212752Y-56947270D01*
X26212752Y-56719928D01*
X26242426Y-56494532D01*
X26301266Y-56274937D01*
X26388266Y-56064901D01*
X26501937Y-55868018D01*
X26640333Y-55687656D01*
X26801088Y-55526901D01*
X26981450Y-55388505D01*
X27178333Y-55274834D01*
X27388369Y-55187834D01*
X27607964Y-55128994D01*
X27833360Y-55099320D01*
X28060702Y-55099320D01*
X28286098Y-55128994D01*
G37*
G36*
X46507729Y-56658583D02*
G01*
X46668556Y-56725200D01*
X46813297Y-56821913D01*
X46936389Y-56945005D01*
X47033102Y-57089746D01*
X47099719Y-57250573D01*
X47133680Y-57421307D01*
X47133680Y-57595385D01*
X47099719Y-57766119D01*
X47033102Y-57926946D01*
X46936389Y-58071687D01*
X46813297Y-58194779D01*
X46668556Y-58291492D01*
X46507729Y-58358109D01*
X46336995Y-58392070D01*
X46162917Y-58392070D01*
X45992183Y-58358109D01*
X45831356Y-58291492D01*
X45686615Y-58194779D01*
X45563523Y-58071687D01*
X45466810Y-57926946D01*
X45400193Y-57766119D01*
X45366232Y-57595385D01*
X45366232Y-57421307D01*
X45400193Y-57250573D01*
X45466810Y-57089746D01*
X45563523Y-56945005D01*
X45686615Y-56821913D01*
X45831356Y-56725200D01*
X45992183Y-56658583D01*
X46162917Y-56624622D01*
X46336995Y-56624622D01*
X46507729Y-56658583D01*
G37*
G36*
X57492653Y-56082887D02*
G01*
X57653480Y-56149504D01*
X57798221Y-56246217D01*
X57921313Y-56369309D01*
X58018026Y-56514050D01*
X58084643Y-56674877D01*
X58118604Y-56845611D01*
X58118604Y-57019689D01*
X58084643Y-57190423D01*
X58018026Y-57351250D01*
X57921313Y-57495991D01*
X57798221Y-57619083D01*
X57653480Y-57715796D01*
X57492653Y-57782413D01*
X57321919Y-57816374D01*
X57147841Y-57816374D01*
X56977107Y-57782413D01*
X56816280Y-57715796D01*
X56671539Y-57619083D01*
X56548447Y-57495991D01*
X56451734Y-57351250D01*
X56385117Y-57190423D01*
X56351156Y-57019689D01*
X56351156Y-56845611D01*
X56385117Y-56674877D01*
X56451734Y-56514050D01*
X56548447Y-56369309D01*
X56671539Y-56246217D01*
X56816280Y-56149504D01*
X56977107Y-56082887D01*
X57147841Y-56048926D01*
X57321919Y-56048926D01*
X57492653Y-56082887D01*
G37*
G36*
X33637090Y-55123446D02*
G01*
X33797917Y-55190063D01*
X33942658Y-55286776D01*
X34065750Y-55409868D01*
X34162463Y-55554609D01*
X34229080Y-55715436D01*
X34263041Y-55886170D01*
X34263041Y-56060248D01*
X34229080Y-56230982D01*
X34162463Y-56391809D01*
X34065750Y-56536550D01*
X33942658Y-56659642D01*
X33797917Y-56756355D01*
X33637090Y-56822972D01*
X33466356Y-56856933D01*
X33292278Y-56856933D01*
X33121544Y-56822972D01*
X32960717Y-56756355D01*
X32815976Y-56659642D01*
X32692884Y-56536550D01*
X32596171Y-56391809D01*
X32529554Y-56230982D01*
X32495593Y-56060248D01*
X32495593Y-55886170D01*
X32529554Y-55715436D01*
X32596171Y-55554609D01*
X32692884Y-55409868D01*
X32815976Y-55286776D01*
X32960717Y-55190063D01*
X33121544Y-55123446D01*
X33292278Y-55089485D01*
X33466356Y-55089485D01*
X33637090Y-55123446D01*
G37*
G36*
X78020047Y-53587090D02*
G01*
X78249575Y-53661668D01*
X78464611Y-53771234D01*
X78659859Y-53913091D01*
X78830512Y-54083744D01*
X78972369Y-54278992D01*
X79081935Y-54494028D01*
X79156513Y-54723556D01*
X79194267Y-54961925D01*
X79194267Y-55203265D01*
X79156513Y-55441634D01*
X79081935Y-55671162D01*
X78972369Y-55886198D01*
X78830512Y-56081446D01*
X78659859Y-56252099D01*
X78464611Y-56393956D01*
X78249575Y-56503522D01*
X78020047Y-56578100D01*
X77781678Y-56615854D01*
X77540338Y-56615854D01*
X77301969Y-56578100D01*
X77072441Y-56503522D01*
X76857405Y-56393956D01*
X76662157Y-56252099D01*
X76491504Y-56081446D01*
X76349647Y-55886198D01*
X76240081Y-55671162D01*
X76165503Y-55441634D01*
X76127749Y-55203265D01*
X76127749Y-54961925D01*
X76165503Y-54723556D01*
X76240081Y-54494028D01*
X76349647Y-54278992D01*
X76491504Y-54083744D01*
X76662157Y-53913091D01*
X76857405Y-53771234D01*
X77072441Y-53661668D01*
X77301969Y-53587090D01*
X77540338Y-53549336D01*
X77781678Y-53549336D01*
X78020047Y-53587090D01*
G37*
G36*
X68026139Y-53238095D02*
G01*
X68255667Y-53312673D01*
X68470703Y-53422239D01*
X68665951Y-53564096D01*
X68836604Y-53734749D01*
X68978461Y-53929997D01*
X69088027Y-54145033D01*
X69162605Y-54374561D01*
X69200359Y-54612930D01*
X69200359Y-54854270D01*
X69162605Y-55092639D01*
X69088027Y-55322167D01*
X68978461Y-55537203D01*
X68836604Y-55732451D01*
X68665951Y-55903104D01*
X68470703Y-56044961D01*
X68255667Y-56154527D01*
X68026139Y-56229105D01*
X67787770Y-56266859D01*
X67546430Y-56266859D01*
X67308061Y-56229105D01*
X67078533Y-56154527D01*
X66863497Y-56044961D01*
X66668249Y-55903104D01*
X66497596Y-55732451D01*
X66355739Y-55537203D01*
X66246173Y-55322167D01*
X66171595Y-55092639D01*
X66133841Y-54854270D01*
X66133841Y-54612930D01*
X66171595Y-54374561D01*
X66246173Y-54145033D01*
X66355739Y-53929997D01*
X66497596Y-53734749D01*
X66668249Y-53564096D01*
X66863497Y-53422239D01*
X67078533Y-53312673D01*
X67308061Y-53238095D01*
X67546430Y-53200341D01*
X67787770Y-53200341D01*
X68026139Y-53238095D01*
G37*
G36*
X64969848Y-53300594D02*
G01*
X65531505Y-53320207D01*
X65531509Y-53320207D01*
X65535124Y-53320334D01*
X65603033Y-53330625D01*
X65611523Y-53334733D01*
X65618982Y-53336088D01*
X65665059Y-53360641D01*
X65701612Y-53378331D01*
X65704928Y-53381887D01*
X65705821Y-53382363D01*
X65772568Y-53453941D01*
X65772979Y-53454863D01*
X65776300Y-53458424D01*
X65791407Y-53496150D01*
X65812676Y-53543801D01*
X65813506Y-53551333D01*
X65817013Y-53560091D01*
X65822542Y-53628553D01*
X65749951Y-55707285D01*
X65739660Y-55775195D01*
X65735549Y-55783689D01*
X65734196Y-55791143D01*
X65709664Y-55837178D01*
X65691955Y-55873774D01*
X65688393Y-55877094D01*
X65687920Y-55877984D01*
X65616343Y-55944730D01*
X65615422Y-55945140D01*
X65611861Y-55948462D01*
X65574124Y-55963573D01*
X65526483Y-55984838D01*
X65518951Y-55985667D01*
X65510194Y-55989175D01*
X65441733Y-55994704D01*
X63313030Y-55920368D01*
X63245121Y-55910077D01*
X63236627Y-55905966D01*
X63229171Y-55904613D01*
X63183104Y-55880064D01*
X63146542Y-55862371D01*
X63143224Y-55858813D01*
X63142332Y-55858338D01*
X63075585Y-55786760D01*
X63075173Y-55785837D01*
X63071854Y-55782278D01*
X63056751Y-55744563D01*
X63035477Y-55696900D01*
X63034646Y-55689365D01*
X63031141Y-55680611D01*
X63025612Y-55612149D01*
X63066102Y-54452670D01*
X63098076Y-53537035D01*
X63098076Y-53537030D01*
X63098203Y-53533417D01*
X63108494Y-53465507D01*
X63112603Y-53457015D01*
X63113957Y-53449558D01*
X63138504Y-53403492D01*
X63156199Y-53366928D01*
X63159757Y-53363610D01*
X63160233Y-53362717D01*
X63231810Y-53295971D01*
X63232734Y-53295558D01*
X63236293Y-53292240D01*
X63273997Y-53277140D01*
X63321670Y-53255863D01*
X63329205Y-53255032D01*
X63337960Y-53251527D01*
X63406421Y-53245998D01*
X64969848Y-53300594D01*
G37*
G36*
X91103004Y-52090480D02*
G01*
X91322599Y-52149320D01*
X91532635Y-52236320D01*
X91729518Y-52349991D01*
X91909880Y-52488387D01*
X92070635Y-52649142D01*
X92209031Y-52829504D01*
X92322702Y-53026387D01*
X92409702Y-53236423D01*
X92468542Y-53456018D01*
X92498216Y-53681414D01*
X92498216Y-53908756D01*
X92468542Y-54134152D01*
X92409702Y-54353747D01*
X92322702Y-54563783D01*
X92209031Y-54760666D01*
X92070635Y-54941028D01*
X91909880Y-55101783D01*
X91729518Y-55240179D01*
X91532635Y-55353850D01*
X91322599Y-55440850D01*
X91103004Y-55499690D01*
X90877608Y-55529364D01*
X90650266Y-55529364D01*
X90424870Y-55499690D01*
X90205275Y-55440850D01*
X89995239Y-55353850D01*
X89798356Y-55240179D01*
X89617994Y-55101783D01*
X89457239Y-54941028D01*
X89318843Y-54760666D01*
X89205172Y-54563783D01*
X89118172Y-54353747D01*
X89059332Y-54134152D01*
X89029658Y-53908756D01*
X89029658Y-53681414D01*
X89059332Y-53456018D01*
X89118172Y-53236423D01*
X89205172Y-53026387D01*
X89318843Y-52829504D01*
X89457239Y-52649142D01*
X89617994Y-52488387D01*
X89798356Y-52349991D01*
X89995239Y-52236320D01*
X90205275Y-52149320D01*
X90424870Y-52090480D01*
X90650266Y-52060806D01*
X90877608Y-52060806D01*
X91103004Y-52090480D01*
G37*
G36*
X117640938Y-54119650D02*
G01*
X117645653Y-54121732D01*
X117648326Y-54122084D01*
X117681770Y-54137679D01*
X117737759Y-54162401D01*
X117812599Y-54237241D01*
X117837330Y-54293251D01*
X117852915Y-54326673D01*
X117853266Y-54329343D01*
X117855350Y-54334062D01*
X117863000Y-54400000D01*
X117863000Y-55100000D01*
X117855350Y-55165938D01*
X117853266Y-55170656D01*
X117852915Y-55173326D01*
X117837338Y-55206730D01*
X117812599Y-55262759D01*
X117737759Y-55337599D01*
X117681730Y-55362338D01*
X117648326Y-55377915D01*
X117645656Y-55378266D01*
X117640938Y-55380350D01*
X117575000Y-55388000D01*
X116325000Y-55388000D01*
X116259062Y-55380350D01*
X116254343Y-55378266D01*
X116251673Y-55377915D01*
X116218251Y-55362330D01*
X116162241Y-55337599D01*
X116087401Y-55262759D01*
X116062679Y-55206770D01*
X116047084Y-55173326D01*
X116046732Y-55170653D01*
X116044650Y-55165938D01*
X116037000Y-55100000D01*
X116037000Y-54400000D01*
X116044650Y-54334062D01*
X116046732Y-54329346D01*
X116047084Y-54326673D01*
X116062687Y-54293210D01*
X116087401Y-54237241D01*
X116162241Y-54162401D01*
X116218210Y-54137687D01*
X116251673Y-54122084D01*
X116254346Y-54121732D01*
X116259062Y-54119650D01*
X116325000Y-54112000D01*
X117575000Y-54112000D01*
X117640938Y-54119650D01*
G37*
G36*
X96518360Y-53137269D02*
G01*
X96679187Y-53203886D01*
X96823928Y-53300599D01*
X96947020Y-53423691D01*
X97043733Y-53568432D01*
X97110350Y-53729259D01*
X97144311Y-53899993D01*
X97144311Y-54074071D01*
X97110350Y-54244805D01*
X97043733Y-54405632D01*
X96947020Y-54550373D01*
X96823928Y-54673465D01*
X96679187Y-54770178D01*
X96518360Y-54836795D01*
X96347626Y-54870756D01*
X96173548Y-54870756D01*
X96002814Y-54836795D01*
X95841987Y-54770178D01*
X95697246Y-54673465D01*
X95574154Y-54550373D01*
X95477441Y-54405632D01*
X95410824Y-54244805D01*
X95376863Y-54074071D01*
X95376863Y-53899993D01*
X95410824Y-53729259D01*
X95477441Y-53568432D01*
X95574154Y-53423691D01*
X95697246Y-53300599D01*
X95841987Y-53203886D01*
X96002814Y-53137269D01*
X96173548Y-53103308D01*
X96347626Y-53103308D01*
X96518360Y-53137269D01*
G37*
G36*
X85525060Y-52753375D02*
G01*
X85685887Y-52819992D01*
X85830628Y-52916705D01*
X85953720Y-53039797D01*
X86050433Y-53184538D01*
X86117050Y-53345365D01*
X86151011Y-53516099D01*
X86151011Y-53690177D01*
X86117050Y-53860911D01*
X86050433Y-54021738D01*
X85953720Y-54166479D01*
X85830628Y-54289571D01*
X85685887Y-54386284D01*
X85525060Y-54452901D01*
X85354326Y-54486862D01*
X85180248Y-54486862D01*
X85009514Y-54452901D01*
X84848687Y-54386284D01*
X84703946Y-54289571D01*
X84580854Y-54166479D01*
X84484141Y-54021738D01*
X84417524Y-53860911D01*
X84383563Y-53690177D01*
X84383563Y-53516099D01*
X84417524Y-53345365D01*
X84484141Y-53184538D01*
X84580854Y-53039797D01*
X84703946Y-52916705D01*
X84848687Y-52819992D01*
X85009514Y-52753375D01*
X85180248Y-52719414D01*
X85354326Y-52719414D01*
X85525060Y-52753375D01*
G37*
G36*
X117287535Y-52115072D02*
G01*
X117410202Y-52139472D01*
X117525751Y-52187334D01*
X117629743Y-52256819D01*
X117718181Y-52345257D01*
X117787666Y-52449249D01*
X117835528Y-52564798D01*
X117859928Y-52687465D01*
X117859928Y-52812535D01*
X117835528Y-52935202D01*
X117787666Y-53050751D01*
X117718181Y-53154743D01*
X117629743Y-53243181D01*
X117525751Y-53312666D01*
X117410202Y-53360528D01*
X117287535Y-53384928D01*
X117225000Y-53388000D01*
X117223768Y-53388000D01*
X116676232Y-53388000D01*
X116675000Y-53388000D01*
X116612465Y-53384928D01*
X116489798Y-53360528D01*
X116374249Y-53312666D01*
X116270257Y-53243181D01*
X116181819Y-53154743D01*
X116112334Y-53050751D01*
X116064472Y-52935202D01*
X116040072Y-52812535D01*
X116040072Y-52687465D01*
X116064472Y-52564798D01*
X116112334Y-52449249D01*
X116181819Y-52345257D01*
X116270257Y-52256819D01*
X116374249Y-52187334D01*
X116489798Y-52139472D01*
X116612465Y-52115072D01*
X116675000Y-52112000D01*
X117225000Y-52112000D01*
X117287535Y-52115072D01*
G37*
G36*
X73133994Y-49455777D02*
G01*
X73353589Y-49514617D01*
X73563625Y-49601617D01*
X73760508Y-49715288D01*
X73940870Y-49853684D01*
X74101625Y-50014439D01*
X74240021Y-50194801D01*
X74353692Y-50391684D01*
X74440692Y-50601720D01*
X74499532Y-50821315D01*
X74529206Y-51046711D01*
X74529206Y-51274053D01*
X74499532Y-51499449D01*
X74440692Y-51719044D01*
X74353692Y-51929080D01*
X74240021Y-52125963D01*
X74101625Y-52306325D01*
X73940870Y-52467080D01*
X73760508Y-52605476D01*
X73563625Y-52719147D01*
X73353589Y-52806147D01*
X73133994Y-52864987D01*
X72908598Y-52894661D01*
X72681256Y-52894661D01*
X72455860Y-52864987D01*
X72236265Y-52806147D01*
X72026229Y-52719147D01*
X71829346Y-52605476D01*
X71648984Y-52467080D01*
X71488229Y-52306325D01*
X71349833Y-52125963D01*
X71236162Y-51929080D01*
X71149162Y-51719044D01*
X71090322Y-51499449D01*
X71060648Y-51274053D01*
X71060648Y-51046711D01*
X71090322Y-50821315D01*
X71149162Y-50601720D01*
X71236162Y-50391684D01*
X71349833Y-50194801D01*
X71488229Y-50014439D01*
X71648984Y-49853684D01*
X71829346Y-49715288D01*
X72026229Y-49601617D01*
X72236265Y-49514617D01*
X72455860Y-49455777D01*
X72681256Y-49426103D01*
X72908598Y-49426103D01*
X73133994Y-49455777D01*
G37*
G36*
X39765661Y-50393443D02*
G01*
X39935494Y-50448625D01*
X40094603Y-50529695D01*
X40239072Y-50634658D01*
X40365342Y-50760928D01*
X40470305Y-50905397D01*
X40551375Y-51064506D01*
X40606557Y-51234339D01*
X40634492Y-51410714D01*
X40634492Y-51589286D01*
X40606557Y-51765661D01*
X40551375Y-51935494D01*
X40470305Y-52094603D01*
X40365342Y-52239072D01*
X40239072Y-52365342D01*
X40094603Y-52470305D01*
X39935494Y-52551375D01*
X39765661Y-52606557D01*
X39589286Y-52634492D01*
X39410714Y-52634492D01*
X39234339Y-52606557D01*
X39064506Y-52551375D01*
X38905397Y-52470305D01*
X38760928Y-52365342D01*
X38634658Y-52239072D01*
X38529695Y-52094603D01*
X38448625Y-51935494D01*
X38393443Y-51765661D01*
X38365508Y-51589286D01*
X38365508Y-51410714D01*
X38393443Y-51234339D01*
X38448625Y-51064506D01*
X38529695Y-50905397D01*
X38634658Y-50760928D01*
X38760928Y-50634658D01*
X38905397Y-50529695D01*
X39064506Y-50448625D01*
X39234339Y-50393443D01*
X39410714Y-50365508D01*
X39589286Y-50365508D01*
X39765661Y-50393443D01*
G37*
G36*
X121265661Y-50143443D02*
G01*
X121435494Y-50198625D01*
X121594603Y-50279695D01*
X121739072Y-50384658D01*
X121865342Y-50510928D01*
X121970305Y-50655397D01*
X122051375Y-50814506D01*
X122106557Y-50984339D01*
X122134492Y-51160714D01*
X122134492Y-51339286D01*
X122106557Y-51515661D01*
X122051375Y-51685494D01*
X121970305Y-51844603D01*
X121865342Y-51989072D01*
X121739072Y-52115342D01*
X121594603Y-52220305D01*
X121435494Y-52301375D01*
X121265661Y-52356557D01*
X121089286Y-52384492D01*
X120910714Y-52384492D01*
X120734339Y-52356557D01*
X120564506Y-52301375D01*
X120405397Y-52220305D01*
X120260928Y-52115342D01*
X120134658Y-51989072D01*
X120029695Y-51844603D01*
X119948625Y-51685494D01*
X119893443Y-51515661D01*
X119865508Y-51339286D01*
X119865508Y-51160714D01*
X119893443Y-50984339D01*
X119948625Y-50814506D01*
X120029695Y-50655397D01*
X120134658Y-50510928D01*
X120260928Y-50384658D01*
X120405397Y-50279695D01*
X120564506Y-50198625D01*
X120734339Y-50143443D01*
X120910714Y-50115508D01*
X121089286Y-50115508D01*
X121265661Y-50143443D01*
G37*
G36*
X78549350Y-50502566D02*
G01*
X78710177Y-50569183D01*
X78854918Y-50665896D01*
X78978010Y-50788988D01*
X79074723Y-50933729D01*
X79141340Y-51094556D01*
X79175301Y-51265290D01*
X79175301Y-51439368D01*
X79141340Y-51610102D01*
X79074723Y-51770929D01*
X78978010Y-51915670D01*
X78854918Y-52038762D01*
X78710177Y-52135475D01*
X78549350Y-52202092D01*
X78378616Y-52236053D01*
X78204538Y-52236053D01*
X78033804Y-52202092D01*
X77872977Y-52135475D01*
X77728236Y-52038762D01*
X77605144Y-51915670D01*
X77508431Y-51770929D01*
X77441814Y-51610102D01*
X77407853Y-51439368D01*
X77407853Y-51265290D01*
X77441814Y-51094556D01*
X77508431Y-50933729D01*
X77605144Y-50788988D01*
X77728236Y-50665896D01*
X77872977Y-50569183D01*
X78033804Y-50502566D01*
X78204538Y-50468605D01*
X78378616Y-50468605D01*
X78549350Y-50502566D01*
G37*
G36*
X67556050Y-50118672D02*
G01*
X67716877Y-50185289D01*
X67861618Y-50282002D01*
X67984710Y-50405094D01*
X68081423Y-50549835D01*
X68148040Y-50710662D01*
X68182001Y-50881396D01*
X68182001Y-51055474D01*
X68148040Y-51226208D01*
X68081423Y-51387035D01*
X67984710Y-51531776D01*
X67861618Y-51654868D01*
X67716877Y-51751581D01*
X67556050Y-51818198D01*
X67385316Y-51852159D01*
X67211238Y-51852159D01*
X67040504Y-51818198D01*
X66879677Y-51751581D01*
X66734936Y-51654868D01*
X66611844Y-51531776D01*
X66515131Y-51387035D01*
X66448514Y-51226208D01*
X66414553Y-51055474D01*
X66414553Y-50881396D01*
X66448514Y-50710662D01*
X66515131Y-50549835D01*
X66611844Y-50405094D01*
X66734936Y-50282002D01*
X66879677Y-50185289D01*
X67040504Y-50118672D01*
X67211238Y-50084711D01*
X67385316Y-50084711D01*
X67556050Y-50118672D01*
G37*
G36*
X109399063Y-45587555D02*
G01*
X109624976Y-45648088D01*
X109841054Y-45737591D01*
X110043602Y-45854531D01*
X110229152Y-45996909D01*
X110394532Y-46162289D01*
X110536910Y-46347839D01*
X110653850Y-46550387D01*
X110743353Y-46766465D01*
X110803886Y-46992378D01*
X110834414Y-47224258D01*
X110834414Y-47363229D01*
X110932560Y-47364943D01*
X110940521Y-47136966D01*
X110940521Y-47136964D01*
X110940693Y-47132047D01*
X110959742Y-47051151D01*
X110979215Y-47024100D01*
X110980153Y-46997242D01*
X110961221Y-46966646D01*
X110953193Y-46917353D01*
X110976309Y-46255411D01*
X110978149Y-46202711D01*
X110978149Y-46202709D01*
X110978321Y-46197792D01*
X110989767Y-46149179D01*
X111018947Y-46108645D01*
X111061417Y-46082364D01*
X111110710Y-46074337D01*
X111866298Y-46100722D01*
X112499940Y-46122850D01*
X112504860Y-46123022D01*
X112553473Y-46134468D01*
X112594007Y-46163648D01*
X112620287Y-46206118D01*
X112628315Y-46255411D01*
X112610468Y-46766465D01*
X112604140Y-46947700D01*
X112632388Y-46977993D01*
X113454676Y-47006708D01*
X113459596Y-47006880D01*
X113540492Y-47025928D01*
X113607941Y-47074484D01*
X113651673Y-47145155D01*
X113665032Y-47227183D01*
X113616173Y-48626331D01*
X113597124Y-48707227D01*
X113548569Y-48774676D01*
X113477897Y-48818408D01*
X113395869Y-48831767D01*
X111097270Y-48751498D01*
X111016374Y-48732450D01*
X110948925Y-48683894D01*
X110905193Y-48613223D01*
X110891834Y-48531195D01*
X110905775Y-48131968D01*
X110928936Y-47468707D01*
X110834060Y-47460823D01*
X110803886Y-47690020D01*
X110743353Y-47915933D01*
X110653850Y-48132011D01*
X110536910Y-48334559D01*
X110394532Y-48520109D01*
X110229152Y-48685489D01*
X110043602Y-48827867D01*
X109841054Y-48944807D01*
X109624976Y-49034310D01*
X109399063Y-49094843D01*
X109167183Y-49125371D01*
X108933301Y-49125371D01*
X108701421Y-49094843D01*
X108475508Y-49034310D01*
X108259430Y-48944807D01*
X108056882Y-48827867D01*
X107871332Y-48685489D01*
X107705952Y-48520109D01*
X107563574Y-48334559D01*
X107446634Y-48132011D01*
X107357131Y-47915933D01*
X107296598Y-47690020D01*
X107266070Y-47458140D01*
X107266070Y-47224258D01*
X107296598Y-46992378D01*
X107357131Y-46766465D01*
X107446634Y-46550387D01*
X107563574Y-46347839D01*
X107705952Y-46162289D01*
X107871332Y-45996909D01*
X108056882Y-45854531D01*
X108259430Y-45737591D01*
X108475508Y-45648088D01*
X108701421Y-45587555D01*
X108933301Y-45557027D01*
X109167183Y-45557027D01*
X109399063Y-45587555D01*
G37*
G36*
X51510462Y-44382058D02*
G01*
X51736375Y-44442591D01*
X51952453Y-44532094D01*
X52155001Y-44649034D01*
X52340551Y-44791412D01*
X52505931Y-44956792D01*
X52648309Y-45142342D01*
X52765249Y-45344890D01*
X52854752Y-45560968D01*
X52915285Y-45786881D01*
X52942799Y-45995868D01*
X53038434Y-45987081D01*
X53026926Y-45767500D01*
X53026927Y-45767491D01*
X53026670Y-45762582D01*
X53038596Y-45680333D01*
X53055637Y-45651688D01*
X53054230Y-45624849D01*
X53032703Y-45596021D01*
X53020410Y-45547615D01*
X52994753Y-45058048D01*
X52982985Y-44833522D01*
X52982985Y-44833517D01*
X52982728Y-44828602D01*
X52989894Y-44779176D01*
X53015430Y-44736254D01*
X53055448Y-44706371D01*
X53103854Y-44694078D01*
X53760119Y-44659684D01*
X54492020Y-44621326D01*
X54492024Y-44621326D01*
X54496942Y-44621069D01*
X54546368Y-44628236D01*
X54589290Y-44653771D01*
X54619173Y-44693789D01*
X54631466Y-44742195D01*
X54667719Y-45433958D01*
X54698500Y-45461672D01*
X55520159Y-45418610D01*
X55520168Y-45418611D01*
X55525078Y-45418354D01*
X55607327Y-45430280D01*
X55678751Y-45472772D01*
X55728476Y-45539363D01*
X55748934Y-45619914D01*
X55795117Y-46501147D01*
X55821947Y-47013077D01*
X55821946Y-47013081D01*
X55822204Y-47017996D01*
X55810278Y-47100245D01*
X55767786Y-47171668D01*
X55701195Y-47221394D01*
X55620644Y-47241851D01*
X54272303Y-47312514D01*
X53328714Y-47361967D01*
X53328710Y-47361966D01*
X53323796Y-47362224D01*
X53241547Y-47350298D01*
X53170123Y-47307806D01*
X53120398Y-47241215D01*
X53099940Y-47160664D01*
X53052353Y-46252643D01*
X53043086Y-46075826D01*
X52945813Y-46078373D01*
X52945813Y-46252643D01*
X52915285Y-46484523D01*
X52854752Y-46710436D01*
X52765249Y-46926514D01*
X52648309Y-47129062D01*
X52505931Y-47314612D01*
X52340551Y-47479992D01*
X52155001Y-47622370D01*
X51952453Y-47739310D01*
X51736375Y-47828813D01*
X51510462Y-47889346D01*
X51278582Y-47919874D01*
X51044700Y-47919874D01*
X50812820Y-47889346D01*
X50586907Y-47828813D01*
X50370829Y-47739310D01*
X50168281Y-47622370D01*
X49982731Y-47479992D01*
X49817351Y-47314612D01*
X49674973Y-47129062D01*
X49558033Y-46926514D01*
X49468530Y-46710436D01*
X49407997Y-46484523D01*
X49377469Y-46252643D01*
X49377469Y-46018761D01*
X49407997Y-45786881D01*
X49468530Y-45560968D01*
X49558033Y-45344890D01*
X49674973Y-45142342D01*
X49817351Y-44956792D01*
X49982731Y-44791412D01*
X50168281Y-44649034D01*
X50370829Y-44532094D01*
X50586907Y-44442591D01*
X50812820Y-44382058D01*
X51044700Y-44351530D01*
X51278582Y-44351530D01*
X51510462Y-44382058D01*
G37*
G36*
X114483014Y-43821532D02*
G01*
X114712542Y-43896110D01*
X114927578Y-44005676D01*
X115122826Y-44147533D01*
X115293479Y-44318186D01*
X115435336Y-44513434D01*
X115544902Y-44728470D01*
X115619480Y-44957998D01*
X115657234Y-45196367D01*
X115657234Y-45437707D01*
X115619480Y-45676076D01*
X115544902Y-45905604D01*
X115435336Y-46120640D01*
X115293479Y-46315888D01*
X115122826Y-46486541D01*
X114927578Y-46628398D01*
X114712542Y-46737964D01*
X114483014Y-46812542D01*
X114244645Y-46850296D01*
X114003305Y-46850296D01*
X113764936Y-46812542D01*
X113535408Y-46737964D01*
X113320372Y-46628398D01*
X113125124Y-46486541D01*
X112954471Y-46315888D01*
X112812614Y-46120640D01*
X112703048Y-45905604D01*
X112628470Y-45676076D01*
X112590716Y-45437707D01*
X112590716Y-45196367D01*
X112628470Y-44957998D01*
X112703048Y-44728470D01*
X112812614Y-44513434D01*
X112954471Y-44318186D01*
X113125124Y-44147533D01*
X113320372Y-44005676D01*
X113535408Y-43896110D01*
X113764936Y-43821532D01*
X114003305Y-43783778D01*
X114244645Y-43783778D01*
X114483014Y-43821532D01*
G37*
G36*
X135248481Y-46004529D02*
G01*
X135336199Y-46055173D01*
X135407821Y-46126795D01*
X135458465Y-46214513D01*
X135484681Y-46312350D01*
X135484681Y-46413638D01*
X135458465Y-46511475D01*
X135407821Y-46599193D01*
X135336199Y-46670815D01*
X135248481Y-46721459D01*
X135150644Y-46747675D01*
X135049356Y-46747675D01*
X134951519Y-46721459D01*
X134863801Y-46670815D01*
X134792179Y-46599193D01*
X134741535Y-46511475D01*
X134715319Y-46413638D01*
X134715319Y-46312350D01*
X134741535Y-46214513D01*
X134792179Y-46126795D01*
X134863801Y-46055173D01*
X134951519Y-46004529D01*
X135049356Y-45978313D01*
X135150644Y-45978313D01*
X135248481Y-46004529D01*
G37*
G36*
X137048481Y-46004529D02*
G01*
X137136199Y-46055173D01*
X137207821Y-46126795D01*
X137258465Y-46214513D01*
X137284681Y-46312350D01*
X137284681Y-46413638D01*
X137258465Y-46511475D01*
X137207821Y-46599193D01*
X137136199Y-46670815D01*
X137048481Y-46721459D01*
X136950644Y-46747675D01*
X136849356Y-46747675D01*
X136751519Y-46721459D01*
X136663801Y-46670815D01*
X136592179Y-46599193D01*
X136541535Y-46511475D01*
X136515319Y-46413638D01*
X136515319Y-46312350D01*
X136541535Y-46214513D01*
X136592179Y-46126795D01*
X136663801Y-46055173D01*
X136751519Y-46004529D01*
X136849356Y-45978313D01*
X136950644Y-45978313D01*
X137048481Y-46004529D01*
G37*
G36*
X104489106Y-43472537D02*
G01*
X104718634Y-43547115D01*
X104933670Y-43656681D01*
X105128918Y-43798538D01*
X105299571Y-43969191D01*
X105441428Y-44164439D01*
X105550994Y-44379475D01*
X105625572Y-44609003D01*
X105663326Y-44847372D01*
X105663326Y-45088712D01*
X105625572Y-45327081D01*
X105550994Y-45556609D01*
X105441428Y-45771645D01*
X105299571Y-45966893D01*
X105128918Y-46137546D01*
X104933670Y-46279403D01*
X104718634Y-46388969D01*
X104489106Y-46463547D01*
X104250737Y-46501301D01*
X104009397Y-46501301D01*
X103771028Y-46463547D01*
X103541500Y-46388969D01*
X103326464Y-46279403D01*
X103131216Y-46137546D01*
X102960563Y-45966893D01*
X102818706Y-45771645D01*
X102709140Y-45556609D01*
X102634562Y-45327081D01*
X102596808Y-45088712D01*
X102596808Y-44847372D01*
X102634562Y-44609003D01*
X102709140Y-44379475D01*
X102818706Y-44164439D01*
X102960563Y-43969191D01*
X103131216Y-43798538D01*
X103326464Y-43656681D01*
X103541500Y-43547115D01*
X103771028Y-43472537D01*
X104009397Y-43434783D01*
X104250737Y-43434783D01*
X104489106Y-43472537D01*
G37*
G36*
X101432815Y-43535036D02*
G01*
X101994472Y-43554649D01*
X101994476Y-43554649D01*
X101998091Y-43554776D01*
X102066000Y-43565067D01*
X102074490Y-43569175D01*
X102081949Y-43570530D01*
X102128026Y-43595083D01*
X102164579Y-43612773D01*
X102167895Y-43616329D01*
X102168788Y-43616805D01*
X102235535Y-43688383D01*
X102235946Y-43689305D01*
X102239267Y-43692866D01*
X102254374Y-43730592D01*
X102275643Y-43778243D01*
X102276473Y-43785775D01*
X102279980Y-43794533D01*
X102285509Y-43862995D01*
X102212918Y-45941727D01*
X102202627Y-46009637D01*
X102198516Y-46018131D01*
X102197163Y-46025585D01*
X102172631Y-46071620D01*
X102154922Y-46108216D01*
X102151360Y-46111536D01*
X102150887Y-46112426D01*
X102079310Y-46179172D01*
X102078389Y-46179582D01*
X102074828Y-46182904D01*
X102037091Y-46198015D01*
X101989450Y-46219280D01*
X101981918Y-46220109D01*
X101973161Y-46223617D01*
X101904700Y-46229146D01*
X99775997Y-46154810D01*
X99708088Y-46144519D01*
X99699594Y-46140408D01*
X99692138Y-46139055D01*
X99646071Y-46114506D01*
X99609509Y-46096813D01*
X99606191Y-46093255D01*
X99605299Y-46092780D01*
X99538552Y-46021202D01*
X99538140Y-46020279D01*
X99534821Y-46016720D01*
X99519718Y-45979005D01*
X99498444Y-45931342D01*
X99497613Y-45923807D01*
X99494108Y-45915053D01*
X99488579Y-45846591D01*
X99527625Y-44728470D01*
X99561043Y-43771477D01*
X99561043Y-43771472D01*
X99561170Y-43767859D01*
X99571461Y-43699949D01*
X99575570Y-43691457D01*
X99576924Y-43684000D01*
X99601471Y-43637934D01*
X99619166Y-43601370D01*
X99622724Y-43598052D01*
X99623200Y-43597159D01*
X99694777Y-43530413D01*
X99695701Y-43530000D01*
X99699260Y-43526682D01*
X99736964Y-43511582D01*
X99784637Y-43490305D01*
X99792172Y-43489474D01*
X99800927Y-43485969D01*
X99869388Y-43480440D01*
X101432815Y-43535036D01*
G37*
G36*
X43874864Y-42982656D02*
G01*
X43883680Y-42986009D01*
X43891227Y-42986708D01*
X43939243Y-43007141D01*
X43977226Y-43021588D01*
X43980843Y-43024845D01*
X43981769Y-43025239D01*
X44054504Y-43090729D01*
X44054995Y-43091613D01*
X44058610Y-43094868D01*
X44076942Y-43131122D01*
X44102287Y-43176747D01*
X44103769Y-43184176D01*
X44108029Y-43192599D01*
X44119504Y-43260318D01*
X44192531Y-44653771D01*
X44228173Y-45333847D01*
X44228172Y-45333852D01*
X44228362Y-45337468D01*
X44224029Y-45406016D01*
X44220675Y-45414832D01*
X44219977Y-45422379D01*
X44199543Y-45470393D01*
X44185097Y-45508377D01*
X44181839Y-45511994D01*
X44181445Y-45512922D01*
X44115957Y-45585655D01*
X44115074Y-45586145D01*
X44111818Y-45589762D01*
X44075546Y-45608103D01*
X44029937Y-45633439D01*
X44022509Y-45634921D01*
X44014086Y-45639181D01*
X43946367Y-45650656D01*
X42427251Y-45730269D01*
X41822907Y-45761942D01*
X41822901Y-45761941D01*
X41819286Y-45762131D01*
X41750738Y-45757798D01*
X41741918Y-45754443D01*
X41734374Y-45753745D01*
X41686371Y-45733316D01*
X41648376Y-45718866D01*
X41644757Y-45715607D01*
X41643832Y-45715214D01*
X41571097Y-45649724D01*
X41570606Y-45648840D01*
X41566992Y-45645586D01*
X41548664Y-45609340D01*
X41523314Y-45563706D01*
X41521830Y-45556275D01*
X41517573Y-45547855D01*
X41506098Y-45480136D01*
X41463944Y-44675785D01*
X41397428Y-43406606D01*
X41397429Y-43406594D01*
X41397240Y-43402986D01*
X41401573Y-43334438D01*
X41404924Y-43325624D01*
X41405624Y-43318074D01*
X41426070Y-43270028D01*
X41440505Y-43232077D01*
X41443759Y-43228462D01*
X41444156Y-43227531D01*
X41509644Y-43154798D01*
X41510530Y-43154305D01*
X41513784Y-43150692D01*
X41550024Y-43132366D01*
X41595664Y-43107014D01*
X41603096Y-43105530D01*
X41611516Y-43101273D01*
X41679235Y-43089798D01*
X42369729Y-43053610D01*
X43802694Y-42978511D01*
X43802706Y-42978512D01*
X43806316Y-42978323D01*
X43874864Y-42982656D01*
G37*
G36*
X46412393Y-42704892D02*
G01*
X46641921Y-42779470D01*
X46856957Y-42889036D01*
X47052205Y-43030893D01*
X47222858Y-43201546D01*
X47364715Y-43396794D01*
X47474281Y-43611830D01*
X47548859Y-43841358D01*
X47586613Y-44079727D01*
X47586613Y-44321067D01*
X47548859Y-44559436D01*
X47474281Y-44788964D01*
X47364715Y-45004000D01*
X47222858Y-45199248D01*
X47052205Y-45369901D01*
X46856957Y-45511758D01*
X46641921Y-45621324D01*
X46412393Y-45695902D01*
X46174024Y-45733656D01*
X45932684Y-45733656D01*
X45694315Y-45695902D01*
X45464787Y-45621324D01*
X45249751Y-45511758D01*
X45054503Y-45369901D01*
X44883850Y-45199248D01*
X44741993Y-45004000D01*
X44632427Y-44788964D01*
X44557849Y-44559436D01*
X44520095Y-44321067D01*
X44520095Y-44079727D01*
X44557849Y-43841358D01*
X44632427Y-43611830D01*
X44741993Y-43396794D01*
X44883850Y-43201546D01*
X45054503Y-43030893D01*
X45249751Y-42889036D01*
X45464787Y-42779470D01*
X45694315Y-42704892D01*
X45932684Y-42667138D01*
X46174024Y-42667138D01*
X46412393Y-42704892D01*
G37*
G36*
X56398689Y-42181532D02*
G01*
X56628217Y-42256110D01*
X56843253Y-42365676D01*
X57038501Y-42507533D01*
X57209154Y-42678186D01*
X57351011Y-42873434D01*
X57460577Y-43088470D01*
X57535155Y-43317998D01*
X57572909Y-43556367D01*
X57572909Y-43797707D01*
X57535155Y-44036076D01*
X57460577Y-44265604D01*
X57351011Y-44480640D01*
X57209154Y-44675888D01*
X57038501Y-44846541D01*
X56843253Y-44988398D01*
X56628217Y-45097964D01*
X56398689Y-45172542D01*
X56160320Y-45210296D01*
X55918980Y-45210296D01*
X55680611Y-45172542D01*
X55451083Y-45097964D01*
X55236047Y-44988398D01*
X55040799Y-44846541D01*
X54870146Y-44675888D01*
X54728289Y-44480640D01*
X54618723Y-44265604D01*
X54544145Y-44036076D01*
X54506391Y-43797707D01*
X54506391Y-43556367D01*
X54544145Y-43317998D01*
X54618723Y-43088470D01*
X54728289Y-42873434D01*
X54870146Y-42678186D01*
X55040799Y-42507533D01*
X55236047Y-42365676D01*
X55451083Y-42256110D01*
X55680611Y-42181532D01*
X55918980Y-42143778D01*
X56160320Y-42143778D01*
X56398689Y-42181532D01*
G37*
G36*
X91500052Y-40948199D02*
G01*
X91725965Y-41008732D01*
X91942043Y-41098235D01*
X92144591Y-41215175D01*
X92330141Y-41357553D01*
X92495521Y-41522933D01*
X92637899Y-41708483D01*
X92754839Y-41911031D01*
X92844342Y-42127109D01*
X92904875Y-42353022D01*
X92935403Y-42584902D01*
X92935403Y-42723873D01*
X93033549Y-42725587D01*
X93041510Y-42497610D01*
X93041510Y-42497608D01*
X93041682Y-42492691D01*
X93060731Y-42411795D01*
X93080204Y-42384744D01*
X93081142Y-42357886D01*
X93062210Y-42327290D01*
X93054182Y-42277997D01*
X93076501Y-41638860D01*
X93079138Y-41563355D01*
X93079138Y-41563353D01*
X93079310Y-41558436D01*
X93090756Y-41509823D01*
X93119936Y-41469289D01*
X93162406Y-41443008D01*
X93211699Y-41434981D01*
X93882099Y-41458392D01*
X94600929Y-41483494D01*
X94605849Y-41483666D01*
X94654462Y-41495112D01*
X94694996Y-41524292D01*
X94721276Y-41566762D01*
X94729304Y-41616055D01*
X94711381Y-42129285D01*
X94705129Y-42308344D01*
X94733377Y-42338637D01*
X95555665Y-42367352D01*
X95560585Y-42367524D01*
X95641481Y-42386572D01*
X95708930Y-42435128D01*
X95752662Y-42505799D01*
X95766021Y-42587827D01*
X95717162Y-43986975D01*
X95698113Y-44067871D01*
X95649558Y-44135320D01*
X95578886Y-44179052D01*
X95496858Y-44192411D01*
X93198259Y-44112142D01*
X93117363Y-44093094D01*
X93049914Y-44044538D01*
X93006182Y-43973867D01*
X92992823Y-43891839D01*
X93004234Y-43565067D01*
X93029925Y-42829351D01*
X92935049Y-42821467D01*
X92904875Y-43050664D01*
X92844342Y-43276577D01*
X92754839Y-43492655D01*
X92637899Y-43695203D01*
X92495521Y-43880753D01*
X92330141Y-44046133D01*
X92144591Y-44188511D01*
X91942043Y-44305451D01*
X91725965Y-44394954D01*
X91500052Y-44455487D01*
X91268172Y-44486015D01*
X91034290Y-44486015D01*
X90802410Y-44455487D01*
X90576497Y-44394954D01*
X90360419Y-44305451D01*
X90157871Y-44188511D01*
X89972321Y-44046133D01*
X89806941Y-43880753D01*
X89664563Y-43695203D01*
X89547623Y-43492655D01*
X89458120Y-43276577D01*
X89397587Y-43050664D01*
X89367059Y-42818784D01*
X89367059Y-42584902D01*
X89397587Y-42353022D01*
X89458120Y-42127109D01*
X89547623Y-41911031D01*
X89664563Y-41708483D01*
X89806941Y-41522933D01*
X89972321Y-41357553D01*
X90157871Y-41215175D01*
X90360419Y-41098235D01*
X90576497Y-41008732D01*
X90802410Y-40948199D01*
X91034290Y-40917671D01*
X91268172Y-40917671D01*
X91500052Y-40948199D01*
G37*
G36*
X123135884Y-41832953D02*
G01*
X123257514Y-41903176D01*
X123356824Y-42002486D01*
X123427047Y-42124116D01*
X123463397Y-42259777D01*
X123468000Y-42330000D01*
X123468000Y-43430000D01*
X123463397Y-43500223D01*
X123427047Y-43635884D01*
X123356824Y-43757514D01*
X123257514Y-43856824D01*
X123135884Y-43927047D01*
X123000223Y-43963397D01*
X122859777Y-43963397D01*
X122724116Y-43927047D01*
X122602486Y-43856824D01*
X122503176Y-43757514D01*
X122432953Y-43635884D01*
X122396603Y-43500223D01*
X122392000Y-43430000D01*
X122392000Y-42330000D01*
X122396603Y-42259777D01*
X122432953Y-42124116D01*
X122503176Y-42002486D01*
X122602486Y-41903176D01*
X122724116Y-41832953D01*
X122859777Y-41796603D01*
X123000223Y-41796603D01*
X123135884Y-41832953D01*
G37*
G36*
X131775884Y-41832953D02*
G01*
X131897514Y-41903176D01*
X131996824Y-42002486D01*
X132067047Y-42124116D01*
X132103397Y-42259777D01*
X132108000Y-42330000D01*
X132108000Y-43430000D01*
X132103397Y-43500223D01*
X132067047Y-43635884D01*
X131996824Y-43757514D01*
X131897514Y-43856824D01*
X131775884Y-43927047D01*
X131640223Y-43963397D01*
X131499777Y-43963397D01*
X131364116Y-43927047D01*
X131242486Y-43856824D01*
X131143176Y-43757514D01*
X131072953Y-43635884D01*
X131036603Y-43500223D01*
X131032000Y-43430000D01*
X131032000Y-42330000D01*
X131036603Y-42259777D01*
X131072953Y-42124116D01*
X131143176Y-42002486D01*
X131242486Y-41903176D01*
X131364116Y-41832953D01*
X131499777Y-41796603D01*
X131640223Y-41796603D01*
X131775884Y-41832953D01*
G37*
G36*
X109596961Y-39690219D02*
G01*
X109816556Y-39749059D01*
X110026592Y-39836059D01*
X110223475Y-39949730D01*
X110403837Y-40088126D01*
X110564592Y-40248881D01*
X110702988Y-40429243D01*
X110816659Y-40626126D01*
X110903659Y-40836162D01*
X110962499Y-41055757D01*
X110992173Y-41281153D01*
X110992173Y-41508495D01*
X110962499Y-41733891D01*
X110903659Y-41953486D01*
X110816659Y-42163522D01*
X110702988Y-42360405D01*
X110564592Y-42540767D01*
X110403837Y-42701522D01*
X110223475Y-42839918D01*
X110026592Y-42953589D01*
X109816556Y-43040589D01*
X109596961Y-43099429D01*
X109371565Y-43129103D01*
X109144223Y-43129103D01*
X108918827Y-43099429D01*
X108699232Y-43040589D01*
X108489196Y-42953589D01*
X108292313Y-42839918D01*
X108111951Y-42701522D01*
X107951196Y-42540767D01*
X107812800Y-42360405D01*
X107699129Y-42163522D01*
X107612129Y-41953486D01*
X107553289Y-41733891D01*
X107523615Y-41508495D01*
X107523615Y-41281153D01*
X107553289Y-41055757D01*
X107612129Y-40836162D01*
X107699129Y-40626126D01*
X107812800Y-40429243D01*
X107951196Y-40248881D01*
X108111951Y-40088126D01*
X108292313Y-39949730D01*
X108489196Y-39836059D01*
X108699232Y-39749059D01*
X108918827Y-39690219D01*
X109144223Y-39660545D01*
X109371565Y-39660545D01*
X109596961Y-39690219D01*
G37*
G36*
X124498914Y-42014632D02*
G01*
X124580980Y-42062013D01*
X124647987Y-42129020D01*
X124695368Y-42211086D01*
X124719894Y-42302619D01*
X124719894Y-42397381D01*
X124695368Y-42488914D01*
X124647987Y-42570980D01*
X124580980Y-42637987D01*
X124498914Y-42685368D01*
X124407381Y-42709894D01*
X124312619Y-42709894D01*
X124221086Y-42685368D01*
X124139020Y-42637987D01*
X124072013Y-42570980D01*
X124024632Y-42488914D01*
X124000106Y-42397381D01*
X124000106Y-42302619D01*
X124024632Y-42211086D01*
X124072013Y-42129020D01*
X124139020Y-42062013D01*
X124221086Y-42014632D01*
X124312619Y-41990106D01*
X124407381Y-41990106D01*
X124498914Y-42014632D01*
G37*
G36*
X130278914Y-42014632D02*
G01*
X130360980Y-42062013D01*
X130427987Y-42129020D01*
X130475368Y-42211086D01*
X130499894Y-42302619D01*
X130499894Y-42397381D01*
X130475368Y-42488914D01*
X130427987Y-42570980D01*
X130360980Y-42637987D01*
X130278914Y-42685368D01*
X130187381Y-42709894D01*
X130092619Y-42709894D01*
X130001086Y-42685368D01*
X129919020Y-42637987D01*
X129852013Y-42570980D01*
X129804632Y-42488914D01*
X129780106Y-42397381D01*
X129780106Y-42302619D01*
X129804632Y-42211086D01*
X129852013Y-42129020D01*
X129919020Y-42062013D01*
X130001086Y-42014632D01*
X130092619Y-41990106D01*
X130187381Y-41990106D01*
X130278914Y-42014632D01*
G37*
G36*
X115012317Y-40737008D02*
G01*
X115173144Y-40803625D01*
X115317885Y-40900338D01*
X115440977Y-41023430D01*
X115537690Y-41168171D01*
X115604307Y-41328998D01*
X115638268Y-41499732D01*
X115638268Y-41673810D01*
X115604307Y-41844544D01*
X115537690Y-42005371D01*
X115440977Y-42150112D01*
X115317885Y-42273204D01*
X115173144Y-42369917D01*
X115012317Y-42436534D01*
X114841583Y-42470495D01*
X114667505Y-42470495D01*
X114496771Y-42436534D01*
X114335944Y-42369917D01*
X114191203Y-42273204D01*
X114068111Y-42150112D01*
X113971398Y-42005371D01*
X113904781Y-41844544D01*
X113870820Y-41673810D01*
X113870820Y-41499732D01*
X113904781Y-41328998D01*
X113971398Y-41168171D01*
X114068111Y-41023430D01*
X114191203Y-40900338D01*
X114335944Y-40803625D01*
X114496771Y-40737008D01*
X114667505Y-40703047D01*
X114841583Y-40703047D01*
X115012317Y-40737008D01*
G37*
G36*
X96584003Y-39182176D02*
G01*
X96813531Y-39256754D01*
X97028567Y-39366320D01*
X97223815Y-39508177D01*
X97394468Y-39678830D01*
X97536325Y-39874078D01*
X97645891Y-40089114D01*
X97720469Y-40318642D01*
X97758223Y-40557011D01*
X97758223Y-40798351D01*
X97720469Y-41036720D01*
X97645891Y-41266248D01*
X97536325Y-41481284D01*
X97394468Y-41676532D01*
X97223815Y-41847185D01*
X97028567Y-41989042D01*
X96813531Y-42098608D01*
X96584003Y-42173186D01*
X96345634Y-42210940D01*
X96104294Y-42210940D01*
X95865925Y-42173186D01*
X95636397Y-42098608D01*
X95421361Y-41989042D01*
X95226113Y-41847185D01*
X95055460Y-41676532D01*
X94913603Y-41481284D01*
X94804037Y-41266248D01*
X94729459Y-41036720D01*
X94691705Y-40798351D01*
X94691705Y-40557011D01*
X94729459Y-40318642D01*
X94804037Y-40089114D01*
X94913603Y-39874078D01*
X95055460Y-39678830D01*
X95226113Y-39508177D01*
X95421361Y-39366320D01*
X95636397Y-39256754D01*
X95865925Y-39182176D01*
X96104294Y-39144422D01*
X96345634Y-39144422D01*
X96584003Y-39182176D01*
G37*
G36*
X104019017Y-40353114D02*
G01*
X104179844Y-40419731D01*
X104324585Y-40516444D01*
X104447677Y-40639536D01*
X104544390Y-40784277D01*
X104611007Y-40945104D01*
X104644968Y-41115838D01*
X104644968Y-41289916D01*
X104611007Y-41460650D01*
X104544390Y-41621477D01*
X104447677Y-41766218D01*
X104324585Y-41889310D01*
X104179844Y-41986023D01*
X104019017Y-42052640D01*
X103848283Y-42086601D01*
X103674205Y-42086601D01*
X103503471Y-42052640D01*
X103342644Y-41986023D01*
X103197903Y-41889310D01*
X103074811Y-41766218D01*
X102978098Y-41621477D01*
X102911481Y-41460650D01*
X102877520Y-41289916D01*
X102877520Y-41115838D01*
X102911481Y-40945104D01*
X102978098Y-40784277D01*
X103074811Y-40639536D01*
X103197903Y-40516444D01*
X103342644Y-40419731D01*
X103503471Y-40353114D01*
X103674205Y-40319153D01*
X103848283Y-40319153D01*
X104019017Y-40353114D01*
G37*
G36*
X51189309Y-38489251D02*
G01*
X51408904Y-38548091D01*
X51618940Y-38635091D01*
X51815823Y-38748762D01*
X51996185Y-38887158D01*
X52156940Y-39047913D01*
X52295336Y-39228275D01*
X52409007Y-39425158D01*
X52496007Y-39635194D01*
X52554847Y-39854789D01*
X52584521Y-40080185D01*
X52584521Y-40307527D01*
X52554847Y-40532923D01*
X52496007Y-40752518D01*
X52409007Y-40962554D01*
X52295336Y-41159437D01*
X52156940Y-41339799D01*
X51996185Y-41500554D01*
X51815823Y-41638950D01*
X51618940Y-41752621D01*
X51408904Y-41839621D01*
X51189309Y-41898461D01*
X50963913Y-41928135D01*
X50736571Y-41928135D01*
X50511175Y-41898461D01*
X50291580Y-41839621D01*
X50081544Y-41752621D01*
X49884661Y-41638950D01*
X49704299Y-41500554D01*
X49543544Y-41339799D01*
X49405148Y-41159437D01*
X49291477Y-40962554D01*
X49204477Y-40752518D01*
X49145637Y-40532923D01*
X49115963Y-40307527D01*
X49115963Y-40080185D01*
X49145637Y-39854789D01*
X49204477Y-39635194D01*
X49291477Y-39425158D01*
X49405148Y-39228275D01*
X49543544Y-39047913D01*
X49704299Y-38887158D01*
X49884661Y-38748762D01*
X50081544Y-38635091D01*
X50291580Y-38548091D01*
X50511175Y-38489251D01*
X50736571Y-38459577D01*
X50963913Y-38459577D01*
X51189309Y-38489251D01*
G37*
G36*
X86590095Y-38833181D02*
G01*
X86819623Y-38907759D01*
X87034659Y-39017325D01*
X87229907Y-39159182D01*
X87400560Y-39329835D01*
X87542417Y-39525083D01*
X87651983Y-39740119D01*
X87726561Y-39969647D01*
X87764315Y-40208016D01*
X87764315Y-40449356D01*
X87726561Y-40687725D01*
X87651983Y-40917253D01*
X87542417Y-41132289D01*
X87400560Y-41327537D01*
X87229907Y-41498190D01*
X87034659Y-41640047D01*
X86819623Y-41749613D01*
X86590095Y-41824191D01*
X86351726Y-41861945D01*
X86110386Y-41861945D01*
X85872017Y-41824191D01*
X85642489Y-41749613D01*
X85427453Y-41640047D01*
X85232205Y-41498190D01*
X85061552Y-41327537D01*
X84919695Y-41132289D01*
X84810129Y-40917253D01*
X84735551Y-40687725D01*
X84697797Y-40449356D01*
X84697797Y-40208016D01*
X84735551Y-39969647D01*
X84810129Y-39740119D01*
X84919695Y-39525083D01*
X85061552Y-39329835D01*
X85232205Y-39159182D01*
X85427453Y-39017325D01*
X85642489Y-38907759D01*
X85872017Y-38833181D01*
X86110386Y-38795427D01*
X86351726Y-38795427D01*
X86590095Y-38833181D01*
G37*
G36*
X73531042Y-38313497D02*
G01*
X73756955Y-38374030D01*
X73973033Y-38463533D01*
X74175581Y-38580473D01*
X74361131Y-38722851D01*
X74526511Y-38888231D01*
X74668889Y-39073781D01*
X74785829Y-39276329D01*
X74875332Y-39492407D01*
X74935865Y-39718320D01*
X74966393Y-39950200D01*
X74966393Y-40089171D01*
X75064539Y-40090885D01*
X75072500Y-39862908D01*
X75072500Y-39862906D01*
X75072672Y-39857989D01*
X75091721Y-39777093D01*
X75111194Y-39750042D01*
X75112132Y-39723184D01*
X75093200Y-39692588D01*
X75085172Y-39643295D01*
X75106850Y-39022525D01*
X75110128Y-38928653D01*
X75110128Y-38928651D01*
X75110300Y-38923734D01*
X75121746Y-38875121D01*
X75150926Y-38834587D01*
X75193396Y-38808306D01*
X75242689Y-38800279D01*
X75998277Y-38826664D01*
X76631919Y-38848792D01*
X76636839Y-38848964D01*
X76685452Y-38860410D01*
X76725986Y-38889590D01*
X76752266Y-38932060D01*
X76760294Y-38981353D01*
X76742622Y-39487408D01*
X76736119Y-39673642D01*
X76764367Y-39703935D01*
X77586655Y-39732650D01*
X77591575Y-39732822D01*
X77672471Y-39751870D01*
X77739920Y-39800426D01*
X77783652Y-39871097D01*
X77797011Y-39953125D01*
X77748152Y-41352273D01*
X77729103Y-41433169D01*
X77680548Y-41500618D01*
X77609876Y-41544350D01*
X77527848Y-41557709D01*
X75229249Y-41477440D01*
X75148353Y-41458392D01*
X75080904Y-41409836D01*
X75037172Y-41339165D01*
X75023813Y-41257137D01*
X75034620Y-40947675D01*
X75060915Y-40194649D01*
X74966039Y-40186765D01*
X74935865Y-40415962D01*
X74875332Y-40641875D01*
X74785829Y-40857953D01*
X74668889Y-41060501D01*
X74526511Y-41246051D01*
X74361131Y-41411431D01*
X74175581Y-41553809D01*
X73973033Y-41670749D01*
X73756955Y-41760252D01*
X73531042Y-41820785D01*
X73299162Y-41851313D01*
X73065280Y-41851313D01*
X72833400Y-41820785D01*
X72607487Y-41760252D01*
X72391409Y-41670749D01*
X72188861Y-41553809D01*
X72003311Y-41411431D01*
X71837931Y-41246051D01*
X71695553Y-41060501D01*
X71578613Y-40857953D01*
X71489110Y-40641875D01*
X71428577Y-40415962D01*
X71398049Y-40184082D01*
X71398049Y-39950200D01*
X71428577Y-39718320D01*
X71489110Y-39492407D01*
X71578613Y-39276329D01*
X71695553Y-39073781D01*
X71837931Y-38888231D01*
X72003311Y-38722851D01*
X72188861Y-38580473D01*
X72391409Y-38463533D01*
X72607487Y-38374030D01*
X72833400Y-38313497D01*
X73065280Y-38282969D01*
X73299162Y-38282969D01*
X73531042Y-38313497D01*
G37*
G36*
X83533804Y-38895680D02*
G01*
X84095461Y-38915293D01*
X84095465Y-38915293D01*
X84099080Y-38915420D01*
X84166989Y-38925711D01*
X84175479Y-38929819D01*
X84182938Y-38931174D01*
X84229015Y-38955727D01*
X84265568Y-38973417D01*
X84268884Y-38976973D01*
X84269777Y-38977449D01*
X84336524Y-39049027D01*
X84336935Y-39049949D01*
X84340256Y-39053510D01*
X84355363Y-39091236D01*
X84376632Y-39138887D01*
X84377462Y-39146419D01*
X84380969Y-39155177D01*
X84386498Y-39223639D01*
X84313907Y-41302371D01*
X84303616Y-41370281D01*
X84299505Y-41378775D01*
X84298152Y-41386229D01*
X84273620Y-41432264D01*
X84255911Y-41468860D01*
X84252349Y-41472180D01*
X84251876Y-41473070D01*
X84180299Y-41539816D01*
X84179378Y-41540226D01*
X84175817Y-41543548D01*
X84138080Y-41558659D01*
X84090439Y-41579924D01*
X84082907Y-41580753D01*
X84074150Y-41584261D01*
X84005689Y-41589790D01*
X81876986Y-41515454D01*
X81809077Y-41505163D01*
X81800583Y-41501052D01*
X81793127Y-41499699D01*
X81747060Y-41475150D01*
X81710498Y-41457457D01*
X81707180Y-41453899D01*
X81706288Y-41453424D01*
X81639541Y-41381846D01*
X81639129Y-41380923D01*
X81635810Y-41377364D01*
X81620707Y-41339649D01*
X81599433Y-41291986D01*
X81598602Y-41284451D01*
X81595097Y-41275697D01*
X81589568Y-41207235D01*
X81628614Y-40089114D01*
X81662032Y-39132121D01*
X81662032Y-39132116D01*
X81662159Y-39128503D01*
X81672450Y-39060593D01*
X81676559Y-39052101D01*
X81677913Y-39044644D01*
X81702460Y-38998578D01*
X81720155Y-38962014D01*
X81723713Y-38958696D01*
X81724189Y-38957803D01*
X81795766Y-38891057D01*
X81796690Y-38890644D01*
X81800249Y-38887326D01*
X81837953Y-38872226D01*
X81885626Y-38850949D01*
X81893161Y-38850118D01*
X81901916Y-38846613D01*
X81970377Y-38841084D01*
X83533804Y-38895680D01*
G37*
G36*
X45615553Y-39631941D02*
G01*
X45776380Y-39698558D01*
X45921121Y-39795271D01*
X46044213Y-39918363D01*
X46140926Y-40063104D01*
X46207543Y-40223931D01*
X46241504Y-40394665D01*
X46241504Y-40568743D01*
X46207543Y-40739477D01*
X46140926Y-40900304D01*
X46044213Y-41045045D01*
X45921121Y-41168137D01*
X45776380Y-41264850D01*
X45615553Y-41331467D01*
X45444819Y-41365428D01*
X45270741Y-41365428D01*
X45100007Y-41331467D01*
X44939180Y-41264850D01*
X44794439Y-41168137D01*
X44671347Y-41045045D01*
X44574634Y-40900304D01*
X44508017Y-40739477D01*
X44474056Y-40568743D01*
X44474056Y-40394665D01*
X44508017Y-40223931D01*
X44574634Y-40063104D01*
X44671347Y-39918363D01*
X44794439Y-39795271D01*
X44939180Y-39698558D01*
X45100007Y-39631941D01*
X45270741Y-39597980D01*
X45444819Y-39597980D01*
X45615553Y-39631941D01*
G37*
G36*
X135223481Y-40204529D02*
G01*
X135311199Y-40255173D01*
X135382821Y-40326795D01*
X135433465Y-40414513D01*
X135459681Y-40512350D01*
X135459681Y-40613638D01*
X135433465Y-40711475D01*
X135382821Y-40799193D01*
X135311199Y-40870815D01*
X135223481Y-40921459D01*
X135125644Y-40947675D01*
X135024356Y-40947675D01*
X134926519Y-40921459D01*
X134838801Y-40870815D01*
X134767179Y-40799193D01*
X134716535Y-40711475D01*
X134690319Y-40613638D01*
X134690319Y-40512350D01*
X134716535Y-40414513D01*
X134767179Y-40326795D01*
X134838801Y-40255173D01*
X134926519Y-40204529D01*
X135024356Y-40178313D01*
X135125644Y-40178313D01*
X135223481Y-40204529D01*
G37*
G36*
X137023481Y-40204529D02*
G01*
X137111199Y-40255173D01*
X137182821Y-40326795D01*
X137233465Y-40414513D01*
X137259681Y-40512350D01*
X137259681Y-40613638D01*
X137233465Y-40711475D01*
X137182821Y-40799193D01*
X137111199Y-40870815D01*
X137023481Y-40921459D01*
X136925644Y-40947675D01*
X136824356Y-40947675D01*
X136726519Y-40921459D01*
X136638801Y-40870815D01*
X136567179Y-40799193D01*
X136516535Y-40711475D01*
X136490319Y-40613638D01*
X136490319Y-40512350D01*
X136516535Y-40414513D01*
X136567179Y-40326795D01*
X136638801Y-40255173D01*
X136726519Y-40204529D01*
X136824356Y-40178313D01*
X136925644Y-40178313D01*
X137023481Y-40204529D01*
G37*
G36*
X56600477Y-39056245D02*
G01*
X56761304Y-39122862D01*
X56906045Y-39219575D01*
X57029137Y-39342667D01*
X57125850Y-39487408D01*
X57192467Y-39648235D01*
X57226428Y-39818969D01*
X57226428Y-39993047D01*
X57192467Y-40163781D01*
X57125850Y-40324608D01*
X57029137Y-40469349D01*
X56906045Y-40592441D01*
X56761304Y-40689154D01*
X56600477Y-40755771D01*
X56429743Y-40789732D01*
X56255665Y-40789732D01*
X56084931Y-40755771D01*
X55924104Y-40689154D01*
X55779363Y-40592441D01*
X55656271Y-40469349D01*
X55559558Y-40324608D01*
X55492941Y-40163781D01*
X55458980Y-39993047D01*
X55458980Y-39818969D01*
X55492941Y-39648235D01*
X55559558Y-39487408D01*
X55656271Y-39342667D01*
X55779363Y-39219575D01*
X55924104Y-39122862D01*
X56084931Y-39056245D01*
X56255665Y-39022284D01*
X56429743Y-39022284D01*
X56600477Y-39056245D01*
G37*
G36*
X78614993Y-36547474D02*
G01*
X78844521Y-36622052D01*
X79059557Y-36731618D01*
X79254805Y-36873475D01*
X79425458Y-37044128D01*
X79567315Y-37239376D01*
X79676881Y-37454412D01*
X79751459Y-37683940D01*
X79789213Y-37922309D01*
X79789213Y-38163649D01*
X79751459Y-38402018D01*
X79676881Y-38631546D01*
X79567315Y-38846582D01*
X79425458Y-39041830D01*
X79254805Y-39212483D01*
X79059557Y-39354340D01*
X78844521Y-39463906D01*
X78614993Y-39538484D01*
X78376624Y-39576238D01*
X78135284Y-39576238D01*
X77896915Y-39538484D01*
X77667387Y-39463906D01*
X77452351Y-39354340D01*
X77257103Y-39212483D01*
X77086450Y-39041830D01*
X76944593Y-38846582D01*
X76835027Y-38631546D01*
X76760449Y-38402018D01*
X76722695Y-38163649D01*
X76722695Y-37922309D01*
X76760449Y-37683940D01*
X76835027Y-37454412D01*
X76944593Y-37239376D01*
X77086450Y-37044128D01*
X77257103Y-36873475D01*
X77452351Y-36731618D01*
X77667387Y-36622052D01*
X77896915Y-36547474D01*
X78135284Y-36509720D01*
X78376624Y-36509720D01*
X78614993Y-36547474D01*
G37*
G36*
X123135884Y-37902953D02*
G01*
X123257514Y-37973176D01*
X123356824Y-38072486D01*
X123427047Y-38194116D01*
X123463397Y-38329777D01*
X123468000Y-38400000D01*
X123468000Y-39000000D01*
X123463397Y-39070223D01*
X123427047Y-39205884D01*
X123356824Y-39327514D01*
X123257514Y-39426824D01*
X123135884Y-39497047D01*
X123000223Y-39533397D01*
X122859777Y-39533397D01*
X122724116Y-39497047D01*
X122602486Y-39426824D01*
X122503176Y-39327514D01*
X122432953Y-39205884D01*
X122396603Y-39070223D01*
X122392000Y-39000000D01*
X122392000Y-38400000D01*
X122396603Y-38329777D01*
X122432953Y-38194116D01*
X122503176Y-38072486D01*
X122602486Y-37973176D01*
X122724116Y-37902953D01*
X122859777Y-37866603D01*
X123000223Y-37866603D01*
X123135884Y-37902953D01*
G37*
G36*
X131775884Y-37902953D02*
G01*
X131897514Y-37973176D01*
X131996824Y-38072486D01*
X132067047Y-38194116D01*
X132103397Y-38329777D01*
X132108000Y-38400000D01*
X132108000Y-39000000D01*
X132103397Y-39070223D01*
X132067047Y-39205884D01*
X131996824Y-39327514D01*
X131897514Y-39426824D01*
X131775884Y-39497047D01*
X131640223Y-39533397D01*
X131499777Y-39533397D01*
X131364116Y-39497047D01*
X131242486Y-39426824D01*
X131143176Y-39327514D01*
X131072953Y-39205884D01*
X131036603Y-39070223D01*
X131032000Y-39000000D01*
X131032000Y-38400000D01*
X131036603Y-38329777D01*
X131072953Y-38194116D01*
X131143176Y-38072486D01*
X131242486Y-37973176D01*
X131364116Y-37902953D01*
X131499777Y-37866603D01*
X131640223Y-37866603D01*
X131775884Y-37902953D01*
G37*
G36*
X68621085Y-36198479D02*
G01*
X68850613Y-36273057D01*
X69065649Y-36382623D01*
X69260897Y-36524480D01*
X69431550Y-36695133D01*
X69573407Y-36890381D01*
X69682973Y-37105417D01*
X69757551Y-37334945D01*
X69795305Y-37573314D01*
X69795305Y-37814654D01*
X69757551Y-38053023D01*
X69682973Y-38282551D01*
X69573407Y-38497587D01*
X69431550Y-38692835D01*
X69260897Y-38863488D01*
X69065649Y-39005345D01*
X68850613Y-39114911D01*
X68621085Y-39189489D01*
X68382716Y-39227243D01*
X68141376Y-39227243D01*
X67903007Y-39189489D01*
X67673479Y-39114911D01*
X67458443Y-39005345D01*
X67263195Y-38863488D01*
X67092542Y-38692835D01*
X66950685Y-38497587D01*
X66841119Y-38282551D01*
X66766541Y-38053023D01*
X66728787Y-37814654D01*
X66728787Y-37573314D01*
X66766541Y-37334945D01*
X66841119Y-37105417D01*
X66950685Y-36890381D01*
X67092542Y-36695133D01*
X67263195Y-36524480D01*
X67458443Y-36382623D01*
X67673479Y-36273057D01*
X67903007Y-36198479D01*
X68141376Y-36160725D01*
X68382716Y-36160725D01*
X68621085Y-36198479D01*
G37*
G36*
X65564794Y-36260978D02*
G01*
X66126451Y-36280591D01*
X66126455Y-36280591D01*
X66130070Y-36280718D01*
X66197979Y-36291009D01*
X66206469Y-36295117D01*
X66213928Y-36296472D01*
X66260005Y-36321025D01*
X66296558Y-36338715D01*
X66299874Y-36342271D01*
X66300767Y-36342747D01*
X66367514Y-36414325D01*
X66367925Y-36415247D01*
X66371246Y-36418808D01*
X66386353Y-36456534D01*
X66407622Y-36504185D01*
X66408452Y-36511717D01*
X66411959Y-36520475D01*
X66417488Y-36588937D01*
X66344897Y-38667669D01*
X66334606Y-38735579D01*
X66330495Y-38744073D01*
X66329142Y-38751527D01*
X66304610Y-38797562D01*
X66286901Y-38834158D01*
X66283339Y-38837478D01*
X66282866Y-38838368D01*
X66211289Y-38905114D01*
X66210368Y-38905524D01*
X66206807Y-38908846D01*
X66169070Y-38923957D01*
X66121429Y-38945222D01*
X66113897Y-38946051D01*
X66105140Y-38949559D01*
X66036679Y-38955088D01*
X63907976Y-38880752D01*
X63840067Y-38870461D01*
X63831573Y-38866350D01*
X63824117Y-38864997D01*
X63778050Y-38840448D01*
X63741488Y-38822755D01*
X63738170Y-38819197D01*
X63737278Y-38818722D01*
X63670531Y-38747144D01*
X63670119Y-38746221D01*
X63666800Y-38742662D01*
X63651697Y-38704947D01*
X63630423Y-38657284D01*
X63629592Y-38649749D01*
X63626087Y-38640995D01*
X63620558Y-38572533D01*
X63661048Y-37413053D01*
X63693022Y-36497419D01*
X63693022Y-36497414D01*
X63693149Y-36493801D01*
X63703440Y-36425891D01*
X63707549Y-36417399D01*
X63708903Y-36409942D01*
X63733450Y-36363876D01*
X63751145Y-36327312D01*
X63754703Y-36323994D01*
X63755179Y-36323101D01*
X63826756Y-36256355D01*
X63827680Y-36255942D01*
X63831239Y-36252624D01*
X63868943Y-36237524D01*
X63916616Y-36216247D01*
X63924151Y-36215416D01*
X63932906Y-36211911D01*
X64001367Y-36206382D01*
X65564794Y-36260978D01*
G37*
G36*
X91697950Y-35050863D02*
G01*
X91917545Y-35109703D01*
X92127581Y-35196703D01*
X92324464Y-35310374D01*
X92504826Y-35448770D01*
X92665581Y-35609525D01*
X92803977Y-35789887D01*
X92917648Y-35986770D01*
X93004648Y-36196806D01*
X93063488Y-36416401D01*
X93093162Y-36641797D01*
X93093162Y-36869139D01*
X93063488Y-37094535D01*
X93004648Y-37314130D01*
X92917648Y-37524166D01*
X92803977Y-37721049D01*
X92665581Y-37901411D01*
X92504826Y-38062166D01*
X92324464Y-38200562D01*
X92127581Y-38314233D01*
X91917545Y-38401233D01*
X91697950Y-38460073D01*
X91472554Y-38489747D01*
X91245212Y-38489747D01*
X91019816Y-38460073D01*
X90800221Y-38401233D01*
X90590185Y-38314233D01*
X90393302Y-38200562D01*
X90212940Y-38062166D01*
X90052185Y-37901411D01*
X89913789Y-37721049D01*
X89800118Y-37524166D01*
X89713118Y-37314130D01*
X89654278Y-37094535D01*
X89624604Y-36869139D01*
X89624604Y-36641797D01*
X89654278Y-36416401D01*
X89713118Y-36196806D01*
X89800118Y-35986770D01*
X89913789Y-35789887D01*
X90052185Y-35609525D01*
X90212940Y-35448770D01*
X90393302Y-35310374D01*
X90590185Y-35196703D01*
X90800221Y-35109703D01*
X91019816Y-35050863D01*
X91245212Y-35021189D01*
X91472554Y-35021189D01*
X91697950Y-35050863D01*
G37*
G36*
X97113306Y-36097652D02*
G01*
X97274133Y-36164269D01*
X97418874Y-36260982D01*
X97541966Y-36384074D01*
X97638679Y-36528815D01*
X97705296Y-36689642D01*
X97739257Y-36860376D01*
X97739257Y-37034454D01*
X97705296Y-37205188D01*
X97638679Y-37366015D01*
X97541966Y-37510756D01*
X97418874Y-37633848D01*
X97274133Y-37730561D01*
X97113306Y-37797178D01*
X96942572Y-37831139D01*
X96768494Y-37831139D01*
X96597760Y-37797178D01*
X96436933Y-37730561D01*
X96292192Y-37633848D01*
X96169100Y-37510756D01*
X96072387Y-37366015D01*
X96005770Y-37205188D01*
X95971809Y-37034454D01*
X95971809Y-36860376D01*
X96005770Y-36689642D01*
X96072387Y-36528815D01*
X96169100Y-36384074D01*
X96292192Y-36260982D01*
X96436933Y-36164269D01*
X96597760Y-36097652D01*
X96768494Y-36063691D01*
X96942572Y-36063691D01*
X97113306Y-36097652D01*
G37*
G36*
X86120006Y-35713758D02*
G01*
X86280833Y-35780375D01*
X86425574Y-35877088D01*
X86548666Y-36000180D01*
X86645379Y-36144921D01*
X86711996Y-36305748D01*
X86745957Y-36476482D01*
X86745957Y-36650560D01*
X86711996Y-36821294D01*
X86645379Y-36982121D01*
X86548666Y-37126862D01*
X86425574Y-37249954D01*
X86280833Y-37346667D01*
X86120006Y-37413284D01*
X85949272Y-37447245D01*
X85775194Y-37447245D01*
X85604460Y-37413284D01*
X85443633Y-37346667D01*
X85298892Y-37249954D01*
X85175800Y-37126862D01*
X85079087Y-36982121D01*
X85012470Y-36821294D01*
X84978509Y-36650560D01*
X84978509Y-36476482D01*
X85012470Y-36305748D01*
X85079087Y-36144921D01*
X85175800Y-36000180D01*
X85298892Y-35877088D01*
X85443633Y-35780375D01*
X85604460Y-35713758D01*
X85775194Y-35679797D01*
X85949272Y-35679797D01*
X86120006Y-35713758D01*
G37*
G36*
X73728940Y-32416161D02*
G01*
X73948535Y-32475001D01*
X74158571Y-32562001D01*
X74355454Y-32675672D01*
X74535816Y-32814068D01*
X74696571Y-32974823D01*
X74834967Y-33155185D01*
X74948638Y-33352068D01*
X75035638Y-33562104D01*
X75094478Y-33781699D01*
X75124152Y-34007095D01*
X75124152Y-34234437D01*
X75094478Y-34459833D01*
X75035638Y-34679428D01*
X74948638Y-34889464D01*
X74834967Y-35086347D01*
X74696571Y-35266709D01*
X74535816Y-35427464D01*
X74355454Y-35565860D01*
X74158571Y-35679531D01*
X73948535Y-35766531D01*
X73728940Y-35825371D01*
X73503544Y-35855045D01*
X73276202Y-35855045D01*
X73050806Y-35825371D01*
X72831211Y-35766531D01*
X72621175Y-35679531D01*
X72424292Y-35565860D01*
X72243930Y-35427464D01*
X72083175Y-35266709D01*
X71944779Y-35086347D01*
X71831108Y-34889464D01*
X71744108Y-34679428D01*
X71685268Y-34459833D01*
X71655594Y-34234437D01*
X71655594Y-34007095D01*
X71685268Y-33781699D01*
X71744108Y-33562104D01*
X71831108Y-33352068D01*
X71944779Y-33155185D01*
X72083175Y-32974823D01*
X72243930Y-32814068D01*
X72424292Y-32675672D01*
X72621175Y-32562001D01*
X72831211Y-32475001D01*
X73050806Y-32416161D01*
X73276202Y-32386487D01*
X73503544Y-32386487D01*
X73728940Y-32416161D01*
G37*
G36*
X79144296Y-33462950D02*
G01*
X79305123Y-33529567D01*
X79449864Y-33626280D01*
X79572956Y-33749372D01*
X79669669Y-33894113D01*
X79736286Y-34054940D01*
X79770247Y-34225674D01*
X79770247Y-34399752D01*
X79736286Y-34570486D01*
X79669669Y-34731313D01*
X79572956Y-34876054D01*
X79449864Y-34999146D01*
X79305123Y-35095859D01*
X79144296Y-35162476D01*
X78973562Y-35196437D01*
X78799484Y-35196437D01*
X78628750Y-35162476D01*
X78467923Y-35095859D01*
X78323182Y-34999146D01*
X78200090Y-34876054D01*
X78103377Y-34731313D01*
X78036760Y-34570486D01*
X78002799Y-34399752D01*
X78002799Y-34225674D01*
X78036760Y-34054940D01*
X78103377Y-33894113D01*
X78200090Y-33749372D01*
X78323182Y-33626280D01*
X78467923Y-33529567D01*
X78628750Y-33462950D01*
X78799484Y-33428989D01*
X78973562Y-33428989D01*
X79144296Y-33462950D01*
G37*
G36*
X68150996Y-33079056D02*
G01*
X68311823Y-33145673D01*
X68456564Y-33242386D01*
X68579656Y-33365478D01*
X68676369Y-33510219D01*
X68742986Y-33671046D01*
X68776947Y-33841780D01*
X68776947Y-34015858D01*
X68742986Y-34186592D01*
X68676369Y-34347419D01*
X68579656Y-34492160D01*
X68456564Y-34615252D01*
X68311823Y-34711965D01*
X68150996Y-34778582D01*
X67980262Y-34812543D01*
X67806184Y-34812543D01*
X67635450Y-34778582D01*
X67474623Y-34711965D01*
X67329882Y-34615252D01*
X67206790Y-34492160D01*
X67110077Y-34347419D01*
X67043460Y-34186592D01*
X67009499Y-34015858D01*
X67009499Y-33841780D01*
X67043460Y-33671046D01*
X67110077Y-33510219D01*
X67206790Y-33365478D01*
X67329882Y-33242386D01*
X67474623Y-33145673D01*
X67635450Y-33079056D01*
X67806184Y-33045095D01*
X67980262Y-33045095D01*
X68150996Y-33079056D01*
G37*
M02*
