M48
; DRILL file {KiCad 8.0.5} date 2024-09-13T23:35:36+0200
; FORMAT={-:-/ absolute / inch / decimal}
; #@! TF.CreationDate,2024-09-13T23:35:36+02:00
; #@! TF.GenerationSoftware,Kicad,Pcbnew,8.0.5
; #@! TF.FileFunction,Plated,1,2,PTH
FMAT,2
INCH
; #@! TA.AperFunction,Plated,PTH,ViaDrill
T1C0.0157
; #@! TA.AperFunction,Plated,PTH,ComponentDrill
T2C0.0236
; #@! TA.AperFunction,Plated,PTH,ComponentDrill
T3C0.0276
; #@! TA.AperFunction,Plated,PTH,ComponentDrill
T4C0.0295
; #@! TA.AperFunction,Plated,PTH,ComponentDrill
T5C0.0394
; #@! TA.AperFunction,Plated,PTH,ComponentDrill
T6C0.1181
%
G90
G05
T1
X4.6555Y-2.5295
X4.7047Y-2.9232
X4.7146Y-2.313
X4.7146Y-2.4213
X4.8228Y-2.5492
X4.8563Y-1.8898
X4.8917Y-2.2441
X4.8917Y-1.998
X4.8922Y-2.0379
X4.8925Y-2.078
X4.8932Y-2.1188
X4.8942Y-2.1678
X4.9063Y-1.8898
X4.9114Y-2.6575
X4.9114Y-2.4803
X4.9311Y-2.2441
X4.9409Y-3.1693
X4.9409Y-3.2163
X4.9508Y-2.6575
X4.9563Y-1.8898
X4.9705Y-1.5154
X4.9803Y-2.2441
X4.9985Y-2.6284
X5.0063Y-1.8898
X5.0295Y-2.2441
X5.0492Y-1.4071
X5.0492Y-2.9626
X5.0563Y-1.8898
X5.0787Y-2.2441
X5.1063Y-1.8878
X5.1181Y-2.2441
X5.122Y-2.5277
X5.1334Y-3.0172
X5.2461Y-1.4661
X5.2953Y-1.3382
X5.7874Y-1.3914
X5.9279Y-1.5256
X5.9941Y-2.8839
X6.0381Y-2.361
X6.0433Y-1.8701
X6.0854Y-2.0765
X6.0909Y-1.9128
X6.0972Y-2.358
X6.1248Y-2.0765
X6.1307Y-1.4055
X6.1366Y-2.358
X6.1405Y-2.7438
X6.1417Y-2.9606
X6.1423Y-1.8302
X6.1641Y-2.0765
X6.1759Y-2.358
X6.204Y-2.077
X6.2153Y-2.358
X6.2311Y-1.8787
X6.2429Y-2.1553
X6.2429Y-2.1946
X6.2429Y-2.234
X6.2429Y-2.2734
X6.2442Y-2.0772
X6.2493Y-2.7067
X6.2547Y-2.358
X6.2918Y-2.3801
X6.3012Y-2.872
X6.3489Y-2.4121
X6.3575Y-2.764
X6.3767Y-2.4407
X6.4006Y-2.7195
X6.4397Y-2.4899
X6.4781Y-2.1651
X6.4998Y-2.1286
T3
X5.0142Y-1.2126
X5.2417Y-1.2126
X5.9322Y-1.2156
X6.1598Y-1.2156
T4
X5.0Y-3.4449
X5.0787Y-3.4449
X6.046Y-3.4427
X6.1248Y-3.4427
T5
X4.7181Y-2.7264
X4.8181Y-2.7264
X4.9181Y-2.7264
X5.0181Y-2.7264
X5.1181Y-2.7264
X6.0248Y-2.549
X6.1248Y-2.549
X6.2248Y-2.549
X6.3248Y-2.549
X6.4248Y-2.549
T6
X1.0667Y-2.0385
X1.1714Y-2.6995
X1.2747Y-2.0933
X1.2761Y-3.3606
X1.3794Y-2.7543
X1.4841Y-3.4154
X1.9842Y-1.3439
X2.0192Y-2.0122
X2.0542Y-2.6806
X2.1853Y-1.4201
X2.2203Y-2.0884
X2.2553Y-2.7568
X2.8428Y-2.4431
X2.8662Y-1.7742
X2.8895Y-1.1053
X3.0365Y-2.5365
X3.0599Y-1.8676
X3.0832Y-1.1987
X3.5343Y-3.5317
X3.5483Y-2.5465
X3.5717Y-1.8776
X3.595Y-1.2087
X3.7192Y-3.6417
X3.742Y-2.6399
X3.7654Y-1.971
X3.7887Y-1.3021
X4.0437Y-3.0247
X4.2374Y-3.1181
X4.2771Y-1.981
X4.3005Y-1.3121
X4.3769Y-3.7507
X4.4709Y-2.0745
X4.4942Y-1.4056
X4.527Y-3.9047
X4.7511Y-4.367
X4.8562Y-4.5546
X6.0317Y-4.1827
X6.241Y-4.1334
X6.6859Y-1.7029
X6.7093Y-2.3718
X6.7326Y-3.0407
X6.7929Y-3.7529
X6.8857Y-1.7826
X6.909Y-2.4515
X6.9324Y-3.1204
X7.0079Y-3.7595
X7.3914Y-1.5995
X7.4148Y-2.2684
X7.4381Y-2.9373
X7.5912Y-1.6792
X7.6145Y-2.3481
X7.6355Y-3.534
X7.6379Y-3.017
X7.8414Y-3.596
X8.0969Y-1.4961
X8.1202Y-2.165
X8.1436Y-2.8338
X8.2966Y-1.5758
X8.32Y-2.2447
X8.3434Y-2.9135
X8.899Y-3.0539
X8.9341Y-2.3856
X8.9691Y-1.7172
X9.0911Y-3.1507
X9.1261Y-2.4824
X9.1611Y-1.814
X9.6395Y-3.7093
X9.7442Y-3.0482
X9.8204Y-3.8256
X9.8489Y-2.3872
X9.9251Y-3.1646
X10.0298Y-2.5035
T2
G00X4.9579Y-1.0795
M15
G01X4.9579Y-1.0559
M16
G05
G00X4.9579Y-1.2512
M15
G01X4.9579Y-1.2157
M16
G05
G00X5.298Y-1.0795
M15
G01X5.298Y-1.0559
M16
G05
G00X5.298Y-1.2512
M15
G01X5.298Y-1.2157
M16
G05
G00X5.8759Y-1.0825
M15
G01X5.8759Y-1.0589
M16
G05
G00X5.8759Y-1.2542
M15
G01X5.8759Y-1.2187
M16
G05
G00X6.2161Y-1.0825
M15
G01X6.2161Y-1.0589
M16
G05
G00X6.2161Y-1.2542
M15
G01X6.2161Y-1.2187
M16
G05
M30
