%TF.GenerationSoftware,KiCad,Pcbnew,8.0.5*%
%TF.CreationDate,2024-09-15T16:43:43+02:00*%
%TF.ProjectId,woagboard,776f6167-626f-4617-9264-2e6b69636164,rev?*%
%TF.SameCoordinates,Original*%
%TF.FileFunction,Paste,Bot*%
%TF.FilePolarity,Positive*%
%FSLAX46Y46*%
G04 Gerber Fmt 4.6, Leading zero omitted, Abs format (unit mm)*
G04 Created by KiCad (PCBNEW 8.0.5) date 2024-09-15 16:43:43*
%MOMM*%
%LPD*%
G01*
G04 APERTURE LIST*
G04 Aperture macros list*
%AMRoundRect*
0 Rectangle with rounded corners*
0 $1 Rounding radius*
0 $2 $3 $4 $5 $6 $7 $8 $9 X,Y pos of 4 corners*
0 Add a 4 corners polygon primitive as box body*
4,1,4,$2,$3,$4,$5,$6,$7,$8,$9,$2,$3,0*
0 Add four circle primitives for the rounded corners*
1,1,$1+$1,$2,$3*
1,1,$1+$1,$4,$5*
1,1,$1+$1,$6,$7*
1,1,$1+$1,$8,$9*
0 Add four rect primitives between the rounded corners*
20,1,$1+$1,$2,$3,$4,$5,0*
20,1,$1+$1,$4,$5,$6,$7,0*
20,1,$1+$1,$6,$7,$8,$9,0*
20,1,$1+$1,$8,$9,$2,$3,0*%
G04 Aperture macros list end*
%ADD10RoundRect,0.260000X1.117970X0.982837X-1.009111X1.094313X-1.117970X-0.982837X1.009111X-1.094313X0*%
%ADD11RoundRect,0.260000X1.476434X0.189648X-0.224659X1.471514X-1.476434X-0.189648X0.224659X-1.471514X0*%
%ADD12RoundRect,0.260000X-0.889196X-1.193799X1.214580X-0.860593X0.889196X1.193799X-1.214580X0.860593X0*%
%ADD13RoundRect,0.260000X-0.597860X-1.363227X1.377042X-0.565315X0.597860X1.363227X-1.377042X0.565315X0*%
%ADD14RoundRect,0.260000X1.214580X0.860593X-0.889196X1.193799X-1.214580X-0.860593X0.889196X-1.193799X0*%
%ADD15RoundRect,0.260000X1.028056X1.076534X-1.100647X1.002198X-1.028056X-1.076534X1.100647X-1.002198X0*%
%ADD16RoundRect,0.260000X-1.183806X-0.902457X0.930318X-1.162039X1.183806X0.902457X-0.930318X1.162039X0*%
%ADD17RoundRect,0.260000X-1.100647X-1.002198X1.028056X-1.076534X1.100647X1.002198X-1.028056X1.076534X0*%
%ADD18RoundRect,0.260000X-1.377042X-0.565315X0.597860X-1.363227X1.377042X0.565315X-0.597860X1.363227X0*%
%ADD19RoundRect,0.260000X1.100647X1.002198X-1.028056X1.076534X-1.100647X-1.002198X1.028056X-1.076534X0*%
%ADD20RoundRect,0.260000X-1.009111X-1.094313X1.117970X-0.982837X1.009111X1.094313X-1.117970X0.982837X0*%
%ADD21RoundRect,0.260000X-0.224659X-1.471514X1.476434X-0.189648X0.224659X1.471514X-1.476434X0.189648X0*%
%ADD22RoundRect,0.260000X-0.930318X-1.162039X1.183806X-0.902457X0.930318X1.162039X-1.183806X0.902457X0*%
G04 APERTURE END LIST*
D10*
%TO.C,SW32*%
X222794820Y-77400283D03*
X234153934Y-80198608D03*
%TD*%
D11*
%TO.C,SW18*%
X118085840Y-108968798D03*
X125938169Y-117640651D03*
%TD*%
D12*
%TO.C,SW6*%
X38242307Y-69451679D03*
X26549612Y-69076196D03*
%TD*%
D13*
%TO.C,SW35*%
X181008536Y-94275553D03*
X169531059Y-96539978D03*
%TD*%
D14*
%TO.C,SW28*%
X244298042Y-76916883D03*
X255302426Y-80887227D03*
%TD*%
D15*
%TO.C,SW21*%
X202417908Y-38113710D03*
X213977687Y-39911375D03*
%TD*%
%TO.C,SW25*%
X185091972Y-57730332D03*
X196651751Y-59527997D03*
%TD*%
D16*
%TO.C,SW16*%
X97687291Y-92894505D03*
X86551048Y-89310624D03*
%TD*%
D15*
%TO.C,SW29*%
X167766018Y-77346939D03*
X179325797Y-79144604D03*
%TD*%
D10*
%TO.C,SW27*%
X223684542Y-60423590D03*
X235043656Y-63221915D03*
%TD*%
D17*
%TO.C,SW10*%
X116802616Y-52804335D03*
X105396395Y-50204680D03*
%TD*%
D18*
%TO.C,SW17*%
X117994316Y-100395274D03*
X108165108Y-94051240D03*
%TD*%
D12*
%TO.C,SW11*%
X40901681Y-86242391D03*
X29208986Y-85866908D03*
%TD*%
D15*
%TO.C,SW26*%
X203011206Y-55103357D03*
X214570985Y-56901022D03*
%TD*%
D14*
%TO.C,SW33*%
X241638650Y-93707595D03*
X252643034Y-97677939D03*
%TD*%
D12*
%TO.C,SW1*%
X35582915Y-52660983D03*
X23890220Y-52285500D03*
%TD*%
D19*
%TO.C,SW15*%
X99467618Y-76713904D03*
X110873839Y-79313559D03*
%TD*%
D20*
%TO.C,SW12*%
X60526251Y-69853019D03*
X48936858Y-68257374D03*
%TD*%
D15*
%TO.C,SW20*%
X184498674Y-40740685D03*
X196058453Y-42538350D03*
%TD*%
D17*
%TO.C,SW13*%
X80370850Y-64540031D03*
X68964629Y-61940376D03*
%TD*%
D15*
%TO.C,SW24*%
X167172738Y-60357308D03*
X178732517Y-62154973D03*
%TD*%
D17*
%TO.C,SW8*%
X80964130Y-47550384D03*
X69557909Y-44950729D03*
%TD*%
%TO.C,SW9*%
X98883382Y-50177359D03*
X87477161Y-47577704D03*
%TD*%
D14*
%TO.C,SW23*%
X246957416Y-60126187D03*
X257961800Y-64096531D03*
%TD*%
D15*
%TO.C,SW30*%
X185685252Y-74719979D03*
X197245031Y-76517644D03*
%TD*%
D10*
%TO.C,SW22*%
X224574246Y-43446879D03*
X235933360Y-46245204D03*
%TD*%
D20*
%TO.C,SW7*%
X59636547Y-52876326D03*
X48047154Y-51280681D03*
%TD*%
D21*
%TO.C,SW36*%
X161114155Y-103036574D03*
X150613840Y-108194430D03*
%TD*%
D20*
%TO.C,SW2*%
X58746825Y-35899615D03*
X47157432Y-34303970D03*
%TD*%
D22*
%TO.C,SW34*%
X202393385Y-90942421D03*
X190720917Y-90159098D03*
%TD*%
D17*
%TO.C,SW3*%
X81557428Y-30560737D03*
X70151207Y-27961082D03*
%TD*%
%TO.C,SW4*%
X99476662Y-33187712D03*
X88070441Y-30588057D03*
%TD*%
D15*
%TO.C,SW31*%
X203604486Y-72093004D03*
X215164265Y-73890669D03*
%TD*%
D17*
%TO.C,SW14*%
X98290084Y-67167006D03*
X86883863Y-64567351D03*
%TD*%
%TO.C,SW5*%
X117395896Y-35814688D03*
X105989675Y-33215033D03*
%TD*%
D15*
%TO.C,SW19*%
X166579440Y-43367661D03*
X178139219Y-45165326D03*
%TD*%
M02*
