%TF.GenerationSoftware,KiCad,Pcbnew,8.0.5*%
%TF.CreationDate,2024-09-27T14:02:43+02:00*%
%TF.ProjectId,woagboard,776f6167-626f-4617-9264-2e6b69636164,rev?*%
%TF.SameCoordinates,Original*%
%TF.FileFunction,Paste,Top*%
%TF.FilePolarity,Positive*%
%FSLAX46Y46*%
G04 Gerber Fmt 4.6, Leading zero omitted, Abs format (unit mm)*
G04 Created by KiCad (PCBNEW 8.0.5) date 2024-09-27 14:02:43*
%MOMM*%
%LPD*%
G01*
G04 APERTURE LIST*
G04 Aperture macros list*
%AMRoundRect*
0 Rectangle with rounded corners*
0 $1 Rounding radius*
0 $2 $3 $4 $5 $6 $7 $8 $9 X,Y pos of 4 corners*
0 Add a 4 corners polygon primitive as box body*
4,1,4,$2,$3,$4,$5,$6,$7,$8,$9,$2,$3,0*
0 Add four circle primitives for the rounded corners*
1,1,$1+$1,$2,$3*
1,1,$1+$1,$4,$5*
1,1,$1+$1,$6,$7*
1,1,$1+$1,$8,$9*
0 Add four rect primitives between the rounded corners*
20,1,$1+$1,$2,$3,$4,$5,0*
20,1,$1+$1,$4,$5,$6,$7,0*
20,1,$1+$1,$6,$7,$8,$9,0*
20,1,$1+$1,$8,$9,$2,$3,0*%
G04 Aperture macros list end*
%ADD10RoundRect,0.140000X0.140000X0.170000X-0.140000X0.170000X-0.140000X-0.170000X0.140000X-0.170000X0*%
%ADD11RoundRect,0.135000X-0.135000X-0.185000X0.135000X-0.185000X0.135000X0.185000X-0.135000X0.185000X0*%
%ADD12RoundRect,0.140000X-0.140000X-0.170000X0.140000X-0.170000X0.140000X0.170000X-0.140000X0.170000X0*%
%ADD13RoundRect,0.200000X0.200000X-0.500000X0.200000X0.500000X-0.200000X0.500000X-0.200000X-0.500000X0*%
%ADD14RoundRect,0.200000X0.500000X0.200000X-0.500000X0.200000X-0.500000X-0.200000X0.500000X-0.200000X0*%
%ADD15RoundRect,0.200000X0.200000X0.200000X-0.200000X0.200000X-0.200000X-0.200000X0.200000X-0.200000X0*%
%ADD16RoundRect,0.140000X0.170000X-0.140000X0.170000X0.140000X-0.170000X0.140000X-0.170000X-0.140000X0*%
%ADD17RoundRect,0.250000X0.650000X-0.250000X0.650000X0.250000X-0.650000X0.250000X-0.650000X-0.250000X0*%
%ADD18R,0.600000X1.450000*%
%ADD19R,0.300000X1.450000*%
%ADD20RoundRect,0.250000X-0.650000X0.250000X-0.650000X-0.250000X0.650000X-0.250000X0.650000X0.250000X0*%
%ADD21RoundRect,0.140000X-0.170000X0.140000X-0.170000X-0.140000X0.170000X-0.140000X0.170000X0.140000X0*%
%ADD22RoundRect,0.135000X0.135000X0.185000X-0.135000X0.185000X-0.135000X-0.185000X0.135000X-0.185000X0*%
%ADD23RoundRect,0.243750X0.456250X-0.243750X0.456250X0.243750X-0.456250X0.243750X-0.456250X-0.243750X0*%
%ADD24RoundRect,0.147500X-0.172500X0.147500X-0.172500X-0.147500X0.172500X-0.147500X0.172500X0.147500X0*%
%ADD25RoundRect,0.243750X-0.456250X0.243750X-0.456250X-0.243750X0.456250X-0.243750X0.456250X0.243750X0*%
%ADD26RoundRect,0.218750X0.256250X-0.218750X0.256250X0.218750X-0.256250X0.218750X-0.256250X-0.218750X0*%
%ADD27R,1.050000X1.400000*%
%ADD28RoundRect,0.170000X0.170000X-0.170000X0.170000X0.170000X-0.170000X0.170000X-0.170000X-0.170000X0*%
%ADD29RoundRect,0.062500X0.062500X-0.350000X0.062500X0.350000X-0.062500X0.350000X-0.062500X-0.350000X0*%
%ADD30RoundRect,0.062500X0.350000X-0.062500X0.350000X0.062500X-0.350000X0.062500X-0.350000X-0.062500X0*%
%ADD31RoundRect,0.150000X0.150000X-0.512500X0.150000X0.512500X-0.150000X0.512500X-0.150000X-0.512500X0*%
%ADD32RoundRect,0.218750X-0.256250X0.218750X-0.256250X-0.218750X0.256250X-0.218750X0.256250X0.218750X0*%
%ADD33RoundRect,0.200000X-0.200000X0.500000X-0.200000X-0.500000X0.200000X-0.500000X0.200000X0.500000X0*%
%ADD34RoundRect,0.200000X-0.500000X-0.200000X0.500000X-0.200000X0.500000X0.200000X-0.500000X0.200000X0*%
%ADD35RoundRect,0.200000X-0.200000X-0.200000X0.200000X-0.200000X0.200000X0.200000X-0.200000X0.200000X0*%
%ADD36RoundRect,0.200000X-0.200000X-0.275000X0.200000X-0.275000X0.200000X0.275000X-0.200000X0.275000X0*%
%ADD37RoundRect,0.170000X0.170000X0.170000X-0.170000X0.170000X-0.170000X-0.170000X0.170000X-0.170000X0*%
%ADD38RoundRect,0.062500X0.350000X0.062500X-0.350000X0.062500X-0.350000X-0.062500X0.350000X-0.062500X0*%
%ADD39RoundRect,0.062500X0.062500X0.350000X-0.062500X0.350000X-0.062500X-0.350000X0.062500X-0.350000X0*%
%ADD40RoundRect,0.135000X-0.185000X0.135000X-0.185000X-0.135000X0.185000X-0.135000X0.185000X0.135000X0*%
%ADD41RoundRect,0.200000X0.200000X0.275000X-0.200000X0.275000X-0.200000X-0.275000X0.200000X-0.275000X0*%
G04 APERTURE END LIST*
D10*
%TO.C,C5*%
X124250000Y-63250000D03*
X123290000Y-63250000D03*
%TD*%
D11*
%TO.C,R4*%
X153740000Y-74300000D03*
X154760000Y-74300000D03*
%TD*%
D12*
%TO.C,C4*%
X164520000Y-55250000D03*
X165480000Y-55250000D03*
%TD*%
D13*
%TO.C,U5*%
X148933770Y-62193566D03*
X150203770Y-62193566D03*
X151473770Y-62193566D03*
X152743770Y-62193566D03*
X154013770Y-62193566D03*
X155283770Y-62193566D03*
X156553770Y-62193566D03*
X157823770Y-62193566D03*
X159093770Y-62193566D03*
X160363770Y-62193566D03*
D14*
X162663770Y-60433566D03*
D15*
X160863770Y-59803566D03*
D14*
X162663770Y-59163566D03*
D15*
X160863770Y-58533566D03*
D14*
X162663770Y-57893566D03*
D15*
X160863770Y-57263566D03*
D14*
X162663770Y-56623566D03*
D15*
X160863770Y-55993566D03*
D14*
X162663770Y-55353566D03*
D15*
X160863770Y-54723566D03*
D14*
X162663770Y-54083566D03*
D15*
X160863770Y-53453566D03*
D14*
X162663770Y-52813566D03*
D15*
X160863770Y-52183566D03*
D14*
X162663770Y-51543566D03*
D13*
X160363770Y-49793566D03*
X159093770Y-49793566D03*
D15*
X158458770Y-51593566D03*
D13*
X157823770Y-49793566D03*
D15*
X157188770Y-51593566D03*
D13*
X156553770Y-49793566D03*
D15*
X155918770Y-51593566D03*
D13*
X155283770Y-49793566D03*
D15*
X154648770Y-51593566D03*
D13*
X154013770Y-49793566D03*
D15*
X153378770Y-51593566D03*
D13*
X152743770Y-49793566D03*
D15*
X152108770Y-51593566D03*
D13*
X151473770Y-49793566D03*
D15*
X150838770Y-51593566D03*
D13*
X150203770Y-49793566D03*
D15*
X149568770Y-51593566D03*
D13*
X148933770Y-49793566D03*
%TD*%
D16*
%TO.C,C15*%
X119000000Y-49980000D03*
X119000000Y-49020000D03*
%TD*%
D17*
%TO.C,Y1*%
X118750000Y-54000000D03*
X118750000Y-51500000D03*
%TD*%
D18*
%TO.C,USB2*%
X156800000Y-32235000D03*
X156000000Y-32235000D03*
D19*
X154800000Y-32235000D03*
X153800000Y-32235000D03*
X153300000Y-32235000D03*
X152300000Y-32235000D03*
D18*
X151100000Y-32235000D03*
X150300000Y-32235000D03*
X150300000Y-32235000D03*
X151100000Y-32235000D03*
D19*
X151800000Y-32235000D03*
X152800000Y-32235000D03*
X154300000Y-32235000D03*
X155300000Y-32235000D03*
D18*
X156000000Y-32235000D03*
X156800000Y-32235000D03*
%TD*%
D11*
%TO.C,R3*%
X123490000Y-76500000D03*
X124510000Y-76500000D03*
%TD*%
D10*
%TO.C,C6*%
X124480000Y-78250000D03*
X123520000Y-78250000D03*
%TD*%
D20*
%TO.C,Y2*%
X165068770Y-58243566D03*
X165068770Y-60743566D03*
%TD*%
D21*
%TO.C,C13*%
X126500000Y-81770000D03*
X126500000Y-82730000D03*
%TD*%
D22*
%TO.C,R15*%
X155510000Y-82500000D03*
X154490000Y-82500000D03*
%TD*%
D23*
%TO.C,LED3*%
X136950000Y-36187500D03*
X136950000Y-34312500D03*
%TD*%
D24*
%TO.C,L2*%
X148750000Y-36765000D03*
X148750000Y-37735000D03*
%TD*%
%TO.C,L1*%
X125500000Y-36250000D03*
X125500000Y-37220000D03*
%TD*%
D10*
%TO.C,C12*%
X119230000Y-56750000D03*
X118270000Y-56750000D03*
%TD*%
D11*
%TO.C,R8*%
X146240000Y-38250000D03*
X147260000Y-38250000D03*
%TD*%
D25*
%TO.C,LED2*%
X150000000Y-72312500D03*
X150000000Y-74187500D03*
%TD*%
D26*
%TO.C,L3*%
X118250000Y-60287500D03*
X118250000Y-58712500D03*
%TD*%
D22*
%TO.C,R17*%
X154760000Y-76250000D03*
X153740000Y-76250000D03*
%TD*%
D27*
%TO.C,RST1*%
X136525000Y-74800000D03*
X136525000Y-71200000D03*
X137975000Y-74800000D03*
X137975000Y-71200000D03*
%TD*%
D28*
%TO.C,U4*%
X157930000Y-79020000D03*
X158770000Y-79020000D03*
X157930000Y-78180000D03*
X158770000Y-78180000D03*
D29*
X157600000Y-80062500D03*
X158100000Y-80062500D03*
X158600000Y-80062500D03*
X159100000Y-80062500D03*
D30*
X159812500Y-79350000D03*
X159812500Y-78850000D03*
X159812500Y-78350000D03*
X159812500Y-77850000D03*
D29*
X159100000Y-77137500D03*
X158600000Y-77137500D03*
X158100000Y-77137500D03*
X157600000Y-77137500D03*
D30*
X156887500Y-77850000D03*
X156887500Y-78350000D03*
X156887500Y-78850000D03*
X156887500Y-79350000D03*
%TD*%
D10*
%TO.C,C1*%
X154730000Y-77750000D03*
X153770000Y-77750000D03*
%TD*%
D31*
%TO.C,U2*%
X152550000Y-38387500D03*
X153500000Y-38387500D03*
X154450000Y-38387500D03*
X154450000Y-36112500D03*
X153500000Y-36112500D03*
X152550000Y-36112500D03*
%TD*%
D32*
%TO.C,F2*%
X150500000Y-36462500D03*
X150500000Y-38037500D03*
%TD*%
D12*
%TO.C,C10*%
X164588770Y-56500000D03*
X165548770Y-56500000D03*
%TD*%
%TO.C,C8*%
X159270000Y-48000000D03*
X160230000Y-48000000D03*
%TD*%
D11*
%TO.C,R1*%
X132490000Y-34250000D03*
X133510000Y-34250000D03*
%TD*%
%TO.C,R9*%
X131990000Y-79750000D03*
X133010000Y-79750000D03*
%TD*%
D22*
%TO.C,R16*%
X154760000Y-79300000D03*
X153740000Y-79300000D03*
%TD*%
%TO.C,R5*%
X156510000Y-34500000D03*
X155490000Y-34500000D03*
%TD*%
D18*
%TO.C,USB1*%
X133400000Y-32185000D03*
X132600000Y-32185000D03*
D19*
X131400000Y-32185000D03*
X130400000Y-32185000D03*
X129900000Y-32185000D03*
X128900000Y-32185000D03*
D18*
X127700000Y-32185000D03*
X126900000Y-32185000D03*
X126900000Y-32185000D03*
X127700000Y-32185000D03*
D19*
X128400000Y-32185000D03*
X129400000Y-32185000D03*
X130900000Y-32185000D03*
X131900000Y-32185000D03*
D18*
X132600000Y-32185000D03*
X133400000Y-32185000D03*
%TD*%
D33*
%TO.C,U9*%
X134780000Y-49300000D03*
X133510000Y-49300000D03*
X132240000Y-49300000D03*
X130970000Y-49300000D03*
X129700000Y-49300000D03*
X128430000Y-49300000D03*
X127160000Y-49300000D03*
X125890000Y-49300000D03*
X124620000Y-49300000D03*
X123350000Y-49300000D03*
D34*
X121050000Y-51060000D03*
D35*
X122850000Y-51690000D03*
D34*
X121050000Y-52330000D03*
D35*
X122850000Y-52960000D03*
D34*
X121050000Y-53600000D03*
D35*
X122850000Y-54230000D03*
D34*
X121050000Y-54870000D03*
D35*
X122850000Y-55500000D03*
D34*
X121050000Y-56140000D03*
D35*
X122850000Y-56770000D03*
D34*
X121050000Y-57410000D03*
D35*
X122850000Y-58040000D03*
D34*
X121050000Y-58680000D03*
D35*
X122850000Y-59310000D03*
D34*
X121050000Y-59950000D03*
D33*
X123350000Y-61700000D03*
X124620000Y-61700000D03*
D35*
X125255000Y-59900000D03*
D33*
X125890000Y-61700000D03*
D35*
X126525000Y-59900000D03*
D33*
X127160000Y-61700000D03*
D35*
X127795000Y-59900000D03*
D33*
X128430000Y-61700000D03*
D35*
X129065000Y-59900000D03*
D33*
X129700000Y-61700000D03*
D35*
X130335000Y-59900000D03*
D33*
X130970000Y-61700000D03*
D35*
X131605000Y-59900000D03*
D33*
X132240000Y-61700000D03*
D35*
X132875000Y-59900000D03*
D33*
X133510000Y-61700000D03*
D35*
X134145000Y-59900000D03*
D33*
X134780000Y-61700000D03*
%TD*%
D11*
%TO.C,R7*%
X136490000Y-38250000D03*
X137510000Y-38250000D03*
%TD*%
D10*
%TO.C,C16*%
X119230000Y-55500000D03*
X118270000Y-55500000D03*
%TD*%
D32*
%TO.C,F1*%
X127000000Y-35962500D03*
X127000000Y-37537500D03*
%TD*%
D12*
%TO.C,C3*%
X158470000Y-82250000D03*
X159430000Y-82250000D03*
%TD*%
D36*
%TO.C,R13*%
X130175000Y-82000000D03*
X131825000Y-82000000D03*
%TD*%
D23*
%TO.C,LED1*%
X133500000Y-73937500D03*
X133500000Y-72062500D03*
%TD*%
D37*
%TO.C,U3*%
X128770000Y-78520000D03*
X128770000Y-77680000D03*
X127930000Y-78520000D03*
X127930000Y-77680000D03*
D38*
X129812500Y-78850000D03*
X129812500Y-78350000D03*
X129812500Y-77850000D03*
X129812500Y-77350000D03*
D39*
X129100000Y-76637500D03*
X128600000Y-76637500D03*
X128100000Y-76637500D03*
X127600000Y-76637500D03*
D38*
X126887500Y-77350000D03*
X126887500Y-77850000D03*
X126887500Y-78350000D03*
X126887500Y-78850000D03*
D39*
X127600000Y-79562500D03*
X128100000Y-79562500D03*
X128600000Y-79562500D03*
X129100000Y-79562500D03*
%TD*%
D27*
%TO.C,RST2*%
X147175000Y-71200000D03*
X147175000Y-74800000D03*
X145725000Y-71200000D03*
X145725000Y-74800000D03*
%TD*%
D12*
%TO.C,C7*%
X132020000Y-78250000D03*
X132980000Y-78250000D03*
%TD*%
D22*
%TO.C,R12*%
X124510000Y-79750000D03*
X123490000Y-79750000D03*
%TD*%
D12*
%TO.C,C9*%
X164588770Y-62243566D03*
X165548770Y-62243566D03*
%TD*%
%TO.C,C2*%
X161220000Y-78500000D03*
X162180000Y-78500000D03*
%TD*%
D25*
%TO.C,LED4*%
X146750000Y-34312500D03*
X146750000Y-36187500D03*
%TD*%
D22*
%TO.C,R2*%
X127510000Y-34500000D03*
X126490000Y-34500000D03*
%TD*%
D40*
%TO.C,R11*%
X128250000Y-81740000D03*
X128250000Y-82760000D03*
%TD*%
D31*
%TO.C,U1*%
X129050000Y-38387500D03*
X130000000Y-38387500D03*
X130950000Y-38387500D03*
X130950000Y-36112500D03*
X130000000Y-36112500D03*
X129050000Y-36112500D03*
%TD*%
D41*
%TO.C,R18*%
X154525000Y-80800000D03*
X152875000Y-80800000D03*
%TD*%
D11*
%TO.C,R6*%
X149990000Y-34500000D03*
X151010000Y-34500000D03*
%TD*%
D32*
%TO.C,L4*%
X165568770Y-51456066D03*
X165568770Y-53031066D03*
%TD*%
M02*
