M48
; DRILL file {KiCad 8.0.5} date 2024-09-27T14:02:43+0200
; FORMAT={-:-/ absolute / inch / decimal}
; #@! TF.CreationDate,2024-09-27T14:02:43+02:00
; #@! TF.GenerationSoftware,Kicad,Pcbnew,8.0.5
; #@! TF.FileFunction,Plated,1,2,PTH
FMAT,2
INCH
; #@! TA.AperFunction,Plated,PTH,ViaDrill
T1C0.0157
; #@! TA.AperFunction,Plated,PTH,ComponentDrill
T2C0.0236
; #@! TA.AperFunction,Plated,PTH,ComponentDrill
T3C0.0295
; #@! TA.AperFunction,Plated,PTH,ComponentDrill
T4C0.0394
; #@! TA.AperFunction,Plated,PTH,ComponentDrill
T5C0.1181
%
G90
G05
T1
X4.498Y-2.4016
X4.5768Y-2.7067
X4.6294Y-2.2146
X4.6294Y-2.2638
X4.7042Y-2.3223
X4.7047Y-2.372
X4.7074Y-2.2818
X4.7146Y-3.0807
X4.7146Y-3.1398
X4.7158Y-2.5647
X4.7343Y-1.8996
X4.7638Y-2.874
X4.7736Y-2.5843
X4.8081Y-3.0463
X4.813Y-2.5492
X4.8327Y-1.5945
X4.8524Y-1.8799
X4.8539Y-2.5748
X4.8917Y-2.185
X4.8917Y-2.2835
X4.8917Y-2.5394
X4.9016Y-1.8406
X4.9016Y-2.0866
X4.9306Y-1.2987
X4.9311Y-2.0374
X4.9311Y-3.1988
X4.9311Y-3.2579
X4.9409Y-1.378
X4.9409Y-2.1358
X4.9409Y-2.2343
X4.9508Y-1.8701
X4.9508Y-2.2933
X4.9705Y-2.9626
X5.0Y-1.5256
X5.0Y-1.7421
X5.0Y-1.8406
X5.0Y-2.2933
X5.0236Y-2.5748
X5.0295Y-2.6378
X5.0472Y-2.9685
X5.0492Y-1.8799
X5.0492Y-2.2933
X5.0984Y-2.2933
X5.1063Y-2.0079
X5.1063Y-2.5276
X5.1102Y-1.8406
X5.1102Y-2.1181
X5.1102Y-2.1732
X5.1181Y-3.2884
X5.128Y-2.8346
X5.128Y-2.9232
X5.128Y-2.9724
X5.1378Y-1.7421
X5.1476Y-2.2933
X5.2067Y-1.4665
X5.2362Y-3.2283
X5.2854Y-3.0807
X5.2854Y-3.1398
X5.4331Y-3.0217
X5.7382Y-3.0217
X5.8366Y-1.3091
X5.8661Y-1.5354
X5.8858Y-1.3976
X5.9055Y-3.0709
X5.9646Y-2.9528
X5.9646Y-3.002
X5.9646Y-3.061
X5.9646Y-3.1299
X5.9646Y-3.1791
X5.9744Y-1.5846
X6.0039Y-1.7224
X6.0386Y-2.5357
X6.0394Y-1.9055
X6.0394Y-2.5906
X6.0394Y-2.6457
X6.0443Y-3.248
X6.085Y-1.9055
X6.1024Y-2.372
X6.1122Y-1.8307
X6.1122Y-2.2441
X6.1181Y-2.1811
X6.126Y-2.8583
X6.1319Y-1.4665
X6.1417Y-2.126
X6.1496Y-2.5276
X6.1516Y-2.313
X6.1614Y-1.6929
X6.1713Y-2.9606
X6.1811Y-2.2244
X6.1909Y-2.126
X6.1969Y-2.5276
X6.2303Y-2.2047
X6.2303Y-2.3031
X6.2362Y-2.0925
X6.252Y-2.5276
X6.2677Y-2.1496
X6.2677Y-2.252
X6.2677Y-2.3543
X6.2697Y-1.748
X6.2992Y-3.0118
X6.2992Y-3.189
X6.3071Y-2.5039
X6.3189Y-3.2382
X6.3386Y-2.8583
X6.3484Y-1.752
X6.3484Y-3.0413
X6.3484Y-3.1496
X6.3622Y-2.5039
X6.3878Y-1.9774
X6.4272Y-3.0906
X6.4665Y-1.9783
X6.4665Y-2.0472
X6.4665Y-2.126
X6.4764Y-2.6476
X6.4961Y-1.7618
X6.5551Y-1.7913
X6.5581Y-2.1752
X6.5581Y-2.2244
X6.5748Y-2.628
T3
X3.6024Y-3.2382
X3.6024Y-3.3169
X7.6398Y-3.2382
X7.6398Y-3.3169
T4
X4.7181Y-2.7264
X4.8181Y-2.7264
X4.9181Y-2.7264
X5.0181Y-2.7264
X5.1181Y-2.7264
X6.0862Y-2.7264
X6.1862Y-2.7264
X6.2862Y-2.7264
X6.3862Y-2.7264
X6.4862Y-2.7264
T5
X1.0667Y-2.0385
X1.1714Y-2.6995
X1.2747Y-2.0933
X1.2761Y-3.3606
X1.3794Y-2.7543
X1.4841Y-3.4154
X1.8776Y-3.0723
X1.9842Y-1.3439
X2.0192Y-2.0122
X2.0787Y-3.1485
X2.1853Y-1.4201
X2.2203Y-2.0884
X2.6328Y-2.8178
X2.8265Y-2.9113
X2.8662Y-1.7742
X2.8895Y-1.1053
X3.0599Y-1.8676
X3.0832Y-1.1987
X3.3382Y-2.9213
X3.532Y-3.0147
X3.5343Y-3.5317
X3.5717Y-1.8776
X3.595Y-1.2087
X3.7192Y-3.6417
X3.7654Y-1.971
X3.7887Y-1.3021
X4.0437Y-3.0247
X4.0671Y-2.3558
X4.2374Y-3.1181
X4.2608Y-2.4492
X4.3005Y-1.3121
X4.3769Y-3.7507
X4.4942Y-1.4056
X4.527Y-3.9047
X4.7511Y-4.367
X4.8562Y-4.5546
X6.0317Y-4.1827
X6.241Y-4.1334
X6.7093Y-2.3718
X6.7326Y-3.0407
X6.7929Y-3.7529
X6.8693Y-1.3144
X6.909Y-2.4515
X6.9324Y-3.1204
X7.0079Y-3.7595
X7.0691Y-1.3941
X7.4381Y-2.9373
X7.4867Y-3.937
X7.5748Y-1.211
X7.5982Y-1.8799
X7.6379Y-3.017
X7.6926Y-3.999
X7.7746Y-1.2907
X7.7979Y-1.9596
X8.0969Y-1.4961
X8.1202Y-2.165
X8.1436Y-2.8338
X8.2966Y-1.5758
X8.32Y-2.2447
X8.3434Y-2.9135
X8.899Y-3.0539
X8.9341Y-2.3856
X8.9691Y-1.7172
X9.0911Y-3.1507
X9.1261Y-2.4824
X9.1611Y-1.814
X9.6395Y-3.7093
X9.7442Y-3.0482
X9.8204Y-3.8256
X9.8489Y-2.3872
X9.9251Y-3.1646
X10.0298Y-2.5035
T2
G00X4.9539Y-1.0783
M15
G01X4.9539Y-1.0547
M16
G05
G00X4.9539Y-1.2528
M15
G01X4.9539Y-1.2094
M16
G05
G00X5.2941Y-1.0783
M15
G01X5.2941Y-1.0547
M16
G05
G00X5.2941Y-1.2528
M15
G01X5.2941Y-1.2094
M16
G05
G00X5.8752Y-1.0803
M15
G01X5.8752Y-1.0567
M16
G05
G00X5.8752Y-1.2547
M15
G01X5.8752Y-1.2114
M16
G05
G00X6.2154Y-1.0803
M15
G01X6.2154Y-1.0567
M16
G05
G00X6.2154Y-1.2547
M15
G01X6.2154Y-1.2114
M16
G05
M30
