%TF.GenerationSoftware,KiCad,Pcbnew,8.0.5*%
%TF.CreationDate,2024-09-15T16:43:43+02:00*%
%TF.ProjectId,woagboard,776f6167-626f-4617-9264-2e6b69636164,rev?*%
%TF.SameCoordinates,Original*%
%TF.FileFunction,Other,Comment*%
%FSLAX46Y46*%
G04 Gerber Fmt 4.6, Leading zero omitted, Abs format (unit mm)*
G04 Created by KiCad (PCBNEW 8.0.5) date 2024-09-15 16:43:43*
%MOMM*%
%LPD*%
G01*
G04 APERTURE LIST*
%ADD10C,0.150000*%
%ADD11C,0.250000*%
%ADD12C,0.100000*%
G04 APERTURE END LIST*
D10*
X144418589Y-62064994D02*
X143418589Y-62064994D01*
X144418589Y-61493566D02*
X143847160Y-61922137D01*
X143418589Y-61493566D02*
X143990017Y-62064994D01*
X143894779Y-61064994D02*
X143894779Y-60731661D01*
X144418589Y-60588804D02*
X144418589Y-61064994D01*
X144418589Y-61064994D02*
X143418589Y-61064994D01*
X143418589Y-61064994D02*
X143418589Y-60588804D01*
X143894779Y-60160232D02*
X143894779Y-59826899D01*
X144418589Y-59684042D02*
X144418589Y-60160232D01*
X144418589Y-60160232D02*
X143418589Y-60160232D01*
X143418589Y-60160232D02*
X143418589Y-59684042D01*
X144418589Y-59255470D02*
X143418589Y-59255470D01*
X143418589Y-59255470D02*
X143418589Y-58874518D01*
X143418589Y-58874518D02*
X143466208Y-58779280D01*
X143466208Y-58779280D02*
X143513827Y-58731661D01*
X143513827Y-58731661D02*
X143609065Y-58684042D01*
X143609065Y-58684042D02*
X143751922Y-58684042D01*
X143751922Y-58684042D02*
X143847160Y-58731661D01*
X143847160Y-58731661D02*
X143894779Y-58779280D01*
X143894779Y-58779280D02*
X143942398Y-58874518D01*
X143942398Y-58874518D02*
X143942398Y-59255470D01*
X144037636Y-58255470D02*
X144037636Y-57493566D01*
X143418589Y-56826899D02*
X143418589Y-56636423D01*
X143418589Y-56636423D02*
X143466208Y-56541185D01*
X143466208Y-56541185D02*
X143561446Y-56445947D01*
X143561446Y-56445947D02*
X143751922Y-56398328D01*
X143751922Y-56398328D02*
X144085255Y-56398328D01*
X144085255Y-56398328D02*
X144275731Y-56445947D01*
X144275731Y-56445947D02*
X144370970Y-56541185D01*
X144370970Y-56541185D02*
X144418589Y-56636423D01*
X144418589Y-56636423D02*
X144418589Y-56826899D01*
X144418589Y-56826899D02*
X144370970Y-56922137D01*
X144370970Y-56922137D02*
X144275731Y-57017375D01*
X144275731Y-57017375D02*
X144085255Y-57064994D01*
X144085255Y-57064994D02*
X143751922Y-57064994D01*
X143751922Y-57064994D02*
X143561446Y-57017375D01*
X143561446Y-57017375D02*
X143466208Y-56922137D01*
X143466208Y-56922137D02*
X143418589Y-56826899D01*
X143418589Y-55969756D02*
X144228112Y-55969756D01*
X144228112Y-55969756D02*
X144323350Y-55922137D01*
X144323350Y-55922137D02*
X144370970Y-55874518D01*
X144370970Y-55874518D02*
X144418589Y-55779280D01*
X144418589Y-55779280D02*
X144418589Y-55588804D01*
X144418589Y-55588804D02*
X144370970Y-55493566D01*
X144370970Y-55493566D02*
X144323350Y-55445947D01*
X144323350Y-55445947D02*
X144228112Y-55398328D01*
X144228112Y-55398328D02*
X143418589Y-55398328D01*
X143418589Y-55064994D02*
X143418589Y-54493566D01*
X144418589Y-54779280D02*
X143418589Y-54779280D01*
X143418589Y-53493565D02*
X143418589Y-52826899D01*
X143418589Y-52826899D02*
X144418589Y-53493565D01*
X144418589Y-53493565D02*
X144418589Y-52826899D01*
X143418589Y-52255470D02*
X143418589Y-52064994D01*
X143418589Y-52064994D02*
X143466208Y-51969756D01*
X143466208Y-51969756D02*
X143561446Y-51874518D01*
X143561446Y-51874518D02*
X143751922Y-51826899D01*
X143751922Y-51826899D02*
X144085255Y-51826899D01*
X144085255Y-51826899D02*
X144275731Y-51874518D01*
X144275731Y-51874518D02*
X144370970Y-51969756D01*
X144370970Y-51969756D02*
X144418589Y-52064994D01*
X144418589Y-52064994D02*
X144418589Y-52255470D01*
X144418589Y-52255470D02*
X144370970Y-52350708D01*
X144370970Y-52350708D02*
X144275731Y-52445946D01*
X144275731Y-52445946D02*
X144085255Y-52493565D01*
X144085255Y-52493565D02*
X143751922Y-52493565D01*
X143751922Y-52493565D02*
X143561446Y-52445946D01*
X143561446Y-52445946D02*
X143466208Y-52350708D01*
X143466208Y-52350708D02*
X143418589Y-52255470D01*
X144418589Y-51398327D02*
X143418589Y-51398327D01*
X143418589Y-51398327D02*
X144418589Y-50826899D01*
X144418589Y-50826899D02*
X143418589Y-50826899D01*
X143894779Y-50350708D02*
X143894779Y-50017375D01*
X144418589Y-49874518D02*
X144418589Y-50350708D01*
X144418589Y-50350708D02*
X143418589Y-50350708D01*
X143418589Y-50350708D02*
X143418589Y-49874518D01*
X146732874Y-58755470D02*
X146732874Y-58279280D01*
X147018589Y-58850708D02*
X146018589Y-58517375D01*
X146018589Y-58517375D02*
X147018589Y-58184042D01*
X146351922Y-57850708D02*
X147018589Y-57850708D01*
X146447160Y-57850708D02*
X146399541Y-57803089D01*
X146399541Y-57803089D02*
X146351922Y-57707851D01*
X146351922Y-57707851D02*
X146351922Y-57564994D01*
X146351922Y-57564994D02*
X146399541Y-57469756D01*
X146399541Y-57469756D02*
X146494779Y-57422137D01*
X146494779Y-57422137D02*
X147018589Y-57422137D01*
X146351922Y-57088803D02*
X146351922Y-56707851D01*
X146018589Y-56945946D02*
X146875731Y-56945946D01*
X146875731Y-56945946D02*
X146970970Y-56898327D01*
X146970970Y-56898327D02*
X147018589Y-56803089D01*
X147018589Y-56803089D02*
X147018589Y-56707851D01*
X146970970Y-55993565D02*
X147018589Y-56088803D01*
X147018589Y-56088803D02*
X147018589Y-56279279D01*
X147018589Y-56279279D02*
X146970970Y-56374517D01*
X146970970Y-56374517D02*
X146875731Y-56422136D01*
X146875731Y-56422136D02*
X146494779Y-56422136D01*
X146494779Y-56422136D02*
X146399541Y-56374517D01*
X146399541Y-56374517D02*
X146351922Y-56279279D01*
X146351922Y-56279279D02*
X146351922Y-56088803D01*
X146351922Y-56088803D02*
X146399541Y-55993565D01*
X146399541Y-55993565D02*
X146494779Y-55945946D01*
X146494779Y-55945946D02*
X146590017Y-55945946D01*
X146590017Y-55945946D02*
X146685255Y-56422136D01*
X146351922Y-55517374D02*
X147018589Y-55517374D01*
X146447160Y-55517374D02*
X146399541Y-55469755D01*
X146399541Y-55469755D02*
X146351922Y-55374517D01*
X146351922Y-55374517D02*
X146351922Y-55231660D01*
X146351922Y-55231660D02*
X146399541Y-55136422D01*
X146399541Y-55136422D02*
X146494779Y-55088803D01*
X146494779Y-55088803D02*
X147018589Y-55088803D01*
X146351922Y-54612612D02*
X147018589Y-54612612D01*
X146447160Y-54612612D02*
X146399541Y-54564993D01*
X146399541Y-54564993D02*
X146351922Y-54469755D01*
X146351922Y-54469755D02*
X146351922Y-54326898D01*
X146351922Y-54326898D02*
X146399541Y-54231660D01*
X146399541Y-54231660D02*
X146494779Y-54184041D01*
X146494779Y-54184041D02*
X147018589Y-54184041D01*
X147018589Y-53279279D02*
X146494779Y-53279279D01*
X146494779Y-53279279D02*
X146399541Y-53326898D01*
X146399541Y-53326898D02*
X146351922Y-53422136D01*
X146351922Y-53422136D02*
X146351922Y-53612612D01*
X146351922Y-53612612D02*
X146399541Y-53707850D01*
X146970970Y-53279279D02*
X147018589Y-53374517D01*
X147018589Y-53374517D02*
X147018589Y-53612612D01*
X147018589Y-53612612D02*
X146970970Y-53707850D01*
X146970970Y-53707850D02*
X146875731Y-53755469D01*
X146875731Y-53755469D02*
X146780493Y-53755469D01*
X146780493Y-53755469D02*
X146685255Y-53707850D01*
X146685255Y-53707850D02*
X146637636Y-53612612D01*
X146637636Y-53612612D02*
X146637636Y-53374517D01*
X146637636Y-53374517D02*
X146590017Y-53279279D01*
X140204819Y-61571428D02*
X139204819Y-61571428D01*
X140204819Y-61000000D02*
X139633390Y-61428571D01*
X139204819Y-61000000D02*
X139776247Y-61571428D01*
X139681009Y-60571428D02*
X139681009Y-60238095D01*
X140204819Y-60095238D02*
X140204819Y-60571428D01*
X140204819Y-60571428D02*
X139204819Y-60571428D01*
X139204819Y-60571428D02*
X139204819Y-60095238D01*
X139681009Y-59666666D02*
X139681009Y-59333333D01*
X140204819Y-59190476D02*
X140204819Y-59666666D01*
X140204819Y-59666666D02*
X139204819Y-59666666D01*
X139204819Y-59666666D02*
X139204819Y-59190476D01*
X140204819Y-58761904D02*
X139204819Y-58761904D01*
X139204819Y-58761904D02*
X139204819Y-58380952D01*
X139204819Y-58380952D02*
X139252438Y-58285714D01*
X139252438Y-58285714D02*
X139300057Y-58238095D01*
X139300057Y-58238095D02*
X139395295Y-58190476D01*
X139395295Y-58190476D02*
X139538152Y-58190476D01*
X139538152Y-58190476D02*
X139633390Y-58238095D01*
X139633390Y-58238095D02*
X139681009Y-58285714D01*
X139681009Y-58285714D02*
X139728628Y-58380952D01*
X139728628Y-58380952D02*
X139728628Y-58761904D01*
X139823866Y-57761904D02*
X139823866Y-57000000D01*
X139204819Y-56333333D02*
X139204819Y-56142857D01*
X139204819Y-56142857D02*
X139252438Y-56047619D01*
X139252438Y-56047619D02*
X139347676Y-55952381D01*
X139347676Y-55952381D02*
X139538152Y-55904762D01*
X139538152Y-55904762D02*
X139871485Y-55904762D01*
X139871485Y-55904762D02*
X140061961Y-55952381D01*
X140061961Y-55952381D02*
X140157200Y-56047619D01*
X140157200Y-56047619D02*
X140204819Y-56142857D01*
X140204819Y-56142857D02*
X140204819Y-56333333D01*
X140204819Y-56333333D02*
X140157200Y-56428571D01*
X140157200Y-56428571D02*
X140061961Y-56523809D01*
X140061961Y-56523809D02*
X139871485Y-56571428D01*
X139871485Y-56571428D02*
X139538152Y-56571428D01*
X139538152Y-56571428D02*
X139347676Y-56523809D01*
X139347676Y-56523809D02*
X139252438Y-56428571D01*
X139252438Y-56428571D02*
X139204819Y-56333333D01*
X139204819Y-55476190D02*
X140014342Y-55476190D01*
X140014342Y-55476190D02*
X140109580Y-55428571D01*
X140109580Y-55428571D02*
X140157200Y-55380952D01*
X140157200Y-55380952D02*
X140204819Y-55285714D01*
X140204819Y-55285714D02*
X140204819Y-55095238D01*
X140204819Y-55095238D02*
X140157200Y-55000000D01*
X140157200Y-55000000D02*
X140109580Y-54952381D01*
X140109580Y-54952381D02*
X140014342Y-54904762D01*
X140014342Y-54904762D02*
X139204819Y-54904762D01*
X139204819Y-54571428D02*
X139204819Y-54000000D01*
X140204819Y-54285714D02*
X139204819Y-54285714D01*
X139204819Y-52999999D02*
X139204819Y-52333333D01*
X139204819Y-52333333D02*
X140204819Y-52999999D01*
X140204819Y-52999999D02*
X140204819Y-52333333D01*
X139204819Y-51761904D02*
X139204819Y-51571428D01*
X139204819Y-51571428D02*
X139252438Y-51476190D01*
X139252438Y-51476190D02*
X139347676Y-51380952D01*
X139347676Y-51380952D02*
X139538152Y-51333333D01*
X139538152Y-51333333D02*
X139871485Y-51333333D01*
X139871485Y-51333333D02*
X140061961Y-51380952D01*
X140061961Y-51380952D02*
X140157200Y-51476190D01*
X140157200Y-51476190D02*
X140204819Y-51571428D01*
X140204819Y-51571428D02*
X140204819Y-51761904D01*
X140204819Y-51761904D02*
X140157200Y-51857142D01*
X140157200Y-51857142D02*
X140061961Y-51952380D01*
X140061961Y-51952380D02*
X139871485Y-51999999D01*
X139871485Y-51999999D02*
X139538152Y-51999999D01*
X139538152Y-51999999D02*
X139347676Y-51952380D01*
X139347676Y-51952380D02*
X139252438Y-51857142D01*
X139252438Y-51857142D02*
X139204819Y-51761904D01*
X140204819Y-50904761D02*
X139204819Y-50904761D01*
X139204819Y-50904761D02*
X140204819Y-50333333D01*
X140204819Y-50333333D02*
X139204819Y-50333333D01*
X139681009Y-49857142D02*
X139681009Y-49523809D01*
X140204819Y-49380952D02*
X140204819Y-49857142D01*
X140204819Y-49857142D02*
X139204819Y-49857142D01*
X139204819Y-49857142D02*
X139204819Y-49380952D01*
X137319104Y-58261904D02*
X137319104Y-57785714D01*
X137604819Y-58357142D02*
X136604819Y-58023809D01*
X136604819Y-58023809D02*
X137604819Y-57690476D01*
X136938152Y-57357142D02*
X137604819Y-57357142D01*
X137033390Y-57357142D02*
X136985771Y-57309523D01*
X136985771Y-57309523D02*
X136938152Y-57214285D01*
X136938152Y-57214285D02*
X136938152Y-57071428D01*
X136938152Y-57071428D02*
X136985771Y-56976190D01*
X136985771Y-56976190D02*
X137081009Y-56928571D01*
X137081009Y-56928571D02*
X137604819Y-56928571D01*
X136938152Y-56595237D02*
X136938152Y-56214285D01*
X136604819Y-56452380D02*
X137461961Y-56452380D01*
X137461961Y-56452380D02*
X137557200Y-56404761D01*
X137557200Y-56404761D02*
X137604819Y-56309523D01*
X137604819Y-56309523D02*
X137604819Y-56214285D01*
X137557200Y-55499999D02*
X137604819Y-55595237D01*
X137604819Y-55595237D02*
X137604819Y-55785713D01*
X137604819Y-55785713D02*
X137557200Y-55880951D01*
X137557200Y-55880951D02*
X137461961Y-55928570D01*
X137461961Y-55928570D02*
X137081009Y-55928570D01*
X137081009Y-55928570D02*
X136985771Y-55880951D01*
X136985771Y-55880951D02*
X136938152Y-55785713D01*
X136938152Y-55785713D02*
X136938152Y-55595237D01*
X136938152Y-55595237D02*
X136985771Y-55499999D01*
X136985771Y-55499999D02*
X137081009Y-55452380D01*
X137081009Y-55452380D02*
X137176247Y-55452380D01*
X137176247Y-55452380D02*
X137271485Y-55928570D01*
X136938152Y-55023808D02*
X137604819Y-55023808D01*
X137033390Y-55023808D02*
X136985771Y-54976189D01*
X136985771Y-54976189D02*
X136938152Y-54880951D01*
X136938152Y-54880951D02*
X136938152Y-54738094D01*
X136938152Y-54738094D02*
X136985771Y-54642856D01*
X136985771Y-54642856D02*
X137081009Y-54595237D01*
X137081009Y-54595237D02*
X137604819Y-54595237D01*
X136938152Y-54119046D02*
X137604819Y-54119046D01*
X137033390Y-54119046D02*
X136985771Y-54071427D01*
X136985771Y-54071427D02*
X136938152Y-53976189D01*
X136938152Y-53976189D02*
X136938152Y-53833332D01*
X136938152Y-53833332D02*
X136985771Y-53738094D01*
X136985771Y-53738094D02*
X137081009Y-53690475D01*
X137081009Y-53690475D02*
X137604819Y-53690475D01*
X137604819Y-52785713D02*
X137081009Y-52785713D01*
X137081009Y-52785713D02*
X136985771Y-52833332D01*
X136985771Y-52833332D02*
X136938152Y-52928570D01*
X136938152Y-52928570D02*
X136938152Y-53119046D01*
X136938152Y-53119046D02*
X136985771Y-53214284D01*
X137557200Y-52785713D02*
X137604819Y-52880951D01*
X137604819Y-52880951D02*
X137604819Y-53119046D01*
X137604819Y-53119046D02*
X137557200Y-53214284D01*
X137557200Y-53214284D02*
X137461961Y-53261903D01*
X137461961Y-53261903D02*
X137366723Y-53261903D01*
X137366723Y-53261903D02*
X137271485Y-53214284D01*
X137271485Y-53214284D02*
X137223866Y-53119046D01*
X137223866Y-53119046D02*
X137223866Y-52880951D01*
X137223866Y-52880951D02*
X137176247Y-52785713D01*
X230804979Y-69813924D02*
X230329441Y-69789002D01*
X230329441Y-69789002D02*
X230381777Y-68790372D01*
X231165270Y-69308277D02*
X231498146Y-69325723D01*
X231613393Y-69856291D02*
X231137856Y-69831369D01*
X231137856Y-69831369D02*
X231190191Y-68832739D01*
X231190191Y-68832739D02*
X231665729Y-68857661D01*
X232041378Y-69878721D02*
X232093714Y-68880091D01*
X232093714Y-68880091D02*
X232331482Y-68892552D01*
X232331482Y-68892552D02*
X232471652Y-68947582D01*
X232471652Y-68947582D02*
X232561775Y-69047674D01*
X232561775Y-69047674D02*
X232604344Y-69145274D01*
X232604344Y-69145274D02*
X232641929Y-69337981D01*
X232641929Y-69337981D02*
X232634453Y-69480643D01*
X232634453Y-69480643D02*
X232576930Y-69668366D01*
X232576930Y-69668366D02*
X232524392Y-69760981D01*
X232524392Y-69760981D02*
X232424300Y-69851104D01*
X232424300Y-69851104D02*
X232279147Y-69891182D01*
X232279147Y-69891182D02*
X232041378Y-69878721D01*
X128968801Y-107158646D02*
X128588498Y-106872067D01*
X128588498Y-106872067D02*
X129190313Y-106073432D01*
X129550249Y-106940918D02*
X129816461Y-107141523D01*
X129615316Y-107645830D02*
X129235013Y-107359251D01*
X129235013Y-107359251D02*
X129836828Y-106560616D01*
X129836828Y-106560616D02*
X130217131Y-106847194D01*
X129957588Y-107903750D02*
X130559403Y-107105115D01*
X130559403Y-107105115D02*
X130749554Y-107248404D01*
X130749554Y-107248404D02*
X130834987Y-107372408D01*
X130834987Y-107372408D02*
X130853732Y-107505784D01*
X130853732Y-107505784D02*
X130834447Y-107610503D01*
X130834447Y-107610503D02*
X130757845Y-107791282D01*
X130757845Y-107791282D02*
X130671872Y-107905372D01*
X130671872Y-107905372D02*
X130519210Y-108028836D01*
X130519210Y-108028836D02*
X130423864Y-108076238D01*
X130423864Y-108076238D02*
X130290488Y-108094983D01*
X130290488Y-108094983D02*
X130147739Y-108047040D01*
X130147739Y-108047040D02*
X129957588Y-107903750D01*
X31984481Y-78537662D02*
X32454809Y-78463169D01*
X32454809Y-78463169D02*
X32611243Y-79450858D01*
X31737193Y-79107167D02*
X31407964Y-79159312D01*
X31184923Y-78664299D02*
X31655251Y-78589807D01*
X31655251Y-78589807D02*
X31811686Y-79577495D01*
X31811686Y-79577495D02*
X31341358Y-79651988D01*
X30761628Y-78731343D02*
X30918063Y-79719031D01*
X30918063Y-79719031D02*
X30682899Y-79756277D01*
X30682899Y-79756277D02*
X30534351Y-79731592D01*
X30534351Y-79731592D02*
X30425387Y-79652425D01*
X30425387Y-79652425D02*
X30363456Y-79565809D01*
X30363456Y-79565809D02*
X30286626Y-79385127D01*
X30286626Y-79385127D02*
X30264278Y-79244029D01*
X30264278Y-79244029D02*
X30281514Y-79048449D01*
X30281514Y-79048449D02*
X30313648Y-78946934D01*
X30313648Y-78946934D02*
X30392815Y-78837970D01*
X30392815Y-78837970D02*
X30526464Y-78768589D01*
X30526464Y-78768589D02*
X30761628Y-78731343D01*
X176954999Y-104536368D02*
X177396515Y-104357984D01*
X177396515Y-104357984D02*
X177771122Y-105285168D01*
X176842160Y-105146905D02*
X176533099Y-105271774D01*
X176204422Y-104839621D02*
X176645938Y-104661237D01*
X176645938Y-104661237D02*
X177020544Y-105588421D01*
X177020544Y-105588421D02*
X176579028Y-105766805D01*
X175807057Y-105000167D02*
X176181664Y-105927351D01*
X176181664Y-105927351D02*
X175960906Y-106016543D01*
X175960906Y-106016543D02*
X175810612Y-106025906D01*
X175810612Y-106025906D02*
X175686632Y-105973280D01*
X175686632Y-105973280D02*
X175606804Y-105902815D01*
X175606804Y-105902815D02*
X175491299Y-105744047D01*
X175491299Y-105744047D02*
X175437783Y-105611592D01*
X175437783Y-105611592D02*
X175410581Y-105417147D01*
X175410581Y-105417147D02*
X175419056Y-105311006D01*
X175419056Y-105311006D02*
X175471683Y-105187026D01*
X175471683Y-105187026D02*
X175586299Y-105089359D01*
X175586299Y-105089359D02*
X175807057Y-105000167D01*
X253057311Y-70209373D02*
X252586984Y-70134880D01*
X252586984Y-70134880D02*
X252743418Y-69147192D01*
X253468483Y-69744157D02*
X253797712Y-69796302D01*
X253856869Y-70336010D02*
X253386541Y-70261518D01*
X253386541Y-70261518D02*
X253542976Y-69273829D01*
X253542976Y-69273829D02*
X254013303Y-69348322D01*
X254280164Y-70403054D02*
X254436598Y-69415365D01*
X254436598Y-69415365D02*
X254671762Y-69452612D01*
X254671762Y-69452612D02*
X254805411Y-69521992D01*
X254805411Y-69521992D02*
X254884578Y-69630956D01*
X254884578Y-69630956D02*
X254916713Y-69732471D01*
X254916713Y-69732471D02*
X254933948Y-69928052D01*
X254933948Y-69928052D02*
X254911601Y-70069150D01*
X254911601Y-70069150D02*
X254834771Y-70249832D01*
X254834771Y-70249832D02*
X254772840Y-70336448D01*
X254772840Y-70336448D02*
X254663875Y-70415615D01*
X254663875Y-70415615D02*
X254515328Y-70440300D01*
X254515328Y-70440300D02*
X254280164Y-70403054D01*
X209736391Y-29858088D02*
X209260490Y-29874707D01*
X209260490Y-29874707D02*
X209225591Y-28875316D01*
X210051241Y-29322964D02*
X210384371Y-29311331D01*
X210545422Y-29829836D02*
X210069521Y-29846455D01*
X210069521Y-29846455D02*
X210034622Y-28847064D01*
X210034622Y-28847064D02*
X210510522Y-28830445D01*
X210973732Y-29814879D02*
X210938833Y-28815488D01*
X210938833Y-28815488D02*
X211176783Y-28807179D01*
X211176783Y-28807179D02*
X211321215Y-28849783D01*
X211321215Y-28849783D02*
X211419719Y-28941639D01*
X211419719Y-28941639D02*
X211470632Y-29035158D01*
X211470632Y-29035158D02*
X211524870Y-29223856D01*
X211524870Y-29223856D02*
X211529856Y-29366626D01*
X211529856Y-29366626D02*
X211488913Y-29558648D01*
X211488913Y-29558648D02*
X211444647Y-29655490D01*
X211444647Y-29655490D02*
X211352791Y-29753994D01*
X211352791Y-29753994D02*
X211211682Y-29806570D01*
X211211682Y-29806570D02*
X210973732Y-29814879D01*
X192410455Y-49474710D02*
X191934554Y-49491329D01*
X191934554Y-49491329D02*
X191899655Y-48491938D01*
X192725305Y-48939586D02*
X193058435Y-48927953D01*
X193219486Y-49446458D02*
X192743585Y-49463077D01*
X192743585Y-49463077D02*
X192708686Y-48463686D01*
X192708686Y-48463686D02*
X193184586Y-48447067D01*
X193647796Y-49431501D02*
X193612897Y-48432110D01*
X193612897Y-48432110D02*
X193850847Y-48423801D01*
X193850847Y-48423801D02*
X193995279Y-48466405D01*
X193995279Y-48466405D02*
X194093783Y-48558261D01*
X194093783Y-48558261D02*
X194144696Y-48651780D01*
X194144696Y-48651780D02*
X194198934Y-48840478D01*
X194198934Y-48840478D02*
X194203920Y-48983248D01*
X194203920Y-48983248D02*
X194162977Y-49175270D01*
X194162977Y-49175270D02*
X194118711Y-49272112D01*
X194118711Y-49272112D02*
X194026855Y-49370616D01*
X194026855Y-49370616D02*
X193885746Y-49423192D01*
X193885746Y-49423192D02*
X193647796Y-49431501D01*
X89167446Y-99903622D02*
X89640087Y-99961655D01*
X89640087Y-99961655D02*
X89518217Y-100954201D01*
X88772760Y-100382904D02*
X88441912Y-100342281D01*
X88363956Y-99804966D02*
X88836597Y-99862999D01*
X88836597Y-99862999D02*
X88714727Y-100855545D01*
X88714727Y-100855545D02*
X88242086Y-100797512D01*
X87938579Y-99752736D02*
X87816709Y-100745282D01*
X87816709Y-100745282D02*
X87580389Y-100716266D01*
X87580389Y-100716266D02*
X87444400Y-100651592D01*
X87444400Y-100651592D02*
X87361478Y-100545457D01*
X87361478Y-100545457D02*
X87325821Y-100445126D01*
X87325821Y-100445126D02*
X87301770Y-100250266D01*
X87301770Y-100250266D02*
X87319180Y-100108474D01*
X87319180Y-100108474D02*
X87389657Y-99925221D01*
X87389657Y-99925221D02*
X87448528Y-99836496D01*
X87448528Y-99836496D02*
X87554662Y-99753574D01*
X87554662Y-99753574D02*
X87702258Y-99723720D01*
X87702258Y-99723720D02*
X87938579Y-99752736D01*
X175084501Y-69091317D02*
X174608600Y-69107936D01*
X174608600Y-69107936D02*
X174573701Y-68108545D01*
X175399351Y-68556193D02*
X175732481Y-68544560D01*
X175893532Y-69063065D02*
X175417631Y-69079684D01*
X175417631Y-69079684D02*
X175382732Y-68080293D01*
X175382732Y-68080293D02*
X175858632Y-68063674D01*
X176321842Y-69048108D02*
X176286943Y-68048717D01*
X176286943Y-68048717D02*
X176524893Y-68040408D01*
X176524893Y-68040408D02*
X176669325Y-68083012D01*
X176669325Y-68083012D02*
X176767829Y-68174868D01*
X176767829Y-68174868D02*
X176818742Y-68268387D01*
X176818742Y-68268387D02*
X176872980Y-68457085D01*
X176872980Y-68457085D02*
X176877966Y-68599855D01*
X176877966Y-68599855D02*
X176837023Y-68791877D01*
X176837023Y-68791877D02*
X176792757Y-68888719D01*
X176792757Y-68888719D02*
X176700901Y-68987223D01*
X176700901Y-68987223D02*
X176559792Y-69039799D01*
X176559792Y-69039799D02*
X176321842Y-69048108D01*
X231694701Y-52837231D02*
X231219163Y-52812309D01*
X231219163Y-52812309D02*
X231271499Y-51813679D01*
X232054992Y-52331584D02*
X232387868Y-52349030D01*
X232503115Y-52879598D02*
X232027578Y-52854676D01*
X232027578Y-52854676D02*
X232079913Y-51856046D01*
X232079913Y-51856046D02*
X232555451Y-51880968D01*
X232931100Y-52902028D02*
X232983436Y-51903398D01*
X232983436Y-51903398D02*
X233221204Y-51915859D01*
X233221204Y-51915859D02*
X233361374Y-51970889D01*
X233361374Y-51970889D02*
X233451497Y-52070981D01*
X233451497Y-52070981D02*
X233494066Y-52168581D01*
X233494066Y-52168581D02*
X233531651Y-52361288D01*
X233531651Y-52361288D02*
X233524175Y-52503950D01*
X233524175Y-52503950D02*
X233466652Y-52691673D01*
X233466652Y-52691673D02*
X233414114Y-52784288D01*
X233414114Y-52784288D02*
X233314022Y-52874411D01*
X233314022Y-52874411D02*
X233168869Y-52914489D01*
X233168869Y-52914489D02*
X232931100Y-52902028D01*
X108926076Y-60529334D02*
X109401977Y-60545953D01*
X109401977Y-60545953D02*
X109367077Y-61545344D01*
X108574665Y-61041191D02*
X108241535Y-61029558D01*
X108117045Y-60501082D02*
X108592946Y-60517701D01*
X108592946Y-60517701D02*
X108558046Y-61517092D01*
X108558046Y-61517092D02*
X108082146Y-61500473D01*
X107688735Y-60486125D02*
X107653835Y-61485516D01*
X107653835Y-61485516D02*
X107415885Y-61477206D01*
X107415885Y-61477206D02*
X107274777Y-61424631D01*
X107274777Y-61424631D02*
X107182921Y-61326127D01*
X107182921Y-61326127D02*
X107138654Y-61229285D01*
X107138654Y-61229285D02*
X107097712Y-61037263D01*
X107097712Y-61037263D02*
X107102697Y-60894493D01*
X107102697Y-60894493D02*
X107156935Y-60705795D01*
X107156935Y-60705795D02*
X107207849Y-60612276D01*
X107207849Y-60612276D02*
X107306353Y-60520420D01*
X107306353Y-60520420D02*
X107450785Y-60477816D01*
X107450785Y-60477816D02*
X107688735Y-60486125D01*
X107950684Y-104960463D02*
X108392200Y-105138847D01*
X108392200Y-105138847D02*
X108017593Y-106066031D01*
X107445400Y-105321262D02*
X107136338Y-105196393D01*
X107200106Y-104657210D02*
X107641622Y-104835594D01*
X107641622Y-104835594D02*
X107267016Y-105762778D01*
X107267016Y-105762778D02*
X106825499Y-105584394D01*
X106802741Y-104496664D02*
X106428135Y-105423848D01*
X106428135Y-105423848D02*
X106207377Y-105334656D01*
X106207377Y-105334656D02*
X106092760Y-105236989D01*
X106092760Y-105236989D02*
X106040134Y-105113009D01*
X106040134Y-105113009D02*
X106031659Y-105006868D01*
X106031659Y-105006868D02*
X106058861Y-104812423D01*
X106058861Y-104812423D02*
X106112376Y-104679968D01*
X106112376Y-104679968D02*
X106227882Y-104521200D01*
X106227882Y-104521200D02*
X106307710Y-104450735D01*
X106307710Y-104450735D02*
X106431690Y-104398109D01*
X106431690Y-104398109D02*
X106581983Y-104407472D01*
X106581983Y-104407472D02*
X106802741Y-104496664D01*
X34643855Y-95328374D02*
X35114183Y-95253881D01*
X35114183Y-95253881D02*
X35270617Y-96241570D01*
X34396567Y-95897879D02*
X34067338Y-95950024D01*
X33844297Y-95455011D02*
X34314625Y-95380519D01*
X34314625Y-95380519D02*
X34471060Y-96368207D01*
X34471060Y-96368207D02*
X34000732Y-96442700D01*
X33421002Y-95522055D02*
X33577437Y-96509743D01*
X33577437Y-96509743D02*
X33342273Y-96546989D01*
X33342273Y-96546989D02*
X33193725Y-96522304D01*
X33193725Y-96522304D02*
X33084761Y-96443137D01*
X33084761Y-96443137D02*
X33022830Y-96356521D01*
X33022830Y-96356521D02*
X32946000Y-96175839D01*
X32946000Y-96175839D02*
X32923652Y-96034741D01*
X32923652Y-96034741D02*
X32940888Y-95839161D01*
X32940888Y-95839161D02*
X32973022Y-95737646D01*
X32973022Y-95737646D02*
X33052189Y-95628682D01*
X33052189Y-95628682D02*
X33185838Y-95559301D01*
X33185838Y-95559301D02*
X33421002Y-95522055D01*
X210329689Y-46847735D02*
X209853788Y-46864354D01*
X209853788Y-46864354D02*
X209818889Y-45864963D01*
X210644539Y-46312611D02*
X210977669Y-46300978D01*
X211138720Y-46819483D02*
X210662819Y-46836102D01*
X210662819Y-46836102D02*
X210627920Y-45836711D01*
X210627920Y-45836711D02*
X211103820Y-45820092D01*
X211567030Y-46804526D02*
X211532131Y-45805135D01*
X211532131Y-45805135D02*
X211770081Y-45796826D01*
X211770081Y-45796826D02*
X211914513Y-45839430D01*
X211914513Y-45839430D02*
X212013017Y-45931286D01*
X212013017Y-45931286D02*
X212063930Y-46024805D01*
X212063930Y-46024805D02*
X212118168Y-46213503D01*
X212118168Y-46213503D02*
X212123154Y-46356273D01*
X212123154Y-46356273D02*
X212082211Y-46548295D01*
X212082211Y-46548295D02*
X212037945Y-46645137D01*
X212037945Y-46645137D02*
X211946089Y-46743641D01*
X211946089Y-46743641D02*
X211804980Y-46796217D01*
X211804980Y-46796217D02*
X211567030Y-46804526D01*
X250397919Y-87000085D02*
X249927592Y-86925592D01*
X249927592Y-86925592D02*
X250084026Y-85937904D01*
X250809091Y-86534869D02*
X251138320Y-86587014D01*
X251197477Y-87126722D02*
X250727149Y-87052230D01*
X250727149Y-87052230D02*
X250883584Y-86064541D01*
X250883584Y-86064541D02*
X251353911Y-86139034D01*
X251620772Y-87193766D02*
X251777206Y-86206077D01*
X251777206Y-86206077D02*
X252012370Y-86243324D01*
X252012370Y-86243324D02*
X252146019Y-86312704D01*
X252146019Y-86312704D02*
X252225186Y-86421668D01*
X252225186Y-86421668D02*
X252257321Y-86523183D01*
X252257321Y-86523183D02*
X252274556Y-86718764D01*
X252274556Y-86718764D02*
X252252209Y-86859862D01*
X252252209Y-86859862D02*
X252175379Y-87040544D01*
X252175379Y-87040544D02*
X252113448Y-87127160D01*
X252113448Y-87127160D02*
X252004483Y-87206327D01*
X252004483Y-87206327D02*
X251855936Y-87231012D01*
X251855936Y-87231012D02*
X251620772Y-87193766D01*
X29325089Y-61746966D02*
X29795417Y-61672473D01*
X29795417Y-61672473D02*
X29951851Y-62660162D01*
X29077801Y-62316471D02*
X28748572Y-62368616D01*
X28525531Y-61873603D02*
X28995859Y-61799111D01*
X28995859Y-61799111D02*
X29152294Y-62786799D01*
X29152294Y-62786799D02*
X28681966Y-62861292D01*
X28102236Y-61940647D02*
X28258671Y-62928335D01*
X28258671Y-62928335D02*
X28023507Y-62965581D01*
X28023507Y-62965581D02*
X27874959Y-62940896D01*
X27874959Y-62940896D02*
X27765995Y-62861729D01*
X27765995Y-62861729D02*
X27704064Y-62775113D01*
X27704064Y-62775113D02*
X27627234Y-62594431D01*
X27627234Y-62594431D02*
X27604886Y-62453333D01*
X27604886Y-62453333D02*
X27622122Y-62257753D01*
X27622122Y-62257753D02*
X27654256Y-62156238D01*
X27654256Y-62156238D02*
X27733423Y-62047274D01*
X27733423Y-62047274D02*
X27867072Y-61977893D01*
X27867072Y-61977893D02*
X28102236Y-61940647D01*
X107344157Y-68988904D02*
X106868256Y-68972285D01*
X106868256Y-68972285D02*
X106903156Y-67972894D01*
X107695568Y-68477047D02*
X108028698Y-68488680D01*
X108153188Y-69017156D02*
X107677287Y-69000537D01*
X107677287Y-69000537D02*
X107712187Y-68001146D01*
X107712187Y-68001146D02*
X108188087Y-68017765D01*
X108581498Y-69032113D02*
X108616398Y-68032722D01*
X108616398Y-68032722D02*
X108854348Y-68041032D01*
X108854348Y-68041032D02*
X108995456Y-68093607D01*
X108995456Y-68093607D02*
X109087312Y-68192111D01*
X109087312Y-68192111D02*
X109131579Y-68288953D01*
X109131579Y-68288953D02*
X109172521Y-68480975D01*
X109172521Y-68480975D02*
X109167536Y-68623745D01*
X109167536Y-68623745D02*
X109113298Y-68812443D01*
X109113298Y-68812443D02*
X109062384Y-68905962D01*
X109062384Y-68905962D02*
X108963880Y-68997818D01*
X108963880Y-68997818D02*
X108819448Y-69040422D01*
X108819448Y-69040422D02*
X108581498Y-69032113D01*
X53352961Y-78235108D02*
X53828499Y-78210186D01*
X53828499Y-78210186D02*
X53880835Y-79208816D01*
X53047499Y-78775645D02*
X52714622Y-78793091D01*
X52544547Y-78277475D02*
X53020085Y-78252554D01*
X53020085Y-78252554D02*
X53072421Y-79251183D01*
X53072421Y-79251183D02*
X52596883Y-79276105D01*
X52116563Y-78299905D02*
X52168899Y-79298535D01*
X52168899Y-79298535D02*
X51931130Y-79310996D01*
X51931130Y-79310996D02*
X51785976Y-79270918D01*
X51785976Y-79270918D02*
X51685884Y-79180795D01*
X51685884Y-79180795D02*
X51633346Y-79088180D01*
X51633346Y-79088180D02*
X51575823Y-78900457D01*
X51575823Y-78900457D02*
X51568347Y-78757795D01*
X51568347Y-78757795D02*
X51605932Y-78565088D01*
X51605932Y-78565088D02*
X51648501Y-78467488D01*
X51648501Y-78467488D02*
X51738625Y-78367396D01*
X51738625Y-78367396D02*
X51878794Y-78312366D01*
X51878794Y-78312366D02*
X52116563Y-78299905D01*
X191817157Y-32485063D02*
X191341256Y-32501682D01*
X191341256Y-32501682D02*
X191306357Y-31502291D01*
X192132007Y-31949939D02*
X192465137Y-31938306D01*
X192626188Y-32456811D02*
X192150287Y-32473430D01*
X192150287Y-32473430D02*
X192115388Y-31474039D01*
X192115388Y-31474039D02*
X192591288Y-31457420D01*
X193054498Y-32441854D02*
X193019599Y-31442463D01*
X193019599Y-31442463D02*
X193257549Y-31434154D01*
X193257549Y-31434154D02*
X193401981Y-31476758D01*
X193401981Y-31476758D02*
X193500485Y-31568614D01*
X193500485Y-31568614D02*
X193551398Y-31662133D01*
X193551398Y-31662133D02*
X193605636Y-31850831D01*
X193605636Y-31850831D02*
X193610622Y-31993601D01*
X193610622Y-31993601D02*
X193569679Y-32185623D01*
X193569679Y-32185623D02*
X193525413Y-32282465D01*
X193525413Y-32282465D02*
X193433557Y-32380969D01*
X193433557Y-32380969D02*
X193292448Y-32433545D01*
X193292448Y-32433545D02*
X193054498Y-32441854D01*
X72494310Y-72265030D02*
X72970211Y-72281649D01*
X72970211Y-72281649D02*
X72935311Y-73281040D01*
X72142899Y-72776887D02*
X71809769Y-72765254D01*
X71685279Y-72236778D02*
X72161180Y-72253397D01*
X72161180Y-72253397D02*
X72126280Y-73252788D01*
X72126280Y-73252788D02*
X71650380Y-73236169D01*
X71256969Y-72221821D02*
X71222069Y-73221212D01*
X71222069Y-73221212D02*
X70984119Y-73212902D01*
X70984119Y-73212902D02*
X70843011Y-73160327D01*
X70843011Y-73160327D02*
X70751155Y-73061823D01*
X70751155Y-73061823D02*
X70706888Y-72964981D01*
X70706888Y-72964981D02*
X70665946Y-72772959D01*
X70665946Y-72772959D02*
X70670931Y-72630189D01*
X70670931Y-72630189D02*
X70725169Y-72441491D01*
X70725169Y-72441491D02*
X70776083Y-72347972D01*
X70776083Y-72347972D02*
X70874587Y-72256116D01*
X70874587Y-72256116D02*
X71019019Y-72213512D01*
X71019019Y-72213512D02*
X71256969Y-72221821D01*
X174491221Y-52101686D02*
X174015320Y-52118305D01*
X174015320Y-52118305D02*
X173980421Y-51118914D01*
X174806071Y-51566562D02*
X175139201Y-51554929D01*
X175300252Y-52073434D02*
X174824351Y-52090053D01*
X174824351Y-52090053D02*
X174789452Y-51090662D01*
X174789452Y-51090662D02*
X175265352Y-51074043D01*
X175728562Y-52058477D02*
X175693663Y-51059086D01*
X175693663Y-51059086D02*
X175931613Y-51050777D01*
X175931613Y-51050777D02*
X176076045Y-51093381D01*
X176076045Y-51093381D02*
X176174549Y-51185237D01*
X176174549Y-51185237D02*
X176225462Y-51278756D01*
X176225462Y-51278756D02*
X176279700Y-51467454D01*
X176279700Y-51467454D02*
X176284686Y-51610224D01*
X176284686Y-51610224D02*
X176243743Y-51802246D01*
X176243743Y-51802246D02*
X176199477Y-51899088D01*
X176199477Y-51899088D02*
X176107621Y-51997592D01*
X176107621Y-51997592D02*
X175966512Y-52050168D01*
X175966512Y-52050168D02*
X175728562Y-52058477D01*
X73087590Y-55275383D02*
X73563491Y-55292002D01*
X73563491Y-55292002D02*
X73528591Y-56291393D01*
X72736179Y-55787240D02*
X72403049Y-55775607D01*
X72278559Y-55247131D02*
X72754460Y-55263750D01*
X72754460Y-55263750D02*
X72719560Y-56263141D01*
X72719560Y-56263141D02*
X72243660Y-56246522D01*
X71850249Y-55232174D02*
X71815349Y-56231565D01*
X71815349Y-56231565D02*
X71577399Y-56223255D01*
X71577399Y-56223255D02*
X71436291Y-56170680D01*
X71436291Y-56170680D02*
X71344435Y-56072176D01*
X71344435Y-56072176D02*
X71300168Y-55975334D01*
X71300168Y-55975334D02*
X71259226Y-55783312D01*
X71259226Y-55783312D02*
X71264211Y-55640542D01*
X71264211Y-55640542D02*
X71318449Y-55451844D01*
X71318449Y-55451844D02*
X71369363Y-55358325D01*
X71369363Y-55358325D02*
X71467867Y-55266469D01*
X71467867Y-55266469D02*
X71612299Y-55223865D01*
X71612299Y-55223865D02*
X71850249Y-55232174D01*
X91006842Y-57902358D02*
X91482743Y-57918977D01*
X91482743Y-57918977D02*
X91447843Y-58918368D01*
X90655431Y-58414215D02*
X90322301Y-58402582D01*
X90197811Y-57874106D02*
X90673712Y-57890725D01*
X90673712Y-57890725D02*
X90638812Y-58890116D01*
X90638812Y-58890116D02*
X90162912Y-58873497D01*
X89769501Y-57859149D02*
X89734601Y-58858540D01*
X89734601Y-58858540D02*
X89496651Y-58850230D01*
X89496651Y-58850230D02*
X89355543Y-58797655D01*
X89355543Y-58797655D02*
X89263687Y-58699151D01*
X89263687Y-58699151D02*
X89219420Y-58602309D01*
X89219420Y-58602309D02*
X89178478Y-58410287D01*
X89178478Y-58410287D02*
X89183463Y-58267517D01*
X89183463Y-58267517D02*
X89237701Y-58078819D01*
X89237701Y-58078819D02*
X89288615Y-57985300D01*
X89288615Y-57985300D02*
X89387119Y-57893444D01*
X89387119Y-57893444D02*
X89531551Y-57850840D01*
X89531551Y-57850840D02*
X89769501Y-57859149D01*
X255716685Y-53418677D02*
X255246358Y-53344184D01*
X255246358Y-53344184D02*
X255402792Y-52356496D01*
X256127857Y-52953461D02*
X256457086Y-53005606D01*
X256516243Y-53545314D02*
X256045915Y-53470822D01*
X256045915Y-53470822D02*
X256202350Y-52483133D01*
X256202350Y-52483133D02*
X256672677Y-52557626D01*
X256939538Y-53612358D02*
X257095972Y-52624669D01*
X257095972Y-52624669D02*
X257331136Y-52661916D01*
X257331136Y-52661916D02*
X257464785Y-52731296D01*
X257464785Y-52731296D02*
X257543952Y-52840260D01*
X257543952Y-52840260D02*
X257576087Y-52941775D01*
X257576087Y-52941775D02*
X257593322Y-53137356D01*
X257593322Y-53137356D02*
X257570975Y-53278454D01*
X257570975Y-53278454D02*
X257494145Y-53459136D01*
X257494145Y-53459136D02*
X257432214Y-53545752D01*
X257432214Y-53545752D02*
X257323249Y-53624919D01*
X257323249Y-53624919D02*
X257174702Y-53649604D01*
X257174702Y-53649604D02*
X256939538Y-53612358D01*
X193003735Y-66464357D02*
X192527834Y-66480976D01*
X192527834Y-66480976D02*
X192492935Y-65481585D01*
X193318585Y-65929233D02*
X193651715Y-65917600D01*
X193812766Y-66436105D02*
X193336865Y-66452724D01*
X193336865Y-66452724D02*
X193301966Y-65453333D01*
X193301966Y-65453333D02*
X193777866Y-65436714D01*
X194241076Y-66421148D02*
X194206177Y-65421757D01*
X194206177Y-65421757D02*
X194444127Y-65413448D01*
X194444127Y-65413448D02*
X194588559Y-65456052D01*
X194588559Y-65456052D02*
X194687063Y-65547908D01*
X194687063Y-65547908D02*
X194737976Y-65641427D01*
X194737976Y-65641427D02*
X194792214Y-65830125D01*
X194792214Y-65830125D02*
X194797200Y-65972895D01*
X194797200Y-65972895D02*
X194756257Y-66164917D01*
X194756257Y-66164917D02*
X194711991Y-66261759D01*
X194711991Y-66261759D02*
X194620135Y-66360263D01*
X194620135Y-66360263D02*
X194479026Y-66412839D01*
X194479026Y-66412839D02*
X194241076Y-66421148D01*
X232584405Y-35860520D02*
X232108867Y-35835598D01*
X232108867Y-35835598D02*
X232161203Y-34836968D01*
X232944696Y-35354873D02*
X233277572Y-35372319D01*
X233392819Y-35902887D02*
X232917282Y-35877965D01*
X232917282Y-35877965D02*
X232969617Y-34879335D01*
X232969617Y-34879335D02*
X233445155Y-34904257D01*
X233820804Y-35925317D02*
X233873140Y-34926687D01*
X233873140Y-34926687D02*
X234110908Y-34939148D01*
X234110908Y-34939148D02*
X234251078Y-34994178D01*
X234251078Y-34994178D02*
X234341201Y-35094270D01*
X234341201Y-35094270D02*
X234383770Y-35191870D01*
X234383770Y-35191870D02*
X234421355Y-35384577D01*
X234421355Y-35384577D02*
X234413879Y-35527239D01*
X234413879Y-35527239D02*
X234356356Y-35714962D01*
X234356356Y-35714962D02*
X234303818Y-35807577D01*
X234303818Y-35807577D02*
X234203726Y-35897700D01*
X234203726Y-35897700D02*
X234058573Y-35937778D01*
X234058573Y-35937778D02*
X233820804Y-35925317D01*
X52463257Y-61258415D02*
X52938795Y-61233493D01*
X52938795Y-61233493D02*
X52991131Y-62232123D01*
X52157795Y-61798952D02*
X51824918Y-61816398D01*
X51654843Y-61300782D02*
X52130381Y-61275861D01*
X52130381Y-61275861D02*
X52182717Y-62274490D01*
X52182717Y-62274490D02*
X51707179Y-62299412D01*
X51226859Y-61323212D02*
X51279195Y-62321842D01*
X51279195Y-62321842D02*
X51041426Y-62334303D01*
X51041426Y-62334303D02*
X50896272Y-62294225D01*
X50896272Y-62294225D02*
X50796180Y-62204102D01*
X50796180Y-62204102D02*
X50743642Y-62111487D01*
X50743642Y-62111487D02*
X50686119Y-61923764D01*
X50686119Y-61923764D02*
X50678643Y-61781102D01*
X50678643Y-61781102D02*
X50716228Y-61588395D01*
X50716228Y-61588395D02*
X50758797Y-61490795D01*
X50758797Y-61490795D02*
X50848921Y-61390703D01*
X50848921Y-61390703D02*
X50989090Y-61335673D01*
X50989090Y-61335673D02*
X51226859Y-61323212D01*
X159854434Y-113996893D02*
X160234737Y-113710314D01*
X160234737Y-113710314D02*
X160836552Y-114508950D01*
X159903459Y-114615831D02*
X159637247Y-114816436D01*
X159207920Y-114484076D02*
X159588222Y-114197498D01*
X159588222Y-114197498D02*
X160190037Y-114996133D01*
X160190037Y-114996133D02*
X159809735Y-115282712D01*
X158865647Y-114741997D02*
X159467462Y-115540633D01*
X159467462Y-115540633D02*
X159277311Y-115683922D01*
X159277311Y-115683922D02*
X159134562Y-115731865D01*
X159134562Y-115731865D02*
X159001186Y-115713120D01*
X159001186Y-115713120D02*
X158905840Y-115665718D01*
X158905840Y-115665718D02*
X158753178Y-115542255D01*
X158753178Y-115542255D02*
X158667205Y-115428164D01*
X158667205Y-115428164D02*
X158590604Y-115247385D01*
X158590604Y-115247385D02*
X158571318Y-115142667D01*
X158571318Y-115142667D02*
X158590063Y-115009290D01*
X158590063Y-115009290D02*
X158675496Y-114885286D01*
X158675496Y-114885286D02*
X158865647Y-114741997D01*
X51573535Y-44281704D02*
X52049073Y-44256782D01*
X52049073Y-44256782D02*
X52101409Y-45255412D01*
X51268073Y-44822241D02*
X50935196Y-44839687D01*
X50765121Y-44324071D02*
X51240659Y-44299150D01*
X51240659Y-44299150D02*
X51292995Y-45297779D01*
X51292995Y-45297779D02*
X50817457Y-45322701D01*
X50337137Y-44346501D02*
X50389473Y-45345131D01*
X50389473Y-45345131D02*
X50151704Y-45357592D01*
X50151704Y-45357592D02*
X50006550Y-45317514D01*
X50006550Y-45317514D02*
X49906458Y-45227391D01*
X49906458Y-45227391D02*
X49853920Y-45134776D01*
X49853920Y-45134776D02*
X49796397Y-44947053D01*
X49796397Y-44947053D02*
X49788921Y-44804391D01*
X49788921Y-44804391D02*
X49826506Y-44611684D01*
X49826506Y-44611684D02*
X49869075Y-44514084D01*
X49869075Y-44514084D02*
X49959199Y-44413992D01*
X49959199Y-44413992D02*
X50099368Y-44358962D01*
X50099368Y-44358962D02*
X50337137Y-44346501D01*
X195822275Y-99804475D02*
X196294916Y-99746442D01*
X196294916Y-99746442D02*
X196416785Y-100738988D01*
X195555262Y-100365003D02*
X195224413Y-100405626D01*
X195018785Y-99903131D02*
X195491426Y-99845098D01*
X195491426Y-99845098D02*
X195613295Y-100837644D01*
X195613295Y-100837644D02*
X195140654Y-100895677D01*
X194593408Y-99955361D02*
X194715277Y-100947907D01*
X194715277Y-100947907D02*
X194478956Y-100976924D01*
X194478956Y-100976924D02*
X194331361Y-100947069D01*
X194331361Y-100947069D02*
X194225226Y-100864148D01*
X194225226Y-100864148D02*
X194166355Y-100775423D01*
X194166355Y-100775423D02*
X194095878Y-100592170D01*
X194095878Y-100592170D02*
X194078468Y-100450377D01*
X194078468Y-100450377D02*
X194102519Y-100255518D01*
X194102519Y-100255518D02*
X194138176Y-100155186D01*
X194138176Y-100155186D02*
X194221098Y-100049051D01*
X194221098Y-100049051D02*
X194357087Y-99984377D01*
X194357087Y-99984377D02*
X194593408Y-99955361D01*
X73680888Y-38285736D02*
X74156789Y-38302355D01*
X74156789Y-38302355D02*
X74121889Y-39301746D01*
X73329477Y-38797593D02*
X72996347Y-38785960D01*
X72871857Y-38257484D02*
X73347758Y-38274103D01*
X73347758Y-38274103D02*
X73312858Y-39273494D01*
X73312858Y-39273494D02*
X72836958Y-39256875D01*
X72443547Y-38242527D02*
X72408647Y-39241918D01*
X72408647Y-39241918D02*
X72170697Y-39233608D01*
X72170697Y-39233608D02*
X72029589Y-39181033D01*
X72029589Y-39181033D02*
X71937733Y-39082529D01*
X71937733Y-39082529D02*
X71893466Y-38985687D01*
X71893466Y-38985687D02*
X71852524Y-38793665D01*
X71852524Y-38793665D02*
X71857509Y-38650895D01*
X71857509Y-38650895D02*
X71911747Y-38462197D01*
X71911747Y-38462197D02*
X71962661Y-38368678D01*
X71962661Y-38368678D02*
X72061165Y-38276822D01*
X72061165Y-38276822D02*
X72205597Y-38234218D01*
X72205597Y-38234218D02*
X72443547Y-38242527D01*
X91600122Y-40912711D02*
X92076023Y-40929330D01*
X92076023Y-40929330D02*
X92041123Y-41928721D01*
X91248711Y-41424568D02*
X90915581Y-41412935D01*
X90791091Y-40884459D02*
X91266992Y-40901078D01*
X91266992Y-40901078D02*
X91232092Y-41900469D01*
X91232092Y-41900469D02*
X90756192Y-41883850D01*
X90362781Y-40869502D02*
X90327881Y-41868893D01*
X90327881Y-41868893D02*
X90089931Y-41860583D01*
X90089931Y-41860583D02*
X89948823Y-41808008D01*
X89948823Y-41808008D02*
X89856967Y-41709504D01*
X89856967Y-41709504D02*
X89812700Y-41612662D01*
X89812700Y-41612662D02*
X89771758Y-41420640D01*
X89771758Y-41420640D02*
X89776743Y-41277870D01*
X89776743Y-41277870D02*
X89830981Y-41089172D01*
X89830981Y-41089172D02*
X89881895Y-40995653D01*
X89881895Y-40995653D02*
X89980399Y-40903797D01*
X89980399Y-40903797D02*
X90124831Y-40861193D01*
X90124831Y-40861193D02*
X90362781Y-40869502D01*
X210922969Y-63837382D02*
X210447068Y-63854001D01*
X210447068Y-63854001D02*
X210412169Y-62854610D01*
X211237819Y-63302258D02*
X211570949Y-63290625D01*
X211732000Y-63809130D02*
X211256099Y-63825749D01*
X211256099Y-63825749D02*
X211221200Y-62826358D01*
X211221200Y-62826358D02*
X211697100Y-62809739D01*
X212160310Y-63794173D02*
X212125411Y-62794782D01*
X212125411Y-62794782D02*
X212363361Y-62786473D01*
X212363361Y-62786473D02*
X212507793Y-62829077D01*
X212507793Y-62829077D02*
X212606297Y-62920933D01*
X212606297Y-62920933D02*
X212657210Y-63014452D01*
X212657210Y-63014452D02*
X212711448Y-63203150D01*
X212711448Y-63203150D02*
X212716434Y-63345920D01*
X212716434Y-63345920D02*
X212675491Y-63537942D01*
X212675491Y-63537942D02*
X212631225Y-63634784D01*
X212631225Y-63634784D02*
X212539369Y-63733288D01*
X212539369Y-63733288D02*
X212398260Y-63785864D01*
X212398260Y-63785864D02*
X212160310Y-63794173D01*
X90413544Y-74892005D02*
X90889445Y-74908624D01*
X90889445Y-74908624D02*
X90854545Y-75908015D01*
X90062133Y-75403862D02*
X89729003Y-75392229D01*
X89604513Y-74863753D02*
X90080414Y-74880372D01*
X90080414Y-74880372D02*
X90045514Y-75879763D01*
X90045514Y-75879763D02*
X89569614Y-75863144D01*
X89176203Y-74848796D02*
X89141303Y-75848187D01*
X89141303Y-75848187D02*
X88903353Y-75839877D01*
X88903353Y-75839877D02*
X88762245Y-75787302D01*
X88762245Y-75787302D02*
X88670389Y-75688798D01*
X88670389Y-75688798D02*
X88626122Y-75591956D01*
X88626122Y-75591956D02*
X88585180Y-75399934D01*
X88585180Y-75399934D02*
X88590165Y-75257164D01*
X88590165Y-75257164D02*
X88644403Y-75068466D01*
X88644403Y-75068466D02*
X88695317Y-74974947D01*
X88695317Y-74974947D02*
X88793821Y-74883091D01*
X88793821Y-74883091D02*
X88938253Y-74840487D01*
X88938253Y-74840487D02*
X89176203Y-74848796D01*
X109519356Y-43539687D02*
X109995257Y-43556306D01*
X109995257Y-43556306D02*
X109960357Y-44555697D01*
X109167945Y-44051544D02*
X108834815Y-44039911D01*
X108710325Y-43511435D02*
X109186226Y-43528054D01*
X109186226Y-43528054D02*
X109151326Y-44527445D01*
X109151326Y-44527445D02*
X108675426Y-44510826D01*
X108282015Y-43496478D02*
X108247115Y-44495869D01*
X108247115Y-44495869D02*
X108009165Y-44487559D01*
X108009165Y-44487559D02*
X107868057Y-44434984D01*
X107868057Y-44434984D02*
X107776201Y-44336480D01*
X107776201Y-44336480D02*
X107731934Y-44239638D01*
X107731934Y-44239638D02*
X107690992Y-44047616D01*
X107690992Y-44047616D02*
X107695977Y-43904846D01*
X107695977Y-43904846D02*
X107750215Y-43716148D01*
X107750215Y-43716148D02*
X107801129Y-43622629D01*
X107801129Y-43622629D02*
X107899633Y-43530773D01*
X107899633Y-43530773D02*
X108044065Y-43488169D01*
X108044065Y-43488169D02*
X108282015Y-43496478D01*
X173897923Y-35112039D02*
X173422022Y-35128658D01*
X173422022Y-35128658D02*
X173387123Y-34129267D01*
X174212773Y-34576915D02*
X174545903Y-34565282D01*
X174706954Y-35083787D02*
X174231053Y-35100406D01*
X174231053Y-35100406D02*
X174196154Y-34101015D01*
X174196154Y-34101015D02*
X174672054Y-34084396D01*
X175135264Y-35068830D02*
X175100365Y-34069439D01*
X175100365Y-34069439D02*
X175338315Y-34061130D01*
X175338315Y-34061130D02*
X175482747Y-34103734D01*
X175482747Y-34103734D02*
X175581251Y-34195590D01*
X175581251Y-34195590D02*
X175632164Y-34289109D01*
X175632164Y-34289109D02*
X175686402Y-34477807D01*
X175686402Y-34477807D02*
X175691388Y-34620577D01*
X175691388Y-34620577D02*
X175650445Y-34812599D01*
X175650445Y-34812599D02*
X175606179Y-34909441D01*
X175606179Y-34909441D02*
X175514323Y-35007945D01*
X175514323Y-35007945D02*
X175373214Y-35060521D01*
X175373214Y-35060521D02*
X175135264Y-35068830D01*
D11*
%TO.C,USB1*%
X127480000Y-30800000D02*
G75*
G02*
X127240000Y-30800000I-120000J0D01*
G01*
X127240000Y-30800000D02*
G75*
G02*
X127480000Y-30800000I120000J0D01*
G01*
X133260000Y-30800000D02*
G75*
G02*
X133020000Y-30800000I-120000J0D01*
G01*
X133020000Y-30800000D02*
G75*
G02*
X133260000Y-30800000I120000J0D01*
G01*
%TO.C,USB2*%
X150798770Y-30780000D02*
G75*
G02*
X150558770Y-30780000I-120000J0D01*
G01*
X150558770Y-30780000D02*
G75*
G02*
X150798770Y-30780000I120000J0D01*
G01*
X156578770Y-30780000D02*
G75*
G02*
X156338770Y-30780000I-120000J0D01*
G01*
X156338770Y-30780000D02*
G75*
G02*
X156578770Y-30780000I120000J0D01*
G01*
D12*
%TO.C,SW32*%
X234049762Y-67951372D02*
X233884904Y-71097055D01*
X228891756Y-70835375D01*
X229056614Y-67689692D01*
X234049762Y-67951372D01*
%TO.C,SW18*%
X132700374Y-107428980D02*
X130804657Y-109944682D01*
X126811479Y-106935606D01*
X128707196Y-104419905D01*
X132700374Y-107428980D01*
%TO.C,SW6*%
X34136293Y-80251970D02*
X29197851Y-81034142D01*
X28705083Y-77922924D01*
X33643525Y-77140752D01*
X34136293Y-80251970D01*
%TO.C,SW35*%
X179437296Y-105722686D02*
X174801377Y-107595719D01*
X173621366Y-104675090D01*
X178257285Y-102802057D01*
X179437296Y-105722686D01*
%TO.C,SW28*%
X256479009Y-68696196D02*
X255986241Y-71807414D01*
X251047799Y-71025242D01*
X251540567Y-67914024D01*
X256479009Y-68696196D01*
%TO.C,SW21*%
X212916428Y-30867903D02*
X207919474Y-31042400D01*
X207809541Y-27894319D01*
X212806495Y-27719822D01*
X212916428Y-30867903D01*
%TO.C,SW25*%
X195590492Y-50484525D02*
X190593538Y-50659022D01*
X190483605Y-47510941D01*
X195480559Y-47336444D01*
X195590492Y-50484525D01*
%TO.C,SW16*%
X91147262Y-99018120D02*
X90763373Y-102144640D01*
X85800642Y-101535294D01*
X86184531Y-98408773D01*
X91147262Y-99018120D01*
%TO.C,SW29*%
X178264538Y-70101132D02*
X173267584Y-70275629D01*
X173157651Y-67127548D01*
X178154605Y-66953051D01*
X178264538Y-70101132D01*
%TO.C,SW27*%
X234939484Y-50974679D02*
X234774626Y-54120362D01*
X229781478Y-53858682D01*
X229946336Y-50712999D01*
X234939484Y-50974679D01*
%TO.C,SW10*%
X110821182Y-59474649D02*
X110711249Y-62622730D01*
X105714295Y-62448233D01*
X105824228Y-59300152D01*
X110821182Y-59474649D01*
%TO.C,SW17*%
X110092224Y-104617548D02*
X108912213Y-107538177D01*
X104276294Y-105665144D01*
X105456305Y-102744515D01*
X110092224Y-104617548D01*
%TO.C,SW11*%
X36795667Y-97042682D02*
X31857225Y-97824854D01*
X31364457Y-94713636D01*
X36302899Y-93931464D01*
X36795667Y-97042682D01*
%TO.C,SW26*%
X213509726Y-47857550D02*
X208512772Y-48032047D01*
X208402839Y-44883966D01*
X213399793Y-44709469D01*
X213509726Y-47857550D01*
%TO.C,SW33*%
X253819617Y-85486908D02*
X253326849Y-88598126D01*
X248388407Y-87815954D01*
X248881175Y-84704736D01*
X253819617Y-85486908D01*
%TO.C,SW1*%
X31476901Y-63461274D02*
X26538459Y-64243446D01*
X26045691Y-61132228D01*
X30984133Y-60350056D01*
X31476901Y-63461274D01*
%TO.C,SW15*%
X110555939Y-67070006D02*
X110446006Y-70218087D01*
X105449052Y-70043590D01*
X105558985Y-66895509D01*
X110555939Y-67070006D01*
%TO.C,SW12*%
X55313792Y-80164950D02*
X50320644Y-80426630D01*
X50155786Y-77280947D01*
X55148934Y-77019267D01*
X55313792Y-80164950D01*
%TO.C,SW20*%
X194997194Y-33494878D02*
X190000240Y-33669375D01*
X189890307Y-30521294D01*
X194887261Y-30346797D01*
X194997194Y-33494878D01*
%TO.C,SW13*%
X74389416Y-71210345D02*
X74279483Y-74358426D01*
X69282529Y-74183929D01*
X69392462Y-71035848D01*
X74389416Y-71210345D01*
%TO.C,SW24*%
X177671258Y-53111501D02*
X172674304Y-53285998D01*
X172564371Y-50137917D01*
X177561325Y-49963420D01*
X177671258Y-53111501D01*
%TO.C,SW8*%
X74982696Y-54220698D02*
X74872763Y-57368779D01*
X69875809Y-57194282D01*
X69985742Y-54046201D01*
X74982696Y-54220698D01*
%TO.C,SW9*%
X92901948Y-56847673D02*
X92792015Y-59995754D01*
X87795061Y-59821257D01*
X87904994Y-56673176D01*
X92901948Y-56847673D01*
%TO.C,SW23*%
X259138383Y-51905500D02*
X258645615Y-55016718D01*
X253707173Y-54234546D01*
X254199941Y-51123328D01*
X259138383Y-51905500D01*
%TO.C,SW30*%
X196183772Y-67474172D02*
X191186818Y-67648669D01*
X191076885Y-64500588D01*
X196073839Y-64326091D01*
X196183772Y-67474172D01*
%TO.C,SW22*%
X235829188Y-33997968D02*
X235664330Y-37143651D01*
X230671182Y-36881971D01*
X230836040Y-33736288D01*
X235829188Y-33997968D01*
%TO.C,SW7*%
X54424088Y-63188257D02*
X49430940Y-63449937D01*
X49266082Y-60304254D01*
X54259230Y-60042574D01*
X54424088Y-63188257D01*
%TO.C,SW36*%
X162559190Y-114500322D02*
X158566012Y-117509397D01*
X156670295Y-114993696D01*
X160663473Y-111984620D01*
X162559190Y-114500322D01*
%TO.C,SW2*%
X53534366Y-46211546D02*
X48541218Y-46473226D01*
X48376360Y-43327543D01*
X53369508Y-43065863D01*
X53534366Y-46211546D01*
%TO.C,SW34*%
X197912948Y-101592836D02*
X192950217Y-102202182D01*
X192566328Y-99075662D01*
X197529059Y-98466315D01*
X197912948Y-101592836D01*
%TO.C,SW3*%
X75575994Y-37231051D02*
X75466061Y-40379132D01*
X70469107Y-40204635D01*
X70579040Y-37056554D01*
X75575994Y-37231051D01*
%TO.C,SW4*%
X93495228Y-39858026D02*
X93385295Y-43006107D01*
X88388341Y-42831610D01*
X88498274Y-39683529D01*
X93495228Y-39858026D01*
%TO.C,SW31*%
X214103006Y-64847197D02*
X209106052Y-65021694D01*
X208996119Y-61873613D01*
X213993073Y-61699116D01*
X214103006Y-64847197D01*
%TO.C,SW14*%
X92308650Y-73837320D02*
X92198717Y-76985401D01*
X87201763Y-76810904D01*
X87311696Y-73662823D01*
X92308650Y-73837320D01*
%TO.C,SW5*%
X111414462Y-42485002D02*
X111304529Y-45633083D01*
X106307575Y-45458586D01*
X106417508Y-42310505D01*
X111414462Y-42485002D01*
%TO.C,SW19*%
X177077960Y-36121854D02*
X172081006Y-36296351D01*
X171971073Y-33148270D01*
X176968027Y-32973773D01*
X177077960Y-36121854D01*
%TD*%
M02*
