M48
; DRILL file {KiCad 9.0.2} date 2025-07-16T15:57:37+0200
; FORMAT={-:-/ absolute / inch / decimal}
; #@! TF.CreationDate,2025-07-16T15:57:37+02:00
; #@! TF.GenerationSoftware,Kicad,Pcbnew,9.0.2
; #@! TF.FileFunction,NonPlated,1,2,NPTH
FMAT,2
INCH
; #@! TA.AperFunction,NonPlated,NPTH,ComponentDrill
T1C0.0256
; #@! TA.AperFunction,NonPlated,NPTH,ComponentDrill
T2C0.0276
; #@! TA.AperFunction,NonPlated,NPTH,ComponentDrill
T3C0.0390
; #@! TA.AperFunction,NonPlated,NPTH,ComponentDrill
T4C0.0669
; #@! TA.AperFunction,NonPlated,NPTH,ComponentDrill
T5C0.0866
; #@! TA.AperFunction,NonPlated,NPTH,ComponentDrill
T6C0.0935
; #@! TA.AperFunction,NonPlated,NPTH,ComponentDrill
T7C0.1181
; #@! TA.AperFunction,NonPlated,NPTH,ComponentDrill
T8C0.1339
%
G90
G05
T1
X4.8961Y-1.6673
X5.1236Y-1.6673
T2
X5.3179Y-1.597
X5.3189Y-1.8253
X5.3888Y-1.597
X5.3898Y-1.8253
T3
X3.2369Y-3.3465
X3.2769Y-3.1465
X3.3169Y-3.3465
T4
X0.8864Y-2.2714
X0.9914Y-2.9344
X1.0964Y-3.5974
X1.3141Y-2.2037
X1.4191Y-2.8667
X1.5241Y-3.5297
X1.7857Y-1.5938
X1.8209Y-2.2641
X1.856Y-2.9344
X2.2182Y-1.5711
X2.2533Y-2.2414
X2.2885Y-2.9118
X2.6261Y-2.6775
X2.6495Y-2.0066
X2.673Y-1.3358
X3.0589Y-2.6926
X3.0823Y-2.0217
X3.1058Y-1.3509
X3.1596Y-3.9398
X3.3336Y-2.7812
X3.357Y-2.1104
X3.3804Y-1.4395
X3.5921Y-3.9171
X3.7664Y-2.7963
X3.7898Y-2.1255
X3.8132Y-1.4546
X3.9731Y-3.9481
X4.0382Y-2.9639
X4.0617Y-2.293
X4.0851Y-1.6222
X4.3967Y-4.0382
X4.471Y-2.979
X4.4945Y-2.3081
X4.5179Y-1.6373
X4.7608Y-4.1663
X5.1466Y-4.3629
T5
X1.5551Y-2.0276
X2.0039Y-3.5945
X4.7638Y-2.0177
T6
X3.1769Y-3.1465
X3.1769Y-3.2715
X3.3769Y-3.1465
X3.3769Y-3.2715
T7
X0.9289Y-2.4142
X1.0339Y-3.0772
X1.1389Y-3.7401
X1.3178Y-2.3526
X1.4228Y-3.0156
X1.5278Y-3.6786
X1.8131Y-1.7402
X1.8482Y-2.4105
X1.8834Y-3.0809
X2.2063Y-1.7196
X2.2414Y-2.3899
X2.2765Y-3.0602
X2.6406Y-2.8257
X2.6641Y-2.1549
X2.6875Y-1.484
X3.0341Y-2.8395
X3.0575Y-2.1686
X3.0809Y-1.4978
X3.187Y-4.0862
X3.3481Y-2.9294
X3.3715Y-2.2586
X3.3949Y-1.5877
X3.5802Y-4.0656
X3.7415Y-2.9432
X3.765Y-2.2723
X3.7884Y-1.6015
X3.9617Y-4.0966
X4.0528Y-3.1121
X4.0762Y-2.4412
X4.0996Y-1.7704
X4.3468Y-4.1785
X4.4462Y-3.1258
X4.4696Y-2.455
X4.4931Y-1.7841
X4.7113Y-4.3068
X5.0621Y-4.4855
T8
X1.1003Y-2.2375
X1.2053Y-2.9005
X1.3103Y-3.5635
X2.002Y-1.5824
X2.0371Y-2.2528
X2.0722Y-2.9231
X2.8425Y-2.685
X2.8659Y-2.0142
X2.8894Y-1.3433
X3.3759Y-3.9285
X3.55Y-2.7888
X3.5734Y-2.1179
X3.5968Y-1.4471
X4.1849Y-3.9932
X4.2546Y-2.9714
X4.2781Y-2.3006
X4.3015Y-1.6297
X4.9537Y-4.2646
M30
