%TF.GenerationSoftware,KiCad,Pcbnew,8.0.5*%
%TF.CreationDate,2024-09-13T23:35:35+02:00*%
%TF.ProjectId,woagboard,776f6167-626f-4617-9264-2e6b69636164,rev?*%
%TF.SameCoordinates,Original*%
%TF.FileFunction,Soldermask,Top*%
%TF.FilePolarity,Negative*%
%FSLAX46Y46*%
G04 Gerber Fmt 4.6, Leading zero omitted, Abs format (unit mm)*
G04 Created by KiCad (PCBNEW 8.0.5) date 2024-09-13 23:35:35*
%MOMM*%
%LPD*%
G01*
G04 APERTURE LIST*
G04 Aperture macros list*
%AMRoundRect*
0 Rectangle with rounded corners*
0 $1 Rounding radius*
0 $2 $3 $4 $5 $6 $7 $8 $9 X,Y pos of 4 corners*
0 Add a 4 corners polygon primitive as box body*
4,1,4,$2,$3,$4,$5,$6,$7,$8,$9,$2,$3,0*
0 Add four circle primitives for the rounded corners*
1,1,$1+$1,$2,$3*
1,1,$1+$1,$4,$5*
1,1,$1+$1,$6,$7*
1,1,$1+$1,$8,$9*
0 Add four rect primitives between the rounded corners*
20,1,$1+$1,$2,$3,$4,$5,0*
20,1,$1+$1,$4,$5,$6,$7,0*
20,1,$1+$1,$6,$7,$8,$9,0*
20,1,$1+$1,$8,$9,$2,$3,0*%
%AMFreePoly0*
4,1,19,0.500000,-0.750000,0.000000,-0.750000,0.000000,-0.744911,-0.071157,-0.744911,-0.207708,-0.704816,-0.327430,-0.627875,-0.420627,-0.520320,-0.479746,-0.390866,-0.500000,-0.250000,-0.500000,0.250000,-0.479746,0.390866,-0.420627,0.520320,-0.327430,0.627875,-0.207708,0.704816,-0.071157,0.744911,0.000000,0.744911,0.000000,0.750000,0.500000,0.750000,0.500000,-0.750000,0.500000,-0.750000,
$1*%
%AMFreePoly1*
4,1,19,0.000000,0.744911,0.071157,0.744911,0.207708,0.704816,0.327430,0.627875,0.420627,0.520320,0.479746,0.390866,0.500000,0.250000,0.500000,-0.250000,0.479746,-0.390866,0.420627,-0.520320,0.327430,-0.627875,0.207708,-0.704816,0.071157,-0.744911,0.000000,-0.744911,0.000000,-0.750000,-0.500000,-0.750000,-0.500000,0.750000,0.000000,0.750000,0.000000,0.744911,0.000000,0.744911,
$1*%
G04 Aperture macros list end*
%ADD10RoundRect,0.200000X0.200000X0.275000X-0.200000X0.275000X-0.200000X-0.275000X0.200000X-0.275000X0*%
%ADD11RoundRect,0.200000X-0.200000X-0.275000X0.200000X-0.275000X0.200000X0.275000X-0.200000X0.275000X0*%
%ADD12RoundRect,0.147500X0.147500X0.172500X-0.147500X0.172500X-0.147500X-0.172500X0.147500X-0.172500X0*%
%ADD13RoundRect,0.140000X-0.170000X0.140000X-0.170000X-0.140000X0.170000X-0.140000X0.170000X0.140000X0*%
%ADD14RoundRect,0.135000X-0.135000X-0.185000X0.135000X-0.185000X0.135000X0.185000X-0.135000X0.185000X0*%
%ADD15RoundRect,0.140000X-0.140000X-0.170000X0.140000X-0.170000X0.140000X0.170000X-0.140000X0.170000X0*%
%ADD16RoundRect,0.200000X0.200000X-0.500000X0.200000X0.500000X-0.200000X0.500000X-0.200000X-0.500000X0*%
%ADD17RoundRect,0.200000X0.500000X0.200000X-0.500000X0.200000X-0.500000X-0.200000X0.500000X-0.200000X0*%
%ADD18RoundRect,0.200000X0.200000X0.200000X-0.200000X0.200000X-0.200000X-0.200000X0.200000X-0.200000X0*%
%ADD19RoundRect,0.140000X0.140000X0.170000X-0.140000X0.170000X-0.140000X-0.170000X0.140000X-0.170000X0*%
%ADD20R,1.100000X0.600000*%
%ADD21R,1.700000X1.700000*%
%ADD22O,1.700000X1.700000*%
%ADD23RoundRect,0.135000X-0.185000X0.135000X-0.185000X-0.135000X0.185000X-0.135000X0.185000X0.135000X0*%
%ADD24C,0.600000*%
%ADD25C,2.400000*%
%ADD26RoundRect,0.135000X0.135000X0.185000X-0.135000X0.185000X-0.135000X-0.185000X0.135000X-0.185000X0*%
%ADD27C,0.900000*%
%ADD28RoundRect,0.102000X0.525000X-0.700000X0.525000X0.700000X-0.525000X0.700000X-0.525000X-0.700000X0*%
%ADD29FreePoly0,0.000000*%
%ADD30FreePoly1,0.000000*%
%ADD31C,0.700000*%
%ADD32R,0.550000X1.100000*%
%ADD33R,0.300000X1.100000*%
%ADD34O,1.100000X2.000000*%
%ADD35O,1.200000X1.800000*%
%ADD36RoundRect,0.243750X-0.456250X0.243750X-0.456250X-0.243750X0.456250X-0.243750X0.456250X0.243750X0*%
%ADD37RoundRect,0.218750X0.218750X0.256250X-0.218750X0.256250X-0.218750X-0.256250X0.218750X-0.256250X0*%
%ADD38RoundRect,0.102000X-0.525000X0.700000X-0.525000X-0.700000X0.525000X-0.700000X0.525000X0.700000X0*%
%ADD39RoundRect,0.062500X0.062500X-0.375000X0.062500X0.375000X-0.062500X0.375000X-0.062500X-0.375000X0*%
%ADD40RoundRect,0.062500X0.375000X-0.062500X0.375000X0.062500X-0.375000X0.062500X-0.375000X-0.062500X0*%
%ADD41R,1.600000X1.600000*%
%ADD42RoundRect,0.150000X0.512500X0.150000X-0.512500X0.150000X-0.512500X-0.150000X0.512500X-0.150000X0*%
%ADD43RoundRect,0.140000X0.170000X-0.140000X0.170000X0.140000X-0.170000X0.140000X-0.170000X-0.140000X0*%
%ADD44RoundRect,0.200000X-0.200000X0.500000X-0.200000X-0.500000X0.200000X-0.500000X0.200000X0.500000X0*%
%ADD45RoundRect,0.200000X-0.500000X-0.200000X0.500000X-0.200000X0.500000X0.200000X-0.500000X0.200000X0*%
%ADD46RoundRect,0.200000X-0.200000X-0.200000X0.200000X-0.200000X0.200000X0.200000X-0.200000X0.200000X0*%
%ADD47RoundRect,0.243750X0.456250X-0.243750X0.456250X0.243750X-0.456250X0.243750X-0.456250X-0.243750X0*%
%ADD48RoundRect,0.062500X0.375000X0.062500X-0.375000X0.062500X-0.375000X-0.062500X0.375000X-0.062500X0*%
%ADD49RoundRect,0.062500X0.062500X0.375000X-0.062500X0.375000X-0.062500X-0.375000X0.062500X-0.375000X0*%
%ADD50RoundRect,0.218750X-0.218750X-0.256250X0.218750X-0.256250X0.218750X0.256250X-0.218750X0.256250X0*%
%ADD51RoundRect,0.135000X0.185000X-0.135000X0.185000X0.135000X-0.185000X0.135000X-0.185000X-0.135000X0*%
%ADD52FreePoly0,180.000000*%
%ADD53FreePoly1,180.000000*%
%ADD54RoundRect,0.147500X-0.172500X0.147500X-0.172500X-0.147500X0.172500X-0.147500X0.172500X0.147500X0*%
%ADD55RoundRect,0.218750X-0.256250X0.218750X-0.256250X-0.218750X0.256250X-0.218750X0.256250X0.218750X0*%
%ADD56C,1.700000*%
%ADD57C,3.400000*%
%ADD58RoundRect,0.250000X-0.350000X-0.625000X0.350000X-0.625000X0.350000X0.625000X-0.350000X0.625000X0*%
%ADD59O,1.200000X1.750000*%
G04 APERTURE END LIST*
D10*
%TO.C,R18*%
X155075000Y-73000000D03*
X153425000Y-73000000D03*
%TD*%
D11*
%TO.C,R13*%
X133325000Y-80250000D03*
X131675000Y-80250000D03*
%TD*%
D12*
%TO.C,L1*%
X126735000Y-35250000D03*
X125765000Y-35250000D03*
%TD*%
D13*
%TO.C,C5*%
X123750000Y-63270000D03*
X123750000Y-64230000D03*
%TD*%
D14*
%TO.C,R4*%
X159740000Y-68250000D03*
X160760000Y-68250000D03*
%TD*%
D15*
%TO.C,C4*%
X166050000Y-54450000D03*
X167010000Y-54450000D03*
%TD*%
D16*
%TO.C,U5*%
X148933770Y-62193566D03*
X150203770Y-62193566D03*
X151473770Y-62193566D03*
X152743770Y-62193566D03*
X154013770Y-62193566D03*
X155283770Y-62193566D03*
X156553770Y-62193566D03*
X157823770Y-62193566D03*
X159093770Y-62193566D03*
X160363770Y-62193566D03*
D17*
X162663770Y-60433566D03*
D18*
X160863770Y-59803566D03*
D17*
X162663770Y-59163566D03*
D18*
X160863770Y-58533566D03*
D17*
X162663770Y-57893566D03*
D18*
X160863770Y-57263566D03*
D17*
X162663770Y-56623566D03*
D18*
X160863770Y-55993566D03*
D17*
X162663770Y-55353566D03*
D18*
X160863770Y-54723566D03*
D17*
X162663770Y-54083566D03*
D18*
X160863770Y-53453566D03*
D17*
X162663770Y-52813566D03*
D18*
X160863770Y-52183566D03*
D17*
X162663770Y-51543566D03*
D16*
X160363770Y-49793566D03*
X159093770Y-49793566D03*
D18*
X158458770Y-51593566D03*
D16*
X157823770Y-49793566D03*
D18*
X157188770Y-51593566D03*
D16*
X156553770Y-49793566D03*
D18*
X155918770Y-51593566D03*
D16*
X155283770Y-49793566D03*
D18*
X154648770Y-51593566D03*
D16*
X154013770Y-49793566D03*
D18*
X153378770Y-51593566D03*
D16*
X152743770Y-49793566D03*
D18*
X152108770Y-51593566D03*
D16*
X151473770Y-49793566D03*
D18*
X150838770Y-51593566D03*
D16*
X150203770Y-49793566D03*
D18*
X149568770Y-51593566D03*
D16*
X148933770Y-49793566D03*
%TD*%
D19*
%TO.C,C15*%
X119360000Y-49920000D03*
X118400000Y-49920000D03*
%TD*%
D20*
%TO.C,Y1*%
X118630000Y-52620000D03*
X118630000Y-51220000D03*
%TD*%
D21*
%TO.C,J2*%
X153028770Y-64743566D03*
D22*
X155568770Y-64743566D03*
X158108770Y-64743566D03*
X160648770Y-64743566D03*
X163188770Y-64743566D03*
%TD*%
D23*
%TO.C,R3*%
X127000000Y-73990000D03*
X127000000Y-75010000D03*
%TD*%
D19*
%TO.C,C6*%
X125280000Y-77000000D03*
X124320000Y-77000000D03*
%TD*%
D24*
%TO.C,Snap1*%
X139050000Y-93145000D03*
X139050000Y-94145000D03*
X139050000Y-95150000D03*
X139050000Y-96150000D03*
X139050000Y-97155000D03*
D25*
X141850000Y-95150000D03*
D24*
X144575000Y-93650000D03*
X144575000Y-94650000D03*
X144575000Y-95650000D03*
X144575000Y-96650000D03*
%TD*%
D20*
%TO.C,Y2*%
X165068770Y-59043566D03*
X165068770Y-60443566D03*
%TD*%
D13*
%TO.C,C13*%
X126750000Y-80970000D03*
X126750000Y-81930000D03*
%TD*%
D23*
%TO.C,R1*%
X128750000Y-33980000D03*
X128750000Y-35000000D03*
%TD*%
%TO.C,R6*%
X150568770Y-34733566D03*
X150568770Y-35753566D03*
%TD*%
D26*
%TO.C,R15*%
X155010000Y-74750000D03*
X153990000Y-74750000D03*
%TD*%
D24*
%TO.C,Snap2*%
X139050000Y-36195000D03*
X139050000Y-37195000D03*
X139050000Y-38200000D03*
X139050000Y-39200000D03*
X139050000Y-40205000D03*
D25*
X141850000Y-38200000D03*
D24*
X144575000Y-36700000D03*
X144575000Y-37700000D03*
X144575000Y-38700000D03*
X144575000Y-39700000D03*
%TD*%
D15*
%TO.C,C12*%
X119520000Y-64250000D03*
X120480000Y-64250000D03*
%TD*%
D27*
%TO.C,RST1*%
X136350000Y-73000000D03*
X138150000Y-73000000D03*
D28*
X136525000Y-74800000D03*
X136525000Y-71200000D03*
X137975000Y-74800000D03*
X137975000Y-71200000D03*
%TD*%
D29*
%TO.C,WOAG2*%
X159668770Y-33243566D03*
D30*
X160968770Y-33243566D03*
%TD*%
D31*
%TO.C,USB1*%
X133140000Y-30800000D03*
X127360000Y-30800000D03*
D32*
X133450000Y-31880000D03*
X132650000Y-31880000D03*
D33*
X132000000Y-31880000D03*
X131500000Y-31880000D03*
X131000000Y-31880000D03*
X130500000Y-31880000D03*
X130000000Y-31880000D03*
X129500000Y-31880000D03*
X129000000Y-31880000D03*
X128500000Y-31880000D03*
D32*
X127850000Y-31880000D03*
X127050000Y-31880000D03*
D34*
X134570000Y-31330000D03*
D35*
X134570000Y-27120000D03*
D34*
X125930000Y-31330000D03*
D35*
X125930000Y-27120000D03*
%TD*%
D21*
%TO.C,J4*%
X130000000Y-69250000D03*
D22*
X127460000Y-69250000D03*
X124920000Y-69250000D03*
X122380000Y-69250000D03*
X119840000Y-69250000D03*
%TD*%
D36*
%TO.C,LED2*%
X149500000Y-72312500D03*
X149500000Y-74187500D03*
%TD*%
D37*
%TO.C,L3*%
X121037500Y-63000000D03*
X119462500Y-63000000D03*
%TD*%
D26*
%TO.C,R17*%
X157491230Y-68206434D03*
X156471230Y-68206434D03*
%TD*%
D27*
%TO.C,RST2*%
X147400000Y-73250000D03*
X145600000Y-73250000D03*
D38*
X147225000Y-71450000D03*
X147225000Y-75050000D03*
X145775000Y-71450000D03*
X145775000Y-75050000D03*
%TD*%
D39*
%TO.C,U4*%
X157650000Y-72787500D03*
X158150000Y-72787500D03*
X158650000Y-72787500D03*
X159150000Y-72787500D03*
D40*
X159837500Y-72100000D03*
X159837500Y-71600000D03*
X159837500Y-71100000D03*
X159837500Y-70600000D03*
D39*
X159150000Y-69912500D03*
X158650000Y-69912500D03*
X158150000Y-69912500D03*
X157650000Y-69912500D03*
D40*
X156962500Y-70600000D03*
X156962500Y-71100000D03*
X156962500Y-71600000D03*
X156962500Y-72100000D03*
D41*
X158400000Y-71350000D03*
%TD*%
D19*
%TO.C,C1*%
X155461230Y-70200000D03*
X154501230Y-70200000D03*
%TD*%
D26*
%TO.C,R2*%
X133510000Y-33990000D03*
X132490000Y-33990000D03*
%TD*%
D42*
%TO.C,U2*%
X154706270Y-36806066D03*
X154706270Y-35856066D03*
X154706270Y-34906066D03*
X152431270Y-34906066D03*
X152431270Y-35856066D03*
X152431270Y-36806066D03*
%TD*%
D15*
%TO.C,C10*%
X164588770Y-57493566D03*
X165548770Y-57493566D03*
%TD*%
D43*
%TO.C,C8*%
X161318770Y-47953566D03*
X161318770Y-46993566D03*
%TD*%
D14*
%TO.C,R9*%
X131490000Y-78400000D03*
X132510000Y-78400000D03*
%TD*%
D26*
%TO.C,R16*%
X155491230Y-71450000D03*
X154471230Y-71450000D03*
%TD*%
D44*
%TO.C,U9*%
X134780000Y-49300000D03*
X133510000Y-49300000D03*
X132240000Y-49300000D03*
X130970000Y-49300000D03*
X129700000Y-49300000D03*
X128430000Y-49300000D03*
X127160000Y-49300000D03*
X125890000Y-49300000D03*
X124620000Y-49300000D03*
X123350000Y-49300000D03*
D45*
X121050000Y-51060000D03*
D46*
X122850000Y-51690000D03*
D45*
X121050000Y-52330000D03*
D46*
X122850000Y-52960000D03*
D45*
X121050000Y-53600000D03*
D46*
X122850000Y-54230000D03*
D45*
X121050000Y-54870000D03*
D46*
X122850000Y-55500000D03*
D45*
X121050000Y-56140000D03*
D46*
X122850000Y-56770000D03*
D45*
X121050000Y-57410000D03*
D46*
X122850000Y-58040000D03*
D45*
X121050000Y-58680000D03*
D46*
X122850000Y-59310000D03*
D45*
X121050000Y-59950000D03*
D44*
X123350000Y-61700000D03*
X124620000Y-61700000D03*
D46*
X125255000Y-59900000D03*
D44*
X125890000Y-61700000D03*
D46*
X126525000Y-59900000D03*
D44*
X127160000Y-61700000D03*
D46*
X127795000Y-59900000D03*
D44*
X128430000Y-61700000D03*
D46*
X129065000Y-59900000D03*
D44*
X129700000Y-61700000D03*
D46*
X130335000Y-59900000D03*
D44*
X130970000Y-61700000D03*
D46*
X131605000Y-59900000D03*
D44*
X132240000Y-61700000D03*
D46*
X132875000Y-59900000D03*
D44*
X133510000Y-61700000D03*
D46*
X134145000Y-59900000D03*
D44*
X134780000Y-61700000D03*
%TD*%
D19*
%TO.C,C16*%
X119110000Y-53920000D03*
X118150000Y-53920000D03*
%TD*%
D13*
%TO.C,C3*%
X158800000Y-74220000D03*
X158800000Y-75180000D03*
%TD*%
D47*
%TO.C,LED1*%
X133500000Y-73937500D03*
X133500000Y-72062500D03*
%TD*%
D48*
%TO.C,U3*%
X129787500Y-78850000D03*
X129787500Y-78350000D03*
X129787500Y-77850000D03*
X129787500Y-77350000D03*
D49*
X129100000Y-76662500D03*
X128600000Y-76662500D03*
X128100000Y-76662500D03*
X127600000Y-76662500D03*
D48*
X126912500Y-77350000D03*
X126912500Y-77850000D03*
X126912500Y-78350000D03*
X126912500Y-78850000D03*
D49*
X127600000Y-79537500D03*
X128100000Y-79537500D03*
X128600000Y-79537500D03*
X129100000Y-79537500D03*
D41*
X128350000Y-78100000D03*
%TD*%
D15*
%TO.C,C7*%
X131520000Y-77200000D03*
X132480000Y-77200000D03*
%TD*%
D31*
%TO.C,USB2*%
X156458770Y-30876066D03*
X150678770Y-30876066D03*
D32*
X156768770Y-31956066D03*
X155968770Y-31956066D03*
D33*
X155318770Y-31956066D03*
X154818770Y-31956066D03*
X154318770Y-31956066D03*
X153818770Y-31956066D03*
X153318770Y-31956066D03*
X152818770Y-31956066D03*
X152318770Y-31956066D03*
X151818770Y-31956066D03*
D32*
X151168770Y-31956066D03*
X150368770Y-31956066D03*
D34*
X157888770Y-31406066D03*
D35*
X157888770Y-27196066D03*
D34*
X149248770Y-31406066D03*
D35*
X149248770Y-27196066D03*
%TD*%
D50*
%TO.C,F2*%
X149031270Y-37493566D03*
X150606270Y-37493566D03*
%TD*%
D26*
%TO.C,R12*%
X125310000Y-78400000D03*
X124290000Y-78400000D03*
%TD*%
D15*
%TO.C,C9*%
X164588770Y-62243566D03*
X165548770Y-62243566D03*
%TD*%
D51*
%TO.C,R5*%
X157568770Y-35503566D03*
X157568770Y-34483566D03*
%TD*%
D13*
%TO.C,C2*%
X161550000Y-71476434D03*
X161550000Y-72436434D03*
%TD*%
D52*
%TO.C,WOAG1*%
X123650000Y-32750000D03*
D53*
X122350000Y-32750000D03*
%TD*%
D54*
%TO.C,L2*%
X149068770Y-34758566D03*
X149068770Y-35728566D03*
%TD*%
D23*
%TO.C,R11*%
X128000000Y-80940000D03*
X128000000Y-81960000D03*
%TD*%
D42*
%TO.C,U1*%
X131775000Y-38140000D03*
X131775000Y-37190000D03*
X131775000Y-36240000D03*
X129500000Y-36240000D03*
X129500000Y-37190000D03*
X129500000Y-38140000D03*
%TD*%
D50*
%TO.C,F1*%
X125712500Y-37240000D03*
X127287500Y-37240000D03*
%TD*%
D55*
%TO.C,L4*%
X165568770Y-51456066D03*
X165568770Y-53031066D03*
%TD*%
D56*
%TO.C,SW32*%
X236717242Y-74374780D03*
D57*
X231224780Y-74086932D03*
D56*
X225732318Y-73799084D03*
%TD*%
%TO.C,SW18*%
X131319891Y-114245863D03*
D57*
X126927396Y-110935880D03*
D56*
X122534901Y-107625897D03*
%TD*%
%TO.C,SW6*%
X25253160Y-75305702D03*
D57*
X30685446Y-74445312D03*
D56*
X36117732Y-73584922D03*
%TD*%
%TO.C,SW35*%
X169669169Y-102901460D03*
D57*
X174768680Y-100841124D03*
D56*
X179868191Y-98780788D03*
%TD*%
%TO.C,SW28*%
X258460448Y-75363244D03*
D57*
X253028162Y-74502854D03*
D56*
X247595876Y-73642464D03*
%TD*%
%TO.C,SW21*%
X216023662Y-33886301D03*
D57*
X210527012Y-34078248D03*
D56*
X205030362Y-34270195D03*
%TD*%
%TO.C,SW25*%
X198697726Y-53502923D03*
D57*
X193201076Y-53694870D03*
D56*
X187704426Y-53886817D03*
%TD*%
%TO.C,SW16*%
X83587734Y-94941459D03*
D57*
X89046738Y-95611740D03*
D56*
X94505742Y-96282021D03*
%TD*%
%TO.C,SW29*%
X181371772Y-73119530D03*
D57*
X175875122Y-73311477D03*
D56*
X170378472Y-73503424D03*
%TD*%
%TO.C,SW27*%
X237606964Y-57398087D03*
D57*
X232114502Y-57110239D03*
D56*
X226622040Y-56822391D03*
%TD*%
%TO.C,SW10*%
X102935116Y-56072357D03*
D57*
X108431766Y-56264304D03*
D56*
X113928416Y-56456251D03*
%TD*%
%TO.C,SW17*%
X103845399Y-98723246D03*
D57*
X108944910Y-100783582D03*
D56*
X114044421Y-102843918D03*
%TD*%
%TO.C,SW11*%
X27912534Y-92096414D03*
D57*
X33344820Y-91236024D03*
D56*
X38777106Y-90375634D03*
%TD*%
%TO.C,SW26*%
X216616960Y-50875948D03*
D57*
X211120310Y-51067895D03*
D56*
X205623660Y-51259842D03*
%TD*%
%TO.C,SW33*%
X255801056Y-92153956D03*
D57*
X250368770Y-91293566D03*
D56*
X244936484Y-90433176D03*
%TD*%
%TO.C,SW1*%
X22593768Y-58515006D03*
D57*
X28026054Y-57654616D03*
D56*
X33458340Y-56794226D03*
%TD*%
D58*
%TO.C,J1*%
X153568770Y-87443566D03*
D59*
X155568770Y-87443566D03*
%TD*%
D56*
%TO.C,SW15*%
X113335118Y-73445882D03*
D57*
X107838468Y-73253935D03*
D56*
X102341818Y-73061988D03*
%TD*%
%TO.C,SW12*%
X46996348Y-74317238D03*
D57*
X52488810Y-74029390D03*
D56*
X57981272Y-73741542D03*
%TD*%
%TO.C,SW20*%
X198104428Y-36513276D03*
D57*
X192607778Y-36705223D03*
D56*
X187111128Y-36897170D03*
%TD*%
D58*
%TO.C,J3*%
X127000000Y-87500000D03*
D59*
X129000000Y-87500000D03*
%TD*%
D56*
%TO.C,SW13*%
X66503350Y-67808053D03*
D57*
X72000000Y-68000000D03*
D56*
X77496650Y-68191947D03*
%TD*%
%TO.C,SW24*%
X180778492Y-56129899D03*
D57*
X175281842Y-56321846D03*
D56*
X169785192Y-56513793D03*
%TD*%
%TO.C,SW8*%
X67096630Y-50818406D03*
D57*
X72593280Y-51010353D03*
D56*
X78089930Y-51202300D03*
%TD*%
%TO.C,SW9*%
X85015882Y-53445381D03*
D57*
X90512532Y-53637328D03*
D56*
X96009182Y-53829275D03*
%TD*%
%TO.C,SW23*%
X261119822Y-58572548D03*
D57*
X255687536Y-57712158D03*
D56*
X250255250Y-56851768D03*
%TD*%
%TO.C,SW30*%
X199291006Y-70492570D03*
D57*
X193794356Y-70684517D03*
D56*
X188297706Y-70876464D03*
%TD*%
%TO.C,SW22*%
X238496668Y-40421376D03*
D57*
X233004206Y-40133528D03*
D56*
X227511744Y-39845680D03*
%TD*%
%TO.C,SW7*%
X46106644Y-57340545D03*
D57*
X51599106Y-57052697D03*
D56*
X57091568Y-56764849D03*
%TD*%
%TO.C,SW36*%
X152393717Y-114303405D03*
D57*
X156786212Y-110993422D03*
D56*
X161178707Y-107683439D03*
%TD*%
%TO.C,SW2*%
X45216922Y-40363834D03*
D57*
X50709384Y-40075986D03*
D56*
X56201846Y-39788138D03*
%TD*%
%TO.C,SW34*%
X189207848Y-96339563D03*
D57*
X194666852Y-95669282D03*
D56*
X200125856Y-94999001D03*
%TD*%
%TO.C,SW3*%
X67689928Y-33828759D03*
D57*
X73186578Y-34020706D03*
D56*
X78683228Y-34212653D03*
%TD*%
%TO.C,SW4*%
X85609162Y-36455734D03*
D57*
X91105812Y-36647681D03*
D56*
X96602462Y-36839628D03*
%TD*%
%TO.C,SW31*%
X217210240Y-67865595D03*
D57*
X211713590Y-68057542D03*
D56*
X206216940Y-68249489D03*
%TD*%
%TO.C,SW14*%
X84422584Y-70435028D03*
D57*
X89919234Y-70626975D03*
D56*
X95415884Y-70818922D03*
%TD*%
%TO.C,SW5*%
X103528396Y-39082710D03*
D57*
X109025046Y-39274657D03*
D56*
X114521696Y-39466604D03*
%TD*%
%TO.C,SW19*%
X180185194Y-39140252D03*
D57*
X174688544Y-39332199D03*
D56*
X169191894Y-39524146D03*
%TD*%
M02*
