%TF.GenerationSoftware,KiCad,Pcbnew,8.0.5*%
%TF.CreationDate,2024-09-13T23:35:35+02:00*%
%TF.ProjectId,woagboard,776f6167-626f-4617-9264-2e6b69636164,rev?*%
%TF.SameCoordinates,Original*%
%TF.FileFunction,Paste,Top*%
%TF.FilePolarity,Positive*%
%FSLAX46Y46*%
G04 Gerber Fmt 4.6, Leading zero omitted, Abs format (unit mm)*
G04 Created by KiCad (PCBNEW 8.0.5) date 2024-09-13 23:35:35*
%MOMM*%
%LPD*%
G01*
G04 APERTURE LIST*
G04 Aperture macros list*
%AMRoundRect*
0 Rectangle with rounded corners*
0 $1 Rounding radius*
0 $2 $3 $4 $5 $6 $7 $8 $9 X,Y pos of 4 corners*
0 Add a 4 corners polygon primitive as box body*
4,1,4,$2,$3,$4,$5,$6,$7,$8,$9,$2,$3,0*
0 Add four circle primitives for the rounded corners*
1,1,$1+$1,$2,$3*
1,1,$1+$1,$4,$5*
1,1,$1+$1,$6,$7*
1,1,$1+$1,$8,$9*
0 Add four rect primitives between the rounded corners*
20,1,$1+$1,$2,$3,$4,$5,0*
20,1,$1+$1,$4,$5,$6,$7,0*
20,1,$1+$1,$6,$7,$8,$9,0*
20,1,$1+$1,$8,$9,$2,$3,0*%
G04 Aperture macros list end*
%ADD10RoundRect,0.200000X0.200000X0.275000X-0.200000X0.275000X-0.200000X-0.275000X0.200000X-0.275000X0*%
%ADD11RoundRect,0.200000X-0.200000X-0.275000X0.200000X-0.275000X0.200000X0.275000X-0.200000X0.275000X0*%
%ADD12RoundRect,0.147500X0.147500X0.172500X-0.147500X0.172500X-0.147500X-0.172500X0.147500X-0.172500X0*%
%ADD13RoundRect,0.140000X-0.170000X0.140000X-0.170000X-0.140000X0.170000X-0.140000X0.170000X0.140000X0*%
%ADD14RoundRect,0.135000X-0.135000X-0.185000X0.135000X-0.185000X0.135000X0.185000X-0.135000X0.185000X0*%
%ADD15RoundRect,0.140000X-0.140000X-0.170000X0.140000X-0.170000X0.140000X0.170000X-0.140000X0.170000X0*%
%ADD16RoundRect,0.200000X0.200000X-0.500000X0.200000X0.500000X-0.200000X0.500000X-0.200000X-0.500000X0*%
%ADD17RoundRect,0.200000X0.500000X0.200000X-0.500000X0.200000X-0.500000X-0.200000X0.500000X-0.200000X0*%
%ADD18RoundRect,0.200000X0.200000X0.200000X-0.200000X0.200000X-0.200000X-0.200000X0.200000X-0.200000X0*%
%ADD19RoundRect,0.140000X0.140000X0.170000X-0.140000X0.170000X-0.140000X-0.170000X0.140000X-0.170000X0*%
%ADD20R,1.100000X0.600000*%
%ADD21RoundRect,0.135000X-0.185000X0.135000X-0.185000X-0.135000X0.185000X-0.135000X0.185000X0.135000X0*%
%ADD22RoundRect,0.135000X0.135000X0.185000X-0.135000X0.185000X-0.135000X-0.185000X0.135000X-0.185000X0*%
%ADD23R,1.050000X1.400000*%
%ADD24R,0.550000X1.100000*%
%ADD25R,0.300000X1.100000*%
%ADD26RoundRect,0.243750X-0.456250X0.243750X-0.456250X-0.243750X0.456250X-0.243750X0.456250X0.243750X0*%
%ADD27RoundRect,0.218750X0.218750X0.256250X-0.218750X0.256250X-0.218750X-0.256250X0.218750X-0.256250X0*%
%ADD28RoundRect,0.160000X0.160000X-0.160000X0.160000X0.160000X-0.160000X0.160000X-0.160000X-0.160000X0*%
%ADD29RoundRect,0.062500X0.062500X-0.375000X0.062500X0.375000X-0.062500X0.375000X-0.062500X-0.375000X0*%
%ADD30RoundRect,0.062500X0.375000X-0.062500X0.375000X0.062500X-0.375000X0.062500X-0.375000X-0.062500X0*%
%ADD31RoundRect,0.150000X0.512500X0.150000X-0.512500X0.150000X-0.512500X-0.150000X0.512500X-0.150000X0*%
%ADD32RoundRect,0.140000X0.170000X-0.140000X0.170000X0.140000X-0.170000X0.140000X-0.170000X-0.140000X0*%
%ADD33RoundRect,0.200000X-0.200000X0.500000X-0.200000X-0.500000X0.200000X-0.500000X0.200000X0.500000X0*%
%ADD34RoundRect,0.200000X-0.500000X-0.200000X0.500000X-0.200000X0.500000X0.200000X-0.500000X0.200000X0*%
%ADD35RoundRect,0.200000X-0.200000X-0.200000X0.200000X-0.200000X0.200000X0.200000X-0.200000X0.200000X0*%
%ADD36RoundRect,0.243750X0.456250X-0.243750X0.456250X0.243750X-0.456250X0.243750X-0.456250X-0.243750X0*%
%ADD37RoundRect,0.160000X0.160000X0.160000X-0.160000X0.160000X-0.160000X-0.160000X0.160000X-0.160000X0*%
%ADD38RoundRect,0.062500X0.375000X0.062500X-0.375000X0.062500X-0.375000X-0.062500X0.375000X-0.062500X0*%
%ADD39RoundRect,0.062500X0.062500X0.375000X-0.062500X0.375000X-0.062500X-0.375000X0.062500X-0.375000X0*%
%ADD40RoundRect,0.218750X-0.218750X-0.256250X0.218750X-0.256250X0.218750X0.256250X-0.218750X0.256250X0*%
%ADD41RoundRect,0.135000X0.185000X-0.135000X0.185000X0.135000X-0.185000X0.135000X-0.185000X-0.135000X0*%
%ADD42RoundRect,0.147500X-0.172500X0.147500X-0.172500X-0.147500X0.172500X-0.147500X0.172500X0.147500X0*%
%ADD43RoundRect,0.218750X-0.256250X0.218750X-0.256250X-0.218750X0.256250X-0.218750X0.256250X0.218750X0*%
G04 APERTURE END LIST*
D10*
%TO.C,R18*%
X155075000Y-73000000D03*
X153425000Y-73000000D03*
%TD*%
D11*
%TO.C,R13*%
X133325000Y-80250000D03*
X131675000Y-80250000D03*
%TD*%
D12*
%TO.C,L1*%
X126735000Y-35250000D03*
X125765000Y-35250000D03*
%TD*%
D13*
%TO.C,C5*%
X123750000Y-63270000D03*
X123750000Y-64230000D03*
%TD*%
D14*
%TO.C,R4*%
X159740000Y-68250000D03*
X160760000Y-68250000D03*
%TD*%
D15*
%TO.C,C4*%
X166050000Y-54450000D03*
X167010000Y-54450000D03*
%TD*%
D16*
%TO.C,U5*%
X148933770Y-62193566D03*
X150203770Y-62193566D03*
X151473770Y-62193566D03*
X152743770Y-62193566D03*
X154013770Y-62193566D03*
X155283770Y-62193566D03*
X156553770Y-62193566D03*
X157823770Y-62193566D03*
X159093770Y-62193566D03*
X160363770Y-62193566D03*
D17*
X162663770Y-60433566D03*
D18*
X160863770Y-59803566D03*
D17*
X162663770Y-59163566D03*
D18*
X160863770Y-58533566D03*
D17*
X162663770Y-57893566D03*
D18*
X160863770Y-57263566D03*
D17*
X162663770Y-56623566D03*
D18*
X160863770Y-55993566D03*
D17*
X162663770Y-55353566D03*
D18*
X160863770Y-54723566D03*
D17*
X162663770Y-54083566D03*
D18*
X160863770Y-53453566D03*
D17*
X162663770Y-52813566D03*
D18*
X160863770Y-52183566D03*
D17*
X162663770Y-51543566D03*
D16*
X160363770Y-49793566D03*
X159093770Y-49793566D03*
D18*
X158458770Y-51593566D03*
D16*
X157823770Y-49793566D03*
D18*
X157188770Y-51593566D03*
D16*
X156553770Y-49793566D03*
D18*
X155918770Y-51593566D03*
D16*
X155283770Y-49793566D03*
D18*
X154648770Y-51593566D03*
D16*
X154013770Y-49793566D03*
D18*
X153378770Y-51593566D03*
D16*
X152743770Y-49793566D03*
D18*
X152108770Y-51593566D03*
D16*
X151473770Y-49793566D03*
D18*
X150838770Y-51593566D03*
D16*
X150203770Y-49793566D03*
D18*
X149568770Y-51593566D03*
D16*
X148933770Y-49793566D03*
%TD*%
D19*
%TO.C,C15*%
X119360000Y-49920000D03*
X118400000Y-49920000D03*
%TD*%
D20*
%TO.C,Y1*%
X118630000Y-52620000D03*
X118630000Y-51220000D03*
%TD*%
D21*
%TO.C,R3*%
X127000000Y-73990000D03*
X127000000Y-75010000D03*
%TD*%
D19*
%TO.C,C6*%
X125280000Y-77000000D03*
X124320000Y-77000000D03*
%TD*%
D20*
%TO.C,Y2*%
X165068770Y-59043566D03*
X165068770Y-60443566D03*
%TD*%
D13*
%TO.C,C13*%
X126750000Y-80970000D03*
X126750000Y-81930000D03*
%TD*%
D21*
%TO.C,R1*%
X128750000Y-33980000D03*
X128750000Y-35000000D03*
%TD*%
%TO.C,R6*%
X150568770Y-34733566D03*
X150568770Y-35753566D03*
%TD*%
D22*
%TO.C,R15*%
X155010000Y-74750000D03*
X153990000Y-74750000D03*
%TD*%
D15*
%TO.C,C12*%
X119520000Y-64250000D03*
X120480000Y-64250000D03*
%TD*%
D23*
%TO.C,RST1*%
X136525000Y-74800000D03*
X136525000Y-71200000D03*
X137975000Y-74800000D03*
X137975000Y-71200000D03*
%TD*%
D24*
%TO.C,USB1*%
X133450000Y-31880000D03*
X132650000Y-31880000D03*
D25*
X132000000Y-31880000D03*
X131500000Y-31880000D03*
X131000000Y-31880000D03*
X130500000Y-31880000D03*
X130000000Y-31880000D03*
X129500000Y-31880000D03*
X129000000Y-31880000D03*
X128500000Y-31880000D03*
D24*
X127850000Y-31880000D03*
X127050000Y-31880000D03*
%TD*%
D26*
%TO.C,LED2*%
X149500000Y-72312500D03*
X149500000Y-74187500D03*
%TD*%
D27*
%TO.C,L3*%
X121037500Y-63000000D03*
X119462500Y-63000000D03*
%TD*%
D22*
%TO.C,R17*%
X157491230Y-68206434D03*
X156471230Y-68206434D03*
%TD*%
D23*
%TO.C,RST2*%
X147225000Y-71450000D03*
X147225000Y-75050000D03*
X145775000Y-71450000D03*
X145775000Y-75050000D03*
%TD*%
D28*
%TO.C,U4*%
X158000000Y-71750000D03*
X158800000Y-71750000D03*
X158000000Y-70950000D03*
X158800000Y-70950000D03*
D29*
X157650000Y-72787500D03*
X158150000Y-72787500D03*
X158650000Y-72787500D03*
X159150000Y-72787500D03*
D30*
X159837500Y-72100000D03*
X159837500Y-71600000D03*
X159837500Y-71100000D03*
X159837500Y-70600000D03*
D29*
X159150000Y-69912500D03*
X158650000Y-69912500D03*
X158150000Y-69912500D03*
X157650000Y-69912500D03*
D30*
X156962500Y-70600000D03*
X156962500Y-71100000D03*
X156962500Y-71600000D03*
X156962500Y-72100000D03*
%TD*%
D19*
%TO.C,C1*%
X155461230Y-70200000D03*
X154501230Y-70200000D03*
%TD*%
D22*
%TO.C,R2*%
X133510000Y-33990000D03*
X132490000Y-33990000D03*
%TD*%
D31*
%TO.C,U2*%
X154706270Y-36806066D03*
X154706270Y-35856066D03*
X154706270Y-34906066D03*
X152431270Y-34906066D03*
X152431270Y-35856066D03*
X152431270Y-36806066D03*
%TD*%
D15*
%TO.C,C10*%
X164588770Y-57493566D03*
X165548770Y-57493566D03*
%TD*%
D32*
%TO.C,C8*%
X161318770Y-47953566D03*
X161318770Y-46993566D03*
%TD*%
D14*
%TO.C,R9*%
X131490000Y-78400000D03*
X132510000Y-78400000D03*
%TD*%
D22*
%TO.C,R16*%
X155491230Y-71450000D03*
X154471230Y-71450000D03*
%TD*%
D33*
%TO.C,U9*%
X134780000Y-49300000D03*
X133510000Y-49300000D03*
X132240000Y-49300000D03*
X130970000Y-49300000D03*
X129700000Y-49300000D03*
X128430000Y-49300000D03*
X127160000Y-49300000D03*
X125890000Y-49300000D03*
X124620000Y-49300000D03*
X123350000Y-49300000D03*
D34*
X121050000Y-51060000D03*
D35*
X122850000Y-51690000D03*
D34*
X121050000Y-52330000D03*
D35*
X122850000Y-52960000D03*
D34*
X121050000Y-53600000D03*
D35*
X122850000Y-54230000D03*
D34*
X121050000Y-54870000D03*
D35*
X122850000Y-55500000D03*
D34*
X121050000Y-56140000D03*
D35*
X122850000Y-56770000D03*
D34*
X121050000Y-57410000D03*
D35*
X122850000Y-58040000D03*
D34*
X121050000Y-58680000D03*
D35*
X122850000Y-59310000D03*
D34*
X121050000Y-59950000D03*
D33*
X123350000Y-61700000D03*
X124620000Y-61700000D03*
D35*
X125255000Y-59900000D03*
D33*
X125890000Y-61700000D03*
D35*
X126525000Y-59900000D03*
D33*
X127160000Y-61700000D03*
D35*
X127795000Y-59900000D03*
D33*
X128430000Y-61700000D03*
D35*
X129065000Y-59900000D03*
D33*
X129700000Y-61700000D03*
D35*
X130335000Y-59900000D03*
D33*
X130970000Y-61700000D03*
D35*
X131605000Y-59900000D03*
D33*
X132240000Y-61700000D03*
D35*
X132875000Y-59900000D03*
D33*
X133510000Y-61700000D03*
D35*
X134145000Y-59900000D03*
D33*
X134780000Y-61700000D03*
%TD*%
D19*
%TO.C,C16*%
X119110000Y-53920000D03*
X118150000Y-53920000D03*
%TD*%
D13*
%TO.C,C3*%
X158800000Y-74220000D03*
X158800000Y-75180000D03*
%TD*%
D36*
%TO.C,LED1*%
X133500000Y-73937500D03*
X133500000Y-72062500D03*
%TD*%
D37*
%TO.C,U3*%
X128750000Y-78500000D03*
X128750000Y-77700000D03*
X127950000Y-78500000D03*
X127950000Y-77700000D03*
D38*
X129787500Y-78850000D03*
X129787500Y-78350000D03*
X129787500Y-77850000D03*
X129787500Y-77350000D03*
D39*
X129100000Y-76662500D03*
X128600000Y-76662500D03*
X128100000Y-76662500D03*
X127600000Y-76662500D03*
D38*
X126912500Y-77350000D03*
X126912500Y-77850000D03*
X126912500Y-78350000D03*
X126912500Y-78850000D03*
D39*
X127600000Y-79537500D03*
X128100000Y-79537500D03*
X128600000Y-79537500D03*
X129100000Y-79537500D03*
%TD*%
D15*
%TO.C,C7*%
X131520000Y-77200000D03*
X132480000Y-77200000D03*
%TD*%
D24*
%TO.C,USB2*%
X156768770Y-31956066D03*
X155968770Y-31956066D03*
D25*
X155318770Y-31956066D03*
X154818770Y-31956066D03*
X154318770Y-31956066D03*
X153818770Y-31956066D03*
X153318770Y-31956066D03*
X152818770Y-31956066D03*
X152318770Y-31956066D03*
X151818770Y-31956066D03*
D24*
X151168770Y-31956066D03*
X150368770Y-31956066D03*
%TD*%
D40*
%TO.C,F2*%
X149031270Y-37493566D03*
X150606270Y-37493566D03*
%TD*%
D22*
%TO.C,R12*%
X125310000Y-78400000D03*
X124290000Y-78400000D03*
%TD*%
D15*
%TO.C,C9*%
X164588770Y-62243566D03*
X165548770Y-62243566D03*
%TD*%
D41*
%TO.C,R5*%
X157568770Y-35503566D03*
X157568770Y-34483566D03*
%TD*%
D13*
%TO.C,C2*%
X161550000Y-71476434D03*
X161550000Y-72436434D03*
%TD*%
D42*
%TO.C,L2*%
X149068770Y-34758566D03*
X149068770Y-35728566D03*
%TD*%
D21*
%TO.C,R11*%
X128000000Y-80940000D03*
X128000000Y-81960000D03*
%TD*%
D31*
%TO.C,U1*%
X131775000Y-38140000D03*
X131775000Y-37190000D03*
X131775000Y-36240000D03*
X129500000Y-36240000D03*
X129500000Y-37190000D03*
X129500000Y-38140000D03*
%TD*%
D40*
%TO.C,F1*%
X125712500Y-37240000D03*
X127287500Y-37240000D03*
%TD*%
D43*
%TO.C,L4*%
X165568770Y-51456066D03*
X165568770Y-53031066D03*
%TD*%
M02*
