%TF.GenerationSoftware,KiCad,Pcbnew,8.0.5*%
%TF.CreationDate,2024-09-15T16:43:43+02:00*%
%TF.ProjectId,woagboard,776f6167-626f-4617-9264-2e6b69636164,rev?*%
%TF.SameCoordinates,Original*%
%TF.FileFunction,Legend,Bot*%
%TF.FilePolarity,Positive*%
%FSLAX46Y46*%
G04 Gerber Fmt 4.6, Leading zero omitted, Abs format (unit mm)*
G04 Created by KiCad (PCBNEW 8.0.5) date 2024-09-15 16:43:43*
%MOMM*%
%LPD*%
G01*
G04 APERTURE LIST*
G04 Aperture macros list*
%AMRoundRect*
0 Rectangle with rounded corners*
0 $1 Rounding radius*
0 $2 $3 $4 $5 $6 $7 $8 $9 X,Y pos of 4 corners*
0 Add a 4 corners polygon primitive as box body*
4,1,4,$2,$3,$4,$5,$6,$7,$8,$9,$2,$3,0*
0 Add four circle primitives for the rounded corners*
1,1,$1+$1,$2,$3*
1,1,$1+$1,$4,$5*
1,1,$1+$1,$6,$7*
1,1,$1+$1,$8,$9*
0 Add four rect primitives between the rounded corners*
20,1,$1+$1,$2,$3,$4,$5,0*
20,1,$1+$1,$4,$5,$6,$7,0*
20,1,$1+$1,$6,$7,$8,$9,0*
20,1,$1+$1,$8,$9,$2,$3,0*%
G04 Aperture macros list end*
%ADD10C,0.150000*%
%ADD11C,0.200000*%
%ADD12C,0.300000*%
%ADD13C,0.120000*%
%ADD14R,1.700000X1.700000*%
%ADD15O,1.700000X1.700000*%
%ADD16C,0.600000*%
%ADD17C,2.400000*%
%ADD18C,0.900000*%
%ADD19C,0.700000*%
%ADD20O,1.100000X2.000000*%
%ADD21O,1.200000X1.800000*%
%ADD22C,1.700000*%
%ADD23C,3.400000*%
%ADD24C,3.300000*%
%ADD25RoundRect,0.260000X1.117970X0.982837X-1.009111X1.094313X-1.117970X-0.982837X1.009111X-1.094313X0*%
%ADD26RoundRect,0.260000X1.476434X0.189648X-0.224659X1.471514X-1.476434X-0.189648X0.224659X-1.471514X0*%
%ADD27RoundRect,0.260000X-0.889196X-1.193799X1.214580X-0.860593X0.889196X1.193799X-1.214580X0.860593X0*%
%ADD28RoundRect,0.260000X-0.597860X-1.363227X1.377042X-0.565315X0.597860X1.363227X-1.377042X0.565315X0*%
%ADD29RoundRect,0.260000X1.214580X0.860593X-0.889196X1.193799X-1.214580X-0.860593X0.889196X-1.193799X0*%
%ADD30RoundRect,0.260000X1.028056X1.076534X-1.100647X1.002198X-1.028056X-1.076534X1.100647X-1.002198X0*%
%ADD31RoundRect,0.260000X-1.183806X-0.902457X0.930318X-1.162039X1.183806X0.902457X-0.930318X1.162039X0*%
%ADD32RoundRect,0.260000X-1.100647X-1.002198X1.028056X-1.076534X1.100647X1.002198X-1.028056X1.076534X0*%
%ADD33RoundRect,0.260000X-1.377042X-0.565315X0.597860X-1.363227X1.377042X0.565315X-0.597860X1.363227X0*%
%ADD34RoundRect,0.250000X-0.625000X0.350000X-0.625000X-0.350000X0.625000X-0.350000X0.625000X0.350000X0*%
%ADD35O,1.750000X1.200000*%
%ADD36RoundRect,0.260000X1.100647X1.002198X-1.028056X1.076534X-1.100647X-1.002198X1.028056X-1.076534X0*%
%ADD37RoundRect,0.260000X-1.009111X-1.094313X1.117970X-0.982837X1.009111X1.094313X-1.117970X0.982837X0*%
%ADD38RoundRect,0.250000X0.625000X-0.350000X0.625000X0.350000X-0.625000X0.350000X-0.625000X-0.350000X0*%
%ADD39RoundRect,0.260000X-0.224659X-1.471514X1.476434X-0.189648X0.224659X1.471514X-1.476434X0.189648X0*%
%ADD40RoundRect,0.260000X-0.930318X-1.162039X1.183806X-0.902457X0.930318X1.162039X-1.183806X0.902457X0*%
G04 APERTURE END LIST*
D10*
X129322200Y-71039160D02*
X129369819Y-71182017D01*
X129369819Y-71182017D02*
X129369819Y-71420112D01*
X129369819Y-71420112D02*
X129322200Y-71515350D01*
X129322200Y-71515350D02*
X129274580Y-71562969D01*
X129274580Y-71562969D02*
X129179342Y-71610588D01*
X129179342Y-71610588D02*
X129084104Y-71610588D01*
X129084104Y-71610588D02*
X128988866Y-71562969D01*
X128988866Y-71562969D02*
X128941247Y-71515350D01*
X128941247Y-71515350D02*
X128893628Y-71420112D01*
X128893628Y-71420112D02*
X128846009Y-71229636D01*
X128846009Y-71229636D02*
X128798390Y-71134398D01*
X128798390Y-71134398D02*
X128750771Y-71086779D01*
X128750771Y-71086779D02*
X128655533Y-71039160D01*
X128655533Y-71039160D02*
X128560295Y-71039160D01*
X128560295Y-71039160D02*
X128465057Y-71086779D01*
X128465057Y-71086779D02*
X128417438Y-71134398D01*
X128417438Y-71134398D02*
X128369819Y-71229636D01*
X128369819Y-71229636D02*
X128369819Y-71467731D01*
X128369819Y-71467731D02*
X128417438Y-71610588D01*
X128369819Y-71943922D02*
X129369819Y-72182017D01*
X129369819Y-72182017D02*
X128655533Y-72372493D01*
X128655533Y-72372493D02*
X129369819Y-72562969D01*
X129369819Y-72562969D02*
X128369819Y-72801065D01*
X129369819Y-73182017D02*
X128369819Y-73182017D01*
X128369819Y-73182017D02*
X128369819Y-73420112D01*
X128369819Y-73420112D02*
X128417438Y-73562969D01*
X128417438Y-73562969D02*
X128512676Y-73658207D01*
X128512676Y-73658207D02*
X128607914Y-73705826D01*
X128607914Y-73705826D02*
X128798390Y-73753445D01*
X128798390Y-73753445D02*
X128941247Y-73753445D01*
X128941247Y-73753445D02*
X129131723Y-73705826D01*
X129131723Y-73705826D02*
X129226961Y-73658207D01*
X129226961Y-73658207D02*
X129322200Y-73562969D01*
X129322200Y-73562969D02*
X129369819Y-73420112D01*
X129369819Y-73420112D02*
X129369819Y-73182017D01*
X129274580Y-74753445D02*
X129322200Y-74705826D01*
X129322200Y-74705826D02*
X129369819Y-74562969D01*
X129369819Y-74562969D02*
X129369819Y-74467731D01*
X129369819Y-74467731D02*
X129322200Y-74324874D01*
X129322200Y-74324874D02*
X129226961Y-74229636D01*
X129226961Y-74229636D02*
X129131723Y-74182017D01*
X129131723Y-74182017D02*
X128941247Y-74134398D01*
X128941247Y-74134398D02*
X128798390Y-74134398D01*
X128798390Y-74134398D02*
X128607914Y-74182017D01*
X128607914Y-74182017D02*
X128512676Y-74229636D01*
X128512676Y-74229636D02*
X128417438Y-74324874D01*
X128417438Y-74324874D02*
X128369819Y-74467731D01*
X128369819Y-74467731D02*
X128369819Y-74562969D01*
X128369819Y-74562969D02*
X128417438Y-74705826D01*
X128417438Y-74705826D02*
X128465057Y-74753445D01*
X129369819Y-75658207D02*
X129369819Y-75182017D01*
X129369819Y-75182017D02*
X128369819Y-75182017D01*
X129369819Y-75991541D02*
X128369819Y-75991541D01*
X129369819Y-76562969D02*
X128798390Y-76134398D01*
X128369819Y-76562969D02*
X128941247Y-75991541D01*
D11*
G36*
X78825794Y-89584060D02*
G01*
X78958260Y-89521013D01*
X78965876Y-89512884D01*
X79021456Y-89374072D01*
X79021173Y-89363972D01*
X78886553Y-86879267D01*
X78829732Y-86742563D01*
X78822502Y-86735143D01*
X78684586Y-86680247D01*
X78673629Y-86680578D01*
X78578269Y-86709055D01*
X78505659Y-86779630D01*
X77288213Y-88792231D01*
X77192879Y-86973164D01*
X77135781Y-86838035D01*
X77124285Y-86826344D01*
X76987299Y-86769522D01*
X76970907Y-86769813D01*
X76836031Y-86833632D01*
X76828668Y-86841836D01*
X76774676Y-86983058D01*
X76774988Y-86993598D01*
X76905065Y-89475607D01*
X76964581Y-89614534D01*
X76972157Y-89621772D01*
X77112107Y-89673638D01*
X77123072Y-89673296D01*
X77216892Y-89643432D01*
X77290927Y-89572048D01*
X78506437Y-87606507D01*
X78604244Y-89388758D01*
X78665617Y-89526212D01*
X78673455Y-89533345D01*
X78814824Y-89584405D01*
X78825794Y-89584060D01*
G37*
G36*
X75222349Y-86877819D02*
G01*
X75382095Y-86911476D01*
X75537705Y-86971214D01*
X75670471Y-87044879D01*
X75743578Y-87095149D01*
X75863475Y-87194964D01*
X75973136Y-87309851D01*
X76072563Y-87439810D01*
X76161755Y-87584841D01*
X76185025Y-87628752D01*
X76246917Y-87764270D01*
X76296930Y-87905467D01*
X76335066Y-88052342D01*
X76361324Y-88204895D01*
X76375705Y-88363127D01*
X76378405Y-88456869D01*
X76372225Y-88616027D01*
X76352167Y-88768960D01*
X76318230Y-88915669D01*
X76270414Y-89056153D01*
X76200690Y-89205408D01*
X76116671Y-89339178D01*
X76018359Y-89457463D01*
X75905753Y-89560263D01*
X75781470Y-89644139D01*
X75648166Y-89706385D01*
X75505841Y-89746999D01*
X75354494Y-89765983D01*
X75333449Y-89766884D01*
X75167771Y-89759402D01*
X75006871Y-89725805D01*
X74850746Y-89666094D01*
X74718056Y-89592424D01*
X74644790Y-89542197D01*
X74524735Y-89442616D01*
X74415066Y-89328166D01*
X74315783Y-89198846D01*
X74226886Y-89054658D01*
X74203629Y-89010995D01*
X74141761Y-88875915D01*
X74091746Y-88734692D01*
X74053584Y-88587329D01*
X74027276Y-88433824D01*
X74012822Y-88274177D01*
X74010068Y-88179406D01*
X74012335Y-88119735D01*
X74433549Y-88119735D01*
X74435062Y-88266723D01*
X74448017Y-88409410D01*
X74475773Y-88563633D01*
X74517342Y-88708419D01*
X74580618Y-88860023D01*
X74605121Y-88907509D01*
X74686240Y-89037187D01*
X74789761Y-89158790D01*
X74907375Y-89256724D01*
X75034761Y-89327821D01*
X75181235Y-89372426D01*
X75334361Y-89381828D01*
X75388985Y-89376260D01*
X75534344Y-89332288D01*
X75659310Y-89254004D01*
X75737241Y-89179124D01*
X75824825Y-89053778D01*
X75888721Y-88913268D01*
X75911823Y-88841844D01*
X75943751Y-88687061D01*
X75956213Y-88534151D01*
X75954346Y-88387410D01*
X75941521Y-88243182D01*
X75914437Y-88087342D01*
X75874099Y-87941092D01*
X75812874Y-87788026D01*
X75789061Y-87740078D01*
X75710311Y-87608844D01*
X75609951Y-87485213D01*
X75496054Y-87384934D01*
X75372471Y-87310930D01*
X75230901Y-87264247D01*
X75083434Y-87253942D01*
X75028602Y-87259628D01*
X74880436Y-87305192D01*
X74749935Y-87386616D01*
X74667426Y-87464212D01*
X74574458Y-87593143D01*
X74506349Y-87736900D01*
X74481616Y-87809466D01*
X74447255Y-87965953D01*
X74433549Y-88119735D01*
X74012335Y-88119735D01*
X74016170Y-88018778D01*
X74036173Y-87864794D01*
X74070077Y-87717454D01*
X74117882Y-87576760D01*
X74187433Y-87427698D01*
X74271663Y-87294467D01*
X74370572Y-87177068D01*
X74484160Y-87075501D01*
X74609437Y-86992214D01*
X74743451Y-86930390D01*
X74886202Y-86890028D01*
X75037691Y-86871129D01*
X75058467Y-86870242D01*
X75222349Y-86877819D01*
G37*
G36*
X73698106Y-89829311D02*
G01*
X73833733Y-89772187D01*
X73844927Y-89760717D01*
X73898122Y-89623921D01*
X73897799Y-89607530D01*
X73840706Y-89472504D01*
X73829243Y-89461441D01*
X73692409Y-89407520D01*
X73676018Y-89407838D01*
X73380401Y-89423330D01*
X73274867Y-87409625D01*
X73570484Y-87394132D01*
X73706016Y-87335205D01*
X73717190Y-87323343D01*
X73770271Y-87184371D01*
X73769946Y-87167961D01*
X73709249Y-87031116D01*
X73701505Y-87024067D01*
X73559369Y-86972316D01*
X73548396Y-86972659D01*
X72540811Y-87025464D01*
X72403899Y-87084875D01*
X72396841Y-87092442D01*
X72344937Y-87231663D01*
X72345279Y-87242625D01*
X72401296Y-87380117D01*
X72412525Y-87391717D01*
X72551937Y-87447266D01*
X72562900Y-87446938D01*
X72853394Y-87431713D01*
X72958928Y-89445419D01*
X72668433Y-89460643D01*
X72532693Y-89518376D01*
X72522383Y-89529931D01*
X72472780Y-89671223D01*
X72473131Y-89682194D01*
X72529054Y-89817884D01*
X72540262Y-89829091D01*
X72679559Y-89882453D01*
X72690522Y-89882116D01*
X73698106Y-89829311D01*
G37*
G36*
X71209275Y-89983225D02*
G01*
X71362823Y-89967524D01*
X71506536Y-89937030D01*
X71658739Y-89884066D01*
X71798098Y-89811781D01*
X71830930Y-89790691D01*
X71950478Y-89699588D01*
X72060683Y-89587626D01*
X72145173Y-89465636D01*
X72187214Y-89378738D01*
X72225390Y-89233031D01*
X72225454Y-89212377D01*
X72166558Y-89077446D01*
X72154703Y-89066403D01*
X72015694Y-89012596D01*
X71999283Y-89012915D01*
X71871299Y-89062912D01*
X71796906Y-89183475D01*
X71730609Y-89323134D01*
X71625407Y-89436739D01*
X71563731Y-89480384D01*
X71427183Y-89547901D01*
X71281977Y-89588013D01*
X71180362Y-89599530D01*
X71025313Y-89595331D01*
X70873739Y-89561248D01*
X70742049Y-89496298D01*
X70632754Y-89398673D01*
X70564770Y-89261052D01*
X70555259Y-89194251D01*
X70586392Y-89049405D01*
X70678631Y-88930244D01*
X70803809Y-88839385D01*
X70949568Y-88766383D01*
X71093301Y-88709759D01*
X71133002Y-88695850D01*
X71283832Y-88640318D01*
X71421641Y-88580465D01*
X71565961Y-88505174D01*
X71692558Y-88424000D01*
X71786964Y-88349740D01*
X71888415Y-88239729D01*
X71964915Y-88096560D01*
X71999462Y-87952050D01*
X72003864Y-87812286D01*
X71981793Y-87662456D01*
X71926074Y-87514113D01*
X71862617Y-87413199D01*
X71762011Y-87305343D01*
X71638010Y-87217613D01*
X71504981Y-87155325D01*
X71354948Y-87110952D01*
X71208198Y-87088172D01*
X71050343Y-87081645D01*
X70976621Y-87083961D01*
X70822294Y-87098033D01*
X70659293Y-87128685D01*
X70514651Y-87174666D01*
X70371825Y-87245986D01*
X70309404Y-87289154D01*
X70195683Y-87399979D01*
X70121926Y-87526933D01*
X70088133Y-87670017D01*
X70086627Y-87756478D01*
X70139392Y-87895037D01*
X70154142Y-87910693D01*
X70293591Y-87966970D01*
X70304555Y-87966645D01*
X70432849Y-87908560D01*
X70488990Y-87775747D01*
X70550690Y-87637231D01*
X70634340Y-87567086D01*
X70770078Y-87505301D01*
X70914676Y-87475229D01*
X70996753Y-87468116D01*
X71145380Y-87467988D01*
X71299195Y-87490099D01*
X71432069Y-87542155D01*
X71543105Y-87640957D01*
X71591975Y-87781979D01*
X71592644Y-87792014D01*
X71557546Y-87940210D01*
X71454408Y-88052397D01*
X71317463Y-88136616D01*
X71178830Y-88201663D01*
X71029750Y-88260837D01*
X70967572Y-88283356D01*
X70817990Y-88340714D01*
X70683233Y-88403331D01*
X70544751Y-88483031D01*
X70426447Y-88569890D01*
X70341103Y-88650037D01*
X70250870Y-88765835D01*
X70182923Y-88909039D01*
X70150518Y-89065935D01*
X70148660Y-89178139D01*
X70173446Y-89336764D01*
X70230563Y-89483637D01*
X70310543Y-89606961D01*
X70412725Y-89716409D01*
X70532639Y-89808735D01*
X70670286Y-89883937D01*
X70699944Y-89896923D01*
X70852518Y-89948514D01*
X71011085Y-89977721D01*
X71158919Y-89984871D01*
X71209275Y-89983225D01*
G37*
G36*
X69530204Y-90047742D02*
G01*
X69665800Y-89990016D01*
X69676987Y-89978415D01*
X69730113Y-89840294D01*
X69729782Y-89823766D01*
X69602390Y-87392977D01*
X69545227Y-87256625D01*
X69533757Y-87245425D01*
X69396885Y-87190779D01*
X69380494Y-87191090D01*
X67698991Y-87279213D01*
X67562180Y-87340554D01*
X67555136Y-87348386D01*
X67503346Y-87489793D01*
X67503689Y-87500764D01*
X67559611Y-87636454D01*
X67570820Y-87647662D01*
X67710117Y-87701023D01*
X67721079Y-87700687D01*
X69196236Y-87623377D01*
X69235504Y-88372663D01*
X67954255Y-88439810D01*
X67816733Y-88499898D01*
X67809591Y-88507558D01*
X67757759Y-88648150D01*
X67758106Y-88659204D01*
X67814098Y-88796220D01*
X67825314Y-88807565D01*
X67965378Y-88861617D01*
X67976343Y-88861283D01*
X69257593Y-88794136D01*
X69301770Y-89637082D01*
X67834662Y-89713970D01*
X67697851Y-89775310D01*
X67690807Y-89783143D01*
X67639017Y-89924550D01*
X67639360Y-89935521D01*
X67695283Y-90071211D01*
X67706491Y-90082418D01*
X67845788Y-90135780D01*
X67856751Y-90135444D01*
X69530204Y-90047742D01*
G37*
G36*
X65734018Y-90246691D02*
G01*
X65869645Y-90189567D01*
X65880839Y-90178097D01*
X65934035Y-90041301D01*
X65933711Y-90024910D01*
X65876618Y-89889885D01*
X65865155Y-89878821D01*
X65728321Y-89824901D01*
X65711930Y-89825218D01*
X65416313Y-89840711D01*
X65310779Y-87827005D01*
X65606396Y-87811513D01*
X65741928Y-87752585D01*
X65753102Y-87740723D01*
X65806183Y-87601752D01*
X65805858Y-87585341D01*
X65745161Y-87448497D01*
X65737417Y-87441448D01*
X65595281Y-87389696D01*
X65584308Y-87390039D01*
X64576723Y-87442845D01*
X64439811Y-87502255D01*
X64432753Y-87509822D01*
X64380849Y-87649043D01*
X64381191Y-87660005D01*
X64437208Y-87797498D01*
X64448437Y-87809097D01*
X64587849Y-87864646D01*
X64598812Y-87864318D01*
X64889306Y-87849094D01*
X64994840Y-89862799D01*
X64704345Y-89878023D01*
X64568605Y-89935756D01*
X64558295Y-89947311D01*
X64508692Y-90088604D01*
X64509043Y-90099574D01*
X64564966Y-90235264D01*
X64576174Y-90246471D01*
X64715471Y-90299833D01*
X64726434Y-90299496D01*
X65734018Y-90246691D01*
G37*
G36*
X63245188Y-90400605D02*
G01*
X63398735Y-90384904D01*
X63542448Y-90354410D01*
X63694651Y-90301446D01*
X63834010Y-90229161D01*
X63866842Y-90208071D01*
X63986390Y-90116968D01*
X64096595Y-90005006D01*
X64181085Y-89883016D01*
X64223126Y-89796118D01*
X64261302Y-89650411D01*
X64261366Y-89629757D01*
X64202470Y-89494826D01*
X64190615Y-89483783D01*
X64051606Y-89429977D01*
X64035195Y-89430295D01*
X63907211Y-89480293D01*
X63832818Y-89600855D01*
X63766521Y-89740515D01*
X63661319Y-89854119D01*
X63599643Y-89897764D01*
X63463095Y-89965281D01*
X63317889Y-90005393D01*
X63216274Y-90016910D01*
X63061225Y-90012711D01*
X62909651Y-89978628D01*
X62777961Y-89913678D01*
X62668666Y-89816053D01*
X62600682Y-89678432D01*
X62591171Y-89611631D01*
X62622304Y-89466786D01*
X62714543Y-89347624D01*
X62839721Y-89256765D01*
X62985480Y-89183763D01*
X63129213Y-89127139D01*
X63168914Y-89113230D01*
X63319744Y-89057699D01*
X63457553Y-88997845D01*
X63601873Y-88922554D01*
X63728470Y-88841380D01*
X63822876Y-88767120D01*
X63924327Y-88657109D01*
X64000827Y-88513940D01*
X64035374Y-88369430D01*
X64039776Y-88229666D01*
X64017705Y-88079837D01*
X63961986Y-87931493D01*
X63898529Y-87830580D01*
X63797923Y-87722723D01*
X63673922Y-87634993D01*
X63540893Y-87572705D01*
X63390860Y-87528332D01*
X63244110Y-87505552D01*
X63086255Y-87499025D01*
X63012533Y-87501341D01*
X62858206Y-87515413D01*
X62695205Y-87546065D01*
X62550563Y-87592046D01*
X62407737Y-87663366D01*
X62345316Y-87706534D01*
X62231595Y-87817359D01*
X62157838Y-87944313D01*
X62124045Y-88087398D01*
X62122539Y-88173859D01*
X62175304Y-88312417D01*
X62190054Y-88328073D01*
X62329503Y-88384350D01*
X62340467Y-88384025D01*
X62468761Y-88325940D01*
X62524902Y-88193127D01*
X62586602Y-88054611D01*
X62670252Y-87984466D01*
X62805990Y-87922681D01*
X62950588Y-87892609D01*
X63032666Y-87885496D01*
X63181292Y-87885368D01*
X63335107Y-87907479D01*
X63467981Y-87959535D01*
X63579017Y-88058338D01*
X63627887Y-88199359D01*
X63628556Y-88209394D01*
X63593458Y-88357590D01*
X63490320Y-88469777D01*
X63353375Y-88553996D01*
X63214742Y-88619043D01*
X63065662Y-88678217D01*
X63003485Y-88700737D01*
X62853902Y-88758094D01*
X62719145Y-88820711D01*
X62580663Y-88900411D01*
X62462359Y-88987270D01*
X62377015Y-89067417D01*
X62286782Y-89183215D01*
X62218835Y-89326419D01*
X62186430Y-89483315D01*
X62184572Y-89595519D01*
X62209358Y-89754144D01*
X62266475Y-89901017D01*
X62346455Y-90024341D01*
X62448637Y-90133789D01*
X62568551Y-90226115D01*
X62706198Y-90301317D01*
X62735856Y-90314303D01*
X62888430Y-90365894D01*
X63046997Y-90395102D01*
X63194831Y-90402251D01*
X63245188Y-90400605D01*
G37*
G36*
X59202410Y-90612478D02*
G01*
X59366822Y-90594277D01*
X59523463Y-90557315D01*
X59672334Y-90501591D01*
X59813434Y-90427105D01*
X59942817Y-90334661D01*
X60056573Y-90225793D01*
X60154701Y-90100501D01*
X60237202Y-89958786D01*
X60294410Y-89822930D01*
X60335361Y-89678377D01*
X60360058Y-89525125D01*
X60368498Y-89363175D01*
X60366023Y-89266727D01*
X60351227Y-89113358D01*
X60323089Y-88963320D01*
X60281608Y-88816611D01*
X60226786Y-88673233D01*
X60158621Y-88533186D01*
X60132934Y-88487244D01*
X60049675Y-88355167D01*
X59959043Y-88234001D01*
X59861038Y-88123746D01*
X59737380Y-88008906D01*
X59603686Y-87908916D01*
X59464510Y-87827010D01*
X59325078Y-87767025D01*
X59165414Y-87725316D01*
X59005417Y-87712239D01*
X58965365Y-87713444D01*
X58815200Y-87732922D01*
X58700203Y-87764027D01*
X58561610Y-87817774D01*
X58466416Y-87867262D01*
X58336837Y-87816822D01*
X58201647Y-87883340D01*
X58154027Y-88023709D01*
X58154246Y-88028902D01*
X58168971Y-88309884D01*
X58226848Y-88448360D01*
X58238489Y-88460325D01*
X58374825Y-88518636D01*
X58391212Y-88518357D01*
X58529866Y-88461930D01*
X58580226Y-88344829D01*
X58578731Y-88316291D01*
X58697119Y-88219019D01*
X58834220Y-88161849D01*
X58981613Y-88135848D01*
X59017455Y-88133345D01*
X59175659Y-88149611D01*
X59320945Y-88207653D01*
X59440006Y-88285829D01*
X59553038Y-88386427D01*
X59654709Y-88505032D01*
X59745020Y-88641645D01*
X59790284Y-88725321D01*
X59852196Y-88865384D01*
X59898697Y-89008914D01*
X59929789Y-89155912D01*
X59945470Y-89306377D01*
X59944457Y-89453154D01*
X59922282Y-89604273D01*
X59872299Y-89755955D01*
X59860331Y-89781896D01*
X59782839Y-89912486D01*
X59677246Y-90030539D01*
X59583633Y-90102364D01*
X59443671Y-90173638D01*
X59291053Y-90216064D01*
X59182278Y-90228322D01*
X59033269Y-90223440D01*
X58870493Y-90185084D01*
X58719638Y-90111554D01*
X58599821Y-90020533D01*
X58488761Y-89903671D01*
X58409903Y-89841034D01*
X58319598Y-89825956D01*
X58180621Y-89882895D01*
X58173279Y-89890122D01*
X58119407Y-90027888D01*
X58119790Y-90045542D01*
X58164397Y-90168672D01*
X58262382Y-90277770D01*
X58385272Y-90382630D01*
X58521564Y-90468564D01*
X58619871Y-90515338D01*
X58775148Y-90568915D01*
X58918798Y-90599289D01*
X59067742Y-90613426D01*
X59202410Y-90612478D01*
G37*
G36*
X56818055Y-87859731D02*
G01*
X56903645Y-87952832D01*
X57610366Y-89509465D01*
X57767987Y-89534956D01*
X57888128Y-89601300D01*
X57938896Y-89729978D01*
X57932149Y-89804966D01*
X57839609Y-89921549D01*
X57802441Y-89940373D01*
X57992750Y-90351563D01*
X58028615Y-90475886D01*
X58028813Y-90480854D01*
X57972973Y-90618211D01*
X57965392Y-90625716D01*
X57828232Y-90684495D01*
X57706274Y-90653467D01*
X57627269Y-90560020D01*
X57317480Y-89885078D01*
X56447772Y-89740621D01*
X56189741Y-90627287D01*
X56139737Y-90722545D01*
X55999653Y-90780327D01*
X55982503Y-90780691D01*
X55845003Y-90727532D01*
X55841154Y-90723864D01*
X55778332Y-90589415D01*
X55786477Y-90506810D01*
X55800737Y-90456903D01*
X56120843Y-89342594D01*
X56566322Y-89342594D01*
X57116167Y-89431909D01*
X56758378Y-88653091D01*
X56566322Y-89342594D01*
X56120843Y-89342594D01*
X56511862Y-87981436D01*
X56582440Y-87872079D01*
X56698483Y-87832246D01*
X56818055Y-87859731D01*
G37*
G36*
X55245699Y-90856527D02*
G01*
X55382221Y-90793863D01*
X55386011Y-90789741D01*
X55441701Y-90653031D01*
X55441423Y-90643025D01*
X55309122Y-88118576D01*
X55252011Y-87983198D01*
X55240528Y-87971755D01*
X55103618Y-87916384D01*
X55087226Y-87916689D01*
X54952859Y-87977901D01*
X54945566Y-87985746D01*
X54891388Y-88123409D01*
X54891694Y-88133849D01*
X55008464Y-90361950D01*
X53861852Y-90422041D01*
X53724839Y-90479522D01*
X53717766Y-90486823D01*
X53665950Y-90627716D01*
X53666320Y-90639201D01*
X53727070Y-90773536D01*
X53730795Y-90777433D01*
X53866881Y-90840006D01*
X55245699Y-90856527D01*
G37*
G36*
X53094429Y-90969270D02*
G01*
X53230952Y-90906606D01*
X53234741Y-90902484D01*
X53290431Y-90765774D01*
X53290153Y-90755768D01*
X53157852Y-88231319D01*
X53100741Y-88095941D01*
X53089258Y-88084499D01*
X52952349Y-88029127D01*
X52935957Y-88029432D01*
X52801589Y-88090644D01*
X52794296Y-88098490D01*
X52740118Y-88236153D01*
X52740424Y-88246592D01*
X52857194Y-90474693D01*
X51710582Y-90534784D01*
X51573569Y-90592266D01*
X51566497Y-90599567D01*
X51514680Y-90740459D01*
X51515050Y-90751945D01*
X51575800Y-90886279D01*
X51579526Y-90890176D01*
X51715611Y-90952749D01*
X53094429Y-90969270D01*
G37*
G36*
X51117093Y-91012732D02*
G01*
X51252719Y-90955607D01*
X51263913Y-90944137D01*
X51317109Y-90807342D01*
X51316785Y-90790951D01*
X51259692Y-90655925D01*
X51248229Y-90644862D01*
X51111395Y-90590941D01*
X51095004Y-90591259D01*
X50799387Y-90606751D01*
X50693854Y-88593046D01*
X50989470Y-88577553D01*
X51125003Y-88518626D01*
X51136176Y-88506764D01*
X51189257Y-88367792D01*
X51188933Y-88351382D01*
X51128235Y-88214537D01*
X51120491Y-88207488D01*
X50978355Y-88155737D01*
X50967382Y-88156080D01*
X49959797Y-88208885D01*
X49822885Y-88268296D01*
X49815827Y-88275863D01*
X49763923Y-88415083D01*
X49764265Y-88426046D01*
X49820282Y-88563538D01*
X49831511Y-88575138D01*
X49970923Y-88630686D01*
X49981886Y-88630358D01*
X50272380Y-88615134D01*
X50377914Y-90628840D01*
X50087420Y-90644064D01*
X49951679Y-90701797D01*
X49941369Y-90713352D01*
X49891766Y-90854644D01*
X49892118Y-90865615D01*
X49948040Y-91001304D01*
X49959249Y-91012512D01*
X50098546Y-91065874D01*
X50109508Y-91065537D01*
X51117093Y-91012732D01*
G37*
G36*
X49243642Y-91134395D02*
G01*
X49376107Y-91071348D01*
X49383724Y-91063218D01*
X49439303Y-90924407D01*
X49439021Y-90914307D01*
X49304400Y-88429602D01*
X49247580Y-88292898D01*
X49240350Y-88285478D01*
X49102434Y-88230582D01*
X49091477Y-88230912D01*
X48996116Y-88259390D01*
X48923507Y-88329965D01*
X47706060Y-90342566D01*
X47610727Y-88523499D01*
X47553629Y-88388370D01*
X47542132Y-88376679D01*
X47405147Y-88319857D01*
X47388754Y-88320148D01*
X47253879Y-88383967D01*
X47246516Y-88392171D01*
X47192524Y-88533393D01*
X47192835Y-88543933D01*
X47322912Y-91025942D01*
X47382428Y-91164869D01*
X47390005Y-91172107D01*
X47529954Y-91223973D01*
X47540919Y-91223631D01*
X47634740Y-91193767D01*
X47708774Y-91122383D01*
X48924285Y-89156842D01*
X49022091Y-90939093D01*
X49083465Y-91076547D01*
X49091302Y-91083680D01*
X49232671Y-91134740D01*
X49243642Y-91134395D01*
G37*
G36*
X45582825Y-91326250D02*
G01*
X45744056Y-91308250D01*
X45896096Y-91271632D01*
X46038944Y-91216396D01*
X46172601Y-91142541D01*
X46244849Y-91091979D01*
X46361564Y-90992223D01*
X46464766Y-90881168D01*
X46554456Y-90758812D01*
X46630633Y-90625158D01*
X46668096Y-90543710D01*
X46722130Y-90396420D01*
X46760837Y-90246070D01*
X46784216Y-90092662D01*
X46792267Y-89936194D01*
X46789986Y-89845411D01*
X46773700Y-89688745D01*
X46741385Y-89534393D01*
X46693040Y-89382356D01*
X46628665Y-89232634D01*
X46584683Y-89148117D01*
X46496604Y-89007005D01*
X46396139Y-88878761D01*
X46283287Y-88763384D01*
X46158048Y-88660875D01*
X46080921Y-88608075D01*
X45938298Y-88530066D01*
X45788088Y-88473451D01*
X45630292Y-88438229D01*
X45464910Y-88424401D01*
X45367000Y-88426104D01*
X45210658Y-88441881D01*
X45066243Y-88472201D01*
X44915802Y-88524660D01*
X44780940Y-88596113D01*
X44749659Y-88616944D01*
X44621101Y-88716371D01*
X44513404Y-88821785D01*
X44418205Y-88945934D01*
X44387336Y-88997664D01*
X44322020Y-89130342D01*
X44279486Y-89276692D01*
X44277506Y-89324061D01*
X44336235Y-89459257D01*
X44339786Y-89462408D01*
X44483851Y-89507635D01*
X44489624Y-89507384D01*
X44632016Y-89452326D01*
X44685255Y-89362124D01*
X44748603Y-89215658D01*
X44841526Y-89086213D01*
X44919907Y-89009374D01*
X45052004Y-88924334D01*
X45198623Y-88873772D01*
X45352184Y-88850047D01*
X45389088Y-88847577D01*
X45539149Y-88851315D01*
X45694111Y-88883983D01*
X45834402Y-88946787D01*
X45919778Y-89005400D01*
X46034018Y-89109114D01*
X46131215Y-89224284D01*
X46211368Y-89350911D01*
X46248533Y-89426210D01*
X46307404Y-89574973D01*
X46349716Y-89727209D01*
X46368513Y-89867500D01*
X46365400Y-90026475D01*
X46342754Y-90171887D01*
X46301236Y-90318144D01*
X46296046Y-90332816D01*
X46232700Y-90472464D01*
X46149258Y-90597832D01*
X46045722Y-90708918D01*
X46022604Y-90729422D01*
X45896631Y-90815732D01*
X45753967Y-90873395D01*
X45594611Y-90902411D01*
X45560736Y-90904777D01*
X45413655Y-90901283D01*
X45261485Y-90870537D01*
X45121161Y-90811511D01*
X45081373Y-90788288D01*
X44959769Y-90694905D01*
X44857570Y-90578006D01*
X44774774Y-90437590D01*
X44760543Y-90406685D01*
X44824203Y-90403349D01*
X44975552Y-90407156D01*
X45120994Y-90429067D01*
X45142762Y-90433613D01*
X45257407Y-90451084D01*
X45393348Y-90393658D01*
X45400760Y-90386340D01*
X45453775Y-90246084D01*
X45453364Y-90228031D01*
X45392224Y-90088041D01*
X45290274Y-90028198D01*
X45138710Y-89998121D01*
X45054208Y-89989942D01*
X44899673Y-89982768D01*
X44742732Y-89985071D01*
X44721625Y-89986094D01*
X44573207Y-90000966D01*
X44427960Y-90029859D01*
X44285884Y-90072773D01*
X44257849Y-90083039D01*
X44147326Y-90187942D01*
X44133758Y-90291319D01*
X44182832Y-90415683D01*
X44291380Y-90484835D01*
X44342329Y-90490970D01*
X44401188Y-90632107D01*
X44473241Y-90762183D01*
X44573980Y-90899958D01*
X44692680Y-91022677D01*
X44808716Y-91115882D01*
X44935572Y-91194513D01*
X45070868Y-91255058D01*
X45214607Y-91297517D01*
X45366787Y-91321889D01*
X45527408Y-91328174D01*
X45582825Y-91326250D01*
G37*
G36*
X76417610Y-91864804D02*
G01*
X76533360Y-91931378D01*
X76546154Y-91957301D01*
X76571679Y-92102531D01*
X76699071Y-94533319D01*
X76699382Y-94549829D01*
X76643966Y-94685889D01*
X76636305Y-94693487D01*
X76499264Y-94752905D01*
X76488301Y-94753244D01*
X76349043Y-94700611D01*
X76337840Y-94689522D01*
X76281873Y-94552982D01*
X76242605Y-93803697D01*
X76155008Y-93806625D01*
X76000966Y-93803789D01*
X75845972Y-93790820D01*
X75690025Y-93767720D01*
X75533126Y-93734487D01*
X75444733Y-93710413D01*
X75297485Y-93658623D01*
X75159704Y-93594539D01*
X75031390Y-93518163D01*
X74912545Y-93429493D01*
X74896477Y-93415764D01*
X74784956Y-93296014D01*
X74703695Y-93158628D01*
X74652693Y-93003605D01*
X74632888Y-92853493D01*
X74632460Y-92835987D01*
X75050933Y-92835987D01*
X75081324Y-92982746D01*
X75168275Y-93119103D01*
X75292462Y-93214755D01*
X75437334Y-93278723D01*
X75460487Y-93286402D01*
X75624942Y-93332129D01*
X75769230Y-93360139D01*
X75916589Y-93377825D01*
X76067017Y-93385186D01*
X76220516Y-93382223D01*
X76162841Y-92281710D01*
X76103571Y-92284816D01*
X75947648Y-92296141D01*
X75776303Y-92317227D01*
X75622153Y-92346492D01*
X75464045Y-92390972D01*
X75312009Y-92455437D01*
X75295195Y-92464496D01*
X75168993Y-92554248D01*
X75076177Y-92684056D01*
X75050933Y-92835987D01*
X74632460Y-92835987D01*
X74631554Y-92798891D01*
X74646347Y-92643903D01*
X74689330Y-92502141D01*
X74760504Y-92373604D01*
X74859869Y-92258293D01*
X74987425Y-92156209D01*
X75011428Y-92140460D01*
X75143335Y-92067995D01*
X75295066Y-92005991D01*
X75466619Y-91954449D01*
X75618134Y-91920747D01*
X75782337Y-91893741D01*
X75959226Y-91873430D01*
X76148801Y-91859815D01*
X76264419Y-91856010D01*
X76417610Y-91864804D01*
G37*
G36*
X74361402Y-94841466D02*
G01*
X74497028Y-94784342D01*
X74508222Y-94772872D01*
X74561418Y-94636076D01*
X74561094Y-94619685D01*
X74504001Y-94484659D01*
X74492538Y-94473596D01*
X74355704Y-94419675D01*
X74339313Y-94419993D01*
X74043696Y-94435485D01*
X73938163Y-92421780D01*
X74233779Y-92406287D01*
X74369312Y-92347360D01*
X74380485Y-92335498D01*
X74433566Y-92196526D01*
X74433242Y-92180116D01*
X74372544Y-92043271D01*
X74364800Y-92036222D01*
X74222664Y-91984471D01*
X74211691Y-91984814D01*
X73204106Y-92037619D01*
X73067194Y-92097030D01*
X73060136Y-92104597D01*
X73008232Y-92243817D01*
X73008574Y-92254780D01*
X73064591Y-92392272D01*
X73075820Y-92403872D01*
X73215232Y-92459421D01*
X73226195Y-92459093D01*
X73516689Y-92443868D01*
X73622223Y-94457574D01*
X73331729Y-94472798D01*
X73195988Y-94530531D01*
X73185678Y-94542086D01*
X73136075Y-94683378D01*
X73136427Y-94694349D01*
X73192349Y-94830039D01*
X73203558Y-94841246D01*
X73342854Y-94894608D01*
X73353817Y-94894271D01*
X74361402Y-94841466D01*
G37*
G36*
X71716713Y-95003548D02*
G01*
X71881125Y-94985347D01*
X72037766Y-94948384D01*
X72186637Y-94892660D01*
X72327737Y-94818175D01*
X72457120Y-94725731D01*
X72570876Y-94616863D01*
X72669004Y-94491571D01*
X72751505Y-94349856D01*
X72808713Y-94214000D01*
X72849664Y-94069447D01*
X72874361Y-93916195D01*
X72882801Y-93754245D01*
X72880326Y-93657797D01*
X72865530Y-93504428D01*
X72837392Y-93354389D01*
X72795911Y-93207681D01*
X72741089Y-93064303D01*
X72672924Y-92924256D01*
X72647237Y-92878314D01*
X72563978Y-92746237D01*
X72473346Y-92625071D01*
X72375341Y-92514816D01*
X72251683Y-92399975D01*
X72117989Y-92299986D01*
X71978813Y-92218080D01*
X71839381Y-92158095D01*
X71679717Y-92116386D01*
X71519720Y-92103309D01*
X71479668Y-92104514D01*
X71329503Y-92123992D01*
X71214506Y-92155097D01*
X71075913Y-92208844D01*
X70980719Y-92258332D01*
X70851140Y-92207892D01*
X70715950Y-92274410D01*
X70668330Y-92414779D01*
X70668549Y-92419972D01*
X70683274Y-92700954D01*
X70741151Y-92839430D01*
X70752792Y-92851395D01*
X70889128Y-92909705D01*
X70905515Y-92909427D01*
X71044169Y-92853000D01*
X71094529Y-92735899D01*
X71093034Y-92707361D01*
X71211422Y-92610089D01*
X71348523Y-92552918D01*
X71495916Y-92526918D01*
X71531757Y-92524415D01*
X71689961Y-92540681D01*
X71835248Y-92598723D01*
X71954309Y-92676899D01*
X72067341Y-92777497D01*
X72169012Y-92896102D01*
X72259323Y-93032715D01*
X72304587Y-93116391D01*
X72366499Y-93256454D01*
X72413000Y-93399984D01*
X72444092Y-93546982D01*
X72459773Y-93697447D01*
X72458760Y-93844224D01*
X72436585Y-93995343D01*
X72386602Y-94147025D01*
X72374634Y-94172966D01*
X72297142Y-94303556D01*
X72191549Y-94421609D01*
X72097936Y-94493434D01*
X71957974Y-94564707D01*
X71805356Y-94607134D01*
X71696581Y-94619392D01*
X71547572Y-94614510D01*
X71384796Y-94576154D01*
X71233941Y-94502624D01*
X71114123Y-94411603D01*
X71003064Y-94294741D01*
X70924206Y-94232104D01*
X70833900Y-94217026D01*
X70694924Y-94273965D01*
X70687582Y-94281192D01*
X70633710Y-94418957D01*
X70634093Y-94436611D01*
X70678700Y-94559742D01*
X70776685Y-94668840D01*
X70899575Y-94773700D01*
X71035867Y-94859634D01*
X71134174Y-94906408D01*
X71289451Y-94959985D01*
X71433101Y-94990359D01*
X71582045Y-95004496D01*
X71716713Y-95003548D01*
G37*
G36*
X68505175Y-95171857D02*
G01*
X68629578Y-95123515D01*
X69814531Y-94100956D01*
X69856138Y-94894877D01*
X69921093Y-95030591D01*
X69925081Y-95034342D01*
X70062820Y-95089978D01*
X70073260Y-95089677D01*
X70208271Y-95028432D01*
X70215652Y-95020581D01*
X70268958Y-94880213D01*
X70268639Y-94869590D01*
X70138409Y-92384654D01*
X70081303Y-92249380D01*
X70069853Y-92238565D01*
X69931538Y-92185883D01*
X69921095Y-92186195D01*
X69786728Y-92247407D01*
X69779435Y-92255253D01*
X69725634Y-92394366D01*
X69725985Y-92411405D01*
X69770852Y-93267522D01*
X68566469Y-92309283D01*
X68429109Y-92264387D01*
X68295013Y-92334765D01*
X68291415Y-92339107D01*
X68237476Y-92475608D01*
X68237734Y-92490868D01*
X68296014Y-92626122D01*
X68317765Y-92645894D01*
X69649484Y-93695780D01*
X68359259Y-94809702D01*
X68288956Y-94940630D01*
X68288053Y-94977057D01*
X68349393Y-95113868D01*
X68357226Y-95120912D01*
X68494736Y-95172175D01*
X68505175Y-95171857D01*
G37*
G36*
X65374127Y-95335949D02*
G01*
X65521930Y-95318793D01*
X65678067Y-95276813D01*
X65820572Y-95210966D01*
X65949444Y-95121255D01*
X65964595Y-95108363D01*
X66077297Y-94994276D01*
X66174701Y-94861273D01*
X66247378Y-94729376D01*
X66308343Y-94582996D01*
X66323610Y-94538513D01*
X66369334Y-94375447D01*
X66398945Y-94227739D01*
X66419710Y-94072704D01*
X66431631Y-93910342D01*
X66434707Y-93740654D01*
X66434360Y-93711661D01*
X66429241Y-93546609D01*
X66424085Y-93395429D01*
X66417762Y-93241551D01*
X66416908Y-93224642D01*
X66396069Y-92897021D01*
X66384388Y-92742062D01*
X66375401Y-92586572D01*
X66374691Y-92573097D01*
X66314989Y-92441953D01*
X66178922Y-92383944D01*
X66144666Y-92384109D01*
X66007967Y-92438808D01*
X65993030Y-92458826D01*
X65953486Y-92600308D01*
X65973982Y-92907402D01*
X65984955Y-93056612D01*
X65992021Y-93181607D01*
X65998444Y-93329565D01*
X66004194Y-93493437D01*
X66009302Y-93655875D01*
X66009973Y-93678138D01*
X66009710Y-93843486D01*
X66001657Y-93999640D01*
X65985813Y-94146601D01*
X65956518Y-94310819D01*
X65916004Y-94461798D01*
X65873673Y-94577502D01*
X65797562Y-94716721D01*
X65683499Y-94836576D01*
X65540553Y-94914563D01*
X65391781Y-94948457D01*
X65345213Y-94952253D01*
X65185555Y-94945531D01*
X65038327Y-94907976D01*
X64903529Y-94839589D01*
X64834011Y-94788274D01*
X64724020Y-94668911D01*
X64645872Y-94531866D01*
X64592642Y-94388060D01*
X64553551Y-94221955D01*
X64549121Y-94196406D01*
X64525917Y-94031871D01*
X64508515Y-93883893D01*
X64493407Y-93729500D01*
X64480594Y-93568692D01*
X64470076Y-93401470D01*
X64468546Y-93372977D01*
X64436311Y-92687891D01*
X64385679Y-92549538D01*
X64382620Y-92545425D01*
X64242936Y-92484853D01*
X64214377Y-92485272D01*
X64074032Y-92536705D01*
X64056156Y-92560333D01*
X64018768Y-92700969D01*
X64020629Y-92820470D01*
X64024434Y-92973959D01*
X64028690Y-93128392D01*
X64033873Y-93287961D01*
X64039251Y-93413818D01*
X64049576Y-93576871D01*
X64063295Y-93736754D01*
X64080407Y-93893467D01*
X64100913Y-94047009D01*
X64124813Y-94197382D01*
X64133534Y-94246802D01*
X64169760Y-94408793D01*
X64215887Y-94558694D01*
X64271912Y-94696503D01*
X64352210Y-94845915D01*
X64446764Y-94977915D01*
X64536447Y-95074616D01*
X64657930Y-95171981D01*
X64795835Y-95247024D01*
X64950163Y-95299744D01*
X65120913Y-95330142D01*
X65275750Y-95338422D01*
X65374127Y-95335949D01*
G37*
G36*
X63331451Y-92550621D02*
G01*
X63447201Y-92617194D01*
X63459996Y-92643117D01*
X63485521Y-92788347D01*
X63612913Y-95219136D01*
X63613223Y-95235646D01*
X63557807Y-95371705D01*
X63550146Y-95379304D01*
X63413105Y-95438721D01*
X63402143Y-95439061D01*
X63262884Y-95386428D01*
X63251682Y-95375338D01*
X63195715Y-95238799D01*
X63156446Y-94489513D01*
X63068850Y-94492442D01*
X62914808Y-94489605D01*
X62759813Y-94476637D01*
X62603866Y-94453536D01*
X62446967Y-94420304D01*
X62358574Y-94396229D01*
X62211326Y-94344439D01*
X62073545Y-94280356D01*
X61945232Y-94203979D01*
X61826386Y-94115310D01*
X61810318Y-94101581D01*
X61698798Y-93981831D01*
X61617536Y-93844444D01*
X61566534Y-93689422D01*
X61546730Y-93539310D01*
X61546302Y-93521803D01*
X61964774Y-93521803D01*
X61995166Y-93668562D01*
X62082116Y-93804919D01*
X62206303Y-93900572D01*
X62351176Y-93964539D01*
X62374328Y-93972219D01*
X62538784Y-94017946D01*
X62683072Y-94045956D01*
X62830430Y-94063641D01*
X62980859Y-94071003D01*
X63134358Y-94068040D01*
X63076682Y-92967526D01*
X63017413Y-92970633D01*
X62861489Y-92981957D01*
X62690144Y-93003043D01*
X62535994Y-93032309D01*
X62377886Y-93076788D01*
X62225851Y-93141254D01*
X62209036Y-93150312D01*
X62082835Y-93240065D01*
X61990018Y-93369873D01*
X61964774Y-93521803D01*
X61546302Y-93521803D01*
X61545396Y-93484708D01*
X61560188Y-93329719D01*
X61603171Y-93187957D01*
X61674345Y-93059421D01*
X61773711Y-92944110D01*
X61901267Y-92842025D01*
X61925269Y-92826277D01*
X62057177Y-92753811D01*
X62208907Y-92691808D01*
X62380461Y-92640265D01*
X62531976Y-92606564D01*
X62696178Y-92579558D01*
X62873067Y-92559247D01*
X63062643Y-92545631D01*
X63178260Y-92541826D01*
X63331451Y-92550621D01*
G37*
G36*
X59520631Y-92750337D02*
G01*
X59636381Y-92816911D01*
X59649175Y-92842834D01*
X59674700Y-92988064D01*
X59802092Y-95418852D01*
X59802403Y-95435362D01*
X59746987Y-95571422D01*
X59739326Y-95579020D01*
X59602285Y-95638438D01*
X59591322Y-95638777D01*
X59452064Y-95586145D01*
X59440861Y-95575055D01*
X59384894Y-95438516D01*
X59345626Y-94689230D01*
X59258029Y-94692158D01*
X59103987Y-94689322D01*
X58948993Y-94676354D01*
X58793046Y-94653253D01*
X58636147Y-94620021D01*
X58547754Y-94595946D01*
X58400506Y-94544156D01*
X58262725Y-94480072D01*
X58134411Y-94403696D01*
X58015566Y-94315026D01*
X57999498Y-94301297D01*
X57887977Y-94181547D01*
X57806716Y-94044161D01*
X57755714Y-93889138D01*
X57735909Y-93739026D01*
X57735481Y-93721520D01*
X58153954Y-93721520D01*
X58184345Y-93868279D01*
X58271296Y-94004636D01*
X58395483Y-94100288D01*
X58540355Y-94164256D01*
X58563508Y-94171935D01*
X58727963Y-94217662D01*
X58872251Y-94245672D01*
X59019610Y-94263358D01*
X59170038Y-94270719D01*
X59323537Y-94267757D01*
X59265862Y-93167243D01*
X59206592Y-93170349D01*
X59050669Y-93181674D01*
X58879324Y-93202760D01*
X58725174Y-93232025D01*
X58567066Y-93276505D01*
X58415030Y-93340971D01*
X58398216Y-93350029D01*
X58272014Y-93439781D01*
X58179198Y-93569589D01*
X58153954Y-93721520D01*
X57735481Y-93721520D01*
X57734575Y-93684425D01*
X57749368Y-93529436D01*
X57792351Y-93387674D01*
X57863525Y-93259137D01*
X57962890Y-93143827D01*
X58090446Y-93041742D01*
X58114449Y-93025993D01*
X58246356Y-92953528D01*
X58398087Y-92891524D01*
X58569640Y-92839982D01*
X58721155Y-92806280D01*
X58885358Y-92779274D01*
X59062247Y-92758963D01*
X59251822Y-92745348D01*
X59367440Y-92741543D01*
X59520631Y-92750337D01*
G37*
G36*
X57288572Y-95759695D02*
G01*
X57426026Y-95698321D01*
X57433159Y-95690483D01*
X57484278Y-95550229D01*
X57483951Y-95539607D01*
X57353721Y-93054671D01*
X57294843Y-92915625D01*
X57287360Y-92908467D01*
X57147373Y-92855873D01*
X57136407Y-92856212D01*
X56999579Y-92913400D01*
X56988123Y-92924883D01*
X56932083Y-93062908D01*
X56932401Y-93079687D01*
X56991496Y-94207274D01*
X55445834Y-94073295D01*
X55398052Y-93161566D01*
X55340807Y-93023639D01*
X55329342Y-93012550D01*
X55192509Y-92958629D01*
X55176118Y-92958947D01*
X55039754Y-93018974D01*
X55032186Y-93026656D01*
X54976038Y-93162629D01*
X54976349Y-93179264D01*
X55106579Y-95664200D01*
X55169736Y-95798766D01*
X55177870Y-95806477D01*
X55317834Y-95862727D01*
X55328283Y-95862429D01*
X55463910Y-95805305D01*
X55475103Y-95793834D01*
X55528548Y-95656124D01*
X55528244Y-95645770D01*
X55467462Y-94485987D01*
X57013086Y-94619235D01*
X57062670Y-95565354D01*
X57125807Y-95699535D01*
X57133923Y-95706899D01*
X57272169Y-95760019D01*
X57288572Y-95759695D01*
G37*
G36*
X53424633Y-93067105D02*
G01*
X53584379Y-93100763D01*
X53739989Y-93160501D01*
X53872755Y-93234166D01*
X53945862Y-93284436D01*
X54065759Y-93384251D01*
X54175420Y-93499138D01*
X54274847Y-93629097D01*
X54364039Y-93774128D01*
X54387309Y-93818039D01*
X54449201Y-93953557D01*
X54499215Y-94094753D01*
X54537350Y-94241628D01*
X54563609Y-94394182D01*
X54577989Y-94552413D01*
X54580689Y-94646155D01*
X54574509Y-94805313D01*
X54554451Y-94958247D01*
X54520514Y-95104956D01*
X54472698Y-95245440D01*
X54402974Y-95394695D01*
X54318955Y-95528464D01*
X54220643Y-95646749D01*
X54108037Y-95749549D01*
X53983754Y-95833426D01*
X53850450Y-95895671D01*
X53708125Y-95936286D01*
X53556778Y-95955270D01*
X53535733Y-95956170D01*
X53370055Y-95948688D01*
X53209155Y-95915091D01*
X53053030Y-95855380D01*
X52920340Y-95781711D01*
X52847074Y-95731484D01*
X52727019Y-95631903D01*
X52617350Y-95517452D01*
X52518067Y-95388133D01*
X52429170Y-95243944D01*
X52405913Y-95200282D01*
X52344045Y-95065201D01*
X52294030Y-94923979D01*
X52255868Y-94776615D01*
X52229560Y-94623110D01*
X52215106Y-94463464D01*
X52212352Y-94368693D01*
X52214619Y-94309021D01*
X52635834Y-94309021D01*
X52637346Y-94456010D01*
X52650301Y-94598696D01*
X52678057Y-94752919D01*
X52719626Y-94897706D01*
X52782902Y-95049310D01*
X52807405Y-95096796D01*
X52888524Y-95226474D01*
X52992045Y-95348077D01*
X53109659Y-95446011D01*
X53237045Y-95517108D01*
X53383520Y-95561712D01*
X53536645Y-95571114D01*
X53591269Y-95565547D01*
X53736629Y-95521574D01*
X53861594Y-95443291D01*
X53939525Y-95368411D01*
X54027109Y-95243064D01*
X54091005Y-95102555D01*
X54114107Y-95031131D01*
X54146036Y-94876348D01*
X54158497Y-94723438D01*
X54156631Y-94576697D01*
X54143805Y-94432469D01*
X54116722Y-94276628D01*
X54076383Y-94130379D01*
X54015158Y-93977313D01*
X53991345Y-93929365D01*
X53912595Y-93798131D01*
X53812235Y-93674500D01*
X53698338Y-93574221D01*
X53574755Y-93500216D01*
X53433185Y-93453534D01*
X53285718Y-93443229D01*
X53230886Y-93448915D01*
X53082721Y-93494479D01*
X52952219Y-93575903D01*
X52869710Y-93653499D01*
X52776742Y-93782429D01*
X52708633Y-93926186D01*
X52683900Y-93998753D01*
X52649539Y-94155240D01*
X52635834Y-94309021D01*
X52214619Y-94309021D01*
X52218454Y-94208064D01*
X52238457Y-94054080D01*
X52272361Y-93906741D01*
X52320166Y-93766047D01*
X52389717Y-93616985D01*
X52473947Y-93483754D01*
X52572856Y-93366355D01*
X52686444Y-93264787D01*
X52811721Y-93181501D01*
X52945735Y-93119677D01*
X53088486Y-93079315D01*
X53239975Y-93060416D01*
X53260751Y-93059529D01*
X53424633Y-93067105D01*
G37*
G36*
X51619172Y-96056815D02*
G01*
X51751637Y-95993768D01*
X51759254Y-95985639D01*
X51814834Y-95846828D01*
X51814551Y-95836728D01*
X51679930Y-93352022D01*
X51623110Y-93215318D01*
X51615880Y-93207898D01*
X51477964Y-93153002D01*
X51467007Y-93153333D01*
X51371646Y-93181810D01*
X51299037Y-93252385D01*
X50081590Y-95264987D01*
X49986257Y-93445920D01*
X49929159Y-93310790D01*
X49917662Y-93299099D01*
X49780677Y-93242277D01*
X49764284Y-93242569D01*
X49629409Y-93306387D01*
X49622046Y-93314592D01*
X49568054Y-93455813D01*
X49568366Y-93466353D01*
X49698442Y-95948362D01*
X49757959Y-96087289D01*
X49765535Y-96094528D01*
X49905484Y-96146394D01*
X49916449Y-96146051D01*
X50010270Y-96116187D01*
X50084305Y-96044804D01*
X51299815Y-94079263D01*
X51397621Y-95861513D01*
X51458995Y-95998967D01*
X51466832Y-96006100D01*
X51608201Y-96057161D01*
X51619172Y-96056815D01*
G37*
G36*
X48879832Y-96176898D02*
G01*
X49015428Y-96119173D01*
X49026615Y-96107572D01*
X49079741Y-95969451D01*
X49079410Y-95952922D01*
X48952017Y-93522134D01*
X48894855Y-93385782D01*
X48883385Y-93374582D01*
X48746513Y-93319936D01*
X48730122Y-93320247D01*
X47048619Y-93408370D01*
X46911808Y-93469711D01*
X46904764Y-93477543D01*
X46852974Y-93618950D01*
X46853317Y-93629921D01*
X46909239Y-93765611D01*
X46920448Y-93776818D01*
X47059745Y-93830180D01*
X47070707Y-93829844D01*
X48545864Y-93752534D01*
X48585132Y-94501820D01*
X47303883Y-94568967D01*
X47166361Y-94629055D01*
X47159219Y-94636715D01*
X47107387Y-94777307D01*
X47107734Y-94788361D01*
X47163726Y-94925377D01*
X47174942Y-94936722D01*
X47315006Y-94990774D01*
X47325971Y-94990440D01*
X48607221Y-94923293D01*
X48651398Y-95766239D01*
X47184290Y-95843127D01*
X47047479Y-95904467D01*
X47040435Y-95912300D01*
X46988645Y-96053707D01*
X46988988Y-96064678D01*
X47044911Y-96200368D01*
X47056119Y-96211575D01*
X47195416Y-96264937D01*
X47206379Y-96264600D01*
X48879832Y-96176898D01*
G37*
D12*
X124550828Y-72161653D02*
X123836542Y-71661653D01*
X124550828Y-71304510D02*
X123050828Y-71304510D01*
X123050828Y-71304510D02*
X123050828Y-71875939D01*
X123050828Y-71875939D02*
X123122257Y-72018796D01*
X123122257Y-72018796D02*
X123193685Y-72090225D01*
X123193685Y-72090225D02*
X123336542Y-72161653D01*
X123336542Y-72161653D02*
X123550828Y-72161653D01*
X123550828Y-72161653D02*
X123693685Y-72090225D01*
X123693685Y-72090225D02*
X123765114Y-72018796D01*
X123765114Y-72018796D02*
X123836542Y-71875939D01*
X123836542Y-71875939D02*
X123836542Y-71304510D01*
X124479400Y-72733082D02*
X124550828Y-72947368D01*
X124550828Y-72947368D02*
X124550828Y-73304510D01*
X124550828Y-73304510D02*
X124479400Y-73447368D01*
X124479400Y-73447368D02*
X124407971Y-73518796D01*
X124407971Y-73518796D02*
X124265114Y-73590225D01*
X124265114Y-73590225D02*
X124122257Y-73590225D01*
X124122257Y-73590225D02*
X123979400Y-73518796D01*
X123979400Y-73518796D02*
X123907971Y-73447368D01*
X123907971Y-73447368D02*
X123836542Y-73304510D01*
X123836542Y-73304510D02*
X123765114Y-73018796D01*
X123765114Y-73018796D02*
X123693685Y-72875939D01*
X123693685Y-72875939D02*
X123622257Y-72804510D01*
X123622257Y-72804510D02*
X123479400Y-72733082D01*
X123479400Y-72733082D02*
X123336542Y-72733082D01*
X123336542Y-72733082D02*
X123193685Y-72804510D01*
X123193685Y-72804510D02*
X123122257Y-72875939D01*
X123122257Y-72875939D02*
X123050828Y-73018796D01*
X123050828Y-73018796D02*
X123050828Y-73375939D01*
X123050828Y-73375939D02*
X123122257Y-73590225D01*
X123050828Y-74018796D02*
X123050828Y-74875939D01*
X124550828Y-74447367D02*
X123050828Y-74447367D01*
X120622257Y-72090225D02*
X120550828Y-71947368D01*
X120550828Y-71947368D02*
X120550828Y-71733082D01*
X120550828Y-71733082D02*
X120622257Y-71518796D01*
X120622257Y-71518796D02*
X120765114Y-71375939D01*
X120765114Y-71375939D02*
X120907971Y-71304510D01*
X120907971Y-71304510D02*
X121193685Y-71233082D01*
X121193685Y-71233082D02*
X121407971Y-71233082D01*
X121407971Y-71233082D02*
X121693685Y-71304510D01*
X121693685Y-71304510D02*
X121836542Y-71375939D01*
X121836542Y-71375939D02*
X121979400Y-71518796D01*
X121979400Y-71518796D02*
X122050828Y-71733082D01*
X122050828Y-71733082D02*
X122050828Y-71875939D01*
X122050828Y-71875939D02*
X121979400Y-72090225D01*
X121979400Y-72090225D02*
X121907971Y-72161653D01*
X121907971Y-72161653D02*
X121407971Y-72161653D01*
X121407971Y-72161653D02*
X121407971Y-71875939D01*
X122050828Y-72804510D02*
X120550828Y-72804510D01*
X120550828Y-72804510D02*
X122050828Y-73661653D01*
X122050828Y-73661653D02*
X120550828Y-73661653D01*
X122050828Y-74375939D02*
X120550828Y-74375939D01*
X120550828Y-74375939D02*
X120550828Y-74733082D01*
X120550828Y-74733082D02*
X120622257Y-74947368D01*
X120622257Y-74947368D02*
X120765114Y-75090225D01*
X120765114Y-75090225D02*
X120907971Y-75161654D01*
X120907971Y-75161654D02*
X121193685Y-75233082D01*
X121193685Y-75233082D02*
X121407971Y-75233082D01*
X121407971Y-75233082D02*
X121693685Y-75161654D01*
X121693685Y-75161654D02*
X121836542Y-75090225D01*
X121836542Y-75090225D02*
X121979400Y-74947368D01*
X121979400Y-74947368D02*
X122050828Y-74733082D01*
X122050828Y-74733082D02*
X122050828Y-74375939D01*
D10*
X126822200Y-71039160D02*
X126869819Y-71182017D01*
X126869819Y-71182017D02*
X126869819Y-71420112D01*
X126869819Y-71420112D02*
X126822200Y-71515350D01*
X126822200Y-71515350D02*
X126774580Y-71562969D01*
X126774580Y-71562969D02*
X126679342Y-71610588D01*
X126679342Y-71610588D02*
X126584104Y-71610588D01*
X126584104Y-71610588D02*
X126488866Y-71562969D01*
X126488866Y-71562969D02*
X126441247Y-71515350D01*
X126441247Y-71515350D02*
X126393628Y-71420112D01*
X126393628Y-71420112D02*
X126346009Y-71229636D01*
X126346009Y-71229636D02*
X126298390Y-71134398D01*
X126298390Y-71134398D02*
X126250771Y-71086779D01*
X126250771Y-71086779D02*
X126155533Y-71039160D01*
X126155533Y-71039160D02*
X126060295Y-71039160D01*
X126060295Y-71039160D02*
X125965057Y-71086779D01*
X125965057Y-71086779D02*
X125917438Y-71134398D01*
X125917438Y-71134398D02*
X125869819Y-71229636D01*
X125869819Y-71229636D02*
X125869819Y-71467731D01*
X125869819Y-71467731D02*
X125917438Y-71610588D01*
X125869819Y-71943922D02*
X126869819Y-72182017D01*
X126869819Y-72182017D02*
X126155533Y-72372493D01*
X126155533Y-72372493D02*
X126869819Y-72562969D01*
X126869819Y-72562969D02*
X125869819Y-72801065D01*
X126869819Y-73182017D02*
X125869819Y-73182017D01*
X125869819Y-73182017D02*
X125869819Y-73420112D01*
X125869819Y-73420112D02*
X125917438Y-73562969D01*
X125917438Y-73562969D02*
X126012676Y-73658207D01*
X126012676Y-73658207D02*
X126107914Y-73705826D01*
X126107914Y-73705826D02*
X126298390Y-73753445D01*
X126298390Y-73753445D02*
X126441247Y-73753445D01*
X126441247Y-73753445D02*
X126631723Y-73705826D01*
X126631723Y-73705826D02*
X126726961Y-73658207D01*
X126726961Y-73658207D02*
X126822200Y-73562969D01*
X126822200Y-73562969D02*
X126869819Y-73420112D01*
X126869819Y-73420112D02*
X126869819Y-73182017D01*
X126869819Y-74182017D02*
X125869819Y-74182017D01*
X125869819Y-74848683D02*
X125869819Y-75039159D01*
X125869819Y-75039159D02*
X125917438Y-75134397D01*
X125917438Y-75134397D02*
X126012676Y-75229635D01*
X126012676Y-75229635D02*
X126203152Y-75277254D01*
X126203152Y-75277254D02*
X126536485Y-75277254D01*
X126536485Y-75277254D02*
X126726961Y-75229635D01*
X126726961Y-75229635D02*
X126822200Y-75134397D01*
X126822200Y-75134397D02*
X126869819Y-75039159D01*
X126869819Y-75039159D02*
X126869819Y-74848683D01*
X126869819Y-74848683D02*
X126822200Y-74753445D01*
X126822200Y-74753445D02*
X126726961Y-74658207D01*
X126726961Y-74658207D02*
X126536485Y-74610588D01*
X126536485Y-74610588D02*
X126203152Y-74610588D01*
X126203152Y-74610588D02*
X126012676Y-74658207D01*
X126012676Y-74658207D02*
X125917438Y-74753445D01*
X125917438Y-74753445D02*
X125869819Y-74848683D01*
D12*
X118050828Y-71090225D02*
X119550828Y-71590225D01*
X119550828Y-71590225D02*
X118050828Y-72090225D01*
X119550828Y-72590224D02*
X118050828Y-72590224D01*
X118050828Y-72590224D02*
X118050828Y-72947367D01*
X118050828Y-72947367D02*
X118122257Y-73161653D01*
X118122257Y-73161653D02*
X118265114Y-73304510D01*
X118265114Y-73304510D02*
X118407971Y-73375939D01*
X118407971Y-73375939D02*
X118693685Y-73447367D01*
X118693685Y-73447367D02*
X118907971Y-73447367D01*
X118907971Y-73447367D02*
X119193685Y-73375939D01*
X119193685Y-73375939D02*
X119336542Y-73304510D01*
X119336542Y-73304510D02*
X119479400Y-73161653D01*
X119479400Y-73161653D02*
X119550828Y-72947367D01*
X119550828Y-72947367D02*
X119550828Y-72590224D01*
X119550828Y-74090224D02*
X118050828Y-74090224D01*
X118050828Y-74090224D02*
X118050828Y-74447367D01*
X118050828Y-74447367D02*
X118122257Y-74661653D01*
X118122257Y-74661653D02*
X118265114Y-74804510D01*
X118265114Y-74804510D02*
X118407971Y-74875939D01*
X118407971Y-74875939D02*
X118693685Y-74947367D01*
X118693685Y-74947367D02*
X118907971Y-74947367D01*
X118907971Y-74947367D02*
X119193685Y-74875939D01*
X119193685Y-74875939D02*
X119336542Y-74804510D01*
X119336542Y-74804510D02*
X119479400Y-74661653D01*
X119479400Y-74661653D02*
X119550828Y-74447367D01*
X119550828Y-74447367D02*
X119550828Y-74090224D01*
D10*
X142212295Y-97878571D02*
X141412295Y-97878571D01*
X141793247Y-97878571D02*
X141793247Y-98335714D01*
X142212295Y-98335714D02*
X141412295Y-98335714D01*
X141793247Y-98716666D02*
X141793247Y-98983332D01*
X142212295Y-99097618D02*
X142212295Y-98716666D01*
X142212295Y-98716666D02*
X141412295Y-98716666D01*
X141412295Y-98716666D02*
X141412295Y-99097618D01*
X141412295Y-99364285D02*
X142212295Y-99897619D01*
X141412295Y-99897619D02*
X142212295Y-99364285D01*
X141487704Y-92921428D02*
X142287704Y-92921428D01*
X141906752Y-92921428D02*
X141906752Y-92464285D01*
X141487704Y-92464285D02*
X142287704Y-92464285D01*
X141906752Y-92083333D02*
X141906752Y-91816667D01*
X141487704Y-91702381D02*
X141487704Y-92083333D01*
X141487704Y-92083333D02*
X142287704Y-92083333D01*
X142287704Y-92083333D02*
X142287704Y-91702381D01*
X142287704Y-91435714D02*
X141487704Y-90902380D01*
X142287704Y-90902380D02*
X141487704Y-91435714D01*
X141487704Y-35971428D02*
X142287704Y-35971428D01*
X141906752Y-35971428D02*
X141906752Y-35514285D01*
X141487704Y-35514285D02*
X142287704Y-35514285D01*
X141906752Y-35133333D02*
X141906752Y-34866667D01*
X141487704Y-34752381D02*
X141487704Y-35133333D01*
X141487704Y-35133333D02*
X142287704Y-35133333D01*
X142287704Y-35133333D02*
X142287704Y-34752381D01*
X142287704Y-34485714D02*
X141487704Y-33952380D01*
X142287704Y-33952380D02*
X141487704Y-34485714D01*
X142212295Y-40928571D02*
X141412295Y-40928571D01*
X141793247Y-40928571D02*
X141793247Y-41385714D01*
X142212295Y-41385714D02*
X141412295Y-41385714D01*
X141793247Y-41766666D02*
X141793247Y-42033332D01*
X142212295Y-42147618D02*
X142212295Y-41766666D01*
X142212295Y-41766666D02*
X141412295Y-41766666D01*
X141412295Y-41766666D02*
X141412295Y-42147618D01*
X141412295Y-42414285D02*
X142212295Y-42947619D01*
X141412295Y-42947619D02*
X142212295Y-42414285D01*
X227630078Y-81716456D02*
X227484925Y-81756533D01*
X227484925Y-81756533D02*
X227247156Y-81744072D01*
X227247156Y-81744072D02*
X227154540Y-81691534D01*
X227154540Y-81691534D02*
X227109479Y-81641488D01*
X227109479Y-81641488D02*
X227066909Y-81543888D01*
X227066909Y-81543888D02*
X227071894Y-81448780D01*
X227071894Y-81448780D02*
X227124432Y-81356165D01*
X227124432Y-81356165D02*
X227174478Y-81311103D01*
X227174478Y-81311103D02*
X227272078Y-81268534D01*
X227272078Y-81268534D02*
X227464785Y-81230949D01*
X227464785Y-81230949D02*
X227562385Y-81188380D01*
X227562385Y-81188380D02*
X227612431Y-81143318D01*
X227612431Y-81143318D02*
X227664969Y-81050703D01*
X227664969Y-81050703D02*
X227669953Y-80955595D01*
X227669953Y-80955595D02*
X227627384Y-80857995D01*
X227627384Y-80857995D02*
X227582322Y-80807949D01*
X227582322Y-80807949D02*
X227489707Y-80755411D01*
X227489707Y-80755411D02*
X227251938Y-80742950D01*
X227251938Y-80742950D02*
X227106784Y-80783027D01*
X226776400Y-80718028D02*
X226486295Y-81704197D01*
X226486295Y-81704197D02*
X226333463Y-80980921D01*
X226333463Y-80980921D02*
X226105865Y-81684259D01*
X226105865Y-81684259D02*
X225920432Y-80673169D01*
X225635109Y-80658216D02*
X225016910Y-80625817D01*
X225016910Y-80625817D02*
X225329849Y-81023693D01*
X225329849Y-81023693D02*
X225187188Y-81016216D01*
X225187188Y-81016216D02*
X225089588Y-81058786D01*
X225089588Y-81058786D02*
X225039542Y-81103847D01*
X225039542Y-81103847D02*
X224987004Y-81196463D01*
X224987004Y-81196463D02*
X224974543Y-81434232D01*
X224974543Y-81434232D02*
X225017112Y-81531831D01*
X225017112Y-81531831D02*
X225062174Y-81581877D01*
X225062174Y-81581877D02*
X225154789Y-81634416D01*
X225154789Y-81634416D02*
X225440112Y-81649369D01*
X225440112Y-81649369D02*
X225537712Y-81606799D01*
X225537712Y-81606799D02*
X225587758Y-81561738D01*
X224631495Y-80700987D02*
X224586434Y-80650941D01*
X224586434Y-80650941D02*
X224493818Y-80598403D01*
X224493818Y-80598403D02*
X224256049Y-80585942D01*
X224256049Y-80585942D02*
X224158450Y-80628512D01*
X224158450Y-80628512D02*
X224108404Y-80673573D01*
X224108404Y-80673573D02*
X224055865Y-80766189D01*
X224055865Y-80766189D02*
X224050881Y-80861296D01*
X224050881Y-80861296D02*
X224090958Y-81006450D01*
X224090958Y-81006450D02*
X224631697Y-81607002D01*
X224631697Y-81607002D02*
X224013498Y-81574603D01*
X119680877Y-115250910D02*
X119538129Y-115202967D01*
X119538129Y-115202967D02*
X119347977Y-115059678D01*
X119347977Y-115059678D02*
X119300575Y-114964332D01*
X119300575Y-114964332D02*
X119291202Y-114897644D01*
X119291202Y-114897644D02*
X119310488Y-114792925D01*
X119310488Y-114792925D02*
X119367804Y-114716865D01*
X119367804Y-114716865D02*
X119463150Y-114669462D01*
X119463150Y-114669462D02*
X119529838Y-114660090D01*
X119529838Y-114660090D02*
X119634556Y-114679375D01*
X119634556Y-114679375D02*
X119815335Y-114755976D01*
X119815335Y-114755976D02*
X119920053Y-114775262D01*
X119920053Y-114775262D02*
X119986741Y-114765889D01*
X119986741Y-114765889D02*
X120082087Y-114718487D01*
X120082087Y-114718487D02*
X120139403Y-114642426D01*
X120139403Y-114642426D02*
X120158689Y-114537708D01*
X120158689Y-114537708D02*
X120149316Y-114471020D01*
X120149316Y-114471020D02*
X120101914Y-114375674D01*
X120101914Y-114375674D02*
X119911762Y-114232385D01*
X119911762Y-114232385D02*
X119769014Y-114184441D01*
X119531460Y-113945806D02*
X118739493Y-114601152D01*
X118739493Y-114601152D02*
X119017240Y-113916067D01*
X119017240Y-113916067D02*
X118435251Y-114371889D01*
X118435251Y-114371889D02*
X118846915Y-113429964D01*
X117522525Y-113684101D02*
X117978888Y-114027995D01*
X117750706Y-113856048D02*
X118352522Y-113057412D01*
X118352522Y-113057412D02*
X118342608Y-113228819D01*
X118342608Y-113228819D02*
X118361353Y-113362195D01*
X118361353Y-113362195D02*
X118408756Y-113457541D01*
X117410056Y-112883843D02*
X117514774Y-112903129D01*
X117514774Y-112903129D02*
X117581463Y-112893756D01*
X117581463Y-112893756D02*
X117676809Y-112846354D01*
X117676809Y-112846354D02*
X117705466Y-112808323D01*
X117705466Y-112808323D02*
X117724752Y-112703605D01*
X117724752Y-112703605D02*
X117715379Y-112636917D01*
X117715379Y-112636917D02*
X117667977Y-112541571D01*
X117667977Y-112541571D02*
X117515856Y-112426939D01*
X117515856Y-112426939D02*
X117411137Y-112407654D01*
X117411137Y-112407654D02*
X117344449Y-112417026D01*
X117344449Y-112417026D02*
X117249103Y-112464429D01*
X117249103Y-112464429D02*
X117220445Y-112502459D01*
X117220445Y-112502459D02*
X117201160Y-112607178D01*
X117201160Y-112607178D02*
X117210532Y-112673866D01*
X117210532Y-112673866D02*
X117257935Y-112769212D01*
X117257935Y-112769212D02*
X117410056Y-112883843D01*
X117410056Y-112883843D02*
X117457459Y-112979189D01*
X117457459Y-112979189D02*
X117466831Y-113045877D01*
X117466831Y-113045877D02*
X117447546Y-113150596D01*
X117447546Y-113150596D02*
X117332914Y-113302717D01*
X117332914Y-113302717D02*
X117237568Y-113350119D01*
X117237568Y-113350119D02*
X117170880Y-113359492D01*
X117170880Y-113359492D02*
X117066162Y-113340206D01*
X117066162Y-113340206D02*
X116914041Y-113225575D01*
X116914041Y-113225575D02*
X116866638Y-113130229D01*
X116866638Y-113130229D02*
X116857266Y-113063541D01*
X116857266Y-113063541D02*
X116876551Y-112958823D01*
X116876551Y-112958823D02*
X116991182Y-112806701D01*
X116991182Y-112806701D02*
X117086528Y-112759299D01*
X117086528Y-112759299D02*
X117153217Y-112749926D01*
X117153217Y-112749926D02*
X117257935Y-112769212D01*
X35846890Y-66547853D02*
X35713241Y-66617234D01*
X35713241Y-66617234D02*
X35478077Y-66654480D01*
X35478077Y-66654480D02*
X35376562Y-66622346D01*
X35376562Y-66622346D02*
X35322080Y-66582762D01*
X35322080Y-66582762D02*
X35260149Y-66496146D01*
X35260149Y-66496146D02*
X35245250Y-66402080D01*
X35245250Y-66402080D02*
X35277385Y-66300565D01*
X35277385Y-66300565D02*
X35316968Y-66246083D01*
X35316968Y-66246083D02*
X35403584Y-66184152D01*
X35403584Y-66184152D02*
X35584266Y-66107322D01*
X35584266Y-66107322D02*
X35670882Y-66045391D01*
X35670882Y-66045391D02*
X35710466Y-65990909D01*
X35710466Y-65990909D02*
X35742600Y-65889394D01*
X35742600Y-65889394D02*
X35727702Y-65795329D01*
X35727702Y-65795329D02*
X35665770Y-65708712D01*
X35665770Y-65708712D02*
X35611288Y-65669129D01*
X35611288Y-65669129D02*
X35509774Y-65636994D01*
X35509774Y-65636994D02*
X35274610Y-65674241D01*
X35274610Y-65674241D02*
X35140961Y-65743621D01*
X34804282Y-65748733D02*
X34725552Y-66773668D01*
X34725552Y-66773668D02*
X34425682Y-66097973D01*
X34425682Y-66097973D02*
X34349290Y-66833262D01*
X34349290Y-66833262D02*
X33957692Y-65882820D01*
X33158135Y-66009457D02*
X33346266Y-65979660D01*
X33346266Y-65979660D02*
X33447781Y-66011795D01*
X33447781Y-66011795D02*
X33502263Y-66051378D01*
X33502263Y-66051378D02*
X33618676Y-66177578D01*
X33618676Y-66177578D02*
X33695506Y-66358260D01*
X33695506Y-66358260D02*
X33755100Y-66734522D01*
X33755100Y-66734522D02*
X33722966Y-66836037D01*
X33722966Y-66836037D02*
X33683382Y-66890519D01*
X33683382Y-66890519D02*
X33596766Y-66952450D01*
X33596766Y-66952450D02*
X33408635Y-66982247D01*
X33408635Y-66982247D02*
X33307120Y-66950113D01*
X33307120Y-66950113D02*
X33252638Y-66910530D01*
X33252638Y-66910530D02*
X33190707Y-66823913D01*
X33190707Y-66823913D02*
X33153460Y-66588749D01*
X33153460Y-66588749D02*
X33185595Y-66487235D01*
X33185595Y-66487235D02*
X33225178Y-66432752D01*
X33225178Y-66432752D02*
X33311794Y-66370821D01*
X33311794Y-66370821D02*
X33499926Y-66341024D01*
X33499926Y-66341024D02*
X33601440Y-66373158D01*
X33601440Y-66373158D02*
X33655922Y-66412742D01*
X33655922Y-66412742D02*
X33717854Y-66499358D01*
X178462811Y-91806620D02*
X178348194Y-91904287D01*
X178348194Y-91904287D02*
X178127436Y-91993479D01*
X178127436Y-91993479D02*
X178021294Y-91985004D01*
X178021294Y-91985004D02*
X177959304Y-91958691D01*
X177959304Y-91958691D02*
X177879476Y-91888226D01*
X177879476Y-91888226D02*
X177843799Y-91799923D01*
X177843799Y-91799923D02*
X177852274Y-91693781D01*
X177852274Y-91693781D02*
X177878587Y-91631791D01*
X177878587Y-91631791D02*
X177949052Y-91551963D01*
X177949052Y-91551963D02*
X178107820Y-91436458D01*
X178107820Y-91436458D02*
X178178285Y-91356629D01*
X178178285Y-91356629D02*
X178204598Y-91294639D01*
X178204598Y-91294639D02*
X178213073Y-91188498D01*
X178213073Y-91188498D02*
X178177396Y-91100194D01*
X178177396Y-91100194D02*
X178097568Y-91029730D01*
X178097568Y-91029730D02*
X178035578Y-91003416D01*
X178035578Y-91003416D02*
X177929436Y-90994942D01*
X177929436Y-90994942D02*
X177708678Y-91084134D01*
X177708678Y-91084134D02*
X177594061Y-91181800D01*
X177267162Y-91262518D02*
X177421010Y-92278894D01*
X177421010Y-92278894D02*
X176976828Y-91687973D01*
X176976828Y-91687973D02*
X177067797Y-92421601D01*
X177067797Y-92421601D02*
X176472433Y-91583609D01*
X176207523Y-91690640D02*
X175633552Y-91922539D01*
X175633552Y-91922539D02*
X176085321Y-92150883D01*
X176085321Y-92150883D02*
X175952866Y-92204398D01*
X175952866Y-92204398D02*
X175882401Y-92284227D01*
X175882401Y-92284227D02*
X175856088Y-92346217D01*
X175856088Y-92346217D02*
X175847613Y-92452358D01*
X175847613Y-92452358D02*
X175936805Y-92673116D01*
X175936805Y-92673116D02*
X176016634Y-92743581D01*
X176016634Y-92743581D02*
X176078624Y-92769894D01*
X176078624Y-92769894D02*
X176184765Y-92778369D01*
X176184765Y-92778369D02*
X176449675Y-92671339D01*
X176449675Y-92671339D02*
X176520140Y-92591510D01*
X176520140Y-92591510D02*
X176546453Y-92529520D01*
X174794672Y-92261469D02*
X175236188Y-92083085D01*
X175236188Y-92083085D02*
X175458723Y-92506762D01*
X175458723Y-92506762D02*
X175396733Y-92480449D01*
X175396733Y-92480449D02*
X175290592Y-92471974D01*
X175290592Y-92471974D02*
X175069834Y-92561166D01*
X175069834Y-92561166D02*
X174999369Y-92640995D01*
X174999369Y-92640995D02*
X174973056Y-92702985D01*
X174973056Y-92702985D02*
X174964581Y-92809126D01*
X174964581Y-92809126D02*
X175053773Y-93029884D01*
X175053773Y-93029884D02*
X175133601Y-93100349D01*
X175133601Y-93100349D02*
X175195591Y-93126662D01*
X175195591Y-93126662D02*
X175301733Y-93135137D01*
X175301733Y-93135137D02*
X175522491Y-93045945D01*
X175522491Y-93045945D02*
X175592956Y-92966117D01*
X175592956Y-92966117D02*
X175619269Y-92904127D01*
X248655650Y-81714833D02*
X248507102Y-81739518D01*
X248507102Y-81739518D02*
X248271938Y-81702272D01*
X248271938Y-81702272D02*
X248185322Y-81640340D01*
X248185322Y-81640340D02*
X248145739Y-81585858D01*
X248145739Y-81585858D02*
X248113604Y-81484344D01*
X248113604Y-81484344D02*
X248128503Y-81390278D01*
X248128503Y-81390278D02*
X248190434Y-81303662D01*
X248190434Y-81303662D02*
X248244916Y-81264078D01*
X248244916Y-81264078D02*
X248346431Y-81231944D01*
X248346431Y-81231944D02*
X248542011Y-81214708D01*
X248542011Y-81214708D02*
X248643526Y-81182574D01*
X248643526Y-81182574D02*
X248698008Y-81142990D01*
X248698008Y-81142990D02*
X248759940Y-81056374D01*
X248759940Y-81056374D02*
X248774838Y-80962309D01*
X248774838Y-80962309D02*
X248742704Y-80860794D01*
X248742704Y-80860794D02*
X248703120Y-80806312D01*
X248703120Y-80806312D02*
X248616504Y-80744380D01*
X248616504Y-80744380D02*
X248381340Y-80707134D01*
X248381340Y-80707134D02*
X248232793Y-80731819D01*
X247911012Y-80632642D02*
X247519414Y-81583084D01*
X247519414Y-81583084D02*
X247443022Y-80847795D01*
X247443022Y-80847795D02*
X247143152Y-81523490D01*
X247143152Y-81523490D02*
X247064422Y-80498555D01*
X246720294Y-80540476D02*
X246680711Y-80485994D01*
X246680711Y-80485994D02*
X246594095Y-80424062D01*
X246594095Y-80424062D02*
X246358931Y-80386816D01*
X246358931Y-80386816D02*
X246257416Y-80418950D01*
X246257416Y-80418950D02*
X246202934Y-80458534D01*
X246202934Y-80458534D02*
X246141003Y-80545150D01*
X246141003Y-80545150D02*
X246126104Y-80639216D01*
X246126104Y-80639216D02*
X246150789Y-80787763D01*
X246150789Y-80787763D02*
X246625791Y-81441548D01*
X246625791Y-81441548D02*
X246014365Y-81344707D01*
X245539363Y-80690923D02*
X245640878Y-80658789D01*
X245640878Y-80658789D02*
X245695360Y-80619205D01*
X245695360Y-80619205D02*
X245757291Y-80532589D01*
X245757291Y-80532589D02*
X245764740Y-80485556D01*
X245764740Y-80485556D02*
X245732606Y-80384041D01*
X245732606Y-80384041D02*
X245693023Y-80329559D01*
X245693023Y-80329559D02*
X245606406Y-80267628D01*
X245606406Y-80267628D02*
X245418275Y-80237831D01*
X245418275Y-80237831D02*
X245316760Y-80269965D01*
X245316760Y-80269965D02*
X245262278Y-80309549D01*
X245262278Y-80309549D02*
X245200347Y-80396165D01*
X245200347Y-80396165D02*
X245192898Y-80443198D01*
X245192898Y-80443198D02*
X245225032Y-80544712D01*
X245225032Y-80544712D02*
X245264616Y-80599194D01*
X245264616Y-80599194D02*
X245351232Y-80661126D01*
X245351232Y-80661126D02*
X245539363Y-80690923D01*
X245539363Y-80690923D02*
X245625979Y-80752854D01*
X245625979Y-80752854D02*
X245665563Y-80807336D01*
X245665563Y-80807336D02*
X245697697Y-80908851D01*
X245697697Y-80908851D02*
X245667900Y-81096982D01*
X245667900Y-81096982D02*
X245605969Y-81183598D01*
X245605969Y-81183598D02*
X245551487Y-81223182D01*
X245551487Y-81223182D02*
X245449972Y-81255316D01*
X245449972Y-81255316D02*
X245261841Y-81225519D01*
X245261841Y-81225519D02*
X245175224Y-81163588D01*
X245175224Y-81163588D02*
X245135641Y-81109106D01*
X245135641Y-81109106D02*
X245103507Y-81007591D01*
X245103507Y-81007591D02*
X245133304Y-80819460D01*
X245133304Y-80819460D02*
X245195235Y-80732844D01*
X245195235Y-80732844D02*
X245249717Y-80693260D01*
X245249717Y-80693260D02*
X245351232Y-80661126D01*
X207610946Y-41992038D02*
X207469838Y-42044614D01*
X207469838Y-42044614D02*
X207231888Y-42052923D01*
X207231888Y-42052923D02*
X207135046Y-42008657D01*
X207135046Y-42008657D02*
X207085794Y-41962729D01*
X207085794Y-41962729D02*
X207034880Y-41869210D01*
X207034880Y-41869210D02*
X207031556Y-41774030D01*
X207031556Y-41774030D02*
X207075822Y-41677188D01*
X207075822Y-41677188D02*
X207121751Y-41627936D01*
X207121751Y-41627936D02*
X207215269Y-41577023D01*
X207215269Y-41577023D02*
X207403967Y-41522785D01*
X207403967Y-41522785D02*
X207497485Y-41471871D01*
X207497485Y-41471871D02*
X207543413Y-41422619D01*
X207543413Y-41422619D02*
X207587680Y-41325777D01*
X207587680Y-41325777D02*
X207584356Y-41230597D01*
X207584356Y-41230597D02*
X207533442Y-41137079D01*
X207533442Y-41137079D02*
X207484190Y-41091151D01*
X207484190Y-41091151D02*
X207387348Y-41046885D01*
X207387348Y-41046885D02*
X207149398Y-41055194D01*
X207149398Y-41055194D02*
X207008290Y-41107770D01*
X206673498Y-41071813D02*
X206470447Y-42079513D01*
X206470447Y-42079513D02*
X206255159Y-41372310D01*
X206255159Y-41372310D02*
X206089727Y-42092808D01*
X206089727Y-42092808D02*
X205816877Y-41101727D01*
X205487071Y-41208540D02*
X205437819Y-41162612D01*
X205437819Y-41162612D02*
X205340977Y-41118346D01*
X205340977Y-41118346D02*
X205103027Y-41126655D01*
X205103027Y-41126655D02*
X205009508Y-41177569D01*
X205009508Y-41177569D02*
X204963580Y-41226821D01*
X204963580Y-41226821D02*
X204919314Y-41323663D01*
X204919314Y-41323663D02*
X204922638Y-41418843D01*
X204922638Y-41418843D02*
X204975213Y-41559951D01*
X204975213Y-41559951D02*
X205566236Y-42111089D01*
X205566236Y-42111089D02*
X204947566Y-42132693D01*
X203995765Y-42165931D02*
X204566845Y-42145988D01*
X204281305Y-42155960D02*
X204246406Y-41156569D01*
X204246406Y-41156569D02*
X204346571Y-41296015D01*
X204346571Y-41296015D02*
X204445075Y-41387872D01*
X204445075Y-41387872D02*
X204541917Y-41432138D01*
X190285010Y-61608660D02*
X190143902Y-61661236D01*
X190143902Y-61661236D02*
X189905952Y-61669545D01*
X189905952Y-61669545D02*
X189809110Y-61625279D01*
X189809110Y-61625279D02*
X189759858Y-61579351D01*
X189759858Y-61579351D02*
X189708944Y-61485832D01*
X189708944Y-61485832D02*
X189705620Y-61390652D01*
X189705620Y-61390652D02*
X189749886Y-61293810D01*
X189749886Y-61293810D02*
X189795815Y-61244558D01*
X189795815Y-61244558D02*
X189889333Y-61193645D01*
X189889333Y-61193645D02*
X190078031Y-61139407D01*
X190078031Y-61139407D02*
X190171549Y-61088493D01*
X190171549Y-61088493D02*
X190217477Y-61039241D01*
X190217477Y-61039241D02*
X190261744Y-60942399D01*
X190261744Y-60942399D02*
X190258420Y-60847219D01*
X190258420Y-60847219D02*
X190207506Y-60753701D01*
X190207506Y-60753701D02*
X190158254Y-60707773D01*
X190158254Y-60707773D02*
X190061412Y-60663507D01*
X190061412Y-60663507D02*
X189823462Y-60671816D01*
X189823462Y-60671816D02*
X189682354Y-60724392D01*
X189347562Y-60688435D02*
X189144511Y-61696135D01*
X189144511Y-61696135D02*
X188929223Y-60988932D01*
X188929223Y-60988932D02*
X188763791Y-61709430D01*
X188763791Y-61709430D02*
X188490941Y-60718349D01*
X188161135Y-60825162D02*
X188111883Y-60779234D01*
X188111883Y-60779234D02*
X188015041Y-60734968D01*
X188015041Y-60734968D02*
X187777091Y-60743277D01*
X187777091Y-60743277D02*
X187683572Y-60794191D01*
X187683572Y-60794191D02*
X187637644Y-60843443D01*
X187637644Y-60843443D02*
X187593378Y-60940285D01*
X187593378Y-60940285D02*
X187596702Y-61035465D01*
X187596702Y-61035465D02*
X187649277Y-61176573D01*
X187649277Y-61176573D02*
X188240300Y-61727711D01*
X188240300Y-61727711D02*
X187621630Y-61749315D01*
X186682520Y-60781500D02*
X187158420Y-60764881D01*
X187158420Y-60764881D02*
X187222629Y-61239120D01*
X187222629Y-61239120D02*
X187173377Y-61193192D01*
X187173377Y-61193192D02*
X187076535Y-61148926D01*
X187076535Y-61148926D02*
X186838585Y-61157235D01*
X186838585Y-61157235D02*
X186745067Y-61208149D01*
X186745067Y-61208149D02*
X186699138Y-61257401D01*
X186699138Y-61257401D02*
X186654872Y-61354243D01*
X186654872Y-61354243D02*
X186663181Y-61592193D01*
X186663181Y-61592193D02*
X186714095Y-61685711D01*
X186714095Y-61685711D02*
X186763347Y-61731639D01*
X186763347Y-61731639D02*
X186860189Y-61775905D01*
X186860189Y-61775905D02*
X187098139Y-61767596D01*
X187098139Y-61767596D02*
X187191658Y-61716682D01*
X187191658Y-61716682D02*
X187237586Y-61667430D01*
X96657712Y-89500935D02*
X96510117Y-89530789D01*
X96510117Y-89530789D02*
X96273796Y-89501772D01*
X96273796Y-89501772D02*
X96185071Y-89442902D01*
X96185071Y-89442902D02*
X96143610Y-89389834D01*
X96143610Y-89389834D02*
X96107953Y-89289503D01*
X96107953Y-89289503D02*
X96119559Y-89194975D01*
X96119559Y-89194975D02*
X96178430Y-89106250D01*
X96178430Y-89106250D02*
X96231498Y-89064789D01*
X96231498Y-89064789D02*
X96331829Y-89029131D01*
X96331829Y-89029131D02*
X96526689Y-89005081D01*
X96526689Y-89005081D02*
X96627020Y-88969423D01*
X96627020Y-88969423D02*
X96680088Y-88927962D01*
X96680088Y-88927962D02*
X96738958Y-88839237D01*
X96738958Y-88839237D02*
X96750565Y-88744709D01*
X96750565Y-88744709D02*
X96714908Y-88644378D01*
X96714908Y-88644378D02*
X96673447Y-88591310D01*
X96673447Y-88591310D02*
X96584722Y-88532440D01*
X96584722Y-88532440D02*
X96348401Y-88503423D01*
X96348401Y-88503423D02*
X96200806Y-88533277D01*
X95875760Y-88445390D02*
X95517570Y-89408920D01*
X95517570Y-89408920D02*
X95415564Y-88676745D01*
X95415564Y-88676745D02*
X95139458Y-89362493D01*
X95139458Y-89362493D02*
X95025006Y-88340931D01*
X94005119Y-89223214D02*
X94572288Y-89292854D01*
X94288704Y-89258034D02*
X94410573Y-88265488D01*
X94410573Y-88265488D02*
X94487692Y-88418887D01*
X94487692Y-88418887D02*
X94570613Y-88525021D01*
X94570613Y-88525021D02*
X94659338Y-88583892D01*
X93276235Y-88126208D02*
X93465291Y-88149422D01*
X93465291Y-88149422D02*
X93554016Y-88208292D01*
X93554016Y-88208292D02*
X93595477Y-88261360D01*
X93595477Y-88261360D02*
X93672595Y-88414759D01*
X93672595Y-88414759D02*
X93696646Y-88609618D01*
X93696646Y-88609618D02*
X93650220Y-88987731D01*
X93650220Y-88987731D02*
X93591349Y-89076456D01*
X93591349Y-89076456D02*
X93538281Y-89117917D01*
X93538281Y-89117917D02*
X93437950Y-89153574D01*
X93437950Y-89153574D02*
X93248894Y-89130361D01*
X93248894Y-89130361D02*
X93160169Y-89071490D01*
X93160169Y-89071490D02*
X93118708Y-89018423D01*
X93118708Y-89018423D02*
X93083050Y-88918092D01*
X93083050Y-88918092D02*
X93112067Y-88681771D01*
X93112067Y-88681771D02*
X93170938Y-88593046D01*
X93170938Y-88593046D02*
X93224005Y-88551585D01*
X93224005Y-88551585D02*
X93324336Y-88515928D01*
X93324336Y-88515928D02*
X93513393Y-88539141D01*
X93513393Y-88539141D02*
X93602118Y-88598012D01*
X93602118Y-88598012D02*
X93643579Y-88651079D01*
X93643579Y-88651079D02*
X93679236Y-88751411D01*
X172959056Y-81225267D02*
X172817948Y-81277843D01*
X172817948Y-81277843D02*
X172579998Y-81286152D01*
X172579998Y-81286152D02*
X172483156Y-81241886D01*
X172483156Y-81241886D02*
X172433904Y-81195958D01*
X172433904Y-81195958D02*
X172382990Y-81102439D01*
X172382990Y-81102439D02*
X172379666Y-81007259D01*
X172379666Y-81007259D02*
X172423932Y-80910417D01*
X172423932Y-80910417D02*
X172469861Y-80861165D01*
X172469861Y-80861165D02*
X172563379Y-80810252D01*
X172563379Y-80810252D02*
X172752077Y-80756014D01*
X172752077Y-80756014D02*
X172845595Y-80705100D01*
X172845595Y-80705100D02*
X172891523Y-80655848D01*
X172891523Y-80655848D02*
X172935790Y-80559006D01*
X172935790Y-80559006D02*
X172932466Y-80463826D01*
X172932466Y-80463826D02*
X172881552Y-80370308D01*
X172881552Y-80370308D02*
X172832300Y-80324380D01*
X172832300Y-80324380D02*
X172735458Y-80280114D01*
X172735458Y-80280114D02*
X172497508Y-80288423D01*
X172497508Y-80288423D02*
X172356400Y-80340999D01*
X172021608Y-80305042D02*
X171818557Y-81312742D01*
X171818557Y-81312742D02*
X171603269Y-80605539D01*
X171603269Y-80605539D02*
X171437837Y-81326037D01*
X171437837Y-81326037D02*
X171164987Y-80334956D01*
X170835181Y-80441769D02*
X170785929Y-80395841D01*
X170785929Y-80395841D02*
X170689087Y-80351575D01*
X170689087Y-80351575D02*
X170451137Y-80359884D01*
X170451137Y-80359884D02*
X170357618Y-80410798D01*
X170357618Y-80410798D02*
X170311690Y-80460050D01*
X170311690Y-80460050D02*
X170267424Y-80556892D01*
X170267424Y-80556892D02*
X170270748Y-80652072D01*
X170270748Y-80652072D02*
X170323323Y-80793180D01*
X170323323Y-80793180D02*
X170914346Y-81344318D01*
X170914346Y-81344318D02*
X170295676Y-81365922D01*
X169819775Y-81382541D02*
X169629415Y-81389189D01*
X169629415Y-81389189D02*
X169532573Y-81344922D01*
X169532573Y-81344922D02*
X169483321Y-81298994D01*
X169483321Y-81298994D02*
X169383156Y-81159548D01*
X169383156Y-81159548D02*
X169328918Y-80970850D01*
X169328918Y-80970850D02*
X169315623Y-80590129D01*
X169315623Y-80590129D02*
X169359889Y-80493287D01*
X169359889Y-80493287D02*
X169405817Y-80444035D01*
X169405817Y-80444035D02*
X169499336Y-80393122D01*
X169499336Y-80393122D02*
X169689696Y-80386474D01*
X169689696Y-80386474D02*
X169786538Y-80430740D01*
X169786538Y-80430740D02*
X169835790Y-80476669D01*
X169835790Y-80476669D02*
X169886704Y-80570187D01*
X169886704Y-80570187D02*
X169895013Y-80808137D01*
X169895013Y-80808137D02*
X169850747Y-80904979D01*
X169850747Y-80904979D02*
X169804818Y-80954231D01*
X169804818Y-80954231D02*
X169711300Y-81005145D01*
X169711300Y-81005145D02*
X169520940Y-81011792D01*
X169520940Y-81011792D02*
X169424098Y-80967526D01*
X169424098Y-80967526D02*
X169374846Y-80921598D01*
X169374846Y-80921598D02*
X169323932Y-80828079D01*
X228519800Y-64739763D02*
X228374647Y-64779840D01*
X228374647Y-64779840D02*
X228136878Y-64767379D01*
X228136878Y-64767379D02*
X228044262Y-64714841D01*
X228044262Y-64714841D02*
X227999201Y-64664795D01*
X227999201Y-64664795D02*
X227956631Y-64567195D01*
X227956631Y-64567195D02*
X227961616Y-64472087D01*
X227961616Y-64472087D02*
X228014154Y-64379472D01*
X228014154Y-64379472D02*
X228064200Y-64334410D01*
X228064200Y-64334410D02*
X228161800Y-64291841D01*
X228161800Y-64291841D02*
X228354507Y-64254256D01*
X228354507Y-64254256D02*
X228452107Y-64211687D01*
X228452107Y-64211687D02*
X228502153Y-64166625D01*
X228502153Y-64166625D02*
X228554691Y-64074010D01*
X228554691Y-64074010D02*
X228559675Y-63978902D01*
X228559675Y-63978902D02*
X228517106Y-63881302D01*
X228517106Y-63881302D02*
X228472044Y-63831256D01*
X228472044Y-63831256D02*
X228379429Y-63778718D01*
X228379429Y-63778718D02*
X228141660Y-63766257D01*
X228141660Y-63766257D02*
X227996506Y-63806334D01*
X227666122Y-63741335D02*
X227376017Y-64727504D01*
X227376017Y-64727504D02*
X227223185Y-64004228D01*
X227223185Y-64004228D02*
X226995587Y-64707566D01*
X226995587Y-64707566D02*
X226810154Y-63696476D01*
X226472293Y-63774138D02*
X226427231Y-63724092D01*
X226427231Y-63724092D02*
X226334616Y-63671554D01*
X226334616Y-63671554D02*
X226096847Y-63659093D01*
X226096847Y-63659093D02*
X225999247Y-63701662D01*
X225999247Y-63701662D02*
X225949201Y-63746724D01*
X225949201Y-63746724D02*
X225896663Y-63839339D01*
X225896663Y-63839339D02*
X225891679Y-63934447D01*
X225891679Y-63934447D02*
X225931756Y-64079601D01*
X225931756Y-64079601D02*
X226472495Y-64680152D01*
X226472495Y-64680152D02*
X225854296Y-64647754D01*
X225573755Y-63631679D02*
X224908002Y-63596788D01*
X224908002Y-63596788D02*
X225283651Y-64617848D01*
X115481186Y-49513412D02*
X115336754Y-49556016D01*
X115336754Y-49556016D02*
X115098804Y-49547707D01*
X115098804Y-49547707D02*
X115005286Y-49496793D01*
X115005286Y-49496793D02*
X114959357Y-49447541D01*
X114959357Y-49447541D02*
X114915091Y-49350699D01*
X114915091Y-49350699D02*
X114918415Y-49255519D01*
X114918415Y-49255519D02*
X114969329Y-49162001D01*
X114969329Y-49162001D02*
X115018581Y-49116073D01*
X115018581Y-49116073D02*
X115115423Y-49071807D01*
X115115423Y-49071807D02*
X115307445Y-49030864D01*
X115307445Y-49030864D02*
X115404287Y-48986598D01*
X115404287Y-48986598D02*
X115453538Y-48940670D01*
X115453538Y-48940670D02*
X115504452Y-48847151D01*
X115504452Y-48847151D02*
X115507776Y-48751971D01*
X115507776Y-48751971D02*
X115463510Y-48655129D01*
X115463510Y-48655129D02*
X115417582Y-48605877D01*
X115417582Y-48605877D02*
X115324063Y-48554964D01*
X115324063Y-48554964D02*
X115086113Y-48546654D01*
X115086113Y-48546654D02*
X114941681Y-48589259D01*
X114610213Y-48530035D02*
X114337363Y-49521117D01*
X114337363Y-49521117D02*
X114171931Y-48800619D01*
X114171931Y-48800619D02*
X113956643Y-49507822D01*
X113956643Y-49507822D02*
X113753592Y-48500122D01*
X112814482Y-49467937D02*
X113385562Y-49487879D01*
X113100022Y-49477908D02*
X113134922Y-48478517D01*
X113134922Y-48478517D02*
X113225116Y-48624611D01*
X113225116Y-48624611D02*
X113316972Y-48723115D01*
X113316972Y-48723115D02*
X113410491Y-48774029D01*
X112230711Y-48446941D02*
X112135531Y-48443618D01*
X112135531Y-48443618D02*
X112038689Y-48487884D01*
X112038689Y-48487884D02*
X111989437Y-48533812D01*
X111989437Y-48533812D02*
X111938523Y-48627330D01*
X111938523Y-48627330D02*
X111884286Y-48816029D01*
X111884286Y-48816029D02*
X111875976Y-49053979D01*
X111875976Y-49053979D02*
X111916919Y-49246001D01*
X111916919Y-49246001D02*
X111961185Y-49342843D01*
X111961185Y-49342843D02*
X112007113Y-49392095D01*
X112007113Y-49392095D02*
X112100631Y-49443008D01*
X112100631Y-49443008D02*
X112195811Y-49446332D01*
X112195811Y-49446332D02*
X112292653Y-49402066D01*
X112292653Y-49402066D02*
X112341905Y-49356138D01*
X112341905Y-49356138D02*
X112392819Y-49262620D01*
X112392819Y-49262620D02*
X112447057Y-49073921D01*
X112447057Y-49073921D02*
X112455366Y-48835971D01*
X112455366Y-48835971D02*
X112414424Y-48643949D01*
X112414424Y-48643949D02*
X112370157Y-48547107D01*
X112370157Y-48547107D02*
X112324229Y-48497855D01*
X112324229Y-48497855D02*
X112230711Y-48446941D01*
X117878139Y-96850862D02*
X117727846Y-96841499D01*
X117727846Y-96841499D02*
X117507088Y-96752307D01*
X117507088Y-96752307D02*
X117436623Y-96672478D01*
X117436623Y-96672478D02*
X117410310Y-96610488D01*
X117410310Y-96610488D02*
X117401835Y-96504347D01*
X117401835Y-96504347D02*
X117437512Y-96416043D01*
X117437512Y-96416043D02*
X117517340Y-96345579D01*
X117517340Y-96345579D02*
X117579330Y-96319265D01*
X117579330Y-96319265D02*
X117685472Y-96310791D01*
X117685472Y-96310791D02*
X117879917Y-96337993D01*
X117879917Y-96337993D02*
X117986058Y-96329518D01*
X117986058Y-96329518D02*
X118048048Y-96303205D01*
X118048048Y-96303205D02*
X118127877Y-96232740D01*
X118127877Y-96232740D02*
X118163554Y-96144437D01*
X118163554Y-96144437D02*
X118155079Y-96038295D01*
X118155079Y-96038295D02*
X118128766Y-95976305D01*
X118128766Y-95976305D02*
X118058301Y-95896476D01*
X118058301Y-95896476D02*
X117837543Y-95807284D01*
X117837543Y-95807284D02*
X117687249Y-95797921D01*
X117396026Y-95628900D02*
X116800662Y-96466892D01*
X116800662Y-96466892D02*
X116891632Y-95733264D01*
X116891632Y-95733264D02*
X116447449Y-96324185D01*
X116447449Y-96324185D02*
X116601297Y-95307809D01*
X115387810Y-95896063D02*
X115917630Y-96110124D01*
X115652720Y-96003094D02*
X116027327Y-95075910D01*
X116027327Y-95075910D02*
X116062115Y-95244041D01*
X116062115Y-95244041D02*
X116114741Y-95368021D01*
X116114741Y-95368021D02*
X116185206Y-95447850D01*
X115453356Y-94844010D02*
X114835233Y-94594273D01*
X114835233Y-94594273D02*
X114857991Y-95682002D01*
X38976592Y-83264072D02*
X38842943Y-83333453D01*
X38842943Y-83333453D02*
X38607779Y-83370699D01*
X38607779Y-83370699D02*
X38506264Y-83338565D01*
X38506264Y-83338565D02*
X38451782Y-83298981D01*
X38451782Y-83298981D02*
X38389851Y-83212365D01*
X38389851Y-83212365D02*
X38374953Y-83118300D01*
X38374953Y-83118300D02*
X38407087Y-83016785D01*
X38407087Y-83016785D02*
X38446670Y-82962303D01*
X38446670Y-82962303D02*
X38533287Y-82900371D01*
X38533287Y-82900371D02*
X38713968Y-82823542D01*
X38713968Y-82823542D02*
X38800585Y-82761610D01*
X38800585Y-82761610D02*
X38840168Y-82707128D01*
X38840168Y-82707128D02*
X38872303Y-82605613D01*
X38872303Y-82605613D02*
X38857404Y-82511548D01*
X38857404Y-82511548D02*
X38795473Y-82424932D01*
X38795473Y-82424932D02*
X38740991Y-82385348D01*
X38740991Y-82385348D02*
X38639476Y-82353214D01*
X38639476Y-82353214D02*
X38404312Y-82390460D01*
X38404312Y-82390460D02*
X38270663Y-82459841D01*
X37933984Y-82464953D02*
X37855255Y-83489887D01*
X37855255Y-83489887D02*
X37555385Y-82814193D01*
X37555385Y-82814193D02*
X37478992Y-83549481D01*
X37478992Y-83549481D02*
X37087394Y-82599039D01*
X36350206Y-83728264D02*
X36914599Y-83638873D01*
X36632403Y-83683568D02*
X36475968Y-82695880D01*
X36475968Y-82695880D02*
X36592382Y-82822080D01*
X36592382Y-82822080D02*
X36701346Y-82901247D01*
X36701346Y-82901247D02*
X36802860Y-82933381D01*
X35409550Y-83877249D02*
X35973944Y-83787858D01*
X35691747Y-83832553D02*
X35535313Y-82844865D01*
X35535313Y-82844865D02*
X35651726Y-82971065D01*
X35651726Y-82971065D02*
X35760690Y-83050232D01*
X35760690Y-83050232D02*
X35862205Y-83082366D01*
X208204244Y-58981685D02*
X208063136Y-59034261D01*
X208063136Y-59034261D02*
X207825186Y-59042570D01*
X207825186Y-59042570D02*
X207728344Y-58998304D01*
X207728344Y-58998304D02*
X207679092Y-58952376D01*
X207679092Y-58952376D02*
X207628178Y-58858857D01*
X207628178Y-58858857D02*
X207624854Y-58763677D01*
X207624854Y-58763677D02*
X207669120Y-58666835D01*
X207669120Y-58666835D02*
X207715049Y-58617583D01*
X207715049Y-58617583D02*
X207808567Y-58566670D01*
X207808567Y-58566670D02*
X207997265Y-58512432D01*
X207997265Y-58512432D02*
X208090783Y-58461518D01*
X208090783Y-58461518D02*
X208136711Y-58412266D01*
X208136711Y-58412266D02*
X208180978Y-58315424D01*
X208180978Y-58315424D02*
X208177654Y-58220244D01*
X208177654Y-58220244D02*
X208126740Y-58126726D01*
X208126740Y-58126726D02*
X208077488Y-58080798D01*
X208077488Y-58080798D02*
X207980646Y-58036532D01*
X207980646Y-58036532D02*
X207742696Y-58044841D01*
X207742696Y-58044841D02*
X207601588Y-58097417D01*
X207266796Y-58061460D02*
X207063745Y-59069160D01*
X207063745Y-59069160D02*
X206848457Y-58361957D01*
X206848457Y-58361957D02*
X206683025Y-59082455D01*
X206683025Y-59082455D02*
X206410175Y-58091374D01*
X206080369Y-58198187D02*
X206031117Y-58152259D01*
X206031117Y-58152259D02*
X205934275Y-58107993D01*
X205934275Y-58107993D02*
X205696325Y-58116302D01*
X205696325Y-58116302D02*
X205602806Y-58167216D01*
X205602806Y-58167216D02*
X205556878Y-58216468D01*
X205556878Y-58216468D02*
X205512612Y-58313310D01*
X205512612Y-58313310D02*
X205515936Y-58408490D01*
X205515936Y-58408490D02*
X205568511Y-58549598D01*
X205568511Y-58549598D02*
X206159534Y-59100736D01*
X206159534Y-59100736D02*
X205540864Y-59122340D01*
X204649344Y-58152863D02*
X204839704Y-58146216D01*
X204839704Y-58146216D02*
X204936546Y-58190482D01*
X204936546Y-58190482D02*
X204985798Y-58236410D01*
X204985798Y-58236410D02*
X205085963Y-58375857D01*
X205085963Y-58375857D02*
X205140201Y-58564555D01*
X205140201Y-58564555D02*
X205153496Y-58945275D01*
X205153496Y-58945275D02*
X205109230Y-59042117D01*
X205109230Y-59042117D02*
X205063302Y-59091369D01*
X205063302Y-59091369D02*
X204969783Y-59142283D01*
X204969783Y-59142283D02*
X204779423Y-59148930D01*
X204779423Y-59148930D02*
X204682581Y-59104664D01*
X204682581Y-59104664D02*
X204633329Y-59058736D01*
X204633329Y-59058736D02*
X204582415Y-58965218D01*
X204582415Y-58965218D02*
X204574106Y-58727268D01*
X204574106Y-58727268D02*
X204618372Y-58630426D01*
X204618372Y-58630426D02*
X204664301Y-58581174D01*
X204664301Y-58581174D02*
X204757819Y-58530260D01*
X204757819Y-58530260D02*
X204948179Y-58523612D01*
X204948179Y-58523612D02*
X205045021Y-58567879D01*
X205045021Y-58567879D02*
X205094273Y-58613807D01*
X205094273Y-58613807D02*
X205145187Y-58707325D01*
X245996258Y-98505545D02*
X245847710Y-98530230D01*
X245847710Y-98530230D02*
X245612546Y-98492984D01*
X245612546Y-98492984D02*
X245525930Y-98431052D01*
X245525930Y-98431052D02*
X245486347Y-98376570D01*
X245486347Y-98376570D02*
X245454212Y-98275056D01*
X245454212Y-98275056D02*
X245469111Y-98180990D01*
X245469111Y-98180990D02*
X245531042Y-98094374D01*
X245531042Y-98094374D02*
X245585524Y-98054790D01*
X245585524Y-98054790D02*
X245687039Y-98022656D01*
X245687039Y-98022656D02*
X245882619Y-98005420D01*
X245882619Y-98005420D02*
X245984134Y-97973286D01*
X245984134Y-97973286D02*
X246038616Y-97933702D01*
X246038616Y-97933702D02*
X246100548Y-97847086D01*
X246100548Y-97847086D02*
X246115446Y-97753021D01*
X246115446Y-97753021D02*
X246083312Y-97651506D01*
X246083312Y-97651506D02*
X246043728Y-97597024D01*
X246043728Y-97597024D02*
X245957112Y-97535092D01*
X245957112Y-97535092D02*
X245721948Y-97497846D01*
X245721948Y-97497846D02*
X245573401Y-97522531D01*
X245251620Y-97423354D02*
X244860022Y-98373796D01*
X244860022Y-98373796D02*
X244783630Y-97638507D01*
X244783630Y-97638507D02*
X244483760Y-98314202D01*
X244483760Y-98314202D02*
X244405030Y-97289267D01*
X244122834Y-97244571D02*
X243511408Y-97147731D01*
X243511408Y-97147731D02*
X243781043Y-97576138D01*
X243781043Y-97576138D02*
X243639945Y-97553790D01*
X243639945Y-97553790D02*
X243538430Y-97585924D01*
X243538430Y-97585924D02*
X243483948Y-97625508D01*
X243483948Y-97625508D02*
X243422017Y-97712124D01*
X243422017Y-97712124D02*
X243384770Y-97947288D01*
X243384770Y-97947288D02*
X243416905Y-98048803D01*
X243416905Y-98048803D02*
X243456488Y-98103285D01*
X243456488Y-98103285D02*
X243543104Y-98165216D01*
X243543104Y-98165216D02*
X243825301Y-98209912D01*
X243825301Y-98209912D02*
X243926816Y-98177778D01*
X243926816Y-98177778D02*
X243981298Y-98138194D01*
X243182178Y-97095586D02*
X242570752Y-96998746D01*
X242570752Y-96998746D02*
X242840387Y-97427153D01*
X242840387Y-97427153D02*
X242699289Y-97404805D01*
X242699289Y-97404805D02*
X242597774Y-97436939D01*
X242597774Y-97436939D02*
X242543292Y-97476523D01*
X242543292Y-97476523D02*
X242481361Y-97563139D01*
X242481361Y-97563139D02*
X242444115Y-97798303D01*
X242444115Y-97798303D02*
X242476249Y-97899818D01*
X242476249Y-97899818D02*
X242515832Y-97954300D01*
X242515832Y-97954300D02*
X242602449Y-98016231D01*
X242602449Y-98016231D02*
X242884645Y-98060927D01*
X242884645Y-98060927D02*
X242986160Y-98028792D01*
X242986160Y-98028792D02*
X243040642Y-97989209D01*
X33187498Y-49757157D02*
X33053849Y-49826538D01*
X33053849Y-49826538D02*
X32818685Y-49863784D01*
X32818685Y-49863784D02*
X32717170Y-49831650D01*
X32717170Y-49831650D02*
X32662688Y-49792066D01*
X32662688Y-49792066D02*
X32600757Y-49705450D01*
X32600757Y-49705450D02*
X32585858Y-49611384D01*
X32585858Y-49611384D02*
X32617993Y-49509869D01*
X32617993Y-49509869D02*
X32657576Y-49455387D01*
X32657576Y-49455387D02*
X32744192Y-49393456D01*
X32744192Y-49393456D02*
X32924874Y-49316626D01*
X32924874Y-49316626D02*
X33011490Y-49254695D01*
X33011490Y-49254695D02*
X33051074Y-49200213D01*
X33051074Y-49200213D02*
X33083208Y-49098698D01*
X33083208Y-49098698D02*
X33068310Y-49004633D01*
X33068310Y-49004633D02*
X33006378Y-48918016D01*
X33006378Y-48918016D02*
X32951896Y-48878433D01*
X32951896Y-48878433D02*
X32850382Y-48846298D01*
X32850382Y-48846298D02*
X32615218Y-48883545D01*
X32615218Y-48883545D02*
X32481569Y-48952925D01*
X32144890Y-48958037D02*
X32066160Y-49982972D01*
X32066160Y-49982972D02*
X31766290Y-49307277D01*
X31766290Y-49307277D02*
X31689898Y-50042566D01*
X31689898Y-50042566D02*
X31298300Y-49092124D01*
X30561112Y-50221348D02*
X31125505Y-50131957D01*
X30843308Y-50176653D02*
X30686874Y-49188964D01*
X30686874Y-49188964D02*
X30803287Y-49315164D01*
X30803287Y-49315164D02*
X30912251Y-49394331D01*
X30912251Y-49394331D02*
X31013766Y-49426466D01*
X190954819Y-82916666D02*
X191669104Y-82916666D01*
X191669104Y-82916666D02*
X191811961Y-82869047D01*
X191811961Y-82869047D02*
X191907200Y-82773809D01*
X191907200Y-82773809D02*
X191954819Y-82630952D01*
X191954819Y-82630952D02*
X191954819Y-82535714D01*
X191954819Y-83916666D02*
X191954819Y-83345238D01*
X191954819Y-83630952D02*
X190954819Y-83630952D01*
X190954819Y-83630952D02*
X191097676Y-83535714D01*
X191097676Y-83535714D02*
X191192914Y-83440476D01*
X191192914Y-83440476D02*
X191240533Y-83345238D01*
X104377468Y-80945033D02*
X104233036Y-80987637D01*
X104233036Y-80987637D02*
X103995086Y-80979328D01*
X103995086Y-80979328D02*
X103901568Y-80928414D01*
X103901568Y-80928414D02*
X103855639Y-80879162D01*
X103855639Y-80879162D02*
X103811373Y-80782320D01*
X103811373Y-80782320D02*
X103814697Y-80687140D01*
X103814697Y-80687140D02*
X103865611Y-80593622D01*
X103865611Y-80593622D02*
X103914863Y-80547694D01*
X103914863Y-80547694D02*
X104011705Y-80503428D01*
X104011705Y-80503428D02*
X104203727Y-80462485D01*
X104203727Y-80462485D02*
X104300569Y-80418219D01*
X104300569Y-80418219D02*
X104349820Y-80372291D01*
X104349820Y-80372291D02*
X104400734Y-80278772D01*
X104400734Y-80278772D02*
X104404058Y-80183592D01*
X104404058Y-80183592D02*
X104359792Y-80086750D01*
X104359792Y-80086750D02*
X104313864Y-80037498D01*
X104313864Y-80037498D02*
X104220345Y-79986585D01*
X104220345Y-79986585D02*
X103982395Y-79978275D01*
X103982395Y-79978275D02*
X103837963Y-80020880D01*
X103506495Y-79961656D02*
X103233645Y-80952738D01*
X103233645Y-80952738D02*
X103068213Y-80232240D01*
X103068213Y-80232240D02*
X102852925Y-80939443D01*
X102852925Y-80939443D02*
X102649874Y-79931743D01*
X101710764Y-80899558D02*
X102281844Y-80919500D01*
X101996304Y-80909529D02*
X102031204Y-79910138D01*
X102031204Y-79910138D02*
X102121398Y-80056232D01*
X102121398Y-80056232D02*
X102213254Y-80154736D01*
X102213254Y-80154736D02*
X102306773Y-80205650D01*
X100841453Y-79868591D02*
X101317353Y-79885210D01*
X101317353Y-79885210D02*
X101348324Y-80362772D01*
X101348324Y-80362772D02*
X101302396Y-80313520D01*
X101302396Y-80313520D02*
X101208878Y-80262606D01*
X101208878Y-80262606D02*
X100970928Y-80254297D01*
X100970928Y-80254297D02*
X100874086Y-80298563D01*
X100874086Y-80298563D02*
X100824834Y-80344491D01*
X100824834Y-80344491D02*
X100773920Y-80438010D01*
X100773920Y-80438010D02*
X100765611Y-80675960D01*
X100765611Y-80675960D02*
X100809877Y-80772802D01*
X100809877Y-80772802D02*
X100855805Y-80822054D01*
X100855805Y-80822054D02*
X100949323Y-80872968D01*
X100949323Y-80872968D02*
X101187273Y-80881277D01*
X101187273Y-80881277D02*
X101284115Y-80837011D01*
X101284115Y-80837011D02*
X101333367Y-80791083D01*
X58923027Y-66689790D02*
X58782857Y-66744821D01*
X58782857Y-66744821D02*
X58545089Y-66757282D01*
X58545089Y-66757282D02*
X58447489Y-66714712D01*
X58447489Y-66714712D02*
X58397443Y-66669651D01*
X58397443Y-66669651D02*
X58344905Y-66577035D01*
X58344905Y-66577035D02*
X58339920Y-66481928D01*
X58339920Y-66481928D02*
X58382490Y-66384328D01*
X58382490Y-66384328D02*
X58427551Y-66334282D01*
X58427551Y-66334282D02*
X58520167Y-66281744D01*
X58520167Y-66281744D02*
X58707890Y-66224221D01*
X58707890Y-66224221D02*
X58800505Y-66171683D01*
X58800505Y-66171683D02*
X58845567Y-66121637D01*
X58845567Y-66121637D02*
X58888136Y-66024037D01*
X58888136Y-66024037D02*
X58883152Y-65928930D01*
X58883152Y-65928930D02*
X58830613Y-65836314D01*
X58830613Y-65836314D02*
X58780567Y-65791253D01*
X58780567Y-65791253D02*
X58682968Y-65748683D01*
X58682968Y-65748683D02*
X58445199Y-65761144D01*
X58445199Y-65761144D02*
X58305030Y-65816175D01*
X57969661Y-65786066D02*
X57784228Y-66797157D01*
X57784228Y-66797157D02*
X57556630Y-66093819D01*
X57556630Y-66093819D02*
X57403798Y-66817094D01*
X57403798Y-66817094D02*
X57113693Y-65830926D01*
X56262507Y-66876907D02*
X56833152Y-66847000D01*
X56547830Y-66861953D02*
X56495494Y-65863324D01*
X56495494Y-65863324D02*
X56598078Y-66001001D01*
X56598078Y-66001001D02*
X56698170Y-66091124D01*
X56698170Y-66091124D02*
X56795769Y-66133694D01*
X55834725Y-65993322D02*
X55784679Y-65948261D01*
X55784679Y-65948261D02*
X55687079Y-65905691D01*
X55687079Y-65905691D02*
X55449310Y-65918152D01*
X55449310Y-65918152D02*
X55356695Y-65970690D01*
X55356695Y-65970690D02*
X55311633Y-66020736D01*
X55311633Y-66020736D02*
X55269064Y-66118336D01*
X55269064Y-66118336D02*
X55274048Y-66213444D01*
X55274048Y-66213444D02*
X55329079Y-66353613D01*
X55329079Y-66353613D02*
X55929630Y-66894352D01*
X55929630Y-66894352D02*
X55311431Y-66926750D01*
X189691712Y-44619013D02*
X189550604Y-44671589D01*
X189550604Y-44671589D02*
X189312654Y-44679898D01*
X189312654Y-44679898D02*
X189215812Y-44635632D01*
X189215812Y-44635632D02*
X189166560Y-44589704D01*
X189166560Y-44589704D02*
X189115646Y-44496185D01*
X189115646Y-44496185D02*
X189112322Y-44401005D01*
X189112322Y-44401005D02*
X189156588Y-44304163D01*
X189156588Y-44304163D02*
X189202517Y-44254911D01*
X189202517Y-44254911D02*
X189296035Y-44203998D01*
X189296035Y-44203998D02*
X189484733Y-44149760D01*
X189484733Y-44149760D02*
X189578251Y-44098846D01*
X189578251Y-44098846D02*
X189624179Y-44049594D01*
X189624179Y-44049594D02*
X189668446Y-43952752D01*
X189668446Y-43952752D02*
X189665122Y-43857572D01*
X189665122Y-43857572D02*
X189614208Y-43764054D01*
X189614208Y-43764054D02*
X189564956Y-43718126D01*
X189564956Y-43718126D02*
X189468114Y-43673860D01*
X189468114Y-43673860D02*
X189230164Y-43682169D01*
X189230164Y-43682169D02*
X189089056Y-43734745D01*
X188754264Y-43698788D02*
X188551213Y-44706488D01*
X188551213Y-44706488D02*
X188335925Y-43999285D01*
X188335925Y-43999285D02*
X188170493Y-44719783D01*
X188170493Y-44719783D02*
X187897643Y-43728702D01*
X187567837Y-43835515D02*
X187518585Y-43789587D01*
X187518585Y-43789587D02*
X187421743Y-43745321D01*
X187421743Y-43745321D02*
X187183793Y-43753630D01*
X187183793Y-43753630D02*
X187090274Y-43804544D01*
X187090274Y-43804544D02*
X187044346Y-43853796D01*
X187044346Y-43853796D02*
X187000080Y-43950638D01*
X187000080Y-43950638D02*
X187003404Y-44045818D01*
X187003404Y-44045818D02*
X187055979Y-44186926D01*
X187055979Y-44186926D02*
X187647002Y-44738064D01*
X187647002Y-44738064D02*
X187028332Y-44759668D01*
X186374762Y-43781882D02*
X186279582Y-43785206D01*
X186279582Y-43785206D02*
X186186064Y-43836120D01*
X186186064Y-43836120D02*
X186140135Y-43885371D01*
X186140135Y-43885371D02*
X186095869Y-43982213D01*
X186095869Y-43982213D02*
X186054927Y-44174235D01*
X186054927Y-44174235D02*
X186063236Y-44412186D01*
X186063236Y-44412186D02*
X186117474Y-44600884D01*
X186117474Y-44600884D02*
X186168387Y-44694402D01*
X186168387Y-44694402D02*
X186217639Y-44740330D01*
X186217639Y-44740330D02*
X186314481Y-44784597D01*
X186314481Y-44784597D02*
X186409661Y-44781273D01*
X186409661Y-44781273D02*
X186503179Y-44730359D01*
X186503179Y-44730359D02*
X186549108Y-44681107D01*
X186549108Y-44681107D02*
X186593374Y-44584265D01*
X186593374Y-44584265D02*
X186634316Y-44392243D01*
X186634316Y-44392243D02*
X186626007Y-44154293D01*
X186626007Y-44154293D02*
X186571769Y-43965595D01*
X186571769Y-43965595D02*
X186520856Y-43872076D01*
X186520856Y-43872076D02*
X186471604Y-43826148D01*
X186471604Y-43826148D02*
X186374762Y-43781882D01*
X93504819Y-82916666D02*
X94219104Y-82916666D01*
X94219104Y-82916666D02*
X94361961Y-82869047D01*
X94361961Y-82869047D02*
X94457200Y-82773809D01*
X94457200Y-82773809D02*
X94504819Y-82630952D01*
X94504819Y-82630952D02*
X94504819Y-82535714D01*
X93504819Y-83297619D02*
X93504819Y-83916666D01*
X93504819Y-83916666D02*
X93885771Y-83583333D01*
X93885771Y-83583333D02*
X93885771Y-83726190D01*
X93885771Y-83726190D02*
X93933390Y-83821428D01*
X93933390Y-83821428D02*
X93981009Y-83869047D01*
X93981009Y-83869047D02*
X94076247Y-83916666D01*
X94076247Y-83916666D02*
X94314342Y-83916666D01*
X94314342Y-83916666D02*
X94409580Y-83869047D01*
X94409580Y-83869047D02*
X94457200Y-83821428D01*
X94457200Y-83821428D02*
X94504819Y-83726190D01*
X94504819Y-83726190D02*
X94504819Y-83440476D01*
X94504819Y-83440476D02*
X94457200Y-83345238D01*
X94457200Y-83345238D02*
X94409580Y-83297619D01*
X79049420Y-61249108D02*
X78904988Y-61291712D01*
X78904988Y-61291712D02*
X78667038Y-61283403D01*
X78667038Y-61283403D02*
X78573520Y-61232489D01*
X78573520Y-61232489D02*
X78527591Y-61183237D01*
X78527591Y-61183237D02*
X78483325Y-61086395D01*
X78483325Y-61086395D02*
X78486649Y-60991215D01*
X78486649Y-60991215D02*
X78537563Y-60897697D01*
X78537563Y-60897697D02*
X78586815Y-60851769D01*
X78586815Y-60851769D02*
X78683657Y-60807503D01*
X78683657Y-60807503D02*
X78875679Y-60766560D01*
X78875679Y-60766560D02*
X78972521Y-60722294D01*
X78972521Y-60722294D02*
X79021772Y-60676366D01*
X79021772Y-60676366D02*
X79072686Y-60582847D01*
X79072686Y-60582847D02*
X79076010Y-60487667D01*
X79076010Y-60487667D02*
X79031744Y-60390825D01*
X79031744Y-60390825D02*
X78985816Y-60341573D01*
X78985816Y-60341573D02*
X78892297Y-60290660D01*
X78892297Y-60290660D02*
X78654347Y-60282350D01*
X78654347Y-60282350D02*
X78509915Y-60324955D01*
X78178447Y-60265731D02*
X77905597Y-61256813D01*
X77905597Y-61256813D02*
X77740165Y-60536315D01*
X77740165Y-60536315D02*
X77524877Y-61243518D01*
X77524877Y-61243518D02*
X77321826Y-60235818D01*
X76382716Y-61203633D02*
X76953796Y-61223575D01*
X76668256Y-61213604D02*
X76703156Y-60214213D01*
X76703156Y-60214213D02*
X76793350Y-60360307D01*
X76793350Y-60360307D02*
X76885206Y-60458811D01*
X76885206Y-60458811D02*
X76978725Y-60509725D01*
X76084485Y-60192609D02*
X75465815Y-60171004D01*
X75465815Y-60171004D02*
X75785650Y-60563358D01*
X75785650Y-60563358D02*
X75642880Y-60558372D01*
X75642880Y-60558372D02*
X75546038Y-60602638D01*
X75546038Y-60602638D02*
X75496786Y-60648566D01*
X75496786Y-60648566D02*
X75445872Y-60742085D01*
X75445872Y-60742085D02*
X75437563Y-60980035D01*
X75437563Y-60980035D02*
X75481829Y-61076877D01*
X75481829Y-61076877D02*
X75527757Y-61126129D01*
X75527757Y-61126129D02*
X75621275Y-61177043D01*
X75621275Y-61177043D02*
X75906815Y-61187014D01*
X75906815Y-61187014D02*
X76003657Y-61142748D01*
X76003657Y-61142748D02*
X76052909Y-61096819D01*
X172365776Y-64235636D02*
X172224668Y-64288212D01*
X172224668Y-64288212D02*
X171986718Y-64296521D01*
X171986718Y-64296521D02*
X171889876Y-64252255D01*
X171889876Y-64252255D02*
X171840624Y-64206327D01*
X171840624Y-64206327D02*
X171789710Y-64112808D01*
X171789710Y-64112808D02*
X171786386Y-64017628D01*
X171786386Y-64017628D02*
X171830652Y-63920786D01*
X171830652Y-63920786D02*
X171876581Y-63871534D01*
X171876581Y-63871534D02*
X171970099Y-63820621D01*
X171970099Y-63820621D02*
X172158797Y-63766383D01*
X172158797Y-63766383D02*
X172252315Y-63715469D01*
X172252315Y-63715469D02*
X172298243Y-63666217D01*
X172298243Y-63666217D02*
X172342510Y-63569375D01*
X172342510Y-63569375D02*
X172339186Y-63474195D01*
X172339186Y-63474195D02*
X172288272Y-63380677D01*
X172288272Y-63380677D02*
X172239020Y-63334749D01*
X172239020Y-63334749D02*
X172142178Y-63290483D01*
X172142178Y-63290483D02*
X171904228Y-63298792D01*
X171904228Y-63298792D02*
X171763120Y-63351368D01*
X171428328Y-63315411D02*
X171225277Y-64323111D01*
X171225277Y-64323111D02*
X171009989Y-63615908D01*
X171009989Y-63615908D02*
X170844557Y-64336406D01*
X170844557Y-64336406D02*
X170571707Y-63345325D01*
X170241901Y-63452138D02*
X170192649Y-63406210D01*
X170192649Y-63406210D02*
X170095807Y-63361944D01*
X170095807Y-63361944D02*
X169857857Y-63370253D01*
X169857857Y-63370253D02*
X169764338Y-63421167D01*
X169764338Y-63421167D02*
X169718410Y-63470419D01*
X169718410Y-63470419D02*
X169674144Y-63567261D01*
X169674144Y-63567261D02*
X169677468Y-63662441D01*
X169677468Y-63662441D02*
X169730043Y-63803549D01*
X169730043Y-63803549D02*
X170321066Y-64354687D01*
X170321066Y-64354687D02*
X169702396Y-64376291D01*
X168822509Y-63739945D02*
X168845775Y-64406205D01*
X169047164Y-63350915D02*
X169310042Y-64056456D01*
X169310042Y-64056456D02*
X168691372Y-64078061D01*
X79166799Y-44242842D02*
X79022367Y-44285446D01*
X79022367Y-44285446D02*
X78784417Y-44277137D01*
X78784417Y-44277137D02*
X78690899Y-44226223D01*
X78690899Y-44226223D02*
X78644970Y-44176971D01*
X78644970Y-44176971D02*
X78600704Y-44080129D01*
X78600704Y-44080129D02*
X78604028Y-43984949D01*
X78604028Y-43984949D02*
X78654942Y-43891431D01*
X78654942Y-43891431D02*
X78704194Y-43845503D01*
X78704194Y-43845503D02*
X78801036Y-43801237D01*
X78801036Y-43801237D02*
X78993058Y-43760294D01*
X78993058Y-43760294D02*
X79089900Y-43716028D01*
X79089900Y-43716028D02*
X79139152Y-43670100D01*
X79139152Y-43670100D02*
X79190065Y-43576582D01*
X79190065Y-43576582D02*
X79193389Y-43481401D01*
X79193389Y-43481401D02*
X79149123Y-43384559D01*
X79149123Y-43384559D02*
X79103195Y-43335308D01*
X79103195Y-43335308D02*
X79009676Y-43284394D01*
X79009676Y-43284394D02*
X78771726Y-43276084D01*
X78771726Y-43276084D02*
X78627294Y-43318689D01*
X78295826Y-43259466D02*
X78022976Y-44250547D01*
X78022976Y-44250547D02*
X77857544Y-43530049D01*
X77857544Y-43530049D02*
X77642256Y-44237252D01*
X77642256Y-44237252D02*
X77439205Y-43229552D01*
X76900758Y-43639581D02*
X76997600Y-43595315D01*
X76997600Y-43595315D02*
X77046852Y-43549387D01*
X77046852Y-43549387D02*
X77097766Y-43455869D01*
X77097766Y-43455869D02*
X77099427Y-43408279D01*
X77099427Y-43408279D02*
X77055161Y-43311437D01*
X77055161Y-43311437D02*
X77009233Y-43262185D01*
X77009233Y-43262185D02*
X76915715Y-43211271D01*
X76915715Y-43211271D02*
X76725355Y-43204624D01*
X76725355Y-43204624D02*
X76628513Y-43248890D01*
X76628513Y-43248890D02*
X76579261Y-43294818D01*
X76579261Y-43294818D02*
X76528347Y-43388336D01*
X76528347Y-43388336D02*
X76526685Y-43435926D01*
X76526685Y-43435926D02*
X76570951Y-43532768D01*
X76570951Y-43532768D02*
X76616880Y-43582020D01*
X76616880Y-43582020D02*
X76710398Y-43632934D01*
X76710398Y-43632934D02*
X76900758Y-43639581D01*
X76900758Y-43639581D02*
X76994276Y-43690495D01*
X76994276Y-43690495D02*
X77040204Y-43739747D01*
X77040204Y-43739747D02*
X77084471Y-43836589D01*
X77084471Y-43836589D02*
X77077823Y-44026949D01*
X77077823Y-44026949D02*
X77026909Y-44120467D01*
X77026909Y-44120467D02*
X76977657Y-44166396D01*
X76977657Y-44166396D02*
X76880815Y-44210662D01*
X76880815Y-44210662D02*
X76690455Y-44204014D01*
X76690455Y-44204014D02*
X76596937Y-44153101D01*
X76596937Y-44153101D02*
X76551009Y-44103849D01*
X76551009Y-44103849D02*
X76506743Y-44007007D01*
X76506743Y-44007007D02*
X76513390Y-43816646D01*
X76513390Y-43816646D02*
X76564304Y-43723128D01*
X76564304Y-43723128D02*
X76613556Y-43677200D01*
X76613556Y-43677200D02*
X76710398Y-43632934D01*
X97086051Y-46869817D02*
X96941619Y-46912421D01*
X96941619Y-46912421D02*
X96703669Y-46904112D01*
X96703669Y-46904112D02*
X96610151Y-46853198D01*
X96610151Y-46853198D02*
X96564222Y-46803946D01*
X96564222Y-46803946D02*
X96519956Y-46707104D01*
X96519956Y-46707104D02*
X96523280Y-46611924D01*
X96523280Y-46611924D02*
X96574194Y-46518406D01*
X96574194Y-46518406D02*
X96623446Y-46472478D01*
X96623446Y-46472478D02*
X96720288Y-46428212D01*
X96720288Y-46428212D02*
X96912310Y-46387269D01*
X96912310Y-46387269D02*
X97009152Y-46343003D01*
X97009152Y-46343003D02*
X97058404Y-46297075D01*
X97058404Y-46297075D02*
X97109317Y-46203557D01*
X97109317Y-46203557D02*
X97112641Y-46108376D01*
X97112641Y-46108376D02*
X97068375Y-46011534D01*
X97068375Y-46011534D02*
X97022447Y-45962283D01*
X97022447Y-45962283D02*
X96928928Y-45911369D01*
X96928928Y-45911369D02*
X96690978Y-45903059D01*
X96690978Y-45903059D02*
X96546546Y-45945664D01*
X96215078Y-45886441D02*
X95942228Y-46877522D01*
X95942228Y-46877522D02*
X95776796Y-46157024D01*
X95776796Y-46157024D02*
X95561508Y-46864227D01*
X95561508Y-46864227D02*
X95358457Y-45856527D01*
X94895247Y-46840961D02*
X94704887Y-46834313D01*
X94704887Y-46834313D02*
X94611369Y-46783399D01*
X94611369Y-46783399D02*
X94565441Y-46734147D01*
X94565441Y-46734147D02*
X94475246Y-46588053D01*
X94475246Y-46588053D02*
X94434304Y-46396031D01*
X94434304Y-46396031D02*
X94447599Y-46015311D01*
X94447599Y-46015311D02*
X94498513Y-45921793D01*
X94498513Y-45921793D02*
X94547765Y-45875865D01*
X94547765Y-45875865D02*
X94644607Y-45831599D01*
X94644607Y-45831599D02*
X94834967Y-45838246D01*
X94834967Y-45838246D02*
X94928485Y-45889160D01*
X94928485Y-45889160D02*
X94974413Y-45938412D01*
X94974413Y-45938412D02*
X95018679Y-46035254D01*
X95018679Y-46035254D02*
X95010370Y-46273204D01*
X95010370Y-46273204D02*
X94959456Y-46366722D01*
X94959456Y-46366722D02*
X94910204Y-46412650D01*
X94910204Y-46412650D02*
X94813362Y-46456917D01*
X94813362Y-46456917D02*
X94623002Y-46450269D01*
X94623002Y-46450269D02*
X94529484Y-46399355D01*
X94529484Y-46399355D02*
X94483556Y-46350103D01*
X94483556Y-46350103D02*
X94439290Y-46253261D01*
X251315024Y-64924137D02*
X251166476Y-64948822D01*
X251166476Y-64948822D02*
X250931312Y-64911576D01*
X250931312Y-64911576D02*
X250844696Y-64849644D01*
X250844696Y-64849644D02*
X250805113Y-64795162D01*
X250805113Y-64795162D02*
X250772978Y-64693648D01*
X250772978Y-64693648D02*
X250787877Y-64599582D01*
X250787877Y-64599582D02*
X250849808Y-64512966D01*
X250849808Y-64512966D02*
X250904290Y-64473382D01*
X250904290Y-64473382D02*
X251005805Y-64441248D01*
X251005805Y-64441248D02*
X251201385Y-64424012D01*
X251201385Y-64424012D02*
X251302900Y-64391878D01*
X251302900Y-64391878D02*
X251357382Y-64352294D01*
X251357382Y-64352294D02*
X251419314Y-64265678D01*
X251419314Y-64265678D02*
X251434212Y-64171613D01*
X251434212Y-64171613D02*
X251402078Y-64070098D01*
X251402078Y-64070098D02*
X251362494Y-64015616D01*
X251362494Y-64015616D02*
X251275878Y-63953684D01*
X251275878Y-63953684D02*
X251040714Y-63916438D01*
X251040714Y-63916438D02*
X250892167Y-63941123D01*
X250570386Y-63841946D02*
X250178788Y-64792388D01*
X250178788Y-64792388D02*
X250102396Y-64057099D01*
X250102396Y-64057099D02*
X249802526Y-64732794D01*
X249802526Y-64732794D02*
X249723796Y-63707859D01*
X249379668Y-63749780D02*
X249340085Y-63695298D01*
X249340085Y-63695298D02*
X249253469Y-63633366D01*
X249253469Y-63633366D02*
X249018305Y-63596120D01*
X249018305Y-63596120D02*
X248916790Y-63628254D01*
X248916790Y-63628254D02*
X248862308Y-63667838D01*
X248862308Y-63667838D02*
X248800377Y-63754454D01*
X248800377Y-63754454D02*
X248785478Y-63848520D01*
X248785478Y-63848520D02*
X248810163Y-63997067D01*
X248810163Y-63997067D02*
X249285165Y-64650852D01*
X249285165Y-64650852D02*
X248673739Y-64554011D01*
X248500944Y-63514178D02*
X247889518Y-63417338D01*
X247889518Y-63417338D02*
X248159153Y-63845745D01*
X248159153Y-63845745D02*
X248018055Y-63823397D01*
X248018055Y-63823397D02*
X247916540Y-63855531D01*
X247916540Y-63855531D02*
X247862058Y-63895115D01*
X247862058Y-63895115D02*
X247800127Y-63981731D01*
X247800127Y-63981731D02*
X247762881Y-64216895D01*
X247762881Y-64216895D02*
X247795015Y-64318410D01*
X247795015Y-64318410D02*
X247834598Y-64372892D01*
X247834598Y-64372892D02*
X247921215Y-64434823D01*
X247921215Y-64434823D02*
X248203411Y-64479519D01*
X248203411Y-64479519D02*
X248304926Y-64447384D01*
X248304926Y-64447384D02*
X248359408Y-64407801D01*
X190878290Y-78598307D02*
X190737182Y-78650883D01*
X190737182Y-78650883D02*
X190499232Y-78659192D01*
X190499232Y-78659192D02*
X190402390Y-78614926D01*
X190402390Y-78614926D02*
X190353138Y-78568998D01*
X190353138Y-78568998D02*
X190302224Y-78475479D01*
X190302224Y-78475479D02*
X190298900Y-78380299D01*
X190298900Y-78380299D02*
X190343166Y-78283457D01*
X190343166Y-78283457D02*
X190389095Y-78234205D01*
X190389095Y-78234205D02*
X190482613Y-78183292D01*
X190482613Y-78183292D02*
X190671311Y-78129054D01*
X190671311Y-78129054D02*
X190764829Y-78078140D01*
X190764829Y-78078140D02*
X190810757Y-78028888D01*
X190810757Y-78028888D02*
X190855024Y-77932046D01*
X190855024Y-77932046D02*
X190851700Y-77836866D01*
X190851700Y-77836866D02*
X190800786Y-77743348D01*
X190800786Y-77743348D02*
X190751534Y-77697420D01*
X190751534Y-77697420D02*
X190654692Y-77653154D01*
X190654692Y-77653154D02*
X190416742Y-77661463D01*
X190416742Y-77661463D02*
X190275634Y-77714039D01*
X189940842Y-77678082D02*
X189737791Y-78685782D01*
X189737791Y-78685782D02*
X189522503Y-77978579D01*
X189522503Y-77978579D02*
X189357071Y-78699077D01*
X189357071Y-78699077D02*
X189084221Y-77707996D01*
X188798681Y-77717967D02*
X188180010Y-77739572D01*
X188180010Y-77739572D02*
X188526436Y-78108659D01*
X188526436Y-78108659D02*
X188383666Y-78113644D01*
X188383666Y-78113644D02*
X188290147Y-78164558D01*
X188290147Y-78164558D02*
X188244219Y-78213810D01*
X188244219Y-78213810D02*
X188199953Y-78310652D01*
X188199953Y-78310652D02*
X188208262Y-78548602D01*
X188208262Y-78548602D02*
X188259176Y-78642120D01*
X188259176Y-78642120D02*
X188308428Y-78688049D01*
X188308428Y-78688049D02*
X188405270Y-78732315D01*
X188405270Y-78732315D02*
X188690810Y-78722344D01*
X188690810Y-78722344D02*
X188784328Y-78671430D01*
X188784328Y-78671430D02*
X188830257Y-78622178D01*
X187561340Y-77761176D02*
X187466160Y-77764500D01*
X187466160Y-77764500D02*
X187372642Y-77815414D01*
X187372642Y-77815414D02*
X187326713Y-77864665D01*
X187326713Y-77864665D02*
X187282447Y-77961507D01*
X187282447Y-77961507D02*
X187241505Y-78153529D01*
X187241505Y-78153529D02*
X187249814Y-78391480D01*
X187249814Y-78391480D02*
X187304052Y-78580178D01*
X187304052Y-78580178D02*
X187354965Y-78673696D01*
X187354965Y-78673696D02*
X187404217Y-78719624D01*
X187404217Y-78719624D02*
X187501059Y-78763891D01*
X187501059Y-78763891D02*
X187596239Y-78760567D01*
X187596239Y-78760567D02*
X187689757Y-78709653D01*
X187689757Y-78709653D02*
X187735686Y-78660401D01*
X187735686Y-78660401D02*
X187779952Y-78563559D01*
X187779952Y-78563559D02*
X187820894Y-78371537D01*
X187820894Y-78371537D02*
X187812585Y-78133587D01*
X187812585Y-78133587D02*
X187758347Y-77944889D01*
X187758347Y-77944889D02*
X187707434Y-77851370D01*
X187707434Y-77851370D02*
X187658182Y-77805442D01*
X187658182Y-77805442D02*
X187561340Y-77761176D01*
X229409504Y-47763052D02*
X229264351Y-47803129D01*
X229264351Y-47803129D02*
X229026582Y-47790668D01*
X229026582Y-47790668D02*
X228933966Y-47738130D01*
X228933966Y-47738130D02*
X228888905Y-47688084D01*
X228888905Y-47688084D02*
X228846335Y-47590484D01*
X228846335Y-47590484D02*
X228851320Y-47495376D01*
X228851320Y-47495376D02*
X228903858Y-47402761D01*
X228903858Y-47402761D02*
X228953904Y-47357699D01*
X228953904Y-47357699D02*
X229051504Y-47315130D01*
X229051504Y-47315130D02*
X229244211Y-47277545D01*
X229244211Y-47277545D02*
X229341811Y-47234976D01*
X229341811Y-47234976D02*
X229391857Y-47189914D01*
X229391857Y-47189914D02*
X229444395Y-47097299D01*
X229444395Y-47097299D02*
X229449379Y-47002191D01*
X229449379Y-47002191D02*
X229406810Y-46904591D01*
X229406810Y-46904591D02*
X229361748Y-46854545D01*
X229361748Y-46854545D02*
X229269133Y-46802007D01*
X229269133Y-46802007D02*
X229031364Y-46789546D01*
X229031364Y-46789546D02*
X228886210Y-46829623D01*
X228555826Y-46764624D02*
X228265721Y-47750793D01*
X228265721Y-47750793D02*
X228112889Y-47027517D01*
X228112889Y-47027517D02*
X227885291Y-47730855D01*
X227885291Y-47730855D02*
X227699858Y-46719765D01*
X227361997Y-46797427D02*
X227316935Y-46747381D01*
X227316935Y-46747381D02*
X227224320Y-46694843D01*
X227224320Y-46694843D02*
X226986551Y-46682382D01*
X226986551Y-46682382D02*
X226888951Y-46724951D01*
X226888951Y-46724951D02*
X226838905Y-46770013D01*
X226838905Y-46770013D02*
X226786367Y-46862628D01*
X226786367Y-46862628D02*
X226781383Y-46957736D01*
X226781383Y-46957736D02*
X226821460Y-47102890D01*
X226821460Y-47102890D02*
X227362199Y-47703441D01*
X227362199Y-47703441D02*
X226744000Y-47671043D01*
X226410921Y-46747583D02*
X226365860Y-46697537D01*
X226365860Y-46697537D02*
X226273244Y-46644999D01*
X226273244Y-46644999D02*
X226035475Y-46632538D01*
X226035475Y-46632538D02*
X225937876Y-46675108D01*
X225937876Y-46675108D02*
X225887830Y-46720169D01*
X225887830Y-46720169D02*
X225835291Y-46812785D01*
X225835291Y-46812785D02*
X225830307Y-46907892D01*
X225830307Y-46907892D02*
X225870384Y-47053046D01*
X225870384Y-47053046D02*
X226411123Y-47653598D01*
X226411123Y-47653598D02*
X225792924Y-47621199D01*
X57557784Y-49738019D02*
X57417615Y-49793050D01*
X57417615Y-49793050D02*
X57179846Y-49805510D01*
X57179846Y-49805510D02*
X57082246Y-49762941D01*
X57082246Y-49762941D02*
X57032200Y-49717879D01*
X57032200Y-49717879D02*
X56979662Y-49625264D01*
X56979662Y-49625264D02*
X56974678Y-49530157D01*
X56974678Y-49530157D02*
X57017247Y-49432557D01*
X57017247Y-49432557D02*
X57062309Y-49382511D01*
X57062309Y-49382511D02*
X57154924Y-49329973D01*
X57154924Y-49329973D02*
X57342647Y-49272450D01*
X57342647Y-49272450D02*
X57435263Y-49219912D01*
X57435263Y-49219912D02*
X57480324Y-49169866D01*
X57480324Y-49169866D02*
X57522894Y-49072266D01*
X57522894Y-49072266D02*
X57517909Y-48977159D01*
X57517909Y-48977159D02*
X57465371Y-48884543D01*
X57465371Y-48884543D02*
X57415325Y-48839482D01*
X57415325Y-48839482D02*
X57317725Y-48796912D01*
X57317725Y-48796912D02*
X57079956Y-48809373D01*
X57079956Y-48809373D02*
X56939787Y-48864403D01*
X56604418Y-48834295D02*
X56418985Y-49845386D01*
X56418985Y-49845386D02*
X56191387Y-49142047D01*
X56191387Y-49142047D02*
X56038555Y-49865323D01*
X56038555Y-49865323D02*
X55748450Y-48879154D01*
X55463128Y-48894108D02*
X54797375Y-48928998D01*
X54797375Y-48928998D02*
X55277695Y-49905198D01*
X158016167Y-101310649D02*
X157930734Y-101434653D01*
X157930734Y-101434653D02*
X157740582Y-101577942D01*
X157740582Y-101577942D02*
X157635864Y-101597228D01*
X157635864Y-101597228D02*
X157569176Y-101587855D01*
X157569176Y-101587855D02*
X157473830Y-101540453D01*
X157473830Y-101540453D02*
X157416514Y-101464392D01*
X157416514Y-101464392D02*
X157397229Y-101359674D01*
X157397229Y-101359674D02*
X157406601Y-101292986D01*
X157406601Y-101292986D02*
X157454004Y-101197640D01*
X157454004Y-101197640D02*
X157577467Y-101044978D01*
X157577467Y-101044978D02*
X157624870Y-100949632D01*
X157624870Y-100949632D02*
X157634242Y-100882944D01*
X157634242Y-100882944D02*
X157614957Y-100778226D01*
X157614957Y-100778226D02*
X157557641Y-100702165D01*
X157557641Y-100702165D02*
X157462295Y-100654762D01*
X157462295Y-100654762D02*
X157395607Y-100645390D01*
X157395607Y-100645390D02*
X157290888Y-100664675D01*
X157290888Y-100664675D02*
X157100737Y-100807965D01*
X157100737Y-100807965D02*
X157015304Y-100931969D01*
X156720434Y-101094543D02*
X157132098Y-102036468D01*
X157132098Y-102036468D02*
X156550109Y-101580646D01*
X156550109Y-101580646D02*
X156827856Y-102265731D01*
X156827856Y-102265731D02*
X156035890Y-101610385D01*
X155807708Y-101782332D02*
X155313315Y-102154884D01*
X155313315Y-102154884D02*
X155808789Y-102258521D01*
X155808789Y-102258521D02*
X155694699Y-102344495D01*
X155694699Y-102344495D02*
X155647296Y-102439841D01*
X155647296Y-102439841D02*
X155637924Y-102506529D01*
X155637924Y-102506529D02*
X155657209Y-102611247D01*
X155657209Y-102611247D02*
X155800498Y-102801398D01*
X155800498Y-102801398D02*
X155895844Y-102848801D01*
X155895844Y-102848801D02*
X155962532Y-102858174D01*
X155962532Y-102858174D02*
X156067251Y-102838888D01*
X156067251Y-102838888D02*
X156295432Y-102666941D01*
X156295432Y-102666941D02*
X156342835Y-102571595D01*
X156342835Y-102571595D02*
X156352207Y-102504907D01*
X154628770Y-102670726D02*
X154780891Y-102556094D01*
X154780891Y-102556094D02*
X154885609Y-102536809D01*
X154885609Y-102536809D02*
X154952298Y-102546181D01*
X154952298Y-102546181D02*
X155114332Y-102602956D01*
X155114332Y-102602956D02*
X155266993Y-102726419D01*
X155266993Y-102726419D02*
X155496256Y-103030661D01*
X155496256Y-103030661D02*
X155515542Y-103135380D01*
X155515542Y-103135380D02*
X155506169Y-103202068D01*
X155506169Y-103202068D02*
X155458767Y-103297414D01*
X155458767Y-103297414D02*
X155306646Y-103412045D01*
X155306646Y-103412045D02*
X155201927Y-103431331D01*
X155201927Y-103431331D02*
X155135239Y-103421958D01*
X155135239Y-103421958D02*
X155039893Y-103374556D01*
X155039893Y-103374556D02*
X154896604Y-103184404D01*
X154896604Y-103184404D02*
X154877318Y-103079686D01*
X154877318Y-103079686D02*
X154886691Y-103012998D01*
X154886691Y-103012998D02*
X154934093Y-102917652D01*
X154934093Y-102917652D02*
X155086214Y-102803020D01*
X155086214Y-102803020D02*
X155190933Y-102783735D01*
X155190933Y-102783735D02*
X155257621Y-102793107D01*
X155257621Y-102793107D02*
X155352967Y-102840510D01*
X56668062Y-32761308D02*
X56527893Y-32816339D01*
X56527893Y-32816339D02*
X56290124Y-32828799D01*
X56290124Y-32828799D02*
X56192524Y-32786230D01*
X56192524Y-32786230D02*
X56142478Y-32741168D01*
X56142478Y-32741168D02*
X56089940Y-32648553D01*
X56089940Y-32648553D02*
X56084956Y-32553446D01*
X56084956Y-32553446D02*
X56127525Y-32455846D01*
X56127525Y-32455846D02*
X56172587Y-32405800D01*
X56172587Y-32405800D02*
X56265202Y-32353262D01*
X56265202Y-32353262D02*
X56452925Y-32295739D01*
X56452925Y-32295739D02*
X56545541Y-32243201D01*
X56545541Y-32243201D02*
X56590602Y-32193155D01*
X56590602Y-32193155D02*
X56633172Y-32095555D01*
X56633172Y-32095555D02*
X56628187Y-32000448D01*
X56628187Y-32000448D02*
X56575649Y-31907832D01*
X56575649Y-31907832D02*
X56525603Y-31862771D01*
X56525603Y-31862771D02*
X56428003Y-31820201D01*
X56428003Y-31820201D02*
X56190234Y-31832662D01*
X56190234Y-31832662D02*
X56050065Y-31887692D01*
X55714696Y-31857584D02*
X55529263Y-32868675D01*
X55529263Y-32868675D02*
X55301665Y-32165336D01*
X55301665Y-32165336D02*
X55148833Y-32888612D01*
X55148833Y-32888612D02*
X54858728Y-31902443D01*
X54530836Y-32014996D02*
X54480790Y-31969935D01*
X54480790Y-31969935D02*
X54383191Y-31927365D01*
X54383191Y-31927365D02*
X54145422Y-31939826D01*
X54145422Y-31939826D02*
X54052806Y-31992364D01*
X54052806Y-31992364D02*
X54007745Y-32042410D01*
X54007745Y-32042410D02*
X53965175Y-32140010D01*
X53965175Y-32140010D02*
X53970160Y-32235118D01*
X53970160Y-32235118D02*
X54025190Y-32375287D01*
X54025190Y-32375287D02*
X54625742Y-32916026D01*
X54625742Y-32916026D02*
X54007542Y-32948425D01*
X200573411Y-87898733D02*
X200437422Y-87963407D01*
X200437422Y-87963407D02*
X200201101Y-87992423D01*
X200201101Y-87992423D02*
X200100770Y-87956766D01*
X200100770Y-87956766D02*
X200047702Y-87915305D01*
X200047702Y-87915305D02*
X199988831Y-87826580D01*
X199988831Y-87826580D02*
X199977225Y-87732052D01*
X199977225Y-87732052D02*
X200012882Y-87631720D01*
X200012882Y-87631720D02*
X200054343Y-87578653D01*
X200054343Y-87578653D02*
X200143068Y-87519782D01*
X200143068Y-87519782D02*
X200326321Y-87449305D01*
X200326321Y-87449305D02*
X200415046Y-87390434D01*
X200415046Y-87390434D02*
X200456507Y-87337367D01*
X200456507Y-87337367D02*
X200492164Y-87237035D01*
X200492164Y-87237035D02*
X200480558Y-87142507D01*
X200480558Y-87142507D02*
X200421687Y-87053782D01*
X200421687Y-87053782D02*
X200368620Y-87012321D01*
X200368620Y-87012321D02*
X200268288Y-86976664D01*
X200268288Y-86976664D02*
X200031968Y-87005680D01*
X200031968Y-87005680D02*
X199895979Y-87070354D01*
X199559327Y-87063714D02*
X199444875Y-88085276D01*
X199444875Y-88085276D02*
X199168769Y-87399528D01*
X199168769Y-87399528D02*
X199066763Y-88131703D01*
X199066763Y-88131703D02*
X198708573Y-87168173D01*
X198424988Y-87202993D02*
X197810555Y-87278436D01*
X197810555Y-87278436D02*
X198187830Y-87615925D01*
X198187830Y-87615925D02*
X198046038Y-87633335D01*
X198046038Y-87633335D02*
X197957313Y-87692206D01*
X197957313Y-87692206D02*
X197915852Y-87745273D01*
X197915852Y-87745273D02*
X197880195Y-87845605D01*
X197880195Y-87845605D02*
X197909211Y-88081925D01*
X197909211Y-88081925D02*
X197968082Y-88170650D01*
X197968082Y-88170650D02*
X198021149Y-88212111D01*
X198021149Y-88212111D02*
X198121481Y-88247769D01*
X198121481Y-88247769D02*
X198405065Y-88212949D01*
X198405065Y-88212949D02*
X198493790Y-88154078D01*
X198493790Y-88154078D02*
X198535251Y-88101011D01*
X197000424Y-87713744D02*
X197081670Y-88375441D01*
X197190318Y-87306614D02*
X197513688Y-87986560D01*
X197513688Y-87986560D02*
X196899255Y-88062002D01*
X79760097Y-27253195D02*
X79615665Y-27295799D01*
X79615665Y-27295799D02*
X79377715Y-27287490D01*
X79377715Y-27287490D02*
X79284197Y-27236576D01*
X79284197Y-27236576D02*
X79238268Y-27187324D01*
X79238268Y-27187324D02*
X79194002Y-27090482D01*
X79194002Y-27090482D02*
X79197326Y-26995302D01*
X79197326Y-26995302D02*
X79248240Y-26901784D01*
X79248240Y-26901784D02*
X79297492Y-26855856D01*
X79297492Y-26855856D02*
X79394334Y-26811590D01*
X79394334Y-26811590D02*
X79586356Y-26770647D01*
X79586356Y-26770647D02*
X79683198Y-26726381D01*
X79683198Y-26726381D02*
X79732450Y-26680453D01*
X79732450Y-26680453D02*
X79783363Y-26586935D01*
X79783363Y-26586935D02*
X79786687Y-26491754D01*
X79786687Y-26491754D02*
X79742421Y-26394912D01*
X79742421Y-26394912D02*
X79696493Y-26345661D01*
X79696493Y-26345661D02*
X79602974Y-26294747D01*
X79602974Y-26294747D02*
X79365024Y-26286437D01*
X79365024Y-26286437D02*
X79220592Y-26329042D01*
X78889124Y-26269819D02*
X78616274Y-27260900D01*
X78616274Y-27260900D02*
X78450842Y-26540402D01*
X78450842Y-26540402D02*
X78235554Y-27247605D01*
X78235554Y-27247605D02*
X78032503Y-26239905D01*
X77746963Y-26229933D02*
X77128293Y-26208329D01*
X77128293Y-26208329D02*
X77448128Y-26600682D01*
X77448128Y-26600682D02*
X77305358Y-26595697D01*
X77305358Y-26595697D02*
X77208516Y-26639963D01*
X77208516Y-26639963D02*
X77159264Y-26685891D01*
X77159264Y-26685891D02*
X77108350Y-26779409D01*
X77108350Y-26779409D02*
X77100041Y-27017360D01*
X77100041Y-27017360D02*
X77144307Y-27114202D01*
X77144307Y-27114202D02*
X77190235Y-27163454D01*
X77190235Y-27163454D02*
X77283753Y-27214367D01*
X77283753Y-27214367D02*
X77569293Y-27224339D01*
X77569293Y-27224339D02*
X77666135Y-27180072D01*
X77666135Y-27180072D02*
X77715387Y-27134144D01*
X97679331Y-29880170D02*
X97534899Y-29922774D01*
X97534899Y-29922774D02*
X97296949Y-29914465D01*
X97296949Y-29914465D02*
X97203431Y-29863551D01*
X97203431Y-29863551D02*
X97157502Y-29814299D01*
X97157502Y-29814299D02*
X97113236Y-29717457D01*
X97113236Y-29717457D02*
X97116560Y-29622277D01*
X97116560Y-29622277D02*
X97167474Y-29528759D01*
X97167474Y-29528759D02*
X97216726Y-29482831D01*
X97216726Y-29482831D02*
X97313568Y-29438565D01*
X97313568Y-29438565D02*
X97505590Y-29397622D01*
X97505590Y-29397622D02*
X97602432Y-29353356D01*
X97602432Y-29353356D02*
X97651684Y-29307428D01*
X97651684Y-29307428D02*
X97702597Y-29213910D01*
X97702597Y-29213910D02*
X97705921Y-29118729D01*
X97705921Y-29118729D02*
X97661655Y-29021887D01*
X97661655Y-29021887D02*
X97615727Y-28972636D01*
X97615727Y-28972636D02*
X97522208Y-28921722D01*
X97522208Y-28921722D02*
X97284258Y-28913412D01*
X97284258Y-28913412D02*
X97139826Y-28956017D01*
X96808358Y-28896794D02*
X96535508Y-29887875D01*
X96535508Y-29887875D02*
X96370076Y-29167377D01*
X96370076Y-29167377D02*
X96154788Y-29874580D01*
X96154788Y-29874580D02*
X95951737Y-28866880D01*
X95131073Y-29171758D02*
X95107807Y-29838019D01*
X95382319Y-28799347D02*
X95595341Y-29521507D01*
X95595341Y-29521507D02*
X94976670Y-29499903D01*
X208797524Y-75971332D02*
X208656416Y-76023908D01*
X208656416Y-76023908D02*
X208418466Y-76032217D01*
X208418466Y-76032217D02*
X208321624Y-75987951D01*
X208321624Y-75987951D02*
X208272372Y-75942023D01*
X208272372Y-75942023D02*
X208221458Y-75848504D01*
X208221458Y-75848504D02*
X208218134Y-75753324D01*
X208218134Y-75753324D02*
X208262400Y-75656482D01*
X208262400Y-75656482D02*
X208308329Y-75607230D01*
X208308329Y-75607230D02*
X208401847Y-75556317D01*
X208401847Y-75556317D02*
X208590545Y-75502079D01*
X208590545Y-75502079D02*
X208684063Y-75451165D01*
X208684063Y-75451165D02*
X208729991Y-75401913D01*
X208729991Y-75401913D02*
X208774258Y-75305071D01*
X208774258Y-75305071D02*
X208770934Y-75209891D01*
X208770934Y-75209891D02*
X208720020Y-75116373D01*
X208720020Y-75116373D02*
X208670768Y-75070445D01*
X208670768Y-75070445D02*
X208573926Y-75026179D01*
X208573926Y-75026179D02*
X208335976Y-75034488D01*
X208335976Y-75034488D02*
X208194868Y-75087064D01*
X207860076Y-75051107D02*
X207657025Y-76058807D01*
X207657025Y-76058807D02*
X207441737Y-75351604D01*
X207441737Y-75351604D02*
X207276305Y-76072102D01*
X207276305Y-76072102D02*
X207003455Y-75081021D01*
X206717915Y-75090992D02*
X206099244Y-75112597D01*
X206099244Y-75112597D02*
X206445670Y-75481684D01*
X206445670Y-75481684D02*
X206302900Y-75486669D01*
X206302900Y-75486669D02*
X206209381Y-75537583D01*
X206209381Y-75537583D02*
X206163453Y-75586835D01*
X206163453Y-75586835D02*
X206119187Y-75683677D01*
X206119187Y-75683677D02*
X206127496Y-75921627D01*
X206127496Y-75921627D02*
X206178410Y-76015145D01*
X206178410Y-76015145D02*
X206227662Y-76061074D01*
X206227662Y-76061074D02*
X206324504Y-76105340D01*
X206324504Y-76105340D02*
X206610044Y-76095369D01*
X206610044Y-76095369D02*
X206703562Y-76044455D01*
X206703562Y-76044455D02*
X206749491Y-75995203D01*
X205182343Y-76145225D02*
X205753423Y-76125282D01*
X205467883Y-76135254D02*
X205432984Y-75135863D01*
X205432984Y-75135863D02*
X205533149Y-75275309D01*
X205533149Y-75275309D02*
X205631653Y-75367166D01*
X205631653Y-75367166D02*
X205728495Y-75411432D01*
X96968654Y-63876083D02*
X96824222Y-63918687D01*
X96824222Y-63918687D02*
X96586272Y-63910378D01*
X96586272Y-63910378D02*
X96492754Y-63859464D01*
X96492754Y-63859464D02*
X96446825Y-63810212D01*
X96446825Y-63810212D02*
X96402559Y-63713370D01*
X96402559Y-63713370D02*
X96405883Y-63618190D01*
X96405883Y-63618190D02*
X96456797Y-63524672D01*
X96456797Y-63524672D02*
X96506049Y-63478744D01*
X96506049Y-63478744D02*
X96602891Y-63434478D01*
X96602891Y-63434478D02*
X96794913Y-63393535D01*
X96794913Y-63393535D02*
X96891755Y-63349269D01*
X96891755Y-63349269D02*
X96941006Y-63303341D01*
X96941006Y-63303341D02*
X96991920Y-63209822D01*
X96991920Y-63209822D02*
X96995244Y-63114642D01*
X96995244Y-63114642D02*
X96950978Y-63017800D01*
X96950978Y-63017800D02*
X96905050Y-62968548D01*
X96905050Y-62968548D02*
X96811531Y-62917635D01*
X96811531Y-62917635D02*
X96573581Y-62909325D01*
X96573581Y-62909325D02*
X96429149Y-62951930D01*
X96097681Y-62892706D02*
X95824831Y-63883788D01*
X95824831Y-63883788D02*
X95659399Y-63163290D01*
X95659399Y-63163290D02*
X95444111Y-63870493D01*
X95444111Y-63870493D02*
X95241060Y-62862793D01*
X94301950Y-63830608D02*
X94873030Y-63850550D01*
X94587490Y-63840579D02*
X94622390Y-62841188D01*
X94622390Y-62841188D02*
X94712584Y-62987282D01*
X94712584Y-62987282D02*
X94804440Y-63085786D01*
X94804440Y-63085786D02*
X94897959Y-63136700D01*
X93468596Y-63134433D02*
X93445329Y-63800694D01*
X93719841Y-62762022D02*
X93932863Y-63484182D01*
X93932863Y-63484182D02*
X93314192Y-63462578D01*
X115598565Y-32507146D02*
X115454133Y-32549750D01*
X115454133Y-32549750D02*
X115216183Y-32541441D01*
X115216183Y-32541441D02*
X115122665Y-32490527D01*
X115122665Y-32490527D02*
X115076736Y-32441275D01*
X115076736Y-32441275D02*
X115032470Y-32344433D01*
X115032470Y-32344433D02*
X115035794Y-32249253D01*
X115035794Y-32249253D02*
X115086708Y-32155735D01*
X115086708Y-32155735D02*
X115135960Y-32109807D01*
X115135960Y-32109807D02*
X115232802Y-32065541D01*
X115232802Y-32065541D02*
X115424824Y-32024598D01*
X115424824Y-32024598D02*
X115521666Y-31980332D01*
X115521666Y-31980332D02*
X115570918Y-31934404D01*
X115570918Y-31934404D02*
X115621831Y-31840886D01*
X115621831Y-31840886D02*
X115625155Y-31745705D01*
X115625155Y-31745705D02*
X115580889Y-31648863D01*
X115580889Y-31648863D02*
X115534961Y-31599612D01*
X115534961Y-31599612D02*
X115441442Y-31548698D01*
X115441442Y-31548698D02*
X115203492Y-31540388D01*
X115203492Y-31540388D02*
X115059060Y-31582993D01*
X114727592Y-31523770D02*
X114454742Y-32514851D01*
X114454742Y-32514851D02*
X114289310Y-31794353D01*
X114289310Y-31794353D02*
X114074022Y-32501556D01*
X114074022Y-32501556D02*
X113870971Y-31493856D01*
X113014351Y-31463942D02*
X113490251Y-31480561D01*
X113490251Y-31480561D02*
X113521222Y-31958123D01*
X113521222Y-31958123D02*
X113475294Y-31908871D01*
X113475294Y-31908871D02*
X113381776Y-31857957D01*
X113381776Y-31857957D02*
X113143826Y-31849648D01*
X113143826Y-31849648D02*
X113046984Y-31893914D01*
X113046984Y-31893914D02*
X112997732Y-31939842D01*
X112997732Y-31939842D02*
X112946818Y-32033360D01*
X112946818Y-32033360D02*
X112938509Y-32271311D01*
X112938509Y-32271311D02*
X112982775Y-32368153D01*
X112982775Y-32368153D02*
X113028703Y-32417405D01*
X113028703Y-32417405D02*
X113122221Y-32468318D01*
X113122221Y-32468318D02*
X113360171Y-32476628D01*
X113360171Y-32476628D02*
X113457013Y-32432361D01*
X113457013Y-32432361D02*
X113506265Y-32386433D01*
X171772478Y-47245989D02*
X171631370Y-47298565D01*
X171631370Y-47298565D02*
X171393420Y-47306874D01*
X171393420Y-47306874D02*
X171296578Y-47262608D01*
X171296578Y-47262608D02*
X171247326Y-47216680D01*
X171247326Y-47216680D02*
X171196412Y-47123161D01*
X171196412Y-47123161D02*
X171193088Y-47027981D01*
X171193088Y-47027981D02*
X171237354Y-46931139D01*
X171237354Y-46931139D02*
X171283283Y-46881887D01*
X171283283Y-46881887D02*
X171376801Y-46830974D01*
X171376801Y-46830974D02*
X171565499Y-46776736D01*
X171565499Y-46776736D02*
X171659017Y-46725822D01*
X171659017Y-46725822D02*
X171704945Y-46676570D01*
X171704945Y-46676570D02*
X171749212Y-46579728D01*
X171749212Y-46579728D02*
X171745888Y-46484548D01*
X171745888Y-46484548D02*
X171694974Y-46391030D01*
X171694974Y-46391030D02*
X171645722Y-46345102D01*
X171645722Y-46345102D02*
X171548880Y-46300836D01*
X171548880Y-46300836D02*
X171310930Y-46309145D01*
X171310930Y-46309145D02*
X171169822Y-46361721D01*
X170835030Y-46325764D02*
X170631979Y-47333464D01*
X170631979Y-47333464D02*
X170416691Y-46626261D01*
X170416691Y-46626261D02*
X170251259Y-47346759D01*
X170251259Y-47346759D02*
X169978409Y-46355678D01*
X169109098Y-47386644D02*
X169680178Y-47366702D01*
X169394638Y-47376673D02*
X169359739Y-46377282D01*
X169359739Y-46377282D02*
X169459904Y-46516729D01*
X169459904Y-46516729D02*
X169558408Y-46608585D01*
X169558408Y-46608585D02*
X169655250Y-46652851D01*
X168633197Y-47403263D02*
X168442837Y-47409911D01*
X168442837Y-47409911D02*
X168345995Y-47365644D01*
X168345995Y-47365644D02*
X168296743Y-47319716D01*
X168296743Y-47319716D02*
X168196578Y-47180270D01*
X168196578Y-47180270D02*
X168142340Y-46991572D01*
X168142340Y-46991572D02*
X168129045Y-46610851D01*
X168129045Y-46610851D02*
X168173311Y-46514009D01*
X168173311Y-46514009D02*
X168219239Y-46464757D01*
X168219239Y-46464757D02*
X168312758Y-46413844D01*
X168312758Y-46413844D02*
X168503118Y-46407196D01*
X168503118Y-46407196D02*
X168599960Y-46451462D01*
X168599960Y-46451462D02*
X168649212Y-46497391D01*
X168649212Y-46497391D02*
X168700126Y-46590909D01*
X168700126Y-46590909D02*
X168708435Y-46828859D01*
X168708435Y-46828859D02*
X168664169Y-46925701D01*
X168664169Y-46925701D02*
X168618240Y-46974953D01*
X168618240Y-46974953D02*
X168524722Y-47025867D01*
X168524722Y-47025867D02*
X168334362Y-47032514D01*
X168334362Y-47032514D02*
X168237520Y-46988248D01*
X168237520Y-46988248D02*
X168188268Y-46942320D01*
X168188268Y-46942320D02*
X168137354Y-46848801D01*
D13*
%TO.C,Snap1*%
X140100000Y-95150000D02*
X140975000Y-93634456D01*
X140100000Y-95150000D02*
X140975000Y-96665544D01*
X142725000Y-93634456D02*
X140975000Y-93634456D01*
X142725000Y-93634456D02*
X143600000Y-95150000D01*
X142725000Y-96665544D02*
X140975000Y-96665544D01*
X142725000Y-96665544D02*
X143600000Y-95150000D01*
%TO.C,Snap2*%
X140100000Y-38200000D02*
X140975000Y-36684456D01*
X140100000Y-38200000D02*
X140975000Y-39715544D01*
X142725000Y-36684456D02*
X140975000Y-36684456D01*
X142725000Y-36684456D02*
X143600000Y-38200000D01*
X142725000Y-39715544D02*
X140975000Y-39715544D01*
X142725000Y-39715544D02*
X143600000Y-38200000D01*
%TO.C,SW32*%
X223617233Y-75866222D02*
X223653868Y-75167182D01*
X224652498Y-75219518D02*
X223653868Y-75167182D01*
X231291015Y-82376759D02*
X232289644Y-82429095D01*
X231534377Y-77733132D02*
X232533006Y-77785468D01*
X232289644Y-82429095D02*
X233130417Y-81672060D01*
X233290041Y-78626240D02*
X232533006Y-77785468D01*
X224463062Y-79865971D02*
G75*
G02*
X223706027Y-79025199I41869J798904D01*
G01*
%TO.C,SW18*%
X119625487Y-108156892D02*
X120046758Y-107597847D01*
X120845393Y-108199662D02*
X120046758Y-107597847D01*
X122346694Y-117845496D02*
X123145330Y-118447311D01*
X123145330Y-118447311D02*
X124265690Y-118289855D01*
X125145134Y-114131841D02*
X125943770Y-114733656D01*
X126101226Y-115854017D02*
X125943770Y-114733656D01*
X118090080Y-111945816D02*
G75*
G02*
X117932623Y-110825455I481452J638909D01*
G01*
%TO.C,SW6*%
X27721540Y-70434590D02*
X28636841Y-71099593D01*
X27909418Y-66506843D02*
X27244415Y-67422141D01*
X28897107Y-66350408D02*
X27909418Y-66506843D01*
X29624527Y-70943159D02*
X28636841Y-71099593D01*
X36878630Y-71971022D02*
X37866318Y-71814585D01*
X37756814Y-71123206D02*
X37866318Y-71814585D01*
X36097875Y-67386719D02*
G75*
G02*
X37013172Y-68051722I125147J-790150D01*
G01*
%TO.C,SW35*%
X170278036Y-93730587D02*
X169835973Y-94772020D01*
X170978523Y-97599931D02*
X172019955Y-98041991D01*
X171205219Y-93355981D02*
X170278036Y-93730587D01*
X172947139Y-97667386D02*
X172019955Y-98041991D01*
X180246539Y-97037087D02*
X181173723Y-96662480D01*
X180911498Y-96013451D02*
X181173723Y-96662480D01*
X178454550Y-92745909D02*
G75*
G02*
X179495984Y-93187972I299686J-741748D01*
G01*
%TO.C,SW28*%
X245276304Y-75477192D02*
X245385808Y-74785810D01*
X246373496Y-74942245D02*
X245385808Y-74785810D01*
X252227511Y-82754192D02*
X253215199Y-82910627D01*
X252954931Y-78161441D02*
X253942620Y-78317876D01*
X253215199Y-82910627D02*
X254130498Y-82245624D01*
X254607623Y-79233174D02*
X253942620Y-78317876D01*
X245699411Y-79543443D02*
G75*
G02*
X245034408Y-78628145I125148J790151D01*
G01*
%TO.C,SW21*%
X203103490Y-36513809D02*
X203079060Y-35814235D01*
X204078451Y-35779336D02*
X203079060Y-35814235D01*
X211153218Y-37683590D02*
X212152609Y-37648691D01*
X211315501Y-42330757D02*
X212314892Y-42295858D01*
X212314892Y-42295858D02*
X213086485Y-41468426D01*
X212980041Y-38420284D02*
X212152609Y-37648691D01*
X204294701Y-40424619D02*
G75*
G02*
X203467268Y-39653026I-27920J799513D01*
G01*
%TO.C,SW25*%
X185777554Y-56130431D02*
X185753124Y-55430857D01*
X186752515Y-55395958D02*
X185753124Y-55430857D01*
X193827282Y-57300212D02*
X194826673Y-57265313D01*
X193989565Y-61947379D02*
X194988956Y-61912480D01*
X194988956Y-61912480D02*
X195760549Y-61085048D01*
X195654105Y-58036906D02*
X194826673Y-57265313D01*
X186968765Y-60041241D02*
G75*
G02*
X186141332Y-59269648I-27920J799513D01*
G01*
%TO.C,SW16*%
X87303154Y-90939424D02*
X87999695Y-91830956D01*
X88566388Y-87215617D02*
X87674855Y-87912158D01*
X88992241Y-91952827D02*
X87999695Y-91830956D01*
X89558934Y-87337486D02*
X88566388Y-87215617D01*
X95682015Y-94940373D02*
X96674562Y-95062242D01*
X96759870Y-94367460D02*
X96674562Y-95062242D01*
X96195110Y-90318452D02*
G75*
G02*
X96891652Y-91209984I-97495J-794037D01*
G01*
%TO.C,SW29*%
X168451600Y-75747038D02*
X168427170Y-75047464D01*
X169426561Y-75012565D02*
X168427170Y-75047464D01*
X176501328Y-76916819D02*
X177500719Y-76881920D01*
X176663611Y-81563986D02*
X177663002Y-81529087D01*
X177663002Y-81529087D02*
X178434595Y-80701655D01*
X178328151Y-77653513D02*
X177500719Y-76881920D01*
X169642811Y-79657848D02*
G75*
G02*
X168815378Y-78886255I-27920J799513D01*
G01*
%TO.C,SW27*%
X224506955Y-58889529D02*
X224543590Y-58190489D01*
X225542220Y-58242825D02*
X224543590Y-58190489D01*
X232180737Y-65400066D02*
X233179366Y-65452402D01*
X232424099Y-60756439D02*
X233422728Y-60808775D01*
X233179366Y-65452402D02*
X234020139Y-64695367D01*
X234179763Y-61649547D02*
X233422728Y-60808775D01*
X225352784Y-62889278D02*
G75*
G02*
X224595749Y-62048506I41869J798904D01*
G01*
%TO.C,SW10*%
X106287597Y-51761731D02*
X107059190Y-52589163D01*
X107221473Y-47941996D02*
X106394041Y-48713589D01*
X108058581Y-52624069D02*
X107059190Y-52589163D01*
X108220864Y-47976895D02*
X107221473Y-47941996D01*
X114983281Y-55017189D02*
X115982672Y-55052088D01*
X116007101Y-54352515D02*
X115982672Y-55052088D01*
X115091596Y-50368137D02*
G75*
G02*
X115863190Y-51195569I-27919J-799513D01*
G01*
%TO.C,SW17*%
X108470021Y-95819198D02*
X108912083Y-96860631D01*
X109839267Y-97235237D02*
X108912083Y-96860631D01*
X110654004Y-92549226D02*
X109612571Y-92991288D01*
X111581188Y-92923832D02*
X110654004Y-92549226D01*
X115527859Y-101852427D02*
X116455042Y-102227034D01*
X116717267Y-101578005D02*
X116455042Y-102227034D01*
X117219711Y-97520793D02*
G75*
G02*
X117661774Y-98562226I-299685J-741748D01*
G01*
%TO.C,SW11*%
X30380914Y-87225302D02*
X31296215Y-87890305D01*
X30568792Y-83297555D02*
X29903789Y-84212853D01*
X31556481Y-83141120D02*
X30568792Y-83297555D01*
X32283901Y-87733871D02*
X31296215Y-87890305D01*
X39538004Y-88761734D02*
X40525692Y-88605297D01*
X40416188Y-87913918D02*
X40525692Y-88605297D01*
X38757249Y-84177431D02*
G75*
G02*
X39672546Y-84842434I125147J-790150D01*
G01*
%TO.C,SW26*%
X203696788Y-53503456D02*
X203672358Y-52803882D01*
X204671749Y-52768983D02*
X203672358Y-52803882D01*
X211746516Y-54673237D02*
X212745907Y-54638338D01*
X211908799Y-59320404D02*
X212908190Y-59285505D01*
X212908190Y-59285505D02*
X213679783Y-58458073D01*
X213573339Y-55409931D02*
X212745907Y-54638338D01*
X204887999Y-57414266D02*
G75*
G02*
X204060566Y-56642673I-27920J799513D01*
G01*
%TO.C,SW33*%
X242616912Y-92267904D02*
X242726416Y-91576522D01*
X243714104Y-91732957D02*
X242726416Y-91576522D01*
X249568119Y-99544904D02*
X250555807Y-99701339D01*
X250295539Y-94952153D02*
X251283228Y-95108588D01*
X250555807Y-99701339D02*
X251471106Y-99036336D01*
X251948231Y-96023886D02*
X251283228Y-95108588D01*
X243040019Y-96334155D02*
G75*
G02*
X242375016Y-95418857I125148J790151D01*
G01*
%TO.C,SW1*%
X25062148Y-53643894D02*
X25977449Y-54308897D01*
X25250026Y-49716147D02*
X24585023Y-50631445D01*
X26237715Y-49559712D02*
X25250026Y-49716147D01*
X26965135Y-54152463D02*
X25977449Y-54308897D01*
X34219238Y-55180326D02*
X35206926Y-55023889D01*
X35097422Y-54332510D02*
X35206926Y-55023889D01*
X33438483Y-50596023D02*
G75*
G02*
X34353780Y-51261026I125147J-790150D01*
G01*
%TO.C,J1*%
X192590000Y-80190000D02*
X192590000Y-81110000D01*
X192590000Y-81110000D02*
X194190000Y-81110000D01*
X192590000Y-85390000D02*
X192590000Y-86310000D01*
X192590000Y-86310000D02*
X200410000Y-86310000D01*
X192975000Y-81390000D02*
X194190000Y-81390000D01*
X194190000Y-81110000D02*
X194190000Y-80190000D01*
X194190000Y-81110000D02*
X194190000Y-81390000D01*
X194190000Y-85110000D02*
X194190000Y-85390000D01*
X194190000Y-85390000D02*
X192590000Y-85390000D01*
X194190000Y-85390000D02*
X194190000Y-86310000D01*
X196050000Y-82750000D02*
X200410000Y-82750000D01*
X196050000Y-83750000D02*
X196050000Y-82750000D01*
X196550000Y-80950000D02*
X196550000Y-81950000D01*
X196550000Y-81950000D02*
X198150000Y-81950000D01*
X196550000Y-84550000D02*
X198150000Y-84550000D01*
X196550000Y-85550000D02*
X196550000Y-84550000D01*
X198150000Y-80950000D02*
X196550000Y-80950000D01*
X198150000Y-81950000D02*
X198150000Y-80950000D01*
X198150000Y-84550000D02*
X198150000Y-85550000D01*
X198150000Y-85550000D02*
X196550000Y-85550000D01*
X200410000Y-80190000D02*
X192590000Y-80190000D01*
X200410000Y-81450000D02*
X198150000Y-81450000D01*
X200410000Y-81950000D02*
X198150000Y-81950000D01*
X200410000Y-83750000D02*
X196050000Y-83750000D01*
X200410000Y-86310000D02*
X200410000Y-80190000D01*
%TO.C,SW15*%
X100263133Y-75165724D02*
X100287562Y-74466151D01*
X101286953Y-74501050D02*
X100287562Y-74466151D01*
X108049370Y-81541344D02*
X109048761Y-81576243D01*
X108211653Y-76894170D02*
X109211044Y-76929076D01*
X109048761Y-81576243D02*
X109876193Y-80804650D01*
X109982637Y-77756508D02*
X109211044Y-76929076D01*
X101178638Y-79150102D02*
G75*
G02*
X100407044Y-78322670I27919J799513D01*
G01*
%TO.C,SW12*%
X49960375Y-69730827D02*
X50801148Y-70487862D01*
X50557786Y-65844235D02*
X49800751Y-66685007D01*
X51556415Y-65791899D02*
X50557786Y-65844235D01*
X51799777Y-70435526D02*
X50801148Y-70487862D01*
X58906701Y-72216018D02*
X59905330Y-72163682D01*
X59868695Y-71464642D02*
X59905330Y-72163682D01*
X58609413Y-67575217D02*
G75*
G02*
X59450186Y-68332252I41869J-798904D01*
G01*
%TO.C,SW20*%
X185184256Y-39140784D02*
X185159826Y-38441210D01*
X186159217Y-38406311D02*
X185159826Y-38441210D01*
X193233984Y-40310565D02*
X194233375Y-40275666D01*
X193396267Y-44957732D02*
X194395658Y-44922833D01*
X194395658Y-44922833D02*
X195167251Y-44095401D01*
X195060807Y-41047259D02*
X194233375Y-40275666D01*
X186375467Y-43051594D02*
G75*
G02*
X185548034Y-42280001I-27920J799513D01*
G01*
%TO.C,J3*%
X85140000Y-80190000D02*
X85140000Y-86310000D01*
X85140000Y-82750000D02*
X89500000Y-82750000D01*
X85140000Y-84550000D02*
X87400000Y-84550000D01*
X85140000Y-85050000D02*
X87400000Y-85050000D01*
X85140000Y-86310000D02*
X92960000Y-86310000D01*
X87400000Y-80950000D02*
X89000000Y-80950000D01*
X87400000Y-81950000D02*
X87400000Y-80950000D01*
X87400000Y-84550000D02*
X87400000Y-85550000D01*
X87400000Y-85550000D02*
X89000000Y-85550000D01*
X89000000Y-80950000D02*
X89000000Y-81950000D01*
X89000000Y-81950000D02*
X87400000Y-81950000D01*
X89000000Y-84550000D02*
X87400000Y-84550000D01*
X89000000Y-85550000D02*
X89000000Y-84550000D01*
X89500000Y-82750000D02*
X89500000Y-83750000D01*
X89500000Y-83750000D02*
X85140000Y-83750000D01*
X91360000Y-81110000D02*
X91360000Y-80190000D01*
X91360000Y-81110000D02*
X92960000Y-81110000D01*
X91360000Y-81390000D02*
X91360000Y-81110000D01*
X91360000Y-85390000D02*
X91360000Y-85110000D01*
X91360000Y-85390000D02*
X91360000Y-86310000D01*
X92575000Y-85110000D02*
X91360000Y-85110000D01*
X92960000Y-80190000D02*
X85140000Y-80190000D01*
X92960000Y-81110000D02*
X92960000Y-80190000D01*
X92960000Y-85390000D02*
X91360000Y-85390000D01*
X92960000Y-86310000D02*
X92960000Y-85390000D01*
%TO.C,SW13*%
X69855831Y-63497427D02*
X70627424Y-64324859D01*
X70789707Y-59677692D02*
X69962275Y-60449285D01*
X71626815Y-64359765D02*
X70627424Y-64324859D01*
X71789098Y-59712591D02*
X70789707Y-59677692D01*
X78551515Y-66752885D02*
X79550906Y-66787784D01*
X79575335Y-66088211D02*
X79550906Y-66787784D01*
X78659830Y-62103833D02*
G75*
G02*
X79431424Y-62931265I-27919J-799513D01*
G01*
%TO.C,SW24*%
X167858320Y-58757407D02*
X167833890Y-58057833D01*
X168833281Y-58022934D02*
X167833890Y-58057833D01*
X175908048Y-59927188D02*
X176907439Y-59892289D01*
X176070331Y-64574355D02*
X177069722Y-64539456D01*
X177069722Y-64539456D02*
X177841315Y-63712024D01*
X177734871Y-60663882D02*
X176907439Y-59892289D01*
X169049531Y-62668217D02*
G75*
G02*
X168222098Y-61896624I-27920J799513D01*
G01*
%TO.C,SW8*%
X70449111Y-46507780D02*
X71220704Y-47335212D01*
X71382987Y-42688045D02*
X70555555Y-43459638D01*
X72220095Y-47370118D02*
X71220704Y-47335212D01*
X72382378Y-42722944D02*
X71382987Y-42688045D01*
X79144795Y-49763238D02*
X80144186Y-49798137D01*
X80168615Y-49098564D02*
X80144186Y-49798137D01*
X79253110Y-45114186D02*
G75*
G02*
X80024704Y-45941618I-27919J-799513D01*
G01*
%TO.C,SW9*%
X88368363Y-49134755D02*
X89139956Y-49962187D01*
X89302239Y-45315020D02*
X88474807Y-46086613D01*
X90139347Y-49997093D02*
X89139956Y-49962187D01*
X90301630Y-45349919D02*
X89302239Y-45315020D01*
X97064047Y-52390213D02*
X98063438Y-52425112D01*
X98087867Y-51725539D02*
X98063438Y-52425112D01*
X97172362Y-47741161D02*
G75*
G02*
X97943956Y-48568593I-27919J-799513D01*
G01*
%TO.C,SW23*%
X247935678Y-58686496D02*
X248045182Y-57995114D01*
X249032870Y-58151549D02*
X248045182Y-57995114D01*
X254886885Y-65963496D02*
X255874573Y-66119931D01*
X255614305Y-61370745D02*
X256601994Y-61527180D01*
X255874573Y-66119931D02*
X256789872Y-65454928D01*
X257266997Y-62442478D02*
X256601994Y-61527180D01*
X248358785Y-62752747D02*
G75*
G02*
X247693782Y-61837449I125148J790151D01*
G01*
%TO.C,SW30*%
X186370834Y-73120078D02*
X186346404Y-72420504D01*
X187345795Y-72385605D02*
X186346404Y-72420504D01*
X194420562Y-74289859D02*
X195419953Y-74254960D01*
X194582845Y-78937026D02*
X195582236Y-78902127D01*
X195582236Y-78902127D02*
X196353829Y-78074695D01*
X196247385Y-75026553D02*
X195419953Y-74254960D01*
X187562045Y-77030888D02*
G75*
G02*
X186734612Y-76259295I-27920J799513D01*
G01*
%TO.C,SW22*%
X225396659Y-41912818D02*
X225433294Y-41213778D01*
X226431924Y-41266114D02*
X225433294Y-41213778D01*
X233070441Y-48423355D02*
X234069070Y-48475691D01*
X233313803Y-43779728D02*
X234312432Y-43832064D01*
X234069070Y-48475691D02*
X234909843Y-47718656D01*
X235069467Y-44672836D02*
X234312432Y-43832064D01*
X226242488Y-45912567D02*
G75*
G02*
X225485453Y-45071795I41869J798904D01*
G01*
%TO.C,SW7*%
X49070671Y-52754134D02*
X49911444Y-53511169D01*
X49668082Y-48867542D02*
X48911047Y-49708314D01*
X50666711Y-48815206D02*
X49668082Y-48867542D01*
X50910073Y-53458833D02*
X49911444Y-53511169D01*
X58016997Y-55239325D02*
X59015626Y-55186989D01*
X58978991Y-54487949D02*
X59015626Y-55186989D01*
X57719709Y-50598524D02*
G75*
G02*
X58560482Y-51355559I41869J-798904D01*
G01*
%TO.C,SW36*%
X150608239Y-105287436D02*
X150450783Y-106407796D01*
X151406875Y-104685621D02*
X150608239Y-105287436D01*
X152286319Y-108843634D02*
X153406679Y-109001091D01*
X154205315Y-108399276D02*
X153406679Y-109001091D01*
X161092860Y-105901230D02*
X161891496Y-105299415D01*
X161470225Y-104740370D02*
X161891496Y-105299415D01*
X158251294Y-102220073D02*
G75*
G02*
X159371654Y-102377529I481452J-638908D01*
G01*
%TO.C,SW2*%
X48180949Y-35777423D02*
X49021722Y-36534458D01*
X48778360Y-31890831D02*
X48021325Y-32731603D01*
X49776989Y-31838495D02*
X48778360Y-31890831D01*
X50020351Y-36482122D02*
X49021722Y-36534458D01*
X57127275Y-38262614D02*
X58125904Y-38210278D01*
X58089269Y-37511238D02*
X58125904Y-38210278D01*
X56829987Y-33621813D02*
G75*
G02*
X57670760Y-34378848I41869J-798904D01*
G01*
%TO.C,SW34*%
X191844724Y-91557565D02*
X192736256Y-92254106D01*
X192169564Y-87638767D02*
X191473023Y-88530299D01*
X193162110Y-87516897D02*
X192169564Y-87638767D01*
X193728803Y-92132237D02*
X192736256Y-92254106D01*
X200942615Y-93412638D02*
X201935161Y-93290769D01*
X201849853Y-92595987D02*
X201935161Y-93290769D01*
X200322325Y-88803880D02*
G75*
G02*
X201213856Y-89500421I97495J-794036D01*
G01*
%TO.C,SW3*%
X71042409Y-29518133D02*
X71814002Y-30345565D01*
X71976285Y-25698398D02*
X71148853Y-26469991D01*
X72813393Y-30380471D02*
X71814002Y-30345565D01*
X72975676Y-25733297D02*
X71976285Y-25698398D01*
X79738093Y-32773591D02*
X80737484Y-32808490D01*
X80761913Y-32108917D02*
X80737484Y-32808490D01*
X79846408Y-28124539D02*
G75*
G02*
X80618002Y-28951971I-27919J-799513D01*
G01*
%TO.C,SW4*%
X88961643Y-32145108D02*
X89733236Y-32972540D01*
X89895519Y-28325373D02*
X89068087Y-29096966D01*
X90732627Y-33007446D02*
X89733236Y-32972540D01*
X90894910Y-28360272D02*
X89895519Y-28325373D01*
X97657327Y-35400566D02*
X98656718Y-35435465D01*
X98681147Y-34735892D02*
X98656718Y-35435465D01*
X97765642Y-30751514D02*
G75*
G02*
X98537236Y-31578946I-27919J-799513D01*
G01*
%TO.C,SW31*%
X204290068Y-70493103D02*
X204265638Y-69793529D01*
X205265029Y-69758630D02*
X204265638Y-69793529D01*
X212339796Y-71662884D02*
X213339187Y-71627985D01*
X212502079Y-76310051D02*
X213501470Y-76275152D01*
X213501470Y-76275152D02*
X214273063Y-75447720D01*
X214166619Y-72399578D02*
X213339187Y-71627985D01*
X205481279Y-74403913D02*
G75*
G02*
X204653846Y-73632320I-27920J799513D01*
G01*
%TO.C,SW14*%
X87775065Y-66124402D02*
X88546658Y-66951834D01*
X88708941Y-62304667D02*
X87881509Y-63076260D01*
X89546049Y-66986740D02*
X88546658Y-66951834D01*
X89708332Y-62339566D02*
X88708941Y-62304667D01*
X96470749Y-69379860D02*
X97470140Y-69414759D01*
X97494569Y-68715186D02*
X97470140Y-69414759D01*
X96579064Y-64730808D02*
G75*
G02*
X97350658Y-65558240I-27919J-799513D01*
G01*
%TO.C,SW5*%
X106880877Y-34772084D02*
X107652470Y-35599516D01*
X107814753Y-30952349D02*
X106987321Y-31723942D01*
X108651861Y-35634422D02*
X107652470Y-35599516D01*
X108814144Y-30987248D02*
X107814753Y-30952349D01*
X115576561Y-38027542D02*
X116575952Y-38062441D01*
X116600381Y-37362868D02*
X116575952Y-38062441D01*
X115684876Y-33378490D02*
G75*
G02*
X116456470Y-34205922I-27919J-799513D01*
G01*
%TO.C,SW19*%
X167265022Y-41767760D02*
X167240592Y-41068186D01*
X168239983Y-41033287D02*
X167240592Y-41068186D01*
X175314750Y-42937541D02*
X176314141Y-42902642D01*
X175477033Y-47584708D02*
X176476424Y-47549809D01*
X176476424Y-47549809D02*
X177248017Y-46722377D01*
X177141573Y-43674235D02*
X176314141Y-42902642D01*
X168456233Y-45678570D02*
G75*
G02*
X167628800Y-44906977I-27920J799513D01*
G01*
%TD*%
%LPC*%
D14*
%TO.C,J2*%
X164750000Y-69250000D03*
D15*
X162210000Y-69250000D03*
X159670000Y-69250000D03*
X157130000Y-69250000D03*
X154590000Y-69250000D03*
%TD*%
D16*
%TO.C,Snap1*%
X139050000Y-93145000D03*
X139050000Y-94145000D03*
X139050000Y-95150000D03*
X139050000Y-96150000D03*
X139050000Y-97155000D03*
D17*
X141850000Y-95150000D03*
D16*
X144575000Y-93650000D03*
X144575000Y-94650000D03*
X144575000Y-95650000D03*
X144575000Y-96650000D03*
%TD*%
%TO.C,Snap2*%
X139050000Y-36195000D03*
X139050000Y-37195000D03*
X139050000Y-38200000D03*
X139050000Y-39200000D03*
X139050000Y-40205000D03*
D17*
X141850000Y-38200000D03*
D16*
X144575000Y-36700000D03*
X144575000Y-37700000D03*
X144575000Y-38700000D03*
X144575000Y-39700000D03*
%TD*%
D18*
%TO.C,RST1*%
X136350000Y-73000000D03*
X138150000Y-73000000D03*
%TD*%
D19*
%TO.C,USB1*%
X133140000Y-30800000D03*
X127360000Y-30800000D03*
D20*
X134570000Y-31330000D03*
D21*
X134570000Y-27120000D03*
D20*
X125930000Y-31330000D03*
D21*
X125930000Y-27120000D03*
%TD*%
D14*
%TO.C,J4*%
X130000000Y-69250000D03*
D15*
X127460000Y-69250000D03*
X124920000Y-69250000D03*
X122380000Y-69250000D03*
X119840000Y-69250000D03*
%TD*%
D18*
%TO.C,RST2*%
X147400000Y-73250000D03*
X145600000Y-73250000D03*
%TD*%
D19*
%TO.C,USB2*%
X156458770Y-30780000D03*
X150678770Y-30780000D03*
D20*
X157888770Y-31310000D03*
D21*
X157888770Y-27100000D03*
D20*
X149248770Y-31310000D03*
D21*
X149248770Y-27100000D03*
%TD*%
D22*
%TO.C,SW32*%
X236717242Y-74374780D03*
D23*
X231224780Y-74086932D03*
D22*
X225732318Y-73799084D03*
D24*
X226035372Y-77570113D03*
D25*
X222794820Y-77400283D03*
X234153934Y-80198608D03*
D24*
X230913381Y-80028778D03*
%TD*%
D22*
%TO.C,SW18*%
X131319891Y-114245863D03*
D23*
X126927396Y-110935880D03*
D22*
X122534901Y-107625897D03*
D24*
X120677412Y-110921688D03*
D26*
X118085840Y-108968798D03*
X125938169Y-117640651D03*
D24*
X123346597Y-115687761D03*
%TD*%
D22*
%TO.C,SW6*%
X25253160Y-75305702D03*
D23*
X30685446Y-74445312D03*
D22*
X36117732Y-73584922D03*
D24*
X35037258Y-69959308D03*
D27*
X38242307Y-69451679D03*
X26549612Y-69076196D03*
D24*
X29754661Y-68568566D03*
%TD*%
D22*
%TO.C,SW35*%
X169669169Y-102901460D03*
D23*
X174768680Y-100841124D03*
D22*
X179868191Y-98780788D03*
D24*
X177999825Y-95491153D03*
D28*
X181008536Y-94275553D03*
X169531059Y-96539978D03*
D24*
X172539771Y-95324380D03*
%TD*%
D22*
%TO.C,SW28*%
X258460448Y-75363244D03*
D23*
X253028162Y-74502854D03*
D22*
X247595876Y-73642464D03*
D24*
X247503091Y-77424513D03*
D29*
X244298042Y-76916883D03*
X255302426Y-80887227D03*
D24*
X252097377Y-80379600D03*
%TD*%
D22*
%TO.C,SW21*%
X216023662Y-33886301D03*
D23*
X210527012Y-34078248D03*
D22*
X205030362Y-34270195D03*
D24*
X205660931Y-38000461D03*
D30*
X202417908Y-38113710D03*
X213977687Y-39911375D03*
D24*
X210734664Y-40024623D03*
%TD*%
D22*
%TO.C,SW25*%
X198697726Y-53502923D03*
D23*
X193201076Y-53694870D03*
D22*
X187704426Y-53886817D03*
D24*
X188334995Y-57617083D03*
D30*
X185091972Y-57730332D03*
X196651751Y-59527997D03*
D24*
X193408728Y-59641245D03*
%TD*%
D22*
%TO.C,SW16*%
X83587734Y-94941459D03*
D23*
X89046738Y-95611740D03*
D22*
X94505742Y-96282021D03*
D24*
X94466479Y-92499039D03*
D31*
X97687291Y-92894505D03*
X86551048Y-89310624D03*
D24*
X89771861Y-89706090D03*
%TD*%
D22*
%TO.C,SW29*%
X181371772Y-73119530D03*
D23*
X175875122Y-73311477D03*
D22*
X170378472Y-73503424D03*
D24*
X171009041Y-77233690D03*
D30*
X167766018Y-77346939D03*
X179325797Y-79144604D03*
D24*
X176082774Y-79257852D03*
%TD*%
D22*
%TO.C,SW27*%
X237606964Y-57398087D03*
D23*
X232114502Y-57110239D03*
D22*
X226622040Y-56822391D03*
D24*
X226925094Y-60593420D03*
D25*
X223684542Y-60423590D03*
X235043656Y-63221915D03*
D24*
X231803103Y-63052085D03*
%TD*%
D22*
%TO.C,SW10*%
X102935116Y-56072357D03*
D23*
X108431766Y-56264304D03*
D22*
X113928416Y-56456251D03*
D24*
X113559593Y-52691086D03*
D32*
X116802616Y-52804335D03*
X105396395Y-50204680D03*
D24*
X108639418Y-50317929D03*
%TD*%
D22*
%TO.C,SW17*%
X103845399Y-98723246D03*
D23*
X108944910Y-100783582D03*
D22*
X114044421Y-102843918D03*
D24*
X114985604Y-99179676D03*
D33*
X117994316Y-100395274D03*
X108165108Y-94051240D03*
D24*
X111173819Y-95266838D03*
%TD*%
D22*
%TO.C,SW11*%
X27912534Y-92096414D03*
D23*
X33344820Y-91236024D03*
D22*
X38777106Y-90375634D03*
D24*
X37696632Y-86750020D03*
D27*
X40901681Y-86242391D03*
X29208986Y-85866908D03*
D24*
X32414035Y-85359278D03*
%TD*%
D22*
%TO.C,SW26*%
X216616960Y-50875948D03*
D23*
X211120310Y-51067895D03*
D22*
X205623660Y-51259842D03*
D24*
X206254229Y-54990108D03*
D30*
X203011206Y-55103357D03*
X214570985Y-56901022D03*
D24*
X211327962Y-57014270D03*
%TD*%
D22*
%TO.C,SW33*%
X255801056Y-92153956D03*
D23*
X250368770Y-91293566D03*
D22*
X244936484Y-90433176D03*
D24*
X244843699Y-94215225D03*
D29*
X241638650Y-93707595D03*
X252643034Y-97677939D03*
D24*
X249437985Y-97170312D03*
%TD*%
D22*
%TO.C,SW1*%
X22593768Y-58515006D03*
D23*
X28026054Y-57654616D03*
D22*
X33458340Y-56794226D03*
D24*
X32377866Y-53168612D03*
D27*
X35582915Y-52660983D03*
X23890220Y-52285500D03*
D24*
X27095269Y-51777870D03*
%TD*%
D34*
%TO.C,J1*%
X194050000Y-82250000D03*
D35*
X194050000Y-84250000D03*
%TD*%
D22*
%TO.C,SW15*%
X113335118Y-73445882D03*
D23*
X107838468Y-73253935D03*
D22*
X102341818Y-73061988D03*
D24*
X102710641Y-76827153D03*
D36*
X99467618Y-76713904D03*
X110873839Y-79313559D03*
D24*
X107630816Y-79200310D03*
%TD*%
D22*
%TO.C,SW12*%
X46996348Y-74317238D03*
D23*
X52488810Y-74029390D03*
D22*
X57981272Y-73741542D03*
D24*
X57285698Y-70022849D03*
D37*
X60526251Y-69853019D03*
X48936858Y-68257374D03*
D24*
X52177411Y-68087544D03*
%TD*%
D22*
%TO.C,SW20*%
X198104428Y-36513276D03*
D23*
X192607778Y-36705223D03*
D22*
X187111128Y-36897170D03*
D24*
X187741697Y-40627436D03*
D30*
X184498674Y-40740685D03*
X196058453Y-42538350D03*
D24*
X192815430Y-42651598D03*
%TD*%
D38*
%TO.C,J3*%
X91500000Y-84250000D03*
D35*
X91500000Y-82250000D03*
%TD*%
D22*
%TO.C,SW13*%
X66503350Y-67808053D03*
D23*
X72000000Y-68000000D03*
D22*
X77496650Y-68191947D03*
D24*
X77127827Y-64426782D03*
D32*
X80370850Y-64540031D03*
X68964629Y-61940376D03*
D24*
X72207652Y-62053625D03*
%TD*%
D22*
%TO.C,SW24*%
X180778492Y-56129899D03*
D23*
X175281842Y-56321846D03*
D22*
X169785192Y-56513793D03*
D24*
X170415761Y-60244059D03*
D30*
X167172738Y-60357308D03*
X178732517Y-62154973D03*
D24*
X175489494Y-62268221D03*
%TD*%
D22*
%TO.C,SW8*%
X67096630Y-50818406D03*
D23*
X72593280Y-51010353D03*
D22*
X78089930Y-51202300D03*
D24*
X77721107Y-47437135D03*
D32*
X80964130Y-47550384D03*
X69557909Y-44950729D03*
D24*
X72800932Y-45063978D03*
%TD*%
D22*
%TO.C,SW9*%
X85015882Y-53445381D03*
D23*
X90512532Y-53637328D03*
D22*
X96009182Y-53829275D03*
D24*
X95640359Y-50064110D03*
D32*
X98883382Y-50177359D03*
X87477161Y-47577704D03*
D24*
X90720184Y-47690953D03*
%TD*%
D22*
%TO.C,SW23*%
X261119822Y-58572548D03*
D23*
X255687536Y-57712158D03*
D22*
X250255250Y-56851768D03*
D24*
X250162465Y-60633817D03*
D29*
X246957416Y-60126187D03*
X257961800Y-64096531D03*
D24*
X254756751Y-63588904D03*
%TD*%
D22*
%TO.C,SW30*%
X199291006Y-70492570D03*
D23*
X193794356Y-70684517D03*
D22*
X188297706Y-70876464D03*
D24*
X188928275Y-74606730D03*
D30*
X185685252Y-74719979D03*
X197245031Y-76517644D03*
D24*
X194002008Y-76630892D03*
%TD*%
D22*
%TO.C,SW22*%
X238496668Y-40421376D03*
D23*
X233004206Y-40133528D03*
D22*
X227511744Y-39845680D03*
D24*
X227814798Y-43616709D03*
D25*
X224574246Y-43446879D03*
X235933360Y-46245204D03*
D24*
X232692807Y-46075374D03*
%TD*%
D22*
%TO.C,SW7*%
X46106644Y-57340545D03*
D23*
X51599106Y-57052697D03*
D22*
X57091568Y-56764849D03*
D24*
X56395994Y-53046156D03*
D37*
X59636547Y-52876326D03*
X48047154Y-51280681D03*
D24*
X51287707Y-51110851D03*
%TD*%
D22*
%TO.C,SW36*%
X152393717Y-114303405D03*
D23*
X156786212Y-110993422D03*
D22*
X161178707Y-107683439D03*
D24*
X158522583Y-104989464D03*
D39*
X161114155Y-103036574D03*
X150613840Y-108194430D03*
D24*
X153205413Y-106241541D03*
%TD*%
D22*
%TO.C,SW2*%
X45216922Y-40363834D03*
D23*
X50709384Y-40075986D03*
D22*
X56201846Y-39788138D03*
D24*
X55506272Y-36069445D03*
D37*
X58746825Y-35899615D03*
X47157432Y-34303970D03*
D24*
X50397985Y-34134140D03*
%TD*%
D22*
%TO.C,SW34*%
X189207848Y-96339563D03*
D23*
X194666852Y-95669282D03*
D22*
X200125856Y-94999001D03*
D24*
X199172573Y-91337887D03*
D40*
X202393385Y-90942421D03*
X190720917Y-90159098D03*
D24*
X193941729Y-89763632D03*
%TD*%
D22*
%TO.C,SW3*%
X67689928Y-33828759D03*
D23*
X73186578Y-34020706D03*
D22*
X78683228Y-34212653D03*
D24*
X78314405Y-30447488D03*
D32*
X81557428Y-30560737D03*
X70151207Y-27961082D03*
D24*
X73394230Y-28074331D03*
%TD*%
D22*
%TO.C,SW4*%
X85609162Y-36455734D03*
D23*
X91105812Y-36647681D03*
D22*
X96602462Y-36839628D03*
D24*
X96233639Y-33074463D03*
D32*
X99476662Y-33187712D03*
X88070441Y-30588057D03*
D24*
X91313464Y-30701306D03*
%TD*%
D22*
%TO.C,SW31*%
X217210240Y-67865595D03*
D23*
X211713590Y-68057542D03*
D22*
X206216940Y-68249489D03*
D24*
X206847509Y-71979755D03*
D30*
X203604486Y-72093004D03*
X215164265Y-73890669D03*
D24*
X211921242Y-74003917D03*
%TD*%
D22*
%TO.C,SW14*%
X84422584Y-70435028D03*
D23*
X89919234Y-70626975D03*
D22*
X95415884Y-70818922D03*
D24*
X95047061Y-67053757D03*
D32*
X98290084Y-67167006D03*
X86883863Y-64567351D03*
D24*
X90126886Y-64680600D03*
%TD*%
D22*
%TO.C,SW5*%
X103528396Y-39082710D03*
D23*
X109025046Y-39274657D03*
D22*
X114521696Y-39466604D03*
D24*
X114152873Y-35701439D03*
D32*
X117395896Y-35814688D03*
X105989675Y-33215033D03*
D24*
X109232698Y-33328282D03*
%TD*%
D22*
%TO.C,SW19*%
X180185194Y-39140252D03*
D23*
X174688544Y-39332199D03*
D22*
X169191894Y-39524146D03*
D24*
X169822463Y-43254412D03*
D30*
X166579440Y-43367661D03*
X178139219Y-45165326D03*
D24*
X174896196Y-45278574D03*
%TD*%
%LPD*%
M02*
