M48
; DRILL file {KiCad 8.0.5} date 2024-09-15T16:43:43+0200
; FORMAT={-:-/ absolute / inch / decimal}
; #@! TF.CreationDate,2024-09-15T16:43:43+02:00
; #@! TF.GenerationSoftware,Kicad,Pcbnew,8.0.5
; #@! TF.FileFunction,NonPlated,1,2,NPTH
FMAT,2
INCH
; #@! TA.AperFunction,NonPlated,NPTH,ComponentDrill
T1C0.0236
; #@! TA.AperFunction,NonPlated,NPTH,ComponentDrill
T2C0.0354
; #@! TA.AperFunction,NonPlated,NPTH,ComponentDrill
T3C0.0669
; #@! TA.AperFunction,NonPlated,NPTH,ComponentDrill
T4C0.0945
; #@! TA.AperFunction,NonPlated,NPTH,ComponentDrill
T5C0.1339
%
G90
G05
T1
X5.4744Y-1.425
X5.4744Y-1.4644
X5.4744Y-1.5039
X5.4744Y-1.5433
X5.4744Y-1.5829
X5.4744Y-3.6671
X5.4744Y-3.7065
X5.4744Y-3.7461
X5.4744Y-3.7854
X5.4744Y-3.825
X5.6919Y-1.4449
X5.6919Y-1.4843
X5.6919Y-1.5236
X5.6919Y-1.563
X5.6919Y-3.687
X5.6919Y-3.7264
X5.6919Y-3.7657
X5.6919Y-3.8051
T2
X5.3681Y-2.874
X5.439Y-2.874
X5.7323Y-2.8839
X5.8031Y-2.8839
T3
X0.8895Y-2.3037
X0.9942Y-2.9648
X1.0989Y-3.6258
X1.3173Y-2.236
X1.422Y-2.897
X1.5267Y-3.5581
X1.7802Y-1.5891
X1.8152Y-2.2575
X1.8502Y-2.9259
X2.2127Y-1.5665
X2.2477Y-2.2348
X2.2827Y-2.9032
X2.6182Y-2.6696
X2.6416Y-2.0007
X2.665Y-1.3318
X3.051Y-2.6847
X3.0744Y-2.0158
X3.0978Y-1.347
X3.2909Y-3.7379
X3.3237Y-2.773
X3.3471Y-2.1041
X3.3704Y-1.4353
X3.7207Y-3.7906
X3.7565Y-2.7881
X3.7799Y-2.1193
X3.8032Y-1.4504
X4.0292Y-2.8765
X4.0526Y-2.2076
X4.0759Y-1.5387
X4.0884Y-3.8867
X4.462Y-2.8916
X4.4854Y-2.2227
X4.4899Y-4.049
X4.5087Y-1.5538
X4.8242Y-4.2372
X5.1701Y-4.4979
X5.9998Y-4.5001
X6.3456Y-4.2395
X6.6611Y-1.5561
X6.6799Y-4.0512
X6.6845Y-2.225
X6.7078Y-2.8938
X7.0814Y-3.889
X7.0939Y-1.541
X7.1173Y-2.2098
X7.1406Y-2.8787
X7.3666Y-1.4526
X7.3899Y-2.1215
X7.4133Y-2.7904
X7.4491Y-3.7929
X7.7994Y-1.4375
X7.8227Y-2.1064
X7.8461Y-2.7753
X7.879Y-3.7401
X8.0721Y-1.3492
X8.0954Y-2.0181
X8.1188Y-2.687
X8.5049Y-1.3341
X8.5282Y-2.003
X8.5516Y-2.6719
X8.8871Y-2.9055
X8.9221Y-2.2371
X8.9572Y-1.5687
X9.3196Y-2.9281
X9.3546Y-2.2598
X9.3896Y-1.5914
X9.6432Y-3.5604
X9.7479Y-2.8993
X9.8526Y-2.2383
X10.0709Y-3.6281
X10.1756Y-2.9671
X10.2803Y-2.306
T4
X5.5846Y-1.5039
X5.5846Y-3.7461
T5
X1.1034Y-2.2699
X1.2081Y-2.9309
X1.3128Y-3.592
X1.9964Y-1.5778
X2.0315Y-2.2462
X2.0665Y-2.9145
X2.8346Y-2.6772
X2.858Y-2.0083
X2.8814Y-1.3394
X3.5058Y-3.7642
X3.5401Y-2.7806
X3.5635Y-2.1117
X3.5868Y-1.4428
X4.2456Y-2.884
X4.269Y-2.2151
X4.2892Y-3.9679
X4.2923Y-1.5462
X4.9971Y-4.3676
X6.1727Y-4.3698
X6.8775Y-1.5485
X6.8807Y-3.9701
X6.9009Y-2.2174
X6.9242Y-2.8863
X7.583Y-1.4451
X7.6063Y-2.114
X7.6297Y-2.7829
X7.664Y-3.7665
X8.2885Y-1.3417
X8.3118Y-2.0105
X8.3352Y-2.6794
X9.1033Y-2.9168
X9.1384Y-2.2484
X9.1734Y-1.5801
X9.857Y-3.5942
X9.9617Y-2.9332
X10.0664Y-2.2721
M30
