M48
; DRILL file {KiCad 9.0.2} date 2025-07-16T15:57:37+0200
; FORMAT={-:-/ absolute / inch / decimal}
; #@! TF.CreationDate,2025-07-16T15:57:37+02:00
; #@! TF.GenerationSoftware,Kicad,Pcbnew,9.0.2
; #@! TF.FileFunction,Plated,1,2,PTH
FMAT,2
INCH
; #@! TA.AperFunction,Plated,PTH,ViaDrill
T1C0.0118
; #@! TA.AperFunction,Plated,PTH,ComponentDrill
T2C0.0118
; #@! TA.AperFunction,Plated,PTH,ComponentDrill
T3C0.0236
; #@! TA.AperFunction,Plated,PTH,ComponentDrill
T4C0.0295
; #@! TA.AperFunction,Plated,PTH,ComponentDrill
T5C0.0315
; #@! TA.AperFunction,Plated,PTH,ComponentDrill
T6C0.0394
; #@! TA.AperFunction,Plated,PTH,ComponentDrill
T7C0.1181
%
G90
G05
T1
X2.5295Y-3.2677
X2.6575Y-3.2677
X2.8248Y-2.372
X3.0118Y-2.3819
X3.0217Y-3.3169
X3.0413Y-3.2087
X3.0709Y-3.2776
X3.1693Y-3.3661
X3.3957Y-3.3858
X3.5335Y-3.248
X3.5433Y-2.4902
X3.5827Y-3.4104
X3.6319Y-3.2874
X3.6319Y-3.3465
X3.6339Y-3.4104
X3.7106Y-2.4902
X3.7697Y-3.248
X3.8878Y-2.628
X4.0059Y-2.628
X4.4291Y-2.9035
X4.5965Y-2.6772
X4.5965Y-2.7362
X4.6456Y-2.8248
X4.6457Y-3.0512
X4.7441Y-2.8445
X4.7441Y-3.0512
X4.7441Y-3.0807
X4.7539Y-3.4122
X4.7539Y-3.4622
X4.8031Y-2.4902
X4.8376Y-2.623
X4.8699Y-2.4427
X4.872Y-2.5787
X4.8819Y-1.7717
X4.895Y-2.7854
X4.9016Y-2.5689
X4.9114Y-2.5984
X4.9232Y-2.3091
X4.9409Y-1.8406
X4.9409Y-2.7756
X4.9508Y-3.2382
X4.9508Y-3.2874
X4.9803Y-3.1398
X4.9902Y-3.1988
X5.0Y-2.9626
X5.0157Y-1.9102
X5.0158Y-2.0177
X5.0295Y-3.1398
X5.0394Y-2.5787
X5.0466Y-2.3103
X5.0591Y-1.6634
X5.0787Y-2.5394
X5.0787Y-3.1398
X5.0984Y-2.5787
X5.1181Y-2.9724
X5.128Y-3.1398
X5.1378Y-1.7693
X5.1437Y-2.752
X5.1491Y-2.0192
X5.1673Y-2.4902
X5.1772Y-3.1398
X5.1772Y-3.435
X5.2362Y-2.5591
X5.2362Y-3.4154
X5.2362Y-3.4646
X5.2362Y-3.5138
X5.2362Y-3.5531
X5.2421Y-2.752
X5.2598Y-2.185
X5.2657Y-2.1063
X5.2657Y-2.2343
X5.2795Y-1.939
X5.3346Y-2.9232
X5.3661Y-2.1732
X5.3785Y-3.3608
X5.3819Y-1.7126
X5.3829Y-1.938
T2
X0.7748Y-2.4725
X0.8304Y-2.3959
X0.8409Y-2.462
X0.8797Y-3.1355
X0.9354Y-3.0589
X0.9458Y-3.125
X0.9847Y-3.7985
X1.0404Y-3.7219
X1.0508Y-3.788
X1.4059Y-2.3047
X1.4164Y-2.3708
X1.472Y-2.2943
X1.4825Y-2.3604
X1.5109Y-2.9677
X1.5214Y-3.0338
X1.577Y-2.9573
X1.5875Y-3.0234
X1.6159Y-3.6307
X1.6263Y-3.6968
X1.6537Y-1.782
X1.682Y-3.6203
X1.6888Y-2.4524
X1.6924Y-3.6864
X1.717Y-1.7117
X1.7205Y-1.7785
X1.7239Y-3.1227
X1.7521Y-2.382
X1.7556Y-2.4489
X1.7873Y-3.0524
X1.7908Y-3.1192
X2.2989Y-1.6812
X2.3024Y-1.748
X2.334Y-2.3515
X2.3375Y-2.4184
X2.3657Y-1.6777
X2.3691Y-3.0219
X2.3692Y-1.7445
X2.3726Y-3.0887
X2.4009Y-2.348
X2.4044Y-2.4149
X2.436Y-3.0184
X2.4395Y-3.0852
X2.4781Y-2.8535
X2.5016Y-2.1827
X2.525Y-1.5118
X2.545Y-2.8559
X2.5474Y-2.789
X2.5685Y-2.185
X2.5708Y-2.1181
X2.5919Y-1.5142
X2.5942Y-1.4473
X3.0276Y-4.1281
X3.0909Y-4.0577
X3.0944Y-4.1246
X3.1274Y-2.8762
X3.1297Y-2.8093
X3.1508Y-2.2053
X3.1531Y-2.1385
X3.1742Y-1.5345
X3.1765Y-1.4676
X3.1856Y-2.9573
X3.1942Y-2.8785
X3.1966Y-2.8116
X3.209Y-2.2864
X3.2177Y-2.2077
X3.22Y-2.1408
X3.2324Y-1.6156
X3.2411Y-1.5368
X3.2434Y-1.4699
X3.2525Y-2.9596
X3.2548Y-2.8927
X3.2759Y-2.2887
X3.2782Y-2.2219
X3.2993Y-1.6179
X3.3017Y-1.551
X3.6728Y-4.0272
X3.6763Y-4.0941
X3.7396Y-4.0237
X3.7431Y-4.0906
X3.7969Y-4.0958
X3.8348Y-2.9799
X3.8371Y-2.913
X3.8582Y-2.3091
X3.8606Y-2.2422
X3.8623Y-4.1097
X3.8762Y-4.0443
X3.8816Y-1.6382
X3.884Y-1.5713
X3.8903Y-3.1399
X3.9017Y-2.9823
X3.904Y-2.9154
X3.9137Y-2.4691
X3.9251Y-2.3114
X3.9274Y-2.2445
X3.9371Y-1.7982
X3.9485Y-1.6406
X3.9509Y-1.5737
X3.9572Y-3.1422
X3.9595Y-3.0754
X3.9806Y-2.4714
X3.9829Y-2.4045
X4.004Y-1.8005
X4.0063Y-1.7337
X4.4323Y-4.2309
X4.4462Y-4.1654
X4.4977Y-4.2448
X4.5116Y-4.1793
X4.5395Y-3.1626
X4.5418Y-3.0957
X4.5523Y-4.2633
X4.5629Y-2.4917
X4.5652Y-2.4248
X4.5863Y-1.8209
X4.5887Y-1.754
X4.6064Y-3.1649
X4.6087Y-3.098
X4.6119Y-4.2937
X4.6298Y-2.4941
X4.6321Y-2.4272
X4.6423Y-4.2341
X4.6532Y-1.8232
X4.6556Y-1.7563
X5.1311Y-4.5583
X5.1614Y-4.4986
X5.1907Y-4.5886
X5.2211Y-4.529
T4
X4.6043Y-2.0768
X4.6043Y-2.1555
T5
X5.3445Y-2.4705
X5.3445Y-2.5705
T6
X2.3445Y-3.376
X2.4445Y-3.376
X2.5445Y-3.376
X2.6445Y-3.376
X2.7445Y-3.376
X2.8445Y-3.376
T7
X1.1369Y-2.4689
X1.2419Y-3.1319
X1.3469Y-3.7949
X2.0142Y-1.8164
X2.0494Y-2.4867
X2.0845Y-3.157
X2.8343Y-2.9191
X2.8578Y-2.2483
X2.8812Y-1.5774
X3.3881Y-4.1624
X3.5418Y-3.0229
X3.5652Y-2.352
X3.5886Y-1.6812
X4.1362Y-4.2223
X4.2465Y-3.2055
X4.2699Y-2.5347
X4.2933Y-1.8638
X4.8473Y-4.4734
T3
G00X4.8398Y-1.5354
M15
G01X4.8398Y-1.5118
M16
G05
G00X4.8398Y-1.7098
M15
G01X4.8398Y-1.6665
M16
G05
G00X5.1799Y-1.5354
M15
G01X5.1799Y-1.5118
M16
G05
G00X5.1799Y-1.7098
M15
G01X5.1799Y-1.6665
M16
G05
M30
