0
SECTION
2
HEADER
9
$INSUNITS
70
4
0
ENDSEC
0
SECTION
2
TABLES
0
TABLE
2
LTYPE
0
LTYPE
72
65
70
64
2
CONTINUOUS
3
______
73
0
40
0
0
ENDTAB
0
TABLE
2
LAYER
0
ENDTAB
0
ENDSEC
0
SECTION
2
ENTITIES
0
LINE
8
0
10
47.0262245
20
-34.9080357
11
60.0183053
21
-35.3617291
0
LINE
8
0
10
46.5376315
20
-48.8995073
11
59.5297123
21
-49.3532007
0
LINE
8
0
10
46.5090793
20
-35.3902813
11
46.0553859
21
-48.3823621
0
LINE
8
0
10
60.5005509
20
-35.8788743
11
60.0468575
21
-48.8709551
0
ARC
8
0
10
47.0087748
20
-35.4077311
40
0.5
50
88
51
178
0
ARC
8
0
10
60.0008555
20
-35.8614246
40
0.5
50
358
51
88
0
ARC
8
0
10
46.5550813
20
-48.3998118
40
0.5
50
178
51
268
0
ARC
8
0
10
59.547162
20
-48.8535053
40
0.5
50
268
51
358
0
LINE
8
0
10
47.6211525
20
-17.8684192
11
60.6132333
21
-18.3221126
0
LINE
8
0
10
47.1325595
20
-31.8598908
11
60.1246403
21
-32.3135842
0
LINE
8
0
10
47.1040073
20
-18.3506648
11
46.6503139
21
-31.3427456
0
LINE
8
0
10
61.0954789
20
-18.8392578
11
60.6417855
21
-31.8313386
0
ARC
8
0
10
47.6037028
20
-18.3681146
40
0.5
50
88
51
178
0
ARC
8
0
10
60.5957835
20
-18.8218081
40
0.5
50
358
51
88
0
ARC
8
0
10
47.1500093
20
-31.3601953
40
0.5
50
178
51
268
0
ARC
8
0
10
60.14209
20
-31.8138888
40
0.5
50
268
51
358
0
LINE
8
0
10
48.2160986
20
-0.8288026
11
61.2081794
21
-1.282496
0
LINE
8
0
10
47.7275056
20
-14.8202742
11
60.7195864
21
-15.2739676
0
LINE
8
0
10
47.6989534
20
-1.3110482
11
47.24526
21
-14.303129
0
LINE
8
0
10
61.690425
20
-1.7996412
11
61.2367316
21
-14.791722
0
ARC
8
0
10
48.1986489
20
-1.328498
40
0.5
50
88
51
178
0
ARC
8
0
10
61.1907296
20
-1.7821915
40
0.5
50
358
51
88
0
ARC
8
0
10
47.7449554
20
-14.3205787
40
0.5
50
178
51
268
0
ARC
8
0
10
60.7370361
20
-14.7742722
40
0.5
50
268
51
358
0
LINE
8
0
10
64.9952342
20
-37.5427381
11
77.987315
21
-37.9964315
0
LINE
8
0
10
64.5066412
20
-51.5342097
11
77.4987219
21
-51.9879031
0
LINE
8
0
10
64.478089
20
-38.0249837
11
64.0243956
21
-51.0170645
0
LINE
8
0
10
78.4695606
20
-38.5135767
11
78.0158671
21
-51.5056575
0
ARC
8
0
10
64.9777845
20
-38.0424335
40
0.5
50
88
51
178
0
ARC
8
0
10
77.9698651
20
-38.496127
40
0.5
50
358
51
88
0
ARC
8
0
10
64.524091
20
-51.0345142
40
0.5
50
178
51
268
0
ARC
8
0
10
77.5161716
20
-51.4882077
40
0.5
50
268
51
358
0
LINE
8
0
10
65.5901622
20
-20.5031216
11
78.582243
21
-20.956815
0
LINE
8
0
10
65.1015692
20
-34.4945932
11
78.09365
21
-34.9482866
0
LINE
8
0
10
65.073017
20
-20.9853672
11
64.6193236
21
-33.977448
0
LINE
8
0
10
79.0644886
20
-21.4739602
11
78.6107952
21
-34.466041
0
ARC
8
0
10
65.5727125
20
-21.002817
40
0.5
50
88
51
178
0
ARC
8
0
10
78.5647932
20
-21.4565105
40
0.5
50
358
51
88
0
ARC
8
0
10
65.119019
20
-33.9948977
40
0.5
50
178
51
268
0
ARC
8
0
10
78.1110997
20
-34.4485912
40
0.5
50
268
51
358
0
LINE
8
0
10
66.1851082
20
-3.463505
11
79.177189
21
-3.9171984
0
LINE
8
0
10
65.6965152
20
-17.4549766
11
78.688596
21
-17.90867
0
LINE
8
0
10
65.667963
20
-3.9457506
11
65.2142696
21
-16.9378314
0
LINE
8
0
10
79.6594346
20
-4.4343436
11
79.2057412
21
-17.4264244
0
ARC
8
0
10
66.1676585
20
-3.9632004
40
0.5
50
88
51
178
0
ARC
8
0
10
79.1597392
20
-4.4168939
40
0.5
50
358
51
88
0
ARC
8
0
10
65.713965
20
-16.9552811
40
0.5
50
178
51
268
0
ARC
8
0
10
78.7060457
20
-17.4089746
40
0.5
50
268
51
358
0
LINE
8
0
10
82.8942459
20
-42.1820943
11
95.8863267
21
-42.6357877
0
LINE
8
0
10
82.4056529
20
-56.1735659
11
95.3977337
21
-56.6272593
0
LINE
8
0
10
82.3771007
20
-42.6643399
11
81.9234073
21
-55.6564207
0
LINE
8
0
10
96.3685723
20
-43.1529329
11
95.9148789
21
-56.1450137
0
ARC
8
0
10
82.8767962
20
-42.6817897
40
0.5
50
88
51
178
0
ARC
8
0
10
95.8688769
20
-43.1354832
40
0.5
50
358
51
88
0
ARC
8
0
10
82.4231027
20
-55.6738704
40
0.5
50
178
51
268
0
ARC
8
0
10
95.4151834
20
-56.1275639
40
0.5
50
268
51
358
0
LINE
8
0
10
83.489192
20
-25.1424777
11
96.4812728
21
-25.5961711
0
LINE
8
0
10
83.000599
20
-39.1339493
11
95.9926798
21
-39.5876427
0
LINE
8
0
10
82.9720468
20
-25.6247233
11
82.5183534
21
-38.6168041
0
LINE
8
0
10
96.9635184
20
-26.1133163
11
96.509825
21
-39.1053971
0
ARC
8
0
10
83.4717423
20
-25.6421731
40
0.5
50
88
51
178
0
ARC
8
0
10
96.463823
20
-26.0958666
40
0.5
50
358
51
88
0
ARC
8
0
10
83.0180488
20
-38.6342538
40
0.5
50
178
51
268
0
ARC
8
0
10
96.0101295
20
-39.0879473
40
0.5
50
268
51
358
0
LINE
8
0
10
84.08412
20
-8.1028612
11
97.0762008
21
-8.5565546
0
LINE
8
0
10
83.5955269
20
-22.0943328
11
96.5876077
21
-22.5480262
0
LINE
8
0
10
83.5669748
20
-8.5851068
11
83.1132814
21
-21.5771876
0
LINE
8
0
10
97.5584464
20
-9.0736998
11
97.1047529
21
-22.0657806
0
ARC
8
0
10
84.0666703
20
-8.6025566
40
0.5
50
88
51
178
0
ARC
8
0
10
97.0587509
20
-9.0562501
40
0.5
50
358
51
88
0
ARC
8
0
10
83.6129768
20
-21.5946373
40
0.5
50
178
51
268
0
ARC
8
0
10
96.6050574
20
-22.0483308
40
0.5
50
268
51
358
0
LINE
8
0
10
82.4730141
20
-67.1582272
11
95.1889329
21
-69.8610792
0
LINE
8
0
10
79.5622505
20
-80.8522936
11
92.2781693
21
-83.5551456
0
LINE
8
0
10
81.8799845
20
-67.5433452
11
79.1771325
21
-80.259264
0
LINE
8
0
10
95.5740509
20
-70.4541088
11
92.8711989
21
-83.1700276
0
ARC
8
0
10
82.3690583
20
-67.647301
40
0.5
50
78
51
168
0
ARC
8
0
10
95.0849771
20
-70.350153
40
0.5
50
348
51
78
0
ARC
8
0
10
79.6662063
20
-80.3632198
40
0.5
50
168
51
258
0
ARC
8
0
10
92.3821251
20
-83.0660718
40
0.5
50
258
51
348
0
LINE
8
0
10
104.2882742
20
-73.0643533
11
115.871359
21
-78.9662298
0
LINE
8
0
10
97.9324072
20
-85.5384446
11
109.515492
21
-91.4403211
0
LINE
8
0
10
103.6157757
20
-73.2828613
11
97.7138992
21
-84.8659461
0
LINE
8
0
10
116.089867
20
-79.6387283
11
110.1879905
21
-91.2218131
0
ARC
8
0
10
104.0612789
20
-73.5098565
40
0.5
50
63
51
153
0
ARC
8
0
10
115.6443638
20
-79.411733
40
0.5
50
333
51
63
0
ARC
8
0
10
98.1594024
20
-85.0929414
40
0.5
50
153
51
243
0
ARC
8
0
10
109.7424873
20
-90.9948179
40
0.5
50
243
51
333
0
LINE
8
0
10
1.5099845
20
-24.8672243
11
14.349933
21
-22.8335763
0
LINE
8
0
10
3.700067
20
-38.6948611
11
16.5400155
21
-36.6612131
0
LINE
8
0
10
1.0943576
20
-25.4392857
11
3.1280056
21
-38.2792342
0
LINE
8
0
10
14.9219944
20
-23.2492032
11
16.9556424
21
-36.0891517
0
ARC
8
0
10
1.5882018
20
-25.3610685
40
0.5
50
99
51
189
0
ARC
8
0
10
14.4281502
20
-23.3274204
40
0.5
50
9
51
99
0
ARC
8
0
10
3.6218498
20
-38.2010169
40
0.5
50
189
51
279
0
ARC
8
0
10
16.4617982
20
-36.1673689
40
0.5
50
279
51
9
0
LINE
8
0
10
4.1767637
20
-41.7073047
11
17.0167122
21
-39.6736567
0
LINE
8
0
10
6.3668462
20
-55.5349415
11
19.2067947
21
-53.5012935
0
LINE
8
0
10
3.7611368
20
-42.2793661
11
5.7947848
21
-55.1193146
0
LINE
8
0
10
17.5887736
20
-40.0892836
11
19.6224216
21
-52.9292321
0
ARC
8
0
10
4.254981
20
-42.2011489
40
0.5
50
99
51
189
0
ARC
8
0
10
17.0949294
20
-40.1675009
40
0.5
50
9
51
99
0
ARC
8
0
10
6.288629
20
-55.0410973
40
0.5
50
189
51
279
0
ARC
8
0
10
19.1285774
20
-53.0074493
40
0.5
50
279
51
9
0
LINE
8
0
10
6.8435249
20
-58.5473851
11
19.6834734
21
-56.5137371
0
LINE
8
0
10
9.0336074
20
-72.3750219
11
21.8735559
21
-70.3413739
0
LINE
8
0
10
6.427898
20
-59.1194465
11
8.461546
21
-71.959395
0
LINE
8
0
10
20.2555348
20
-56.929364
11
22.2891828
21
-69.7693125
0
ARC
8
0
10
6.9217422
20
-59.0412293
40
0.5
50
99
51
189
0
ARC
8
0
10
19.7616906
20
-57.0075813
40
0.5
50
9
51
99
0
ARC
8
0
10
8.9553902
20
-71.8811777
40
0.5
50
189
51
279
0
ARC
8
0
10
21.7953386
20
-69.8475297
40
0.5
50
279
51
9
0
LINE
8
0
10
25.0707681
20
-7.4742528
11
38.0529521
21
-6.7938853
0
LINE
8
0
10
25.8034715
20
-21.4550663
11
38.7856555
21
-20.7746988
0
LINE
8
0
10
24.5976213
20
-7.9997355
11
25.2779888
21
-20.9819195
0
LINE
8
0
10
38.5784348
20
-7.2670321
11
39.2588023
21
-20.2492161
0
ARC
8
0
10
25.0969361
20
-7.9735675
40
0.5
50
93
51
183
0
ARC
8
0
10
38.0791201
20
-7.2932001
40
0.5
50
3
51
93
0
ARC
8
0
10
25.7773035
20
-20.9557515
40
0.5
50
183
51
273
0
ARC
8
0
10
38.7594875
20
-20.2753841
40
0.5
50
273
51
3
0
LINE
8
0
10
25.9629435
20
-24.5008943
11
38.9451275
21
-23.8205268
0
LINE
8
0
10
26.6956469
20
-38.4817078
11
39.6778309
21
-37.8013403
0
LINE
8
0
10
25.4897967
20
-25.026377
11
26.1701642
21
-38.008561
0
LINE
8
0
10
39.4706102
20
-24.2936736
11
40.1509777
21
-37.2758576
0
ARC
8
0
10
25.9891115
20
-25.000209
40
0.5
50
93
51
183
0
ARC
8
0
10
38.9712955
20
-24.3198416
40
0.5
50
3
51
93
0
ARC
8
0
10
26.6694789
20
-37.982393
40
0.5
50
183
51
273
0
ARC
8
0
10
39.6516629
20
-37.3020256
40
0.5
50
273
51
3
0
LINE
8
0
10
26.855137
20
-41.5275187
11
39.837321
21
-40.8471512
0
LINE
8
0
10
27.5878404
20
-55.5083322
11
40.5700244
21
-54.8279647
0
LINE
8
0
10
26.3819902
20
-42.0530014
11
27.0623577
21
-55.0351854
0
LINE
8
0
10
40.3628037
20
-41.320298
11
41.0431712
21
-54.302482
0
ARC
8
0
10
26.881305
20
-42.0268334
40
0.5
50
93
51
183
0
ARC
8
0
10
39.863489
20
-41.346466
40
0.5
50
3
51
93
0
ARC
8
0
10
27.5616724
20
-55.0090174
40
0.5
50
183
51
273
0
ARC
8
0
10
40.5438564
20
-54.32865
40
0.5
50
273
51
3
0
LINE
8
0
10
59.9672663
20
-67.0636618
11
72.9494503
21
-66.3832943
0
LINE
8
0
10
60.6999697
20
-81.0444753
11
73.6821537
21
-80.3641078
0
LINE
8
0
10
59.4941195
20
-67.5891445
11
60.174487
21
-80.5713285
0
LINE
8
0
10
73.474933
20
-66.8564411
11
74.1553005
21
-79.8386251
0
ARC
8
0
10
59.9934343
20
-67.5629765
40
0.5
50
93
51
183
0
ARC
8
0
10
72.9756183
20
-66.8826091
40
0.5
50
3
51
93
0
ARC
8
0
10
60.6738017
20
-80.5451605
40
0.5
50
183
51
273
0
ARC
8
0
10
73.6559857
20
-79.8647931
40
0.5
50
273
51
3
0
LINE
8
0
10
0
20
-90.3037223
11
115.9268831
21
-90.3037223
0
LINE
8
0
10
0
20
0
11
115.9268831
21
0
0
LINE
8
0
10
0
20
-90.3037223
11
0
21
0
0
LINE
8
0
10
115.9268831
20
-90.3037223
11
115.9268831
21
0
0
ENDSEC
0
EOF